<?xml version="1.0" encoding="UTF-8" standalone="no"?>
<!-- Created with Inkscape (http://www.inkscape.org/) -->
<svg xmlns:dc="http://purl.org/dc/elements/1.1/" xmlns:cc="http://creativecommons.org/ns#" xmlns:rdf="http://www.w3.org/1999/02/22-rdf-syntax-ns#" xmlns:svg="http://www.w3.org/2000/svg" xmlns="http://www.w3.org/2000/svg" xmlns:sodipodi="http://sodipodi.sourceforge.net/DTD/sodipodi-0.dtd" xmlns:inkscape="http://www.inkscape.org/namespaces/inkscape" height="56.242912" width="129.00903" viewBox="0 0 129.00903 56.242912" preserveAspectRatio="none" id="svg2" version="1.1" inkscape:version="0.92.3 (unknown)" sodipodi:docname="anolis_carolinensis.svg">
  <defs id="defs4"/>
  <sodipodi:namedview id="base" pagecolor="#ffffff" bordercolor="#666666" borderopacity="1.0" inkscape:pageopacity="0.0" inkscape:pageshadow="2" inkscape:zoom="7.919596" inkscape:cx="39.525003" inkscape:cy="21.76259" inkscape:document-units="px" inkscape:current-layer="LAYER_EFO" showgrid="false" showguides="true" inkscape:guide-bbox="true" inkscape:window-width="3375" inkscape:window-height="1416" inkscape:window-x="65" inkscape:window-y="24" inkscape:window-maximized="1" fit-margin-top="0" fit-margin-left="0" fit-margin-right="0" fit-margin-bottom="0"/>
  <metadata id="metadata">
    <rdf:RDF>
      <cc:Work rdf:about="">
        <dc:format>image/svg+xml</dc:format>
        <dc:type rdf:resource="http://purl.org/dc/dcmitype/StillImage"/>
        <dc:title/>
      </cc:Work>
    </rdf:RDF>
  </metadata>
  <g inkscape:groupmode="layer" id="container" inkscape:label="EFO" groupmode="layer" label="EFO">
    <g id="outline" style="fill:#56fafa;fill-opacity:1">
      <path id="path830" d="m 107.80736,56.1323 c 0,-0.22488 0.56896,-0.76459 2.18058,-2.06847 4.98365,-4.82506 10.18537,-10.0919 14.02027,-15.67306 2.19411,-3.45843 3.12836,-6.70032 2.10402,-10.541011 -0.95285,-3.725598 -3.10975,-5.909584 -8.45031,-8.064458 -4.9477,-1.99635 -7.66682,-2.699776 -11.76075,-3.042449 -2.22777,-0.18647 -7.144575,-0.300322 -9.790604,-0.22671 -3.020913,0.08404 -6.935313,2.712375 -9.757554,6.55173 -1.203578,1.637338 -3.684723,4.237005 -3.910601,4.097406 -0.07264,-0.0449 0.134686,-0.317153 0.460733,-0.605012 0.326046,-0.287862 0.802555,-0.74534 1.05891,-1.016622 0.514007,-0.543936 2.350781,-2.927166 2.769614,-3.593596 0.577151,-0.918343 2.359254,-2.557946 4.711238,-4.334523 3.084603,-2.329962 3.676208,-2.91043 4.031459,-3.955563 0.149486,-0.43978 0.322075,-0.799599 0.383534,-0.799599 0.152572,0 0.140979,0.104961 -0.09894,0.895773 -0.288335,0.950391 -0.662881,1.509407 -1.561724,2.330897 l -0.773271,0.706727 0.74437,-0.238027 c 0.639635,-0.204537 1.392863,-0.486996 5.570704,-0.486058 4.936972,0.0011 8.051962,0.425402 10.111742,0.822294 3.73133,0.718976 9.80176,3.064421 12.44633,4.808907 1.95481,1.2895 3.46466,3.377895 4.10548,5.678655 0.39171,1.406367 0.67796,4.442429 0.45285,4.802909 -0.16205,1.50873 -0.60886,2.82238 -1.14561,4.00107 -0.53492,1.15359 -2.05551,3.48629 -3.58269,5.49609 -0.72094,0.94876 -3.20305,3.92854 -3.46298,4.15729 -0.044,0.03876 -1.13226,1.21196 -2.41829,2.60712 -2.4251,2.63089 -5.53418,5.70748 -5.76775,5.70748 -0.0738,0 -0.1341,0.06859 -0.1341,0.15242 0,0.51737 6.05573,-4.03332 7.90299,-5.93884 2.30802,-2.38083 5.2419,-5.71889 6.43336,-7.31964 2.94058,-4.25091 5.27068,-8.67199 3.01914,-15.439294 -4.0061,-7.752812 -14.42672,-10.849053 -20.28286,-12.591886 -6.3424,-1.865386 -11.392222,-4.0480678 -14.617827,-5.5840298 -4.058922,-1.932771 -6.460821,-2.466859 -12.965132,-2.882939 -5.815404,-0.372011 -7.728945,-0.448494 -9.23061,-0.368942 -0.891353,0.04722 -3.935341,0.218295 -6.764417,0.380165 -8.998779,0.514881 -14.47073,0.239057 -19.024923,-0.958987 -4.210309,-1.10758 -4.554029,-1.1658 -7.750894,-1.312855 C 33.107771,2.1047302 32.476068,1.9995242 30.411348,1.1788842 27.442261,-0.00120078 27.01389,-0.01776478 24.238637,0.94018622 L 22.19522,1.6455262 20.017286,1.6849752 c -1.197864,0.021699 -2.402776,0.112163 -2.677581,0.201032 -1.352176,0.43728 -2.681821,1.329081 -4.375095,2.934402 -0.906167,0.8591 -1.991172,1.706794 -5.0028499,3.908637 C 5.6977041,10.3843 5.0452367,10.811149 3.1880445,11.85204 c -2.0568624,1.152801 -2.75264195,1.743133 -2.84941825,2.417576 -0.1496261,1.042755 0.6451929,1.683421 2.53769505,2.045516 4.9374122,0.944683 8.9218817,1.001435 13.8008607,0.196574 1.102993,-0.181954 2.210759,-0.278367 2.835782,-0.246804 0.954931,0.04822 1.184945,0.131062 3.333695,1.200653 1.269396,0.631871 2.836149,1.313309 3.481673,1.514306 1.246499,0.388124 3.409599,0.784336 4.287177,0.785277 0.507718,5.64e-4 0.528471,-0.01835 0.528471,-0.481146 0,-0.544887 0.116963,-0.927541 0.283517,-0.927541 0.06184,0 0.07967,0.24433 0.03961,0.542953 -0.120721,0.900048 0.46565,1.910327 2.229628,3.841499 0.184917,0.202442 0.399628,0.462401 0.477137,0.577685 0.07751,0.115284 0.458007,0.605443 0.845552,1.089243 0.387544,0.4838 0.720011,0.921421 0.738816,0.972493 0.09212,0.250201 -0.967224,0.726719 -1.936682,0.871166 -3.801949,0.566479 -3.870868,0.582317 -5.214238,1.198263 -1.996333,0.915334 -3.535315,1.306571 -7.680431,1.952507 -1.184316,0.18455 -1.214542,0.19721 -0.456318,0.19113 0.446605,-0.0036 0.850792,0.03228 0.898192,0.07968 0.221268,0.22126 -0.141158,0.48211 -1.094078,0.78742 -1.044783,0.33474 -2.347519,0.93894 -2.870709,1.33141 -0.596713,0.44762 -0.01223,0.4005 1.328068,-0.10709 1.383419,-0.52391 3.736557,-1.06648 4.629295,-1.06738 0.675441,-7.1e-4 0.818985,0.46945 0.464198,1.52037 -0.148875,0.44098 -0.248437,0.82403 -0.221251,0.85122 0.02719,0.02718 0.564213,-0.43199 1.193391,-1.02039 0.65687,-0.6143 1.276438,-1.07666 1.455093,-1.08589 0.555218,-0.02867 0.986086,-0.10023 2.847789,-0.47297 1.007616,-0.20173 2.8784,-0.45554 4.157298,-0.56401 1.278897,-0.10848 2.64235,-0.26627 3.029895,-0.35066 1.667376,-0.363088 3.909304,-1.458454 4.63964,-2.266848 0.482648,-0.534234 0.529896,-0.653852 0.469593,-1.188862 -0.0645,-0.572271 -0.673609,-1.934954 -1.217739,-2.724305 -1.643143,-2.383657 -3.652854,-6.140074 -3.376397,-6.310934 0.06804,-0.04205 0.356835,0.414463 0.641776,1.01447 0.284943,0.600007 0.543732,1.013954 0.57509,0.919882 0.0368,-0.110405 0.114601,-0.12425 0.219465,-0.03905 0.270903,0.220098 3.266378,1.000533 4.935113,1.285784 2.937183,0.502077 5.494279,0.604232 13.180628,0.526568 9.226124,-0.09322 11.583306,-0.246077 16.78481,-1.088428 1.356406,-0.219662 3.544272,-0.532711 4.861924,-0.695664 1.317652,-0.162954 2.998187,-0.445908 3.734522,-0.628785 1.263908,-0.313909 1.576378,-0.344474 1.365478,-0.133574 -0.177414,0.177413 -3.159834,0.76444 -5.311156,1.045392 -1.201516,0.15691 -3.262653,0.472001 -4.580305,0.7002 -5.331967,0.923425 -9.573016,1.196824 -18.179371,1.171935 -8.698081,-0.02515 -11.761883,-0.333604 -15.854102,-1.596118 -0.503808,-0.155432 -0.964866,-0.283089 -1.024572,-0.283681 -0.188414,-0.0019 0.39644,1.009161 1.757281,3.037793 1.570525,2.341208 1.835777,2.867811 1.912066,3.79601 0.075,0.912594 -0.292434,1.480204 -1.471151,2.272588 -1.693053,1.138139 -4.369009,1.879449 -6.810638,1.886729 -1.188668,0.0035 -3.261601,0.26824 -5.566551,0.71081 -0.852598,0.16371 -1.677154,0.32123 -1.832345,0.35004 -0.155191,0.0288 -0.741387,0.49903 -1.302659,1.04493 -0.56127,0.54591 -1.118012,0.99256 -1.237203,0.99256 -0.344019,0 -0.401632,-0.38468 -0.154521,-1.03174 0.281028,-0.73586 0.291945,-1.20757 0.03027,-1.30798 -0.345383,-0.13254 -3.214662,0.52258 -4.240918,0.96829 -1.24595,0.54113 -1.851364,0.67926 -2.273548,0.51875 -0.738049,-0.28061 -0.169187,-0.99136 1.384015,-1.72923 l 0.95773,-0.45498 -0.809188,0.0035 c -0.728068,0.0031 -0.813615,-0.02764 -0.853363,-0.30705 -0.03784,-0.26599 0.06325,-0.34105 0.704626,-0.52319 0.411842,-0.11695 1.478092,-0.311255 2.369445,-0.431786 3.92364,-0.530563 5.847338,-0.994751 7.868764,-1.898735 1.187638,-0.531114 2.407776,-0.795807 4.88498,-1.059731 1.081368,-0.11521 1.715917,-0.315709 1.814813,-0.573428 0.04808,-0.125291 -0.313299,-0.625897 -0.938785,-1.30047 -1.597225,-1.722574 -2.251406,-2.5294 -2.720673,-3.355507 l -0.435391,-0.766471 -0.9034,0.70417 c -3.148466,2.454127 -5.729106,3.476052 -9.147532,3.622395 -1.569575,0.06719 -1.846043,0.04275 -2.536657,-0.224312 -1.275629,-0.49328 -2.213964,-1.527001 -3.530016,-3.888861 -0.461269,-0.827816 -0.838669,-1.540807 -0.838669,-1.584425 0,-0.04362 -0.158541,-0.287164 -0.352314,-0.541212 -0.402786,-0.528082 -0.427367,-0.621638 -0.163322,-0.621638 0.103945,0 0.366786,0.332936 0.58409,0.739858 1.627629,3.047876 2.932686,4.761692 4.077354,5.354422 1.666799,0.863102 5.913471,0.241958 9.005624,-1.317219 1.182219,-0.596117 3.221041,-2.085728 3.107086,-2.27011 -0.0378,-0.06117 -0.321334,-0.11122 -0.630063,-0.11122 -1.654026,0 -4.401743,-0.855066 -7.159032,-2.227831 -2.674246,-1.33142 -3.043558,-1.377857 -6.355543,-0.799137 -1.806367,0.315636 -2.745212,0.39334 -5.425625,0.449057 C 7.8601064,17.39235 7.5178974,17.372478 4.7657338,16.971288 2.9886811,16.712243 1.6016585,16.435939 1.2111262,16.263187 0.39211165,15.900899 7.1125441e-4,15.28374 2.3544069e-6,14.353489 -4.2044559e-4,13.732675 0.05562845,13.608858 0.55078655,13.137825 0.85400715,12.849378 1.4723172,12.405508 1.9248088,12.151448 4.1575475,10.897832 5.9335596,9.7721642 7.5688095,8.5741822 c 0.3264409,-0.239151 1.0426304,-0.751901 1.5915344,-1.139445 1.4489751,-1.023027 2.6171361,-1.951804 3.5571941,-2.82824 1.305318,-1.216976 2.805718,-2.285951 3.78464,-2.696405 0.818958,-0.343381 1.121126,-0.385625 3.297311,-0.460976 l 2.395731,-0.082952 2.184343,-0.72670198 c 1.022209,-0.270659 2.187614,-0.946361 3.906673,-0.479054 0.172191,0.009175 1.022966,0.30559 1.89061,0.658709 2.402282,0.97769998 2.772981,1.04442498 6.604148,1.18874798 3.65156,0.137556 4.486133,0.261222 7.510926,1.112969 1.867085,0.52575 2.569231,0.65524 5.485591,1.011653 4.326871,0.528794 6.075609,0.519476 17.795672,-0.094818 3.462199,-0.181467 4.674337,-0.192174 6.693954,-0.059128 1.356406,0.089357 3.607689,0.217204 5.00285,0.284106 6.070148,0.291081 9.251126,0.914752 12.859438,2.521253 3.361405,1.496573 4.109769,1.809559 7.01104,2.932203 5.612445,2.5011088 12.056325,3.5589088 17.643635,5.9671578 4.7213,2.094372 8.79382,4.977207 11.10417,9.387277 0.72361,1.506103 1.00002,3.456978 1.10356,5.347092 0.20127,3.67453 -1.38519,6.8737 -3.64833,10.27549 -1.50053,2.2555 -6.04485,7.38753 -8.30553,9.37967 -1.44402,1.27249 -4.85282,3.73303 -6.7909,4.90181 -2.09551,1.26373 -2.43971,1.42705 -2.43971,1.1577 z" style="fill:#56fafa;fill-opacity:1;stroke:#000000;stroke-width:0.21602426;stroke-miterlimit:4;stroke-dasharray:none;stroke-opacity:1" inkscape:connector-curvature="0"/>
      <path id="path828" d="m 89.221537,36.78091 c -0.159874,-0.33026 -0.414613,-1.20223 -0.566087,-1.93772 -0.328889,-1.59695 -0.488075,-2.04783 -0.759822,-2.15211 -0.243621,-0.09349 -0.784489,0.2219 -1.968641,1.14793 -1.418184,1.10906 -2.587278,1.57499 -2.856967,1.13862 -0.229364,-0.37112 0.141901,-0.88385 1.310861,-1.81036 1.6588,-1.31475 1.863123,-1.67535 1.265978,-2.23426 -0.396068,-0.37071 -1.058226,-0.59451 -3.597027,-1.21574 -2.529642,-0.618992 -3.099298,-0.917217 -3.472608,-1.817977 -0.253753,-0.612278 -0.264383,-0.776086 -0.116297,-1.792102 0.239255,-1.641524 1.070177,-3.492057 2.21466,-4.932233 0.153988,-0.193772 1.105634,-1.180658 2.114771,-2.19308 1.707545,-1.713107 3.659013,-3.287329 3.844796,-3.101546 0.04421,0.04421 0.05397,0.100487 0.02167,0.125052 -0.828459,0.630155 -3.943783,3.341134 -4.558353,3.966716 -2.033361,2.069793 -3.190954,4.230859 -3.409637,6.365316 -0.112183,1.094979 0.180234,1.88461 0.851557,2.299511 0.24025,0.148484 1.592103,0.552907 3.004119,0.898723 2.722642,0.66679 3.381808,0.94239 3.667507,1.53342 0.333459,0.68983 -0.04032,1.2253 -1.758758,2.51958 -0.825579,0.6218 -1.184046,1.11514 -0.81028,1.11514 0.333861,0 0.692242,-0.21472 2.268774,-1.35931 1.575523,-1.14386 2.130868,-1.30354 2.501852,-0.71934 0.110746,0.1744 0.368909,1.07344 0.573696,1.99787 0.343121,1.54887 0.695871,2.47651 0.941736,2.47651 0.308263,0 0.249841,-0.95236 -0.15043,-2.45221 -0.237851,-0.89126 -0.431593,-1.92488 -0.430534,-2.29694 0.0046,-1.60512 0.257091,-1.74616 3.37136,-1.88298 2.285185,-0.10039 2.89453,-0.19156 2.757909,-0.41261 -0.08285,-0.13405 -1.383071,-0.36803 -3.151531,-0.56712 -2.465552,-0.182224 -2.547216,-0.632635 -3.578595,-0.83828 -1.459688,-0.285409 -3.364146,-0.953391 -4.298223,-1.507585 -0.484431,-0.287417 -0.880783,-0.579616 -0.880783,-0.64933 0,-0.146957 -0.04564,-0.164795 1.079773,0.421984 3.021084,1.44183 3.828471,1.125792 5.511673,1.909423 0.33248,0.186203 0.960466,0.29244 3.963203,0.660908 1.198149,0.14703 1.564931,0.30164 1.564931,0.65968 0,0.34513 -0.706832,0.48628 -2.996031,0.59832 -1.922633,0.09409 -2.281577,0.14868 -2.611172,0.39711 -0.353645,0.26655 -0.381066,0.3602 -0.367919,1.25656 0.0088,0.59812 0.156992,1.4513 0.387544,2.23079 0.549447,1.85764 0.467024,2.75413 -0.253211,2.75413 -0.254567,0 -0.404434,-0.14387 -0.625464,-0.60046 z" style="fill:#56fafa;fill-opacity:1;stroke:#000000;stroke-width:0.21602426;stroke-miterlimit:4;stroke-dasharray:none;stroke-opacity:1" inkscape:connector-curvature="0"/>
      <path id="path826" d="m 20.943814,9.2694002 c 0.211612,-0.462224 0.335827,-0.957458 0.309285,-1.233097 l -0.04436,-0.460641 -0.28185,0.561841 c -0.386626,0.770701 -1.067618,1.199726 -1.904327,1.199726 -0.748854,0 -1.407419,-0.401017 -1.407419,-0.857012 0,-0.246659 0.07188,-0.264404 0.748741,-0.184853 0.600824,0.070615 0.862687,0.029869 1.325519,-0.20625 0.585077,-0.298484 1.344861,-1.114803 1.222249,-1.313195 -0.03688,-0.059676 -0.314778,-0.182721 -0.617545,-0.273433 -0.779264,-0.233472 -1.275273,0.00719 -1.819607,0.882831 -0.34366,0.552835 -0.504804,0.693484 -0.753915,0.658035 -0.266303,-0.037896 -0.310746,-0.120918 -0.278679,-0.520585 0.07856,-0.979146 0.906822,-1.567746 2.206091,-1.567746 0.311071,0 0.485399,-0.056693 0.43334,-0.140926 -0.148718,-0.240628 0.155281,-0.15516 0.548628,0.154247 0.980424,0.771202 1.216786,2.446025 0.500052,3.543299 -0.501266,0.7674088 -0.593504,0.6474138 -0.186206,-0.242241 z" style="fill:#56fafa;fill-opacity:1;stroke:#000000;stroke-width:0.21602426;stroke-miterlimit:4;stroke-dasharray:none;stroke-opacity:1" inkscape:connector-curvature="0"/>
      <path id="path824" d="m 20.041086,8.5412052 c 0.296229,-0.205287 0.506129,-0.405717 0.466446,-0.4454 -0.03968,-0.039683 -0.183519,0.027337 -0.319635,0.148931 -0.136115,0.121596 -0.46944,0.316853 -0.740722,0.433904 -0.3369,0.145364 -0.406303,0.216465 -0.218962,0.224318 0.150852,0.00633 0.516645,-0.156467 0.812873,-0.361753 z" style="fill:#56fafa;fill-opacity:1;stroke:#000000;stroke-width:0.21602426;stroke-miterlimit:4;stroke-dasharray:none;stroke-opacity:1" inkscape:connector-curvature="0"/>
      <path id="path822" d="m 18.320208,6.9062672 c 0.207477,-0.283415 0.241508,-0.381845 0.08927,-0.258209 -0.231087,0.18767 -0.5805,0.716216 -0.47348,0.716216 0.02691,0 0.1998,-0.206103 0.384209,-0.458007 z" style="fill:#56fafa;fill-opacity:1;stroke:#000000;stroke-width:0.21602426;stroke-miterlimit:4;stroke-dasharray:none;stroke-opacity:1" inkscape:connector-curvature="0"/>
      <path id="path4142" d="m 15.642191,8.2353532 c 0,-0.477363 0.403975,-1.261958 0.87899,-1.707159 0.25289,-0.23702 0.501732,-0.431238 0.552981,-0.431596 0.05125,-4.22e-4 -0.186561,0.416518 -0.52847,0.926392 -0.341908,0.509873 -0.62165,1.013461 -0.62165,1.119085 0,0.105623 -0.06342,0.231236 -0.140926,0.279139 -0.07751,0.047904 -0.140925,-0.035734 -0.140925,-0.185861 z" style="fill:#56fafa;fill-opacity:1;stroke:#000000;stroke-width:0.21602426;stroke-miterlimit:4;stroke-dasharray:none;stroke-opacity:1" inkscape:connector-curvature="0"/>
    </g>
    <path style="fill:#56fafa;fill-opacity:1;stroke:#000000;stroke-width:0.21602426;stroke-miterlimit:4;stroke-dasharray:none;stroke-opacity:1" d="M 21.00318,4.6029388 C 21.439429,2.6654588 22.925004,3.0705588 22.925004,3.0705588 23.581375,3.1423588 24.443078,2.7703488 24.857261,2.8505988 25.459799,2.8921988 25.970591,3.5327388 25.970591,3.5327388 26.240708,4.0054088 26.72722,3.5337388 26.72722,3.5337388 28.799679,2.0117588 30.027326,3.9630288 30.027326,3.9630288 30.42385,4.7975488 30.335567,5.3464088 30.335567,5.3464088 30.228986,6.5990888 29.427722,6.9418388 29.427722,6.9418388 28.495122,7.1627188 27.982606,6.5463888 27.982606,6.5463888 26.069409,7.2216888 25.125778,7.0052988 25.125778,7.0052988 23.519015,6.8944488 22.850668,6.3439888 22.850668,6.3439888 22.871438,6.0427088 23.628065,6.0444088 23.628065,6.0444088 22.275867,5.5234388 20.925738,5.0383188 21.00318,4.6022288 Z" id="brain" inkscape:connector-curvature="0" sodipodi:nodetypes="ccccccccccccc" inkscape:label="UBERON_0000955" connector-curvature="0" nodetypes="ccccccccccccc" label="UBERON_0000955" ontology="UBERON_0000955"/>
    <path style="fill:#56fafa;fill-opacity:1;stroke:#000000;stroke-width:0.21602426;stroke-miterlimit:4;stroke-dasharray:none;stroke-opacity:1" d="M 38.027455,14.263308 C 35.379494,15.057678 37.056536,16.911258 37.056536,16.911258 L 37.056536,16.911258 37.409598,17.176038 C 40.896083,18.323508 42.793789,17.838058 42.793789,17.838058 43.676443,17.484988 43.764709,16.646458 43.764709,16.646458 43.588179,15.807938 38.027455,14.263308 38.027455,14.263308 Z" id="heart" inkscape:connector-curvature="0" inkscape:label="UBERON_0000948" connector-curvature="0" label="UBERON_0000948" ontology="UBERON_0000948"/>
    <path style="fill:#56fafa;fill-opacity:1;stroke:#000000;stroke-width:0.21602426;stroke-miterlimit:4;stroke-dasharray:none;stroke-opacity:1" d="M 96.39603,10.293518 C 96.39603,10.293518 92.01598,7.7457388 85.947678,6.7933988 85.947678,6.7933988 84.142809,6.8283988 83.816149,8.0300888 83.414364,9.2297884 85.27567,10.061698 85.27567,10.061698 85.979543,10.536028 95.626093,11.136618 95.626093,11.136618 96.57614,11.122818 96.73179,10.521748 96.39603,10.293518 Z" id="kidney" inkscape:connector-curvature="0" sodipodi:nodetypes="cccccc" inkscape:label="UBERON_0002113" connector-curvature="0" nodetypes="cccccc" label="UBERON_0002113" ontology="UBERON_0002113"/>
    <g id="skeletal.muscle.organ" inkscape:label="UBERON_0014892" style="fill:#56fafa;fill-opacity:1;stroke:#000000;stroke-width:0.21602426;stroke-miterlimit:4;stroke-dasharray:none;stroke-opacity:1" transform="matrix(0.14092535,0,0,0.14092535,0.61228801,-27.666613)" label="UBERON_0014892" ontology="UBERON_0014892">
      <path sodipodi:nodetypes="ccccc" inkscape:connector-curvature="0" id="path4656" d="M 623.94776,306.11939 C 557.2777,351.07118 563.33861,382.3859 563.33861,382.3859 566.62161,374.55722 576.21806,358.89986 576.21806,358.89986 588.84497,338.44427 625.21046,311.42269 625.21046,311.42269 626.85196,310.15999 623.94776,306.11939 623.94776,306.11939 Z" style="fill:#56fafa;fill-opacity:1;stroke:#000000;stroke-width:0.21602426;stroke-miterlimit:4;stroke-dasharray:none;stroke-opacity:1"/>
      <path sodipodi:nodetypes="cccccccc" inkscape:connector-curvature="0" id="path4658" d="M 627.63649,305.79288 C 633.19233,304.78273 654.17838,305.2878 654.17838,305.2878 647.48612,306.9293 645.09969,308.7927 645.09969,308.7927 618.3359,333.45478 571.25921,382.34257 571.25921,382.34257 569.74398,384.61541 567.05272,389.63554 567.05272,389.63554 565.03241,382.81701 567.72367,380.32226 567.72367,380.32226 583.75985,342.44154 628.79458,313.25173 628.79458,313.25173 630.3098,310.34754 627.63649,305.79288 627.63649,305.79288 Z" style="fill:#56fafa;fill-opacity:1;stroke:#000000;stroke-width:0.21602426;stroke-miterlimit:4;stroke-dasharray:none;stroke-opacity:1"/>
      <path sodipodi:nodetypes="ccccccc" inkscape:connector-curvature="0" id="path4691" d="M 658.57143,306.23734 C 658.57143,306.23734 648.75,307.84448 645.71429,311.23734 602.7801,356.38464 575.71429,380.8802 575.71429,380.8802 587.5,381.23734 595.71429,374.6302 595.71429,374.6302 613.21429,353.73734 622.67857,341.41591 622.67857,341.41591 627.85714,333.73734 654.10714,314.09448 654.10714,314.09448 657.5,311.05877 658.57143,306.23734 658.57143,306.23734 Z" style="fill:#56fafa;fill-opacity:1;stroke:#000000;stroke-width:0.21602426;stroke-miterlimit:4;stroke-dasharray:none;stroke-opacity:1"/>
    </g>
  </g>
</svg>
