<?xml version="1.0" encoding="UTF-8" standalone="no"?>
<!-- Created with Inkscape (http://www.inkscape.org/) -->
<svg xmlns:dc="http://purl.org/dc/elements/1.1/" xmlns:cc="http://creativecommons.org/ns#" xmlns:rdf="http://www.w3.org/1999/02/22-rdf-syntax-ns#" xmlns:svg="http://www.w3.org/2000/svg" xmlns="http://www.w3.org/2000/svg" xmlns:sodipodi="http://sodipodi.sourceforge.net/DTD/sodipodi-0.dtd" xmlns:inkscape="http://www.inkscape.org/namespaces/inkscape" width="108.98891" height="60.884159" viewBox="0 0 108.98891 60.884159" preserveAspectRatio="none" id="svg2" version="1.1" inkscape:version="0.92.3 (unknown)" sodipodi:docname="bos_taurus.svg">
  <defs id="defs4"/>
  <sodipodi:namedview id="base" pagecolor="#ffffff" bordercolor="#666666" borderopacity="1.0" inkscape:pageopacity="0.0" inkscape:pageshadow="2" inkscape:zoom="5.6" inkscape:cx="-22.825758" inkscape:cy="46.162841" inkscape:document-units="px" inkscape:current-layer="LAYER_EFO" showgrid="false" inkscape:window-width="3375" inkscape:window-height="1416" inkscape:window-x="65" inkscape:window-y="24" inkscape:window-maximized="1" showguides="true" inkscape:guide-bbox="true" fit-margin-top="0" fit-margin-left="0" fit-margin-right="0" fit-margin-bottom="0"/>
  <metadata id="metadata">
    <rdf:RDF>
      <cc:Work rdf:about="">
        <dc:format>image/svg+xml</dc:format>
        <dc:type rdf:resource="http://purl.org/dc/dcmitype/StillImage"/>
        <dc:title/>
      </cc:Work>
    </rdf:RDF>
  </metadata>
  <g transform="matrix(0.88194703,0,0,0.88194703,0,-11.115842)" inkscape:label="EFO" id="container" inkscape:groupmode="layer" label="EFO" groupmode="layer">
    <g id="cow_outline" style="fill:#7dfafa;fill-opacity:1" ontology="NULL">
      <path id="path855" d="m 85.283733,81.363351 c -2.668228,-0.7061 -2.945037,-0.9542 -3.095929,-2.7742 -0.100896,-1.2171 -0.105771,-1.229 -0.646709,-1.5787 -0.368253,-0.238 -0.545045,-0.4601 -0.545045,-0.6847 0,-0.1828 -0.158584,-0.491 -0.352407,-0.6848 -0.516937,-0.5169 -1.218014,-1.9913 -1.476128,-3.1042 -0.469711,-2.0254 -0.260235,-5.5376 0.469112,-7.8656 0.225372,-0.7192 0.225319,-0.9888 -5.86e-4,-3.9969 -0.423232,-5.6314 -1.335425,-8.7797 -3.326275,-11.48 -0.724361,-0.9825 -0.849326,-1.588 -0.156236,-0.757 1.373048,1.6462 2.414007,3.8573 3.079165,6.5405 0.398243,1.6065 0.551796,2.7908 0.892844,6.8866 0.304005,3.6508 0.526846,4.9654 1.285253,7.5818 0.858994,2.9634 0.896938,3.7634 0.271245,5.7193 -0.312388,0.9765 -0.313574,1.0064 -0.04622,1.1628 0.87961,0.5149 0.978597,0.6964 1.064582,1.9508 0.111493,1.6267 0.260117,1.7954 2.078987,2.3605 0.791175,0.2458 1.63422,0.4263 1.873434,0.401 l 0.434904,-0.0454 -0.723363,-1.2354 c -0.800454,-1.3672 -1.251273,-2.6496 -1.737071,-4.9418 -0.374122,-1.7652 -0.413216,-3.4137 -0.163659,-6.9014 0.09142,-1.2776 0.166397,-4.1228 0.166624,-6.3225 5.84e-4,-7.0358 0.292785,-8.1228 2.887167,-10.7463 1.042127,-1.0538 2.222074,-1.8055 3.325934,-2.1187 0.387264,-0.1099 0.456514,0.1846 0.07264,0.309 -1.218763,0.3951 -2.117619,1.0106 -3.32692,2.278 -2.46462,2.5831 -2.488488,2.695 -2.687431,12.601 -0.178519,8.8889 -0.181248,8.7323 0.183891,10.5376 0.528703,2.6138 1.074568,4.0734 2.0729,5.5426 0.42853,0.6306 0.50412,1.4272 0.148381,1.5638 -0.375029,0.1439 -0.944029,0.0884 -2.022948,-0.1971 z" style="fill:#7dfafa;fill-opacity:1;stroke:#000000;stroke-width:0.21602426;stroke-miterlimit:4;stroke-dasharray:none;stroke-opacity:1" inkscape:connector-curvature="0"/>
      <path id="path853" d="m 81.495862,73.073251 c 0.02564,-0.5196 -0.0436,-1.2718 -0.153866,-1.6715 -0.710992,-2.5775 -1.106369,-4.1368 -1.162099,-4.583 -0.03527,-0.2824 -0.116602,-0.7075 -0.180746,-0.9447 -0.100231,-0.3708 -0.143989,-0.2578 -0.311359,0.804 -0.236293,1.4991 -0.252547,5.0849 -0.02672,5.8865 0.0901,0.3198 0.168541,0.6293 0.174318,0.6877 0.03357,0.3404 0.515169,1.2593 0.840907,1.6045 l 0.379959,0.4028 0.196484,-0.6208 c 0.108074,-0.3414 0.217456,-1.0459 0.243086,-1.5655 z" style="fill:#7dfafa;fill-opacity:1;stroke:#000000;stroke-width:0.21602426;stroke-miterlimit:4;stroke-dasharray:none;stroke-opacity:1" inkscape:connector-curvature="0"/>
      <path id="path851" d="m 25.256129,79.229851 c -1.997454,-0.3023 -2.585314,-0.802 -3.067458,-2.6076 -0.1851,-0.6932 -0.364135,-1.2879 -0.397856,-1.3216 -0.03375,-0.034 -0.379715,-0.1399 -0.76887,-0.236 l -0.707557,-0.1746 0.02554,-0.9448 c 0.01407,-0.5195 0.04652,-1.468 0.07215,-2.1075 0.05308,-1.3238 -0.03357,-1.6532 -2.16126,-8.212 -0.687219,-2.1184 -1.369545,-4.3094 -1.516283,-4.869 -0.303543,-1.1576 -0.358586,-3.2873 -0.114388,-4.4259 0.205338,-0.9574 0.504785,-0.9968 0.331486,-0.0436 -0.06903,0.3797 -0.121812,1.4098 -0.117288,2.2892 l 0.0082,1.5987 1.393398,4.1424 c 2.565199,7.6259 2.665724,7.9968 2.619955,9.6655 -0.02191,0.7993 -0.05461,1.6794 -0.07268,1.9556 -0.03153,0.4827 -0.006,0.5097 0.658326,0.699 0.787549,0.2244 0.973423,0.4935 1.259581,1.8239 0.239434,1.1131 0.809903,1.7677 1.795649,2.0605 1.002773,0.2977 2.483852,0.2911 2.787517,-0.0122 0.21261,-0.2127 0.162142,-0.3625 -0.600106,-1.7805 -1.499835,-2.7904 -1.805657,-3.4966 -2.293291,-5.295 -0.455701,-1.6806 -1.431409,-6.4279 -1.813943,-8.8257 -0.159412,-0.9993 -0.455736,-2.3393 -0.65849,-2.9779 -0.554426,-1.7461 -0.506173,-2.5662 0.249068,-4.2331 0.555492,-1.2261 0.835732,-1.6345 0.835732,-1.2177 0,0.0802 -0.26981,0.7782 -0.599585,1.55 -0.538424,1.2602 -0.590813,1.4861 -0.513628,2.2151 0.04728,0.4465 0.244726,1.2771 0.438773,1.8456 0.194047,0.5686 0.463142,1.7458 0.597985,2.6162 0.335752,2.1672 1.436671,7.2135 1.978218,9.0674 0.443161,1.5173 1.098551,2.9415 2.373021,5.1566 0.776399,1.3494 0.861033,1.9771 0.314851,2.335 -0.366807,0.2404 -1.584633,0.3781 -2.33678,0.2642 z" style="fill:#7dfafa;fill-opacity:1;stroke:#000000;stroke-width:0.21602426;stroke-miterlimit:4;stroke-dasharray:none;stroke-opacity:1" inkscape:connector-curvature="0"/>
      <path id="path849" d="m 5.7317291,78.961751 c -0.346235,-0.1079 -0.761798,-0.3161 -0.923478,-0.4623 -0.453304,-0.4103 -0.939749,-1.3502 -1.1337079,-2.1906 -0.2036917,-0.8826 -0.5671586,-1.4013 -1.2141229,-1.7326 -0.5921433,-0.3034 -0.6726403,-0.4381 -0.6753297,-1.1302 -0.00176,-0.4287 0.1965666,-0.9203 0.7913056,-1.9622 0.4364407,-0.7647 0.8680058,-1.7383 0.9590382,-2.1637 0.1073155,-0.5016 0.1429058,-1.8559 0.1012277,-3.8517 -0.05719,-2.7392 -0.1160518,-3.3342 -0.5343808,-5.4036 -0.4225654,-2.0905 -0.4631597,-2.5092 -0.4015357,-4.1423 0.049978,-1.3255 0.1710254,-2.2007 0.4474034,-3.2358 0.2083731,-0.7804 0.378707,-1.7942 0.3785195,-2.2529 -4.334e-4,-1.1567 -0.6586421,-7.3986 -1.0304764,-9.7726 -0.3631445,-2.3185 -0.3181557,-5.20722 0.1471363,-9.44745 0.414239,-3.77494 1.0980127,-6.21492 1.3590215,-4.84954 0.045234,0.23667 -0.039783,0.57434 -0.2225885,0.8842 -0.2662183,0.45121 -0.2866262,0.65626 -0.2041722,2.05164 0.1026219,1.73683 0.303722,3.16947 0.6220216,5.59795 0.2858603,2.5977 0.5320163,4.8897 0.7084303,7.362 -0.00235,6.3379 0.069625,5.7085 -1.0862758,9.5201 -0.5666135,1.8683 -0.6229293,2.2013 -0.6884087,4.0697 -0.062527,1.7841 -0.025839,2.2586 0.2978471,3.8517 0.6014951,2.9602 0.7102347,4.1585 0.6494025,7.1563 -0.063285,3.1189 -0.089615,3.2294 -1.2328094,5.1737 -0.73867,1.2562 -0.7847018,1.6637 -0.2269768,2.0096 0.8669864,0.5375 1.1882769,0.9648 1.5022668,1.9975 0.3962153,1.3032 0.7430593,1.8789 1.3466343,2.235 0.692785,0.4087 1.704535,0.5279 2.315264,0.2727 0.796158,-0.3326 0.796175,-0.6913 1.05e-4,-2.9729 -0.671784,-1.9253 -0.694583,-2.0447 -0.685308,-3.5903 0.00793,-1.3314 0.088823,-1.8905 0.483287,-3.343 0.458097,-1.6866 0.477785,-1.8758 0.59778,-5.7411 0.184192,-5.9331 0.509514,-7.3135 2.3464539,-9.9562 2.225849,-3.2021 4.695252,-5.4179 6.911087,-6.2012 1.669719,-0.5903 4.229468,-0.3231 6.367132,0.6645 1.620318,0.7487 4.596415,2.5687 6.467241,3.955 2.698285,1.9995 3.481053,2.2977 8.578192,3.2683 2.074365,0.395 2.81416,0.4657 5.520303,0.5277 6.240873,0.1428 11.226507,-0.3398 15.987982,-1.5478 2.399382,-0.6086 7.130594,-1.9676 8.575374,-2.463 2.594789,-0.8898 4.745116,-0.9558 6.286184,-0.1929 0.584673,0.2894 0.835732,0.3557 0.835732,0.2206 0,-0.1064 0.05807,-0.1933 0.129084,-0.1933 0.07099,0 0.280081,0.605 0.464647,1.3445 0.495217,1.9841 0.442587,3.1415 -0.236627,5.2047 -0.668252,2.0298 -0.713768,3.2695 -0.213131,5.8052 0.302165,1.5303 0.322691,1.929 0.243295,4.7236 -0.09062,3.1897 -0.228852,4.4097 -0.691343,6.1017 -0.394136,1.4418 -0.371407,1.6499 0.206638,1.8914 0.586548,0.245 0.768519,0.4499 0.905553,1.0191 0.17801,0.7396 0.486703,1.2204 0.931271,1.4503 0.616542,0.3188 2.157428,0.2817 3.223904,-0.0776 0.834542,-0.2812 1.216847,-0.2854 0.913507,-0.0096 -0.450505,0.4088 -2.443781,0.7744 -3.527502,0.647 -0.965918,-0.1135 -1.627366,-0.6986 -1.903035,-1.6831 -0.131445,-0.4695 -0.293699,-0.7077 -0.569397,-0.8358 -0.212065,-0.0986 -0.48368,-0.2273 -0.603587,-0.2861 -0.353019,-0.1733 -0.333467,-1.1691 0.05473,-2.7881 0.367352,-1.532 0.671996,-4.6996 0.671996,-6.987 0,-0.6738 -0.133274,-1.9652 -0.296166,-2.8699 -0.520541,-2.8907 -0.40818,-4.3957 0.52128,-6.9814 0.350833,-0.976 0.383494,-1.227 0.312044,-2.3982 -0.09438,-1.547 -0.301879,-2.3322 -0.648482,-2.4541 -0.138622,-0.0488 -0.465773,-0.2466 -0.727004,-0.4397 -0.286281,-0.2116 -0.871311,-0.4218 -1.472659,-0.5292 -1.328851,-0.2375 -2.645485,-0.0367 -5.222244,0.7975 -1.092786,0.3537 -3.033369,0.9377 -4.312409,1.2978 -7.605366,2.1412 -9.716183,2.4607 -17.591149,2.6625 -3.389247,0.0872 -5.06445,-0.0192 -7.335568,-0.4651 -0.59955,-0.1176 -1.955923,-0.3803 -3.014161,-0.5835 -2.914826,-0.56 -4.039212,-1.0798 -6.832647,-3.1587 -1.636876,-1.2183 -4.937306,-3.1422 -6.437404,-3.7527 -2.167126,-0.8819 -4.19914,-0.944 -5.824479,-0.178 -1.261349,0.5945 -3.096508,1.9882 -3.995007,3.0339 -1.218154,1.4178 -2.77867,3.5631 -3.160641,4.345 -0.8570489,1.7542 -1.2563159,3.9107 -1.2626279,6.8197 -0.00715,3.2952 -0.208666,5.3384 -0.732769,7.4298 -0.688742,2.7485 -0.658116,3.651 0.209381,6.1694 0.907446,2.6344 0.883586,3.3016 -0.133244,3.7265 -0.60685,0.2535 -1.534247,0.2495 -2.366622,-0.0096 z" style="fill:#7dfafa;fill-opacity:1;stroke:#000000;stroke-width:0.21602426;stroke-miterlimit:4;stroke-dasharray:none;stroke-opacity:1" inkscape:connector-curvature="0"/>
      <path id="path847" d="m 4.2302171,48.864351 c 0.103361,-0.4447 0.219325,-2.0634 0.257687,-3.5973 0.038379,-1.534 -0.086953,-3.1324 -0.06196,-3.5521 -0.09888,-1.5165 -0.2624692,-3.0635 -0.4158381,-4.5861 -0.3287197,-2.38567 -0.4022428,-4.29054 -0.764474,-6.52836 l -0.1226036,-0.62213 -0.026249,0.7994 c -0.014476,0.43968 -0.070663,1.22454 -0.1249354,1.74415 -0.05426,0.51961 -0.098661,2.41636 -0.098661,4.21504 0,3.0303 0.081346,4.0526 0.5146347,6.4678 0.071709,0.3997 0.1608948,1.3481 0.1982014,2.1075 0.1275837,2.5976 0.2755816,4.3604 0.3660507,4.3604 0.049751,0 0.175016,-0.3637 0.2783764,-0.8083 z" style="fill:#7dfafa;fill-opacity:1;stroke:#000000;stroke-width:0.21602426;stroke-miterlimit:4;stroke-dasharray:none;stroke-opacity:1" inkscape:connector-curvature="0"/>
      <path id="path845" d="m 87.104224,57.048851 c -0.641076,-0.3279 -1.020282,-0.7396 -0.843786,-0.9161 0.05189,-0.0523 0.271481,0.0698 0.487969,0.2706 1.196543,1.1096 2.892068,0.7081 4.746195,-1.1238 2.035759,-2.0112 5.191658,-6.6675 7.754788,-11.4417 1.39272,-2.594 2.35068,-3.9714 3.64378,-5.239 2.21577,-2.17204 3.66069,-3.15512 5.64581,-3.84121 1.02003,-0.35253 1.38579,-0.40291 2.97958,-0.41039 1.94864,-0.0092 3.19759,0.13701 3.19759,0.3742 0,0.09499 -0.29534,0.10712 -0.83572,0.03435 -1.44631,-0.19479 -3.66825,-0.11936 -4.61472,0.15666 -3.35706,0.97903 -7.06403,4.41699 -9.13368,8.47089 -0.93556,1.8326 -2.56223,4.547 -4.06187,6.7782 -2.810608,4.1815 -4.724288,6.2242 -6.478756,6.9159 -0.97885,0.3857 -1.693275,0.3776 -2.48718,-0.0288 z" style="fill:#7dfafa;fill-opacity:1;stroke:#000000;stroke-width:0.21602426;stroke-miterlimit:4;stroke-dasharray:none;stroke-opacity:1" inkscape:connector-curvature="0"/>
      <path id="path843" d="m 25.795625,56.612851 c -0.144803,-0.1752 -0.490698,-1.4214 -0.665644,-2.3982 -0.05771,-0.3221 -0.02801,-0.472 0.09345,-0.4713 0.100108,0 0.286902,0.4523 0.426713,1.032 0.243735,1.0105 0.504897,1.5315 0.680452,1.3573 0.04857,-0.048 0.121003,-0.7047 0.16097,-1.4588 0.04079,-0.7698 0.136414,-1.3706 0.218018,-1.3701 0.197909,0 0.266388,2.6179 0.08126,3.1049 -0.159734,0.42 -0.72152,0.5354 -0.995215,0.2042 z" style="fill:#7dfafa;fill-opacity:1;stroke:#000000;stroke-width:0.21602426;stroke-miterlimit:4;stroke-dasharray:none;stroke-opacity:1" inkscape:connector-curvature="0"/>
      <path id="path841" d="m 18.517679,56.249551 c -0.242892,-0.4561 -0.275664,-2.9433 -0.03879,-2.9433 0.06967,0 0.157104,0.5257 0.194293,1.1681 0.07482,1.2924 0.288297,1.7065 0.63654,1.2346 0.193579,-0.2623 0.30935,-0.6062 0.576329,-1.7123 0.06418,-0.2659 0.03868,-0.3997 -0.07616,-0.3997 -0.312642,0 -2.081285,-0.7606 -2.942981,-1.2656 -0.959864,-0.5626 -2.584352,-1.8717 -2.584352,-2.0826 0,-0.2871 0.337744,-0.1212 1.066641,0.5238 0.973422,0.8615 3.368457,2.0365 4.753922,2.3323 1.59842,0.3414 4.494221,0.2011 5.905777,-0.2861 0.573903,-0.1982 1.33181,-0.5292 1.684238,-0.7357 0.69149,-0.4053 0.833259,-0.447 0.833259,-0.2454 0,0.2467 -1.383466,1.0138 -2.543542,1.4103 -1.019794,0.3485 -1.442752,0.4055 -3.440001,0.463 l -2.277237,0.0654 -0.165605,0.9509 c -0.232221,1.3336 -0.486474,1.7765 -1.019678,1.7765 -0.258343,0 -0.480726,-0.1005 -0.562653,-0.2543 z" style="fill:#7dfafa;fill-opacity:1;stroke:#000000;stroke-width:0.21602426;stroke-miterlimit:4;stroke-dasharray:none;stroke-opacity:1" inkscape:connector-curvature="0"/>
      <path id="path839" d="m 2.3642436,52.050851 c 0,-0.4507 -0.096675,-1.6443 -0.2148306,-2.6526 -0.1181556,-1.0082 -0.3147692,-2.7845 -0.4369268,-3.9473 -0.1537695,-1.4637 -0.4513881,-3.0289 -0.9672943,-5.0871 L 0,37.390951 4.336e-4,34.193381 c 2.93e-4,-2.30275 0.0629425,-3.50266 0.2236197,-4.28768 0.2177661,-1.06398 1.2921473,-3.92348 2.0748926,-5.52243 1.2131976,-2.47824 2.8516902,-3.94612 6.2424082,-5.5924 1.8256719,-0.88641 3.2118929,-1.36253 5.5957949,-1.92199 1.519892,-0.35668 1.935092,-0.39246 4.57838,-0.39456 2.880278,-0.0026 4.037236,0.10025 8.977067,0.79548 1.774257,0.2497 2.867335,0.2815 9.665458,0.28111 5.531529,-2.9e-4 8.271796,-0.05825 9.84515,-0.20833 1.199099,-0.11434 3.063152,-0.24983 4.142343,-0.30107 1.156478,-0.05494 3.125919,-0.2951 4.796393,-0.58498 1.558828,-0.27048 3.619095,-0.56478 4.578379,-0.65399 0.959278,-0.08921 2.855945,-0.28817 4.214819,-0.44213 2.996401,-0.3395 7.288693,-0.36816 9.574748,-0.06392 1.805622,0.24029 3.560425,0.67091 6.268079,1.53813 2.416691,0.77403 3.954837,0.89708 5.681233,0.4545 1.282004,-0.32865 1.990011,-0.6198 2.530774,-1.04071 0.505532,-0.39348 3.206209,-1.05613 4.277193,-1.04946 1.098825,0.007 1.492495,0.15439 2.779495,1.04178 1.06483,0.73422 2.49775,1.31059 3.25824,1.31059 0.24235,0 0.44062,0.06541 0.44062,0.14535 0,0.21488 -0.93888,0.17644 -1.79443,-0.07351 -0.41202,-0.12036 -1.3993,-0.6109 -2.19399,-1.09009 -1.757676,-1.0599 -2.165285,-1.11279 -4.345832,-0.56385 -0.626818,0.1578 -1.398773,0.39058 -1.715443,0.51729 l -0.575785,0.23038 0.315972,0.33633 c 0.491466,0.52314 1.028637,0.7218 4.510966,1.66821 1.787032,0.48568 3.277722,0.91162 3.312632,0.94654 0.27779,0.27779 -0.5699,0.13318 -3.431424,-0.58538 -3.605612,-0.90542 -4.561091,-1.24526 -4.972851,-1.76874 -0.263301,-0.33472 -0.283497,-0.33733 -0.903069,-0.11663 -1.208018,0.4303 -2.510202,0.6636 -3.679615,0.65926 -0.996649,-0.0035 -1.591619,-0.12819 -3.91857,-0.81991 -3.472639,-1.03229 -4.785101,-1.31482 -7.115207,-1.53157 -2.427888,-0.22585 -5.606882,-0.10499 -9.466307,0.3599 -1.678736,0.20222 -3.706302,0.44091 -4.505706,0.53042 -0.799397,0.08952 -2.238318,0.3237 -3.197596,0.52042 -0.959279,0.19671 -2.692519,0.42008 -3.851651,0.49637 -1.159127,0.0763 -3.252101,0.25324 -4.651049,0.39324 -2.077798,0.20792 -3.980681,0.25453 -10.392186,0.25458 -7.371282,6e-5 -7.976827,-0.01953 -9.956151,-0.32185 -3.865064,-0.59037 -6.156158,-0.80761 -8.575374,-0.8131 -2.049967,-0.0044 -2.664153,0.0504 -4.229772,0.37957 -2.189005,0.46016 -3.930753,1.05449 -5.7990529,1.97883 -3.870056,1.91468 -5.2335534,3.42172 -6.9850692,7.72042 -1.1548667,2.83435 -1.2155412,3.18781 -1.2216408,7.11684 l 0.1212703,3.41561 0.5787839,2.8342 c 0.4684927,2.2941 0.7753799,3.4828 1.058555,6.1045 0.462802,4.2848 0.5829908,6.3952 0.3642053,6.3952 -0.1046557,0 -0.1658628,-0.3022 -0.1658628,-0.8194 z" style="fill:#7dfafa;fill-opacity:1;stroke:#000000;stroke-width:0.21602426;stroke-miterlimit:4;stroke-dasharray:none;stroke-opacity:1" inkscape:connector-curvature="0"/>
      <path id="path837" d="m 117.55039,35.343421 c -0.15988,-0.03811 -0.58502,-0.14076 -0.94475,-0.22798 -0.35972,-0.0872 -1.09983,-0.38338 -1.64467,-0.65815 -1.12877,-0.56925 -2.30543,-0.8232 -4.88184,-1.05359 -1.7557,-0.15699 -2.58536,-0.39098 -3.28407,-0.92621 -0.5415,-0.41481 -0.12487,-0.39439 0.73895,0.03619 0.73346,0.36563 1.13694,0.45181 2.74911,0.58713 2.84361,0.23871 3.6307,0.40615 5.37779,1.14401 1.42369,0.60129 1.71818,0.67525 2.68887,0.67525 1.41206,0 2.20762,-0.38078 3.50385,-1.67701 1.4579,-1.4579 1.62809,-2.44837 0.68496,-3.98627 -0.63407,-1.03395 -0.86202,-1.29134 -3.73742,-4.22021 -2.8641,-2.91735 -3.29926,-3.42406 -4.66138,-5.42791 -1.07054,-1.57489 -1.48953,-1.9116 -2.96365,-2.3816 -1.30366,-0.41565 -1.9544,-1.02548 -2.31221,-2.16682 -0.46143,-1.47183 -1.1364,-2.01465 -2.50513,-2.01465 -0.8959,0 -1.17052,0.11488 -2.76898,1.15836 -1.30945,0.85482 -2.05185,1.10976 -3.77155,1.29515 -0.71947,0.07753 -1.49223,0.2113 -1.71728,0.2972 -0.50399,0.1924 -0.53557,0.19283 -0.53557,0.007 0,-0.24484 0.70013,-0.43773 2.32007,-0.6392 1.78602,-0.2221 2.28127,-0.4078 3.74142,-1.40285 1.69145,-1.15268 2.78016,-1.4089 3.93566,-0.92622 0.82471,0.3445 1.28797,0.88069 1.65212,1.91215 0.38971,1.10391 0.95954,1.67626 1.9748,1.98353 1.89122,0.57239 2.32175,0.93133 3.86031,3.21853 0.80641,1.19879 1.09848,1.5272 3.95724,4.44959 3.76086,3.84458 4.56698,4.98241 4.57057,6.45131 0.005,2.05558 -2.43582,4.3444 -4.79937,4.50048 -0.51544,0.03401 -1.06797,0.03061 -1.22785,-0.0078 z" style="fill:#7dfafa;fill-opacity:1;stroke:#000000;stroke-width:0.21602426;stroke-miterlimit:4;stroke-dasharray:none;stroke-opacity:1" inkscape:connector-curvature="0"/>
      <path id="path835" d="m 120.83376,31.813581 c -0.36875,-0.10316 -1,-0.82409 -0.85155,-0.97254 0.17505,-0.17504 1.41983,0.68368 1.41983,0.97948 0,0.1343 -0.0662,0.1335 -0.56828,-0.007 z" style="fill:#7dfafa;fill-opacity:1;stroke:#000000;stroke-width:0.21602426;stroke-miterlimit:4;stroke-dasharray:none;stroke-opacity:1" inkscape:connector-curvature="0"/>
      <path id="path871" d="m 110.52482,23.859561 c -0.31867,-0.22321 -0.43106,-0.95801 -0.20168,-1.31861 0.16976,-0.26687 0.8464,-0.38 1.18596,-0.19828 0.37163,0.19889 0.27209,0.44455 -0.1368,0.33763 -0.60361,-0.15785 -0.93683,0.50147 -0.49833,0.98601 0.30145,0.33309 0.0495,0.47252 -0.34915,0.19325 z" style="fill:#7dfafa;fill-opacity:1;stroke:#000000;stroke-width:0.21602426;stroke-miterlimit:4;stroke-dasharray:none;stroke-opacity:1" inkscape:connector-curvature="0"/>
    </g>
    <g transform="matrix(0.1453453,0,0,0.1453453,-16.980129,-7.7687126)" style="fill:#7dfafa;fill-opacity:1;stroke:#000000;stroke-width:0.21602426;stroke-miterlimit:4;stroke-dasharray:none;stroke-opacity:1" inkscape:label="UBERON_0001013" id="adipose.tissue" label="UBERON_0001013" ontology="UBERON_0001013">
      <path d="M 156.80852,320.78729 C 156.79852,313.88188 156.556,309.54748 155.91822,304.89313 155.41129,301.19366 154.98562,299.48069 153.09686,293.53963 149.19628,281.27039 146.42469,267.96652 145.04735,254.90129 144.4924,249.63714 144.27875,238.07291 144.6531,233.56182 145.37182,224.901 147.3286,215.92584 149.70874,210.37322 151.15042,207.00992 159.79557,200.18932 173.67508,191.46499 186.56695,183.36145 204.23404,176.34015 219.55478,173.23135 233.74528,170.35189 245.20393,170.32038 273.34938,173.08341 284.6339,174.1912 319.7251,178.47594 320.16219,178.79939 320.42302,178.99239 316.11295,183.64548 311.17346,188.50349 302.51927,197.01491 293.16087,204.58482 283.2356,211.10209 280.57391,212.84985 273.79366,217.03287 268.16837,220.39769 235.45697,239.96434 205.49562,260.45667 184.76246,277.44389 180.36323,281.04829 179.41525,282.09676 176.37446,286.7211 169.76668,296.76997 164.07175,308.34095 158.53848,322.96032 L 156.81799,327.50601 156.80899,320.78729 156.80899,320.78729 Z" id="path3052" inkscape:connector-curvature="0" style="fill:#7dfafa;fill-opacity:1;stroke:#000000;stroke-width:0.21602426;stroke-miterlimit:4;stroke-dasharray:none;stroke-opacity:1"/>
      <path d="M 712.98905,427.00704 C 706.0566,425.28372 697.23096,422.26012 690.67875,419.36371 678.23325,413.86215 660.9899,405.68711 652.33735,401.18613 639.26521,394.38611 630.22275,391.73727 616.63887,390.72884 L 611.7075,390.36275 613.51586,387.68096 C 617.18428,382.24071 624.72884,376.0106 630.99103,373.2504 636.31594,370.90333 655.51419,367.5887 666.77457,367.07227 672.62118,366.80414 674.925,366.953 682.93701,368.11662 700.56022,370.67613 711.18238,373.08032 721.90002,376.93541 731.52212,380.39645 750.25075,382.27339 763.19172,381.07359 766.63529,380.75432 769.51051,380.55457 769.5811,380.6297 769.846,380.91164 745.48373,413.64368 743.42368,415.77362 740.22952,419.07615 735.19368,422.76957 731.18607,424.74902 724.44816,428.07704 719.67566,428.66924 712.98905,427.00704 L 712.98905,427.00704 Z" id="path3056" inkscape:connector-curvature="0" style="fill:#7dfafa;fill-opacity:1;stroke:#000000;stroke-width:0.21602426;stroke-miterlimit:4;stroke-dasharray:none;stroke-opacity:1"/>
      <path d="M 641.31216,256.05247 C 622.61557,252.60186 600.61922,246.93763 574.88359,238.94659 570.26752,237.51328 564.80323,235.70514 562.74073,234.92851 548.83166,229.69103 528.25581,219.43655 514.70502,210.98874 507.02362,206.20001 501.73008,202.57568 490.68811,194.54509 481.78671,188.07128 463.59279,179.70903 453.99073,177.67831 L 451.84787,177.22512 453.81789,176.60962 C 458.83703,175.04146 469.47777,173.8282 480.59787,173.55617 L 488.99073,173.35085 521.13359,168.58548 C 552.38345,163.95251 553.60387,163.79974 565.06216,163.0867 585.81987,161.79495 594.05028,161.48242 607.74073,161.46605 L 621.13359,161.45005 627.9193,162.80989 C 644.79553,166.19183 657.65606,169.54378 675.65939,175.25279 L 684.82805,178.16025 685.12368,181.23372 C 685.68928,187.114 685.39108,200.21334 684.54151,206.8072 683.09405,218.04156 680.67377,228.39145 677.17232,238.32024 676.08036,241.41664 675.10635,244.20678 675.00786,244.52056 674.56322,245.9371 664.43503,251.05589 657.89099,253.17144 651.50038,255.23738 643.97834,256.54455 641.31216,256.05249 L 641.31216,256.05249 Z" id="path3060" inkscape:connector-curvature="0" style="fill:#7dfafa;fill-opacity:1;stroke:#000000;stroke-width:0.21602426;stroke-miterlimit:4;stroke-dasharray:none;stroke-opacity:1"/>
    </g>
    <path sodipodi:nodetypes="ccccccccccccccccccccc" inkscape:connector-curvature="0" id="duodenum" d="M 41.624558,43.215507 C 42.155948,40.503857 42.95686,41.201427 43.163522,35.295647 43.161022,34.644107 43.256002,33.240167 41.844521,33.915587 40.916875,34.067447 40.050789,34.657307 39.101046,34.332667 36.879582,33.974147 33.912305,33.066557 32.456385,33.181107 31.521056,33.484847 30.366734,33.853437 29.467352,33.352137 28.886901,32.910017 28.953772,32.092417 29.229058,31.509837 29.810683,30.558187 30.249511,29.497087 31.15595,28.719807 31.88817,28.433927 32.748636,28.495667 33.53806,28.396667 34.441514,28.349567 36.923063,28.270607 37.820571,28.362667 38.670931,28.883907 35.348731,29.197897 34.841371,29.087637 33.806155,29.097937 32.729115,29.182137 31.761358,29.541267 31.08041,30.060427 30.783751,30.854577 30.429317,31.551577 29.817095,32.477847 30.140101,33.139557 31.876902,32.275907 32.705224,32.071017 33.750659,32.400457 34.56486,32.488967 36.439644,32.787247 38.179674,33.401857 40.11234,33.387707 40.974119,33.342507 41.526977,32.532827 42.459613,32.621887 43.390359,32.529787 44.007066,33.252457 44.126889,33.958887 44.578931,35.746847 44.095159,37.644727 43.816022,39.436487 43.496881,40.972277 42.706398,41.859247 42.136365,43.351507 41.804453,43.271607 41.596382,43.704927 41.624555,43.215497 Z" style="fill:#7dfafa;fill-opacity:1;stroke:#000000;stroke-width:0.21602426;stroke-miterlimit:4;stroke-dasharray:none;stroke-opacity:1" inkscape:label="UBERON_0002114" nodetypes="ccccccccccccccccccccc" connector-curvature="0" label="UBERON_0002114" ontology="UBERON_0002114"/>
    <path inkscape:label="UBERON_0000955" inkscape:connector-curvature="0" id="brain" d="M 109.26558,20.170457 C 110.78414,19.259327 109.11373,17.386437 109.11373,17.386437 107.79765,16.222217 105.82353,16.323447 105.82353,16.323447 104.15312,16.323447 103.74818,17.234587 103.74818,17.234587 102.38148,16.019737 101.31849,17.386437 101.31849,17.386437 100.50859,18.246957 101.11602,19.563037 101.11602,19.563037 101.87529,20.980357 103.84942,20.018607 103.84942,20.018607 104.60868,19.917357 105.57044,20.069207 105.57044,20.069207 107.69641,20.676637 109.26558,20.170447 109.26558,20.170447 Z" style="fill:#7dfafa;fill-opacity:1;stroke:#000000;stroke-width:0.21602426;stroke-miterlimit:4;stroke-dasharray:none;stroke-opacity:1" label="UBERON_0000955" connector-curvature="0" ontology="UBERON_0000955"/>
    <ellipse ry="0.55057847" rx="0.6056363" cy="19.226654" cx="105.45016" inkscape:label="UBERON_0001898" id="hypothalamus" style="fill:#7dfafa;fill-opacity:1;stroke:#000000;stroke-width:0.21602426;stroke-miterlimit:4;stroke-dasharray:none;stroke-opacity:1" label="UBERON_0001898" ontology="UBERON_0001898"/>
    <path inkscape:label="UBERON_0002113" inkscape:connector-curvature="0" id="kidney" d="M 31.827261,27.751727 C 31.156542,27.329087 30.690377,26.657407 30.583553,25.959717 30.491513,25.358657 30.820714,25.016147 32.190047,24.288257 L 33.045959,23.833287 34.940288,23.847687 C 38.64905,23.875787 40.854386,24.461957 41.704057,25.645447 41.899997,25.918367 41.894308,25.996007 41.658407,26.268567 41.340122,26.636287 40.286284,26.832487 38.109648,26.929257 37.014947,26.977857 36.245995,27.112097 34.634256,27.535707 33.495948,27.834867 32.525315,28.085657 32.477307,28.093017 32.429317,28.101017 32.136786,27.946797 31.827267,27.751767 Z" style="fill:#7dfafa;fill-opacity:1;stroke:#000000;stroke-width:0.21602426;stroke-miterlimit:4;stroke-dasharray:none;stroke-opacity:1" label="UBERON_0002113" connector-curvature="0" ontology="UBERON_0002113"/>
    <path inkscape:label="UBERON_0002048" inkscape:connector-curvature="0" id="lung" d="M 69.319525,47.747207 C 68.460907,47.373807 65.526244,43.242327 63.351184,39.344827 60.649933,34.504467 58.318591,28.719467 58.318591,26.856947 58.318591,25.586077 58.528265,25.520967 61.738625,25.794727 74.442554,26.878037 88.557515,28.604077 89.841547,29.231267 90.51046,29.557987 90.913477,30.116437 91.193337,31.104347 91.323198,31.562717 91.589598,32.048767 91.811096,32.231407 92.025277,32.408017 92.278562,32.856277 92.373913,33.227527 92.68276,34.429867 91.90206,37.813937 90.922761,39.517817 90.573928,40.124757 89.686947,40.600847 84.925384,42.737007 79.586755,45.132037 71.656088,48.025247 70.476706,48.008077 70.159558,48.003077 69.638826,47.886057 69.319525,47.747207 L 69.319525,47.747207 Z" style="fill:#7dfafa;fill-opacity:1;stroke:#000000;stroke-width:0.21602426;stroke-miterlimit:4;stroke-dasharray:none;stroke-opacity:1" label="UBERON_0002048" connector-curvature="0" ontology="UBERON_0002048"/>
    <path inkscape:label="UBERON_0001155" inkscape:connector-curvature="0" id="colon" d="M 8.1062212,22.072587 C 8.5521792,21.104387 11.079271,20.458907 11.079271,20.458907 15.315869,19.652067 20.072749,19.894107 20.072749,19.894107 26.018849,20.378227 28.620269,20.620267 28.620269,20.620267 30.627078,20.943017 31.073036,21.346427 31.073036,21.346427 31.221688,22.072587 30.998716,22.718067 30.998716,22.718067 30.404101,23.040807 29.883817,22.879437 29.883817,22.879437 26.985093,22.233957 21.782256,21.830537 21.782256,21.830537 L 18.288921,21.830537 C 13.829344,21.911237 9.8900538,22.637377 9.8900538,22.637377 8.4778552,22.879437 8.1062232,22.072587 8.1062232,22.072587 Z" style="fill:#7dfafa;fill-opacity:1;stroke:#000000;stroke-width:0.21602426;stroke-miterlimit:4;stroke-dasharray:none;stroke-opacity:1" label="UBERON_0001155" connector-curvature="0" ontology="UBERON_0001155"/>
    <path inkscape:label="UBERON_0000948" sodipodi:nodetypes="ccccccccccc" inkscape:connector-curvature="0" id="heart" d="M 91.692937,39.434157 C 93.511745,40.536007 93.326503,42.998937 93.326503,42.998937 93.057053,44.991967 90.32883,46.515107 90.32883,46.515107 89.578299,46.956317 89.022164,46.963717 88.425814,47.341477 87.651136,47.811387 86.421753,47.568337 86.421753,47.568337 85.15329,47.127047 85.303106,41.942147 85.882846,40.244337 86.118619,39.434157 87.213272,39.304527 87.213272,39.304527 86.539639,38.721207 86.893297,38.218897 86.893297,38.218897 87.095387,37.894827 87.651136,37.943437 87.651136,37.943437 88.223725,37.943437 89.200494,38.040637 89.200494,38.040637 90.596845,38.099337 91.706997,38.115637 91.692937,39.434137 Z" style="fill:#7dfafa;fill-opacity:1;stroke:#000000;stroke-width:0.21602426;stroke-miterlimit:4;stroke-dasharray:none;stroke-opacity:1" label="UBERON_0000948" nodetypes="ccccccccccc" connector-curvature="0" ontology="UBERON_0000948"/>
    <path inkscape:label="UBERON_0002107" sodipodi:nodetypes="cccccccc" inkscape:connector-curvature="0" id="liver" d="M 42.636148,24.756677 C 50.944748,24.452407 52.329517,25.327147 52.329517,25.327147 55.768362,28.286077 60.765088,39.517097 60.765088,39.517097 62.342191,42.749857 61.699819,45.035627 61.699819,45.035627 59.976556,46.229857 55.610681,40.734147 55.610681,40.734147 53.360432,38.965647 51.902573,36.139827 51.902573,36.139827 50.24854,33.629667 46.809696,30.670737 46.809696,30.670737 42.926463,28.229447 41.568688,25.444317 42.636148,24.756677 Z" style="fill:#7dfafa;fill-opacity:1;stroke:#000000;stroke-width:0.21602426;stroke-miterlimit:4;stroke-dasharray:none;stroke-opacity:1" label="UBERON_0002107" nodetypes="cccccccc" connector-curvature="0" ontology="UBERON_0002107"/>
    <g style="fill:#7dfafa;fill-opacity:1;stroke:#000000;stroke-width:0.21602426;stroke-miterlimit:4;stroke-dasharray:none;stroke-opacity:1" inkscape:label="UBERON_0014892" id="skeletal.muscle.organ" transform="translate(-5.5125598,-655.16638)" label="UBERON_0014892" ontology="UBERON_0014892">
      <path d="M 4.9999999,20.437501 C 4.2023211,22.039831 6.1172089,32.515247 6.0714288,40.437501 6.4285717,40.080358 7.0089288,39.321429 7.0089288,39.321429 6.964286,31.776786 6.4285717,25.75 6.4285717,25.75 6.2500003,23.160714 6.5178574,18.919643 6.5178574,18.919643 6.2053574,18.5625 4.9999999,20.437501 4.9999999,20.437501 Z" id="path3947" inkscape:connector-curvature="0" transform="matrix(1.1338549,0,0,1.1338549,4.3791557,659.19966)" sodipodi:nodetypes="cccccc" style="fill:#7dfafa;fill-opacity:1;stroke:#000000;stroke-width:0.21602426;stroke-miterlimit:4;stroke-dasharray:none;stroke-opacity:1"/>
      <path d="M 6.6964285,18.651786 C 7.0089285,17.133929 12.053571,14.678572 12.053571,14.678572 12.410715,14.455357 12.946429,14.455357 12.946429,14.455357 9.7321432,21.330357 10,30.482143 10,30.482143 L 10,30.482143 10.08929,31.017857 C 10.446429,33.116072 11.428572,35.303572 11.428572,35.303572 L 11.428572,35.303572 10.892858,35.75 C 9.7767861,36.866072 9.5089289,37.178572 9.5089289,37.178572 L 9.5089289,37.178572 9.3303575,36.598215 C 6.6964288,27.446429 6.6964285,18.651786 6.6964285,18.651786 Z" id="path3949" inkscape:connector-curvature="0" transform="matrix(1.1338549,0,0,1.1338549,4.3791557,659.19966)" style="fill:#7dfafa;fill-opacity:1;stroke:#000000;stroke-width:0.21602426;stroke-miterlimit:4;stroke-dasharray:none;stroke-opacity:1"/>
      <path d="M 7.4107142,39.1875 C 8.3928571,38.116072 9.1517857,37.491072 9.1517857,37.491072 7.4107146,31.017857 6.8303574,25.080357 6.8303574,25.080357 7.5000003,35.303572 7.4107142,39.1875 7.4107142,39.1875 Z" id="path3951" inkscape:connector-curvature="0" transform="matrix(1.1338549,0,0,1.1338549,4.3791557,659.19966)" style="fill:#7dfafa;fill-opacity:1;stroke:#000000;stroke-width:0.21602426;stroke-miterlimit:4;stroke-dasharray:none;stroke-opacity:1"/>
      <path d="M 14.962884,19.21953 C 14.962884,19.21953 13.668627,22.56566 10.764438,23.449544 11.080111,21.555507 11.364216,20.608489 11.364216,20.608489 12.216532,20.387518 14.962884,19.21953 14.962884,19.21953 Z" id="path3953" inkscape:connector-curvature="0" transform="matrix(1.1338549,0,0,1.1338549,4.3791557,659.19966)" sodipodi:nodetypes="cccc" style="fill:#7dfafa;fill-opacity:1;stroke:#000000;stroke-width:0.21602426;stroke-miterlimit:4;stroke-dasharray:none;stroke-opacity:1"/>
      <path d="M 13.352954,14.358171 C 13.352954,14.358171 12.374369,16.473177 11.490486,20.166548 13.28982,19.661471 14.994452,18.714453 14.994452,18.714453 15.98327,18.201657 16.061971,16.349133 17.077892,15.683995 17.803939,15.210486 19.129764,14.137199 19.129764,14.137199 15.878338,13.063912 13.352954,14.358171 13.352954,14.358171 Z" id="path3955" inkscape:connector-curvature="0" transform="matrix(1.1338549,0,0,1.1338549,4.3791557,659.19966)" sodipodi:nodetypes="cccccc" style="fill:#7dfafa;fill-opacity:1;stroke:#000000;stroke-width:0.21602426;stroke-miterlimit:4;stroke-dasharray:none;stroke-opacity:1"/>
      <path d="M 10.85914,23.95462 C 10.227794,29.573593 10.480333,30.962553 10.480333,30.962553 10.669737,32.667186 12.374369,36.455258 12.374369,36.455258 13.131983,36.07645 15.467961,33.235396 15.467961,33.235396 16.351845,30.836284 16.036172,27.427019 16.036172,27.427019 16.036172,25.469848 17.298863,22.881332 17.298863,22.881332 18.687823,20.671624 19.003495,14.736977 19.003495,14.736977 17.551401,15.873399 17.046325,16.189072 17.046325,16.189072 16.351845,17.009821 15.215423,19.661471 15.215423,19.661471 14.015867,21.681776 12.690042,23.070736 12.690042,23.070736 11.616755,23.828351 10.85914,23.95462 10.85914,23.95462 Z" id="path3957" inkscape:connector-curvature="0" transform="matrix(1.1338549,0,0,1.1338549,4.3791557,659.19966)" sodipodi:nodetypes="ccccccccccc" style="fill:#7dfafa;fill-opacity:1;stroke:#000000;stroke-width:0.21602426;stroke-miterlimit:4;stroke-dasharray:none;stroke-opacity:1"/>
    </g>
    <path inkscape:label="UBERON_0002016" sodipodi:nodetypes="cccccccc" inkscape:connector-curvature="0" id="pulmonary.vein" d="M 32.629151,24.523637 C 29.693278,24.523637 28.984619,25.232297 28.984619,25.232297 27.972248,26.649617 28.579671,28.370647 28.579671,28.370647 30.503174,33.027557 39.816982,37.380747 39.816982,37.380747 42.651619,38.190647 44.676361,37.380747 44.676361,37.380747 45.018594,36.572897 44.678861,35.892207 43.866465,35.356007 41.32536,34.158997 36.619416,29.844037 35.919357,28.117557 35.076206,25.388857 34.876666,24.783967 32.629151,24.523637 Z" style="fill:#7dfafa;fill-opacity:1;stroke:#000000;stroke-width:0.21602426;stroke-miterlimit:4;stroke-dasharray:none;stroke-opacity:1" label="UBERON_0002016" nodetypes="cccccccc" connector-curvature="0" ontology="UBERON_0002016"/>
  </g>
</svg>
