<?xml version="1.0" encoding="UTF-8" standalone="no"?>
<!-- Created with Inkscape (http://www.inkscape.org/) -->
<svg xmlns:dc="http://purl.org/dc/elements/1.1/" xmlns:cc="http://creativecommons.org/ns#" xmlns:rdf="http://www.w3.org/1999/02/22-rdf-syntax-ns#" xmlns:svg="http://www.w3.org/2000/svg" xmlns="http://www.w3.org/2000/svg" xmlns:sodipodi="http://sodipodi.sourceforge.net/DTD/sodipodi-0.dtd" xmlns:inkscape="http://www.inkscape.org/namespaces/inkscape" width="127.44675" height="158.60735" viewBox="0 0 127.44675 158.60735" preserveAspectRatio="none" id="svg2" version="1.1" inkscape:version="0.92.3 (unknown)" sodipodi:docname="brachypodium_distachyon.flower_parts.svg">
  <defs id="defs4"/>
  <sodipodi:namedview id="base" pagecolor="#ffffff" bordercolor="#666666" borderopacity="1.0" inkscape:pageopacity="0.0" inkscape:pageshadow="2" inkscape:zoom="2.8" inkscape:cx="-111.40364" inkscape:cy="93.800244" inkscape:document-units="px" inkscape:current-layer="LAYER_EFO" showgrid="false" inkscape:window-width="3375" inkscape:window-height="1416" inkscape:window-x="65" inkscape:window-y="24" inkscape:window-maximized="1" fit-margin-top="0" fit-margin-left="0" fit-margin-right="0" fit-margin-bottom="0" units="px"/>
  <metadata id="metadata">
    <rdf:RDF>
      <cc:Work rdf:about="">
        <dc:format>image/svg+xml</dc:format>
        <dc:type rdf:resource="http://purl.org/dc/dcmitype/StillImage"/>
        <dc:title/>
      </cc:Work>
    </rdf:RDF>
  </metadata>
  <g inkscape:label="EFO" id="container" inkscape:groupmode="layer" label="EFO" groupmode="layer">
    <path inkscape:label="caryopsis_outline" inkscape:connector-curvature="0" id="caryopsis_outline" d="M 117.62309,146.47365 C 117.12167,146.1639 117.06105,146.1603 116.42127,146.40235 115.66336,146.68909 114.85053,146.63752 114.28477,146.26683 114.07562,146.12979 113.62594,145.46052 113.28546,144.77955 112.57367,143.35594 110.95981,138.66038 110.22115,135.86388 109.94385,134.81402 109.62317,133.66028 109.50853,133.29999 109.2474,132.47936 108.91107,131.10381 108.36886,128.63888 108.13623,127.58127 107.84744,126.35542 107.72713,125.91476 107.15694,123.82646 106.58402,120.59663 106.13537,116.94117 106.08127,116.5005 105.93314,115.44214 105.80616,114.58924 105.67918,113.73634 105.43034,111.64518 105.2532,109.9422 104.25935,100.38825 104.21312,99.81135 104.04849,94.90782 103.99969,93.45361 103.92439,91.50666 103.8812,90.58126 103.45682,81.48753 103.21162,61.89895 103.48696,59.08494 103.57266,58.20837 103.75372,56.22925 103.88919,54.68692 104.14721,51.74916 104.21303,51.16296 104.44701,49.7194 104.52561,49.23467 104.63731,48.36936 104.6953,47.79649 104.85737,46.19538 106.32124,38.86941 107.0167,36.178906 107.63797,33.775503 109.24485,28.730721 110.20677,26.163743 111.24891,23.3827 112.29985,21.162703 114.91,16.228703 115.8497,14.452359 116.1112,14.108962 116.40079,14.271029 116.65798,14.414955 117.83014,16.208526 118.12912,16.915616 118.24887,17.198813 118.50704,17.791066 118.70282,18.231735 119.58638,20.220452 119.85611,20.862942 120.21641,21.837191 120.42827,22.410059 120.83297,23.455641 121.11575,24.16071 121.39853,24.865777 121.83736,26.114405 122.09092,26.935443 122.34448,27.756475 122.59513,28.498106 122.64791,28.583507 122.82557,28.870969 123.92211,32.791474 124.07944,33.70171 124.13214,34.006566 124.31593,34.933763 124.48789,35.762134 124.88155,37.658572 125.70244,42.40493 125.84867,43.63019 125.88547,43.93865 125.9821,44.47947 126.06336,44.832 126.14466,45.18453 126.25006,45.90562 126.29767,46.43443 126.34527,46.96323 126.4548,47.86459 126.54107,48.43746 126.62737,49.01033 126.74494,50.95728 126.80239,52.76401 126.85979,54.57075 126.93993,56.62586 126.98034,57.33093 127.13598,60.04615 127.20377,64.79038 127.31922,81.04684 127.47855,103.48242 127.47118,103.87979 126.79187,109.48989 126.65847,110.59156 126.54544,111.67319 126.54069,111.89353 126.53669,112.11386 126.47149,112.61863 126.39764,113.01523 126.32374,113.41183 126.22406,114.40803 126.17619,115.22902 126.12829,116.05 126.05923,116.77109 126.02265,116.83144 125.98605,116.89174 125.90884,117.44593 125.85102,118.06287 125.79312,118.6798 125.71206,119.32878 125.67072,119.50505 125.62942,119.68131 125.45523,121.41194 125.28374,123.35087 125.11224,125.28981 124.8557,127.45308 124.71366,128.15815 124.5716,128.86322 124.42288,129.65642 124.38316,129.92082 124.31506,130.37439 124.00712,131.97 123.42461,134.88834 123.28388,135.59341 123.03606,136.56688 122.8739,137.05161 122.71174,137.53635 122.28589,138.91966 121.92756,140.12565 121.24699,142.41621 119.82782,145.57131 119.12156,146.36397 118.64262,146.9015 118.35031,146.9229 117.62309,146.47366 Z M 116.63325,145.11308 C 116.85116,144.96395 117.07973,144.76755 117.1412,144.67661 117.2108,144.57354 117.3939,144.64371 117.62727,144.86295 118.00076,145.21383 118.00276,145.21393 118.51003,144.90545 119.07982,144.55894 119.36281,144.00363 120.22586,141.53841 120.54983,140.613 120.88168,139.67559 120.9633,139.45526 121.40047,138.27516 122.44329,134.30526 122.80192,132.45581 123.06511,131.09854 123.43813,128.46034 123.60216,126.79609 123.65856,126.22323 123.73128,125.57425 123.76363,125.35391 123.79603,125.13358 123.9018,124.19616 123.99876,123.27076 124.09576,122.34535 124.20336,121.48004 124.23794,121.34784 124.27244,121.21564 124.34709,120.63877 124.40363,120.0659 124.46013,119.49303 124.71253,117.7902 124.96442,116.28183 125.2163,114.77345 125.46474,112.76257 125.5165,111.81318 125.5682,110.8638 125.6416,110.03688 125.67949,109.97558 125.74479,109.86984 126.04202,107.13488 126.17609,105.40546 126.27069,104.18487 126.39718,96.95845 126.40889,92.10357 126.42909,83.72582 126.27469,63.04977 126.18972,62.75599 126.08148,62.38181 125.89329,59.16838 125.84384,56.8502 125.71574,50.84467 125.41481,47.22257 124.61902,42.10788 123.3771,34.125861 121.18642,26.343462 118.72032,21.152756 118.36321,20.401101 118.07103,19.744357 118.07103,19.693321 118.07103,19.592956 116.7826,16.918827 116.57516,16.588642 116.42576,16.350841 115.95314,16.876897 115.3149,17.991372 114.66808,19.12085 112.75045,22.905924 112.10815,24.320956 110.95487,26.861741 108.96983,32.536023 108.40836,34.896964 108.1778,35.866437 107.83445,37.308615 107.64535,38.101822 107.45626,38.89502 107.06048,40.84196 106.76583,42.42837 106.47119,44.01477 106.0094,46.35832 105.73964,47.63625 105.46988,48.91419 105.14117,51.00535 105.00918,52.28329 104.8772,53.56122 104.72429,54.96735 104.6694,55.40802 104.28005,58.5336 104.17113,62.55114 104.24146,71.19192 104.32856,81.88807 104.30596,80.66025 104.46433,83.29023 104.53333,84.43597 104.63204,86.95979 104.68363,88.89873 104.78953,92.87753 104.90277,94.89002 105.15255,97.23134 105.29554,98.57175 105.39968,99.87708 105.4977,101.55788 105.5491,102.43922 105.65487,103.66507 105.73276,104.282 105.81066,104.89895 105.91766,105.90847 105.97057,106.5254 106.22211,109.45829 106.48948,111.78609 106.85403,114.21705 106.93333,114.74585 107.11537,116.04381 107.25856,117.10141 107.40177,118.15902 107.58344,119.27766 107.66227,119.58729 107.74117,119.89693 107.88573,120.8686 107.98363,121.74655 108.08153,122.62451 108.20324,123.41018 108.25409,123.49246 108.35712,123.65917 108.57715,124.63408 109.18051,127.5973 109.40483,128.69897 109.65985,129.78157 109.74724,130.00309 109.83464,130.2246 109.93865,130.58516 109.97839,130.80431 110.05169,131.20822 110.67522,133.63689 111.41788,136.41065 112.43048,140.19265 113.93709,144.0288 114.81039,145.04874 115.16672,145.46491 116.07244,145.49689 116.63325,145.11314 Z" style="fill:#46fafa;fill-opacity:1;stroke:#000000;stroke-width:0.21602426;stroke-miterlimit:4;stroke-dasharray:none;stroke-opacity:1" label="caryopsis_outline" connector-curvature="0" ontology="NULL"/>
    <g id="spikelet_outline" style="fill:#46fafa;fill-opacity:1" ontology="NULL">
      <path id="path858" d="m 21.189054,158.47494 c -0.0757,-0.0757 -0.13753,-0.28361 -0.13753,-0.46213 0,-0.42696 -0.29548,-1.12139 -0.55429,-1.30267 -0.39402,-0.27598 -0.70406,-1.69921 -0.73741,-3.385 -0.0233,-1.17691 -4.7e-4,-1.3619 0.19432,-1.57855 0.21492,-0.23898 0.21533,-0.26256 0.016,-0.90183 -0.11258,-0.36105 -0.30442,-0.88854 -0.42632,-1.17221 -0.23279,-0.54177 -0.31406,-0.70362 -1.78405,-3.55305 -0.50408,-0.97708 -1.02602,-2.0725 -1.15989,-2.43426 -0.13385,-0.36175 -0.41873,-1.00646 -0.63308,-1.43268 -0.21434,-0.42622 -0.68494,-1.5228 -1.04578,-2.43685 -0.36085,-0.91405 -0.75808,-1.88777 -0.88276,-2.1638 -0.12465,-0.27606 -0.4575,-1.10128 -0.73963,-1.83383 -0.28212,-0.73258 -0.71236,-1.84771 -0.95608,-2.47808 -0.59319,-1.53429 -1.6209,-4.44499 -2.04363,-5.78803 -0.8070204,-2.56397 -1.6823104,-5.58885 -1.8406704,-6.36111 -0.0646,-0.31518 -0.17437,-0.83096 -0.24388,-1.14614 -0.14703,-0.6667 -0.4532,-2.45546 -0.45613,-2.66478 -0.005,-0.36047 0.31334,-0.086 0.51719,0.4459 0.20621,0.53806 0.88927,1.70004 1.39692,2.37639 0.11234,0.14968 0.24014,0.3287 0.28398,0.39783 0.1450004,0.22861 0.2097904,0.004 0.0968,-0.33618 -0.0611,-0.18357 -0.2183508,-1.28794 -0.3494408,-2.45414 -0.13111,-1.16621 -0.28589,-2.45735 -0.34396,-2.86921 -0.0581,-0.41186 -0.13292,-1.57233 -0.1663,-2.57882 -0.087,-2.62282 -0.24797,-5.59258 -0.35702,-6.58649 -0.0632,-0.57574 -0.72129,-4.47497 -1.13168,-6.70494 -0.0928,-0.50431 -0.22547,-1.32953 -0.29481,-1.83384 -0.0694,-0.5043 -0.15218,-1.00717 -0.18411,-1.11749 -0.032,-0.11031 -0.009,-0.20057 0.0504,-0.20057 0.23034,0 0.58972,1.29131 0.98987,3.55672 0.1618,0.91606 0.34754,1.84444 0.41275,2.06306 0.0653,0.21861 0.14159,0.52642 0.16973,0.68402 0.27632,1.54766 1.3636608,5.26144 1.5004208,5.12468 0.0212,-0.0212 -0.009,-0.32815 -0.0663,-0.68221 -0.0576,-0.35407 -0.18968,-1.38131 -0.2934608,-2.28276 -0.10377,-0.90145 -0.20648,-1.66779 -0.22823,-1.70298 -0.0217,-0.0352 -0.07,-0.62943 -0.10726,-1.32054 -0.0372,-0.69111 -0.0941,-1.74654 -0.12639,-2.3454 -0.0322,-0.59886 -0.10876,-2.32667 -0.16999,-3.83958 -0.0612,-1.51292 -0.16372,-3.16337 -0.22775,-3.66766 -0.13215,-1.04083 -0.34272,-2.78497 -0.67778,-5.61406 -0.12679,-1.07051 -0.25773,-2.07625 -0.29098,-2.23498 -0.0934,-0.44599 -0.23524,-1.81575 -0.45709,-4.41472 -0.0323,-0.37822 -0.11691,-1.35817 -0.18807,-2.17767 -0.0711,-0.81949 -0.14162,-2.49573 -0.15663,-3.72497 -0.0149,-1.22924 -0.0579,-2.75075 -0.0953,-3.38112 -0.0374,-0.63038 -0.0999,-2.53871 -0.13893,-4.24073 -0.039,-1.70203 -0.11817,-3.49779 -0.17593,-3.99059 -0.0578,-0.4928 -0.13636,-1.3696 -0.17466,-1.94845 -0.11231,-1.69752 -0.48423,-4.62937 -0.74416,-5.86625 -0.13248,-0.63039 -0.28724,-1.42982 -0.3439,-1.77653 -0.0566,-0.34671 -0.3667,-1.4556 -0.68897,-2.46421 -1.32525,-4.14774 -2.21319,-6.81804 -2.57958,-7.75767 -0.59991,-1.53846 -1.01454,-2.91081 -1.70772995,-5.652217 -0.724696,-2.865994 -0.761255,-3.036731 -0.678788,-3.170166 0.084678,-0.137021 0.504468,0.109021 0.504468,0.295673 0,0.153805 0.0822,0.441979 0.68890995,2.416031 0.17437,0.567346 0.45603,1.567764 0.62591,2.223163 0.16988,0.655396 0.35471,1.274326 0.41073,1.375376 0.10046,0.18124 0.75215,2.10078 1.93015,5.68523 0.33146,1.00861 0.64588,1.93698 0.69868,2.06307 0.0528,0.12607 0.1488,0.43553 0.2133,0.68768 0.0644,0.25216 0.35578,1.20632 0.6473,2.12036 0.29152,0.91406 0.60076,1.99716 0.68719,2.40691 0.0864,0.40975 0.23883,1.13182 0.33867,1.6046 0.24793,1.17411 0.49387,2.85132 0.57983,3.95421 0.0393,0.50429 0.13812,1.48425 0.21958,2.17767 0.0815,0.69342 0.15939,2.00861 0.17316,2.92266 0.0437,2.90307 0.20794,6.73173 0.31151,7.26371 0.0353,0.18123 0.0191,0.30164 -0.0361,0.26755 -0.0985,-0.0609 -0.0711,0.47579 0.18048,3.52904 0.0675,0.81949 0.14943,1.82523 0.18203,2.23498 0.11075,1.39173 0.18605,2.11821 0.35047,3.38113 0.0903,0.69342 0.24598,2.0344 0.34601,2.97997 0.18543,1.75302 0.21704,2.07219 0.3348,3.38113 0.0996,1.10755 0.38113,3.05567 0.7121208,4.92842 0.16156,0.91405 0.32909,1.91979 0.37231,2.23498 0.078,0.56879 0.91848,3.06093 1.2176,3.61036 l 0.15601,0.28653 -0.0517,-0.34384 c -0.0285,-0.18912 -0.10536,-0.8854 -0.17089,-1.5473 -0.0655,-0.66189 -0.13946,-1.33239 -0.1643,-1.48999 -0.15467,-0.98129 -0.29376,-15.7638 -0.15058,-16.00447 0.0551,-0.0926 0.12582,-1.549 0.26093,-5.37112 0.0312,-0.88253 0.0806,-1.93985 0.10979,-2.3496 0.0292,-0.40974 0.0867,-2.57596 0.12792,-4.8138 0.0411,-2.23785 0.0846,-4.42986 0.0966,-4.87112 0.0119,-0.44126 -0.0422,-1.52437 -0.12036,-2.40689 -0.0782,-0.88254 -0.1748,-2.30089 -0.21478,-3.1519 -0.04,-0.85102 -0.095,-1.85676 -0.12225,-2.23499 -0.10077,-1.39932 -0.17437,-4.24033 -0.21826,-8.42416 -0.0465,-4.43149 -0.1899,-6.520607 -0.64919,-9.455689 -0.9541008,-6.097403 -1.1924608,-7.479238 -1.4135908,-8.194934 -0.16676,-0.539734 -0.34364,-1.34416 -0.46622,-2.120367 -0.15183,-0.961329 -0.9986,-3.655427 -1.36747,-4.350735 -0.39301,-0.740826 -0.38002,-0.978838 0.0535,-0.978838 0.26312,0 0.72781,1.078631 1.08631,2.521518 0.16446,0.661899 0.44749,1.641853 0.62898,2.177675 0.32149,0.949191 0.5484,1.906953 0.65866,2.780119 0.0299,0.236788 0.1005,0.459031 0.15688,0.493874 0.0563,0.03484 0.1025008,0.23747 0.1025008,0.450279 0,0.212809 0.0521,0.523824 0.11567,0.691143 0.14276,0.375508 0.63082,3.186808 0.79542,4.581819 0.067,0.567342 0.14914,1.263624 0.18268,1.54729 0.0336,0.283673 0.13299,0.95417 0.22102,1.489993 0.088,0.535823 0.19238,1.515774 0.23191,2.177671 0.0395,0.661902 0.11905,1.616072 0.17671,2.120372 0.13951,1.22007 0.22852,3.7422 0.27706,7.85109 0.022,1.85962 0.0944,4.02583 0.16087,4.8138 0.0665,0.78798 0.14744,2.25791 0.17988,3.26651 0.0324,1.00862 0.11508,2.60749 0.18366,3.55306 0.0686,0.94557 0.0958,2.6218 0.0605,3.72497 -0.23565,7.36757 -0.29323,6.2358 0.61761,12.14054 0.22933,1.48669 0.44837,2.26627 0.30834,1.09742 -0.0377,-0.31519 0.008,-1.57882 0.10154,-2.80805 0.22565,-2.96354 0.37851,-4.04989 0.86284,-6.13188 0.84867,-3.64826 1.68315,-8.18465 1.84425,-10.02572 0.0775,-0.8864 0.0778,-2.41479 7e-4,-4.64492 -0.10837,-3.13753 -0.0853,-19.752599 0.03,-21.604827 0.0295,-0.472783 0.0829,-1.607466 0.11883,-2.521517 0.0906,-2.305945 0.18083,-4.173361 0.24079,-4.984639 0.18813,-2.54508 0.26629,-10.834074 0.12486,-13.239057 -0.0538,-0.914051 -0.0958,-1.739275 -0.0935,-1.833832 0.003,-0.09456 -0.05,-0.801605 -0.11632,-1.57122 -0.12655,-1.469298 -0.0928,-1.789538 0.17787,-1.685685 0.43743,0.167858 0.82225,7.297162 0.63978,11.852988 -0.0467,1.166201 -0.0976,3.461356 -0.113,5.100344 -0.0155,1.638985 -0.0674,3.444164 -0.11537,4.011505 -0.0736,0.8698 -0.25523,6.285187 -0.22874,6.819558 0.004,0.09456 -0.004,0.326652 -0.0188,0.515766 -0.0539,0.677168 -0.0216,3.120343 0.0596,4.527266 0.0455,0.78797 0.10718,2.30948 0.13703,3.38113 0.0299,1.07164 0.0875,2.49 0.12817,3.1519 0.0406,0.66189 0.0868,2.18617 0.10266,3.38728 0.0342,2.59443 0.14141,4.59141 0.28886,5.38072 0.0589,0.31519 0.16269,1.73355 0.23068,3.1519 0.068,1.41836 0.16187,2.81091 0.20861,3.09459 0.0815,0.49502 0.088,0.50194 0.15994,0.17192 0.0412,-0.18911 0.10913,-0.6533 0.1509,-1.03152 0.084,-0.76119 0.20751,-1.41056 0.71897,-3.78229 1.06719,-4.94872 1.52745,-7.63584 1.50704,-8.79856 -0.008,-0.46153 0.20043,-5.70067 0.27023,-6.789 0.0283,-0.44127 0.007,-1.730682 -0.0473,-2.865365 -0.0543,-1.134683 -0.12757,-4.151904 -0.16281,-6.704941 -0.0804,-5.82465 -0.15629,-8.924669 -0.22425,-9.159063 -0.029,-0.100108 -0.0832,-0.749356 -0.12018,-1.442773 -0.0371,-0.693418 -0.0907,-1.441276 -0.11918,-1.661909 -0.0285,-0.220632 -0.0827,-0.850632 -0.12053,-1.399998 -0.0378,-0.549364 -0.0855,-1.142493 -0.10595,-1.318066 -0.0205,-0.175572 -0.0716,-0.938137 -0.11359,-1.694592 -0.042,-0.756456 -0.15242,-2.123233 -0.24534,-3.037281 -0.0929,-0.914052 -0.19421,-1.97137 -0.22507,-2.349597 -0.0309,-0.378228 -0.12931,-1.306606 -0.21877,-2.063061 -0.0894,-0.756456 -0.21923,-2.149021 -0.28839,-3.09459 -0.0692,-0.94557 -0.14968,-1.83526405 -0.17892,-1.97709905 -0.0616,-0.298774 0.22862,-0.367049 0.33888,-0.07972 0.11436,0.29802805 0.30668,1.63987305 0.36714,2.56156105 0.0314,0.478848 0.10318,1.154304 0.15948,1.501012 0.10394,0.639854 0.19423,1.586924 0.2896,3.037284 0.0921,1.400203 0.39543,4.53528 0.57672,5.95995 0.3199,2.514107 0.53221,4.798048 0.57534,6.189181 0.0235,0.756455 0.095,2.226385 0.15894,3.266512 0.064,1.040125 0.14333,3.33528 0.17636,5.100342 0.033,1.765062 0.0795,3.312358 0.10331,3.438434 0.0238,0.126074 0.0766,0.9513 0.11734,1.83383 0.0966,2.092815 0.16438,3.160668 0.29832,4.699199 0.11539,1.32539 0.17335,2.22368 0.32542,5.04303 0.0829,1.53694 0.60604,4.65408 0.92096,5.48747 0.0529,0.13997 0.14771,-0.1806 0.2712,-0.91692 0.10442,-0.62266 0.28134,-1.59631 0.39315,-2.16365 0.17505,-0.88814 0.20332,-1.70065 0.20343,-5.84533 6e-5,-2.6476 -0.0386,-5.278 -0.0858,-5.845346 -0.0473,-0.567338 -0.13504,-2.465555 -0.19511,-4.218257 -0.0601,-1.752703 -0.13529,-3.228959 -0.16719,-3.28057 -0.0319,-0.05161 -0.0844,-0.93852 -0.11674,-1.970916 -0.0323,-1.032397 -0.086,-2.289694 -0.1193,-2.793997 -0.0586,-0.887481 -0.2271,-4.453396 -0.34931,-7.392633 -0.0328,-0.787972 -0.1376,-2.59315 -0.23297,-4.011504 -0.18368,-2.731705 -0.21706,-6.021755 -0.0668,-6.582863 0.0496,-0.185007 0.15073,-0.356586 0.22483,-0.381287 0.097,-0.03234 0.12736,0.206173 0.10837,0.85214 -0.0145,0.493378 0.0128,1.593335 0.0607,2.444347 0.21183,3.76431 0.33355,5.491391 0.43211,6.131874 0.21596,1.403149 0.35569,3.532041 0.45514,6.934173 0.0562,1.922657 0.12728,3.609118 0.15794,3.747686 0.0306,0.138571 0.0847,1.195889 0.12015,2.349596 0.0354,1.153709 0.0896,2.432899 0.12028,2.842645 0.0307,0.409745 0.0852,1.234971 0.12109,1.833831 0.0652,1.087889 0.19041,2.65969 0.39272,4.928424 0.11381,1.276194 0.20808,4.150567 0.29323,8.939917 0.0565,3.18007 0.0825,3.5384 0.39907,5.50149 0.36061,2.23631 0.68525,3.62731 1.21288,5.19681 0.27885,0.82948 0.84202,2.51679 1.25147,3.74959 0.40947,1.2328 0.81706,2.34071 0.90577,2.46204 0.15109,0.20663 0.15753,0.2009 0.10182,-0.0905 -0.0327,-0.17111 -0.0204,-0.40222 0.0272,-0.51359 0.0477,-0.11137 0.0756,-0.34316 0.062,-0.51509 -0.0136,-0.17192 0.0115,-0.37131 0.0558,-0.44308 0.0443,-0.0718 0.0709,-0.6145 0.0589,-1.20605 -0.0119,-0.59155 0.02,-1.07546 0.071,-1.07537 0.0509,1e-4 0.0585,-0.81223 0.0166,-1.80517 -0.19091,-4.5345 -0.2231,-5.13969 -0.28192,-5.3011 -0.0344,-0.0946 -0.0806,-1.15188 -0.10253,-2.3496 -0.0597,-3.26292 -0.16827,-6.127 -0.29532,-7.79378 -0.20186,-2.647864 -0.32041,-4.006289 -0.3901,-4.469967 -0.0284,-0.189112 -0.0797,-1.581678 -0.11395,-3.094587 -0.0343,-1.512912 -0.0869,-3.601759 -0.11704,-4.641885 -0.11717,-4.045577 -0.15381,-16.177111 -0.053,-17.536009 0.20513,-2.764465 0.83927,-6.189182 1.14602,-6.189182 0.20153,0 0.23415,0.242933 0.11898,0.88611 -0.23794,1.328706 -0.66701,4.942892 -0.80648,6.793059 -0.0821,1.088744 -0.0542,7.583307 0.0466,10.888372 0.0222,0.724936 0.0528,2.530115 0.0682,4.011505 0.0418,4.024898 0.19171,7.554772 0.39191,9.226461 0.0981,0.819496 0.22802,1.902598 0.28864,2.406903 0.0606,0.5043 0.18407,1.45847 0.27436,2.12037 0.0903,0.6619 0.20427,2.10604 0.2533,3.2092 0.10132,2.28008 0.0965,2.18333 0.21098,4.18343 0.0469,0.81949 0.10256,1.69629 0.12363,1.94845 0.12329,1.47582 0.1743,2.37023 0.22876,4.0115 0.13788,4.15435 0.20014,5.15426 0.46743,7.50725 0.31612,2.78279 0.53146,4.22388 1.19027,7.9657 0.12209,0.69342 0.30487,1.87967 0.40617,2.63613 0.1013,0.75646 0.23171,1.68483 0.2898,2.06307 0.058,0.37822 0.14255,1.20344 0.1877,1.83382 0.13961,1.94897 0.25845,0.6517 0.21,-2.29229 -0.0376,-2.28285 -0.1366,-3.91424 -0.34783,-5.73071 -0.0293,-0.25216 -0.10429,-1.23211 -0.16658,-2.17768 -0.0623,-0.94557 -0.16286,-2.2092 -0.2235,-2.80806 -0.10062,-0.99386 -0.17388,-1.95002 -0.29417,-3.83958 -0.0604,-0.94824 -0.072,-7.27251 -0.0136,-7.37052 0.0261,-0.0437 0.0811,-0.82727 0.1224,-1.74133 0.11174,-2.47466 0.28858,-4.72265 0.47786,-6.07456 0.14692,-1.04927 0.33047,-2.41827 0.56861,-4.24073 0.2178,-1.666787 0.64304,-4.148153 1.24728,-7.278023 0.5723,-2.964465 0.92983,-4.9385 1.14174,-6.303793 0.36585,-2.357057 0.62524,-4.147159 0.69753,-4.813807 0.0927,-0.854908 0.60022,-3.662101 0.74597,-4.12612 0.1401,-0.446022 0.42493,-1.903226 0.51634,-2.641613 0.0878,-0.708737 0.18716,-0.884754 0.44405,-0.786171 0.14026,0.05382 0.18117,0.162684 0.14148,0.376378 -0.0307,0.165361 -0.0867,0.558541 -0.12448,0.87373 -0.0647,0.540308 -0.24879,1.534816 -0.75306,4.068814 -0.24587,1.235532 -0.49542,2.936294 -0.68948,4.699191 -0.13527,1.228779 -0.32871,2.44324 -0.85804,5.386879 -0.39016,2.169746 -0.99884,5.648239 -1.3036,7.449938 -0.13329,0.787972 -0.29225,1.649337 -0.35325,1.914137 -0.15007,0.65148 -0.63456,3.88891 -0.84561,5.65042 -0.23098,1.92791 -0.30845,3.4274 -0.39081,7.56455 -0.15272,7.67181 -0.12605,8.48243 0.43743,13.29527 0.0628,0.53583 0.14009,1.59315 0.17193,2.3496 0.0319,0.75646 0.10735,1.89114 0.16783,2.52152 0.0604,0.63038 0.16569,1.73927 0.23382,2.46421 0.0681,0.72494 0.17168,1.65332 0.2301,2.06306 0.16282,1.14173 0.32022,2.89216 0.39681,4.41265 0.0954,1.89371 0.15814,2.79816 0.28231,4.06881 0.13139,1.34453 0.21544,2.55968 0.28541,4.12613 0.10112,2.26383 0.21423,4.64168 0.23718,4.98573 0.0126,0.18911 0.0352,0.75645 0.0503,1.26075 0.0345,1.15826 0.13751,0.79119 0.40191,-1.43268 0.10118,-0.85101 0.23609,-1.97763 0.29982,-2.50362 0.16188,-1.33625 0.33932,-5.76796 0.26688,-6.66553 -0.033,-0.40975 -0.13277,-1.57022 -0.22154,-2.57883 -0.0888,-1.0086 -0.1942,-2.34959 -0.23427,-2.97997 -0.0401,-0.63038 -0.1439,-1.57106 -0.23073,-2.09041 -0.0868,-0.51934 -0.18857,-1.4735 -0.22608,-2.12037 -0.0375,-0.64685 -0.1136,-1.30504 -0.1691,-1.46263 -0.12548,-0.35638 -0.51926,-2.89924 -0.67444,-4.35535 -0.11076,-1.03927 -0.1815,-2.42397 -0.29861,-5.84534 -0.0291,-0.85102 -0.0786,-2.06306 -0.10987,-2.69345 -0.0312,-0.63037 -0.0859,-1.84241 -0.12137,-2.69343 -0.0354,-0.85101 -0.09,-1.82235 -0.12129,-2.15853 -0.0643,-0.69133 0.11861,-2.69226 0.3138,-3.43325 l 0.12946,-0.49143 0.22021,0.23638 c 0.21041,0.22585 0.21279,0.2835 0.0531,1.29374 -0.15237,0.96449 -0.16858,3.33736 -0.0299,4.38117 0.0251,0.18911 0.0793,1.37537 0.12042,2.63613 0.0411,1.26076 0.096,2.42123 0.12191,2.57883 0.0259,0.15759 0.0774,0.95702 0.11444,1.77652 0.0583,1.29143 0.40392,4.53432 0.73901,6.93417 0.3439,2.46292 0.58695,4.09076 0.63316,4.24074 0.12639,0.4101 0.61836,4.88275 0.68079,6.18918 0.14936,3.12573 0.0965,7.61401 -0.10404,8.82531 -0.0261,0.1576 -0.0802,0.8023 -0.12026,1.43268 -0.0401,0.63038 -0.12123,1.50718 -0.1804,1.94844 -0.0592,0.44127 -0.15505,1.2407 -0.21306,1.77653 -0.058,0.53582 -0.16014,1.4771 -0.22696,2.09171 -0.23665,2.17686 -0.33961,3.24939 -0.40439,4.21208 -0.036,0.53583 -0.088,1.25789 -0.11546,1.6046 -0.0275,0.34671 -0.0802,1.06878 -0.11715,1.60461 -0.0369,0.53582 -0.0883,1.25789 -0.11418,1.6046 -0.0258,0.34671 -0.0772,2.04874 -0.11406,3.78228 -0.0369,1.73354 -0.0925,3.407 -0.12352,3.71882 -0.0702,0.70554 0.0597,0.59576 0.30731,-0.25956 0.98718,-3.41064 1.06569,-3.62903 1.26107,-3.50828 0.11293,0.0698 0.0651,4.39221 -0.0633,5.72243 -0.0305,0.31519 -0.0826,0.88254 -0.11591,1.26076 -0.0333,0.37822 -0.10953,1.12608 -0.16935,1.66191 -0.0598,0.53582 -0.14009,1.38684 -0.17838,1.89114 -0.0383,0.5043 -0.11821,1.20058 -0.17762,1.54729 -0.0594,0.34671 -0.13851,1.14614 -0.17577,1.77653 -0.0373,0.63037 -0.11476,1.37824 -0.17223,1.6619 -0.0574,0.28368 -0.20736,1.1089 -0.33312,1.83384 -0.12576,0.72493 -0.27914,1.52437 -0.34085,1.77652 -0.0617,0.25215 -0.2721,1.10316 -0.46756,1.89113 -0.19546,0.78799 -0.45676,1.92264 -0.58064,2.52148 -0.12389,0.59884 -0.48251,1.86246 -0.79692,2.80805 -0.31441,0.9456 -0.62523,1.89979 -0.69071,2.12042 -0.179,0.60308 -0.79447,2.28446 -1.0379,2.83546 -0.11806,0.26722 -0.21467,0.51761 -0.21467,0.55641 0,0.0743 -0.94103,2.37122 -1.45124,3.5423 -0.46027,1.05646 -0.47663,1.09659 -0.77125,1.89114 -0.15193,0.40975 -0.74556,1.64662 -1.31916,2.74862 -0.57362,1.10199 -1.04293,2.06276 -1.04293,2.13502 0,0.0723 0.0837,0.33111 0.18597,0.5752 0.21793,0.52008 0.1753,1.82981 -0.13754,4.22608 -0.0881,0.67506 -0.225,0.97422 -0.44571,0.97422 -0.088,0 -0.30538,0.30688 -0.48308,0.68194 -0.1777,0.37506 -0.36305,0.68452 -0.41189,0.68768 -0.0489,0.004 -0.14136,-0.13251 -0.20562,-0.30152 -0.15028,-0.39529 0.0406,-1.32893 0.3528,-1.72587 0.36951,-0.46976 0.49775,-1.15088 0.48546,-2.57843 -0.0126,-1.46509 -0.0731,-1.80684 -0.31969,-1.80684 -0.0888,0 -0.24042,-0.12035 -0.3368,-0.26746 -0.24523,-0.37424 -0.077,-0.79795 0.82461,-2.07657 0.75462,-1.07017 1.69443,-2.87817 2.32642,-4.47552 0.19953,-0.50431 0.40419,-0.96849 0.4548,-1.03153 0.15508,-0.19313 1.50388,-3.38217 1.8421,-4.35535 0.17526,-0.5043 0.43113,-1.20059 0.56861,-1.5473 0.13747,-0.3467 0.50573,-1.50718 0.81834,-2.57882 0.31261,-1.07165 0.74996,-2.56736 0.97187,-3.32382 0.61137,-2.08405 1.07958,-4.01125 1.25304,-5.15765 0.0858,-0.56734 0.23484,-1.38993 0.3311,-1.82799 0.21325,-0.97037 0.82578,-8.31538 0.69347,-8.31538 -0.0174,0 -0.14417,0.50286 -0.28163,1.11748 -0.13746,0.61463 -0.37068,1.53011 -0.51827,2.03441 -0.14758,0.5043 -0.30476,1.09743 -0.3493,1.31807 -0.0445,0.22063 -0.13291,0.46562 -0.19639,0.54441 -0.0635,0.0788 -0.082,0.14328 -0.0411,0.14328 0.0409,0 0.002,0.14183 -0.0864,0.31518 -0.0884,0.17336 -0.35155,0.88254 -0.5848,1.57596 -0.68762,2.04426 -1.09964,3.01922 -1.84056,4.35534 -0.38453,0.69342 -0.88847,1.62971 -1.11987,2.08064 -0.23141,0.45094 -0.55088,1.06465 -0.70994,1.3638 -0.15905,0.29914 -0.28919,0.57981 -0.28919,0.62369 0,0.0929 -1.65318,3.16088 -1.81127,3.36136 -0.0586,0.0742 -0.23663,0.36716 -0.39568,0.65083 -0.15906,0.28367 -0.57066,0.97995 -0.91467,1.5473 -2.01233,3.31868 -3.33651,6.20239 -3.07364,6.69356 0.0664,0.12406 0.1207,0.33925 0.1207,0.47825 0,0.13899 0.15688,0.76109 0.34862,1.38246 0.30607,0.99182 1.02675,4.04047 1.02675,4.34338 0,0.21809 -0.17518,0.10392 -0.3725,-0.24278 -0.11031,-0.19382 -0.20057,-0.44736 -0.20057,-0.56343 0,-0.16655 -0.6286,-2.03751 -1.00107,-2.9796 -0.0374,-0.0945 -0.0759,-0.19771 -0.0854,-0.22923 -0.25747,-0.84702 -0.42246,-1.3285 -0.56794,-1.6574 -0.0987,-0.22311 -0.25869,-0.58508 -0.35557,-0.80436 -0.0969,-0.21927 -0.30758,-0.74793 -0.46823,-1.1748 -0.16066,-0.42685 -0.33295,-0.82767 -0.38287,-0.89071 -0.0499,-0.063 -0.36003,-0.75932 -0.68915,-1.5473 -0.63116,-1.5111 -2.54941,-5.31292 -4.27942,-8.48147 -0.5679,-1.04012 -1.18577,-2.20059 -1.37304,-2.57882 -0.18727,-0.37822 -0.55757,-1.04872 -0.8229,-1.48999 -0.26532,-0.44126 -0.68923,-1.18912 -0.94203,-1.6619 -0.74369,-1.3909 -3.3564408,-4.98525 -3.3601808,-4.6226 -4.6e-4,0.0524 0.13037,0.68846 0.2909008,1.41339 0.16055,0.72494 0.3488,1.57595 0.41836,1.89114 0.0695,0.31519 0.29492,1.1662 0.5008,1.89114 1.05112,3.70114 1.25988,4.25642 3.66257,9.74222 0.67644,1.54443 1.48158,3.44283 1.78922,4.21864 0.30763,0.77583 0.68403,1.67842 0.83643,2.00576 1.13351,2.43467 1.50405,3.17877 2.10284,4.22291 0.9417,1.64208 1.76305,3.39477 1.83357,3.9127 0.0452,0.33215 0.004,0.49398 -0.17245,0.68769 -0.3076,0.33647 -0.41294,1.2913 -0.26051,2.36152 0.11302,0.79356 0.24688,1.15552 0.81925,2.21541 0.28479,0.52736 0.40697,1.56329 0.22457,1.90409 -0.14607,0.27293 -0.46083,0.32448 -0.67482,0.11049 z" style="fill:#46fafa;fill-opacity:1;stroke:#000000;stroke-width:0.21602426;stroke-miterlimit:4;stroke-dasharray:none;stroke-opacity:1" inkscape:connector-curvature="0"/>
      <path id="path856" d="m 23.325004,140.90455 c 0.28051,-0.44127 0.80196,-1.24071 1.1588,-1.77653 0.39311,-0.59031 0.63203,-1.06454 0.60629,-1.20344 -0.15359,-0.82874 -1.96898,-5.20661 -2.32886,-5.61611 -0.18331,-0.2086 -1.85593,-3.00077 -2.71467,-4.53174 -0.1931,-0.34425 -0.60791,-1.06432 -0.92179,-1.60014 -0.62669,-1.0698 -3.2953,-5.68103 -3.58346,-6.19205 -0.0994,-0.17619 -0.25955,-0.44103 -0.356,-0.58854 -0.40691,-0.62234 -4.35953,-8.37477 -4.80957,-9.4332 l -0.29064,-0.68354 -0.0801,1.89609 c -0.0441,1.04285 -0.0531,2.0983 -0.0203,2.34545 0.0328,0.24715 0.0837,0.96512 0.11297,1.59549 0.0857,1.84818 1.04613,6.27658 1.61561,7.44995 0.15298,0.31519 0.42131,0.7278 0.59629,0.91691 0.3493,0.37751 0.98623,1.31807 0.89257,1.31807 -0.0323,0 0.3997,0.68338 0.9601,1.51864 1.04299,1.55455 1.27061,1.96416 2.30886,4.15477 0.32864,0.69342 0.7903,1.59601 1.02592,2.00576 0.75446,1.31202 2.60031,4.90297 3.09304,6.01726 0.13937,0.31518 0.47349,1.01147 0.74249,1.54729 0.26899,0.53583 0.6112,1.29424 0.76044,1.68538 l 0.27136,0.71115 0.2253,-0.3673 c 0.12392,-0.20203 0.4548,-0.72836 0.73531,-1.16962 z" style="fill:#46fafa;fill-opacity:1;stroke:#000000;stroke-width:0.21602426;stroke-miterlimit:4;stroke-dasharray:none;stroke-opacity:1" inkscape:connector-curvature="0"/>
      <path id="path854" d="m 27.142904,134.65003 c 0.55006,-0.97268 1.11822,-1.94902 1.26257,-2.16964 0.14434,-0.22064 0.32168,-0.50431 0.39405,-0.63039 0.0724,-0.12607 0.39461,-0.66763 0.71607,-1.20345 0.73997,-1.23339 1.28132,-2.28025 1.61986,-3.13244 0.146,-0.36752 0.35951,-0.85272 0.47448,-1.0782 0.21786,-0.42733 1.43221,-4.16482 1.74142,-5.35966 0.43409,-1.67751 0.8608,-5.06253 1.05469,-8.36685 0.037,-0.63039 0.11418,-1.66192 0.17153,-2.29229 0.18818,-2.06848 0.22127,-2.82211 0.29178,-6.64545 0.0384,-2.07905 0.0994,-3.83265 0.13579,-3.89689 0.0363,-0.0643 0.0199,-0.0746 -0.0365,-0.0231 -0.0564,0.0515 -0.1889,0.38682 -0.29435,0.74499 -0.32153,1.09198 -3.42113,10.09445 -4.05209,11.76881 -0.16627,0.44126 -0.3822,1.0344 -0.47981,1.31806 -0.0976,0.28367 -0.46015,1.16047 -0.8056,1.94845 -0.34546,0.78797 -0.75521,1.74214 -0.91055,2.12036 -0.26315,0.6407 -0.50305,1.13062 -2.18737,4.46714 -0.34925,0.69185 -0.93302,1.7598 -1.29725,2.3732 -0.36423,0.61342 -0.69927,1.23361 -0.74452,1.37822 -0.0452,0.1446 -0.26964,0.59815 -0.49865,1.00791 -0.229,0.40974 -0.6357,1.19551 -0.90377,1.74617 l -0.4874,1.00118 0.27083,0.4315 c 0.14895,0.23732 0.40234,0.6636 0.56308,0.94727 0.16073,0.28367 0.58901,1.02793 0.95174,1.6539 0.36272,0.62598 0.77253,1.42541 0.91072,1.77652 0.42228,1.07303 0.89534,1.96434 1.02044,1.92264 0.0653,-0.0218 0.56877,-0.83538 1.11883,-1.80805 z" style="fill:#46fafa;fill-opacity:1;stroke:#000000;stroke-width:0.21602426;stroke-miterlimit:4;stroke-dasharray:none;stroke-opacity:1" inkscape:connector-curvature="0"/>
      <path id="path852" d="m 21.819344,128.09639 c 0.30196,-0.33178 1.41149,-2.10896 2.25113,-3.60574 0.5237,-0.93356 0.63253,-1.21167 0.53822,-1.37538 -0.065,-0.11286 -0.40535,-0.84989 -0.75628,-1.63787 -0.70234,-1.57704 -1.96928,-4.02889 -2.6501,-5.12863 -0.24054,-0.38853 -0.71665,-1.16002 -1.05805,-1.71444 -0.34138,-0.55441 -0.65283,-1.03381 -0.69209,-1.06532 -0.11847,-0.0951 -0.96574,-1.37657 -1.55432,-2.35087 -0.30424,-0.50361 -0.59592,-0.93284 -0.64819,-0.95386 -0.0523,-0.021 -0.095,-0.0943 -0.095,-0.16289 0,-0.0685 -0.0701,-0.20612 -0.15571,-0.30564 -0.0856,-0.0995 -0.35128,-0.54198 -0.59031,-0.98324 -0.23903,-0.44128 -0.78787,-1.38935 -1.21966,-2.10685 -0.43179,-0.7175 -0.78507,-1.34832 -0.78507,-1.40182 0,-0.0535 -0.20631,-0.53767 -0.45846,-1.07591 -0.25215,-0.53825 -0.45846,-1.00445 -0.45846,-1.03601 0,-0.0316 -0.1333,-0.26856 -0.29624,-0.52666 -0.16293,-0.2581 -0.36367,-0.65679 -0.44609,-0.88598 -0.0824,-0.22919 -0.43058,-1.00985 -0.77369,-1.73478 -0.34311,-0.72494 -0.79997,-1.71892 -1.01525,-2.20886 -0.35766,-0.814 -0.39764,-0.8634 -0.46379,-0.57307 -0.16933,0.74303 -0.0948,4.00823 0.12896,5.64729 0.28882,2.11613 0.76427,5.11383 0.90224,5.68868 0.89627,3.7343 1.918,6.31216 3.74171,9.44043 0.48337,0.82914 0.6861,1.1944 1.49493,2.69343 0.30611,0.56735 1.12872,1.90833 1.82803,2.97998 0.6993,1.07165 1.62998,2.55351 2.06818,3.29303 0.43819,0.73951 0.82641,1.34553 0.8627,1.34672 0.0363,8.9e-4 0.1716,-0.11391 0.30069,-0.25574 z" style="fill:#46fafa;fill-opacity:1;stroke:#000000;stroke-width:0.21602426;stroke-miterlimit:4;stroke-dasharray:none;stroke-opacity:1" inkscape:connector-curvature="0"/>
      <path id="path850" d="m 25.896324,120.96163 c 0.22182,-0.5043 0.73786,-1.61319 1.14675,-2.4642 1.40965,-2.93384 1.98894,-4.18554 2.25432,-4.87112 0.14642,-0.37822 0.38256,-0.97136 0.52474,-1.31806 0.1422,-0.34671 0.50266,-1.37824 0.80103,-2.29229 0.29836,-0.91406 0.76069,-2.25504 1.02742,-2.97998 1.04079,-2.82896 2.56955,-7.7569 2.73779,-8.82531 0.25625,-1.62728 0.2928,-6.16987 0.0746,-9.26626 -0.15654,-2.22112 -0.18511,-2.48145 -0.46739,-4.25825 -0.12518,-0.78797 -0.29276,-1.86929 -0.37241,-2.40293 l -0.14479,-0.97026 -0.15379,0.68372 c -0.18718,0.83219 -0.60909,2.44937 -1.06047,4.06485 -0.18494,0.6619 -0.4107,1.53765 -0.50167,1.94614 -0.38067,1.70921 -1.71439,5.88225 -2.29018,7.16571 -0.0848,0.18911 -0.39548,1.04012 -0.69028,1.89113 -1.56477,4.5169 -1.93487,5.56654 -2.22274,6.3038 -0.13538,0.34671 -0.34688,0.84901 -0.47001,1.11624 -0.12313,0.26723 -0.22387,0.53882 -0.22387,0.60355 0,0.12028 -0.70411,1.9914 -1.9406,5.15708 -0.38164,0.97708 -0.69426,1.84099 -0.69472,1.91978 -4.6e-4,0.0788 -0.0524,0.14328 -0.11543,0.14328 -0.063,0 -0.11461,0.12589 -0.11461,0.27976 0,0.15388 -0.0476,0.3092 -0.1058,0.34516 -0.0582,0.036 -0.13975,0.21998 -0.18125,0.40892 -0.0415,0.18894 -0.11423,0.31956 -0.16164,0.29026 -0.0474,-0.0293 -0.0862,0.009 -0.0862,0.0856 0,0.0763 -0.13754,0.48257 -0.30564,0.90276 -0.37094,0.9272 -0.37058,0.91289 -0.0363,1.44351 0.14812,0.23513 0.54128,0.94328 0.87371,1.57366 1.20148,2.27835 1.5333,2.8774 1.98502,3.58362 0.25268,0.39503 0.47105,0.70449 0.48529,0.68769 0.0142,-0.0168 0.20737,-0.44319 0.42919,-0.94749 z" style="fill:#46fafa;fill-opacity:1;stroke:#000000;stroke-width:0.21602426;stroke-miterlimit:4;stroke-dasharray:none;stroke-opacity:1" inkscape:connector-curvature="0"/>
      <path id="path848" d="m 22.003694,112.36189 c 0.53018,-1.00659 1.00387,-1.95911 1.05265,-2.1167 0.0488,-0.1576 0.26226,-0.66407 0.47442,-1.12547 0.21216,-0.46141 0.41662,-0.96191 0.45434,-1.11222 0.0894,-0.3562 -0.31659,-1.57371 -0.93548,-2.80535 -0.26925,-0.53583 -0.60348,-1.23211 -0.74273,-1.54729 -0.13926,-0.3152 -0.29092,-0.59887 -0.33703,-0.63039 -0.12481,-0.0853 -1.31629,-2.46691 -1.66287,-3.32382 -0.16572,-0.40974 -0.36972,-0.89972 -0.45334,-1.08883 -0.0836,-0.18911 -0.18923,-0.47279 -0.23473,-0.63038 -0.0455,-0.15759 -0.25245,-0.67719 -0.45991,-1.15465 -0.20745,-0.47746 -0.59553,-1.53478 -0.86239,-2.34959 -0.26687,-0.81482 -0.56375,-1.63621 -0.65974,-1.82533 -0.096,-0.18912 -0.34582,-0.8854 -0.55517,-1.5473 -0.20935,-0.6619 -0.69398,-2.10604 -1.07697,-3.2092 -0.38299,-1.10316 -0.82713,-2.39258 -0.98698,-2.86536 -0.15986,-0.47279 -0.4359,-1.22065 -0.61343,-1.66191 -0.66936,-1.6637 -1.04717,-2.67838 -1.50591,-4.04429 -0.26011,-0.77449 -0.48545,-1.39341 -0.50076,-1.37538 -0.0153,0.0181 -0.0618,0.49697 -0.10337,1.06432 -0.0416,0.56734 -0.1265,1.5871 -0.18879,2.26613 -0.13061,1.42355 -0.084,3.92243 0.18671,9.99761 0.0309,0.69342 0.0768,1.75074 0.10208,2.3496 0.0451,1.0672 0.23735,3.21751 0.35882,4.01151 0.0985,0.64401 0.73806,3.46369 0.87087,3.83958 0.13445,0.38055 0.98087,2.11152 1.1209,2.29229 0.0489,0.063 0.39761,0.70774 0.77506,1.43268 0.97951,1.88126 1.47775,2.78284 2.1716,3.92958 0.33507,0.55379 0.60924,1.03492 0.60924,1.06918 0,0.0949 2.66743,4.06267 2.70559,4.02451 0.0183,-0.0183 0.46714,-0.85693 0.99732,-1.86353 z" style="fill:#46fafa;fill-opacity:1;stroke:#000000;stroke-width:0.21602426;stroke-miterlimit:4;stroke-dasharray:none;stroke-opacity:1" inkscape:connector-curvature="0"/>
      <path id="path846" d="m 25.473114,104.17061 c 0.37257,-0.96863 0.86709,-2.3327 1.47507,-4.0688 0.11037,-0.31519 0.26651,-0.72781 0.34697,-0.91692 0.84406,-1.98384 2.74168,-7.59364 3.08942,-9.13299 0.0899,-0.39812 0.24236,-1.00752 0.33876,-1.35423 1.47006,-5.28805 1.47993,-5.34696 1.46742,-8.75624 -0.005,-1.56947 -0.0367,-3.09098 -0.0688,-3.38112 -0.032,-0.29015 -0.0891,-0.96593 -0.12676,-1.50176 -0.16118,-2.29405 -0.68472,-5.56435 -1.44954,-9.05454 -0.30056,-1.37152 -0.34565,-1.50464 -0.40762,-1.20345 -0.0259,0.12608 -0.17259,0.74499 -0.3259,1.37537 -0.15332,0.63038 -0.32613,1.37824 -0.38404,1.66191 -0.6119,2.99757 -0.82068,3.76797 -1.81705,6.70495 -0.34217,1.00861 -0.77445,2.37538 -0.96065,3.03728 -0.1862,0.6619 -0.41876,1.48712 -0.51681,1.83383 -0.0981,0.34671 -0.22074,0.7851 -0.27262,0.97422 -0.23837,0.86876 -0.43909,1.51795 -0.56701,1.83383 -0.0766,0.18911 -0.16452,0.49858 -0.19543,0.68769 -0.0309,0.18911 -0.28321,1.02832 -0.56067,1.8649 -0.27746,0.83659 -0.60821,1.9197 -0.735,2.40691 -0.1268,0.48721 -0.30554,1.11793 -0.3972,1.4016 -0.0917,0.28368 -0.24837,0.8768 -0.34826,1.31807 -0.18026,0.7964 -1.14116,4.03057 -1.32807,4.46996 -0.17738,0.41703 -0.90705,3.40356 -0.9065,3.71037 7e-4,0.38199 0.46274,1.52578 0.72053,1.78356 0.10771,0.10773 0.2023,0.26954 0.21018,0.35959 0.0259,0.2963 0.0425,0.33093 0.41686,0.87208 0.20411,0.29503 0.37111,0.59365 0.37111,0.6636 0,0.19845 0.40255,0.93981 1.10559,2.03613 1.23499,1.92585 1.22537,1.91364 1.32122,1.67614 0.0473,-0.1172 0.27445,-0.70308 0.5048,-1.30194 z" style="fill:#46fafa;fill-opacity:1;stroke:#000000;stroke-width:0.21602426;stroke-miterlimit:4;stroke-dasharray:none;stroke-opacity:1" inkscape:connector-curvature="0"/>
      <path id="path844" d="m 20.579554,94.54301 c 0.0485,-0.22064 0.3232,-1.04586 0.61035,-1.83383 0.57375,-1.57441 1.12368,-3.3005 1.12289,-3.5244 -2.3e-4,-0.0788 0.042,-0.14327 0.0939,-0.14327 0.0519,0 0.21303,-0.39971 0.35797,-0.88826 0.14495,-0.48854 0.30876,-1.03779 0.36403,-1.22056 0.25162,-0.83208 0.0561,-1.83532 -0.92917,-4.76804 -0.64954,-1.93337 -1.28285,-4.30857 -2.12391,-7.96571 -0.087,-0.37823 -0.28637,-1.22924 -0.44306,-1.89114 -0.42743,-1.80563 -0.71945,-3.15038 -0.93333,-4.29804 -0.10574,-0.56734 -0.31194,-1.57308 -0.45824,-2.23498 -0.1463,-0.6619 -0.37578,-1.71922 -0.50996,-2.34959 -0.13417,-0.63039 -0.28559,-1.30087 -0.33649,-1.49 l -0.0925,-0.34384 -0.1283,0.31556 c -0.0706,0.17356 -0.22652,0.5346 -0.34656,0.80231 -0.23813,0.53102 -0.34237,0.84082 -0.42099,1.25123 -0.0281,0.14687 -0.22861,0.83438 -0.44548,1.52779 -0.51567,1.6488 -1.1676,4.29021 -1.27297,5.15766 -0.0459,0.37822 -0.1081,0.79084 -0.13814,0.91691 -0.03,0.12608 -0.0808,1.31234 -0.11281,2.63613 -0.0429,1.77364 -0.009,2.87976 0.12899,4.20412 0.17384,1.66917 0.56427,4.11869 0.68851,4.31971 0.0297,0.048 0.18558,0.67056 0.34653,1.38353 0.36916,1.63534 1.01018,3.5383 2.37672,7.05558 0.31839,0.81949 0.83772,2.16048 1.15407,2.97998 0.31634,0.81948 0.65361,1.66927 0.74948,1.88841 l 0.17431,0.39845 0.21796,-0.74229 c 0.11989,-0.40825 0.25769,-0.92279 0.30623,-1.14342 z" style="fill:#46fafa;fill-opacity:1;stroke:#000000;stroke-width:0.21602426;stroke-miterlimit:4;stroke-dasharray:none;stroke-opacity:1" inkscape:connector-curvature="0"/>
      <path id="path842" d="m 24.673384,81.87711 c 0.24641,-0.81472 0.622,-2.19779 1.60269,-5.90164 0.15856,-0.59886 0.35873,-1.3983 0.44483,-1.77653 0.0861,-0.37823 0.3087,-1.3066 0.49468,-2.06306 0.72124,-2.93357 1.09889,-5.09285 1.09246,-6.24648 -0.005,-1.00826 -0.26734,-2.90029 -0.55721,-4.02805 -0.0915,-0.35581 -0.16629,-0.79739 -0.16629,-0.9813 0,-0.36921 -0.36877,-1.85436 -0.64464,-2.59613 -0.0971,-0.26117 -0.24691,-0.73273 -0.33285,-1.04791 -0.15099,-0.55368 -0.81131,-2.37344 -1.28928,-3.55306 -0.2733,-0.67449 -0.70786,-2.13472 -0.79304,-2.66478 -0.0583,-0.36276 -0.26401,-0.53003 -0.26401,-0.21468 0,0.0868 -0.15081,0.53809 -0.33513,1.00288 -0.18432,0.46478 -0.42306,1.25767 -0.53053,1.76197 -0.10746,0.5043 -0.23988,0.97324 -0.29425,1.04208 -0.0544,0.0688 -0.0758,0.14817 -0.0477,0.17629 0.0281,0.0281 -0.054,0.43599 -0.18267,0.90637 -0.22747,0.832 -0.81427,3.71517 -0.94388,4.63751 -0.0354,0.25215 -0.1454,1.0258 -0.24438,1.71922 -0.099,0.69341 -0.20356,1.46706 -0.23243,1.71922 -0.0289,0.25215 -0.10215,0.69055 -0.16283,0.97422 -0.22182,1.03697 -0.48435,4.30509 -0.51558,6.41841 -0.0247,1.66689 0.11864,2.70436 0.67545,4.89104 0.99835,3.92061 1.65945,6.15446 2.21301,7.47764 l 0.30762,0.7353 0.21419,-0.7353 c 0.1178,-0.40443 0.33911,-1.14838 0.4918,-1.65323 z" style="fill:#46fafa;fill-opacity:1;stroke:#000000;stroke-width:0.21602426;stroke-miterlimit:4;stroke-dasharray:none;stroke-opacity:1" inkscape:connector-curvature="0"/>
      <path id="path840" d="m 20.005074,65.8894 c 0.19375,-0.6619 0.50646,-2.18341 0.69493,-3.38113 0.38954,-2.47556 0.93731,-5.57621 1.19466,-6.76226 0.61425,-2.83101 0.63757,-2.9885 0.58334,-3.94149 -0.0532,-0.93601 -0.22527,-1.88198 -0.55462,-3.04998 l -0.1616,-0.57308 -0.17871,0.41537 c -0.19701,0.45787 -0.36185,1.05838 -0.87538,3.18903 -0.18912,0.78469 -0.34386,1.54849 -0.34386,1.69732 0,0.14883 -0.0464,0.24194 -0.1031,0.20689 -0.0567,-0.0351 -0.12798,0.15532 -0.15837,0.42304 -0.0304,0.26772 -0.11596,0.8478 -0.19014,1.28906 -0.73063,4.34681 -0.8101,5.44887 -0.64048,8.88263 0.0633,1.28139 0.26607,2.93073 0.34938,2.84185 0.0174,-0.0186 0.1902,-0.57535 0.38395,-1.23725 z" style="fill:#46fafa;fill-opacity:1;stroke:#000000;stroke-width:0.21602426;stroke-miterlimit:4;stroke-dasharray:none;stroke-opacity:1" inkscape:connector-curvature="0"/>
      <path id="path873" d="m 39.826794,0.02240995 c 0.0827,-0.03311 0.1816,-0.02904 0.21968,0.009 0.0381,0.03808 -0.0296,0.06517 -0.15043,0.0602 -0.13352,-0.0055 -0.16068,-0.03265 -0.0693,-0.06924 z" style="fill:#46fafa;fill-opacity:1;stroke:#000000;stroke-width:0.21602426;stroke-miterlimit:4;stroke-dasharray:none;stroke-opacity:1" inkscape:connector-curvature="0"/>
    </g>
    <path inkscape:label="caryopsis_cross_section" inkscape:connector-curvature="0" id="caryopsis_cross_section" d="M 74.711144,157.76092 C 74.077264,156.9528 73.754014,156.23541 73.425054,154.90668 73.281894,154.32845 73.164764,153.81468 73.164764,153.76497 73.164764,153.71527 73.391334,153.71997 73.668254,153.77527 74.105794,153.86277 74.194224,153.81687 74.343424,153.42443 74.489154,153.04111 74.460474,152.92867 74.153664,152.68022 73.954874,152.51926 73.638174,152.38756 73.449874,152.38756 72.704834,152.38756 71.875274,151.82229 71.502454,151.06057 71.074204,150.18562 70.824424,148.08663 71.047744,147.23949 71.272894,146.38538 71.912374,145.35662 72.447144,144.98822 72.704834,144.8107 73.307994,144.26632 73.787514,143.77849 74.436204,143.11856 74.659364,142.76787 74.659364,142.40844 74.659364,141.84755 74.621264,141.83384 74.068784,142.19584 73.474484,142.58525 72.428524,142.40898 71.803674,141.81411 71.532134,141.55561 71.038544,140.97046 70.706804,140.51377 70.375064,140.05709 69.614584,139.0856 69.016864,138.3549 67.921554,137.01592 67.695134,136.69442 66.291494,134.48505 63.934874,130.77564 62.576984,126.80559 62.133874,122.32944 62.084074,121.82709 61.971244,120.70615 61.882994,119.83845 61.794794,118.97074 61.673774,117.58824 61.614194,116.7662 61.554594,115.94418 61.481464,115.23121 61.451634,115.18185 61.421834,115.13245 61.351734,114.49727 61.295814,113.77028 61.239914,113.04328 61.010584,110.72967 60.786174,108.62893 60.561764,106.52818 60.304134,103.98736 60.213684,102.98266 60.123184,101.97795 59.978884,100.44598 59.892904,99.57828 59.732084,97.95526 59.642384,96.45825 59.430274,91.85617 59.311034,89.26904 59.270494,67.77768 59.376074,63.1266 59.405074,61.84788 59.527574,59.60598 59.648244,58.14459 59.768904,56.6832 59.911494,54.88968 59.965104,54.15898 60.018704,53.42829 60.171284,51.72308 60.304144,50.36964 60.437004,49.01619 60.591374,47.4095 60.647184,46.7992 60.702984,46.18891 60.927484,44.90491 61.146054,43.94587 61.364624,42.98684 61.773284,41.15595 62.054184,39.87723 62.885044,36.094881 64.531634,30.571719 65.371244,28.750747 65.652044,28.141747 66.749174,25.600028 67.700934,23.353574 68.172254,22.241108 69.821174,19.015191 70.671894,17.541229 71.014554,16.94754 71.578954,15.90132 71.926104,15.216295 72.875444,13.34304 74.410764,11.026736 75.126904,10.387307 76.200434,9.428787 76.305184,9.362021 77.186334,9.074769 L 78.040544,8.796298 78.524584,9.347576 C 79.724504,10.714218 79.586594,12.740326 78.062954,16.129662 77.648134,17.052433 76.997734,19.015503 76.675544,20.31724 76.152424,22.430728 75.974994,24.382248 75.938954,28.418614 75.909054,31.773302 76.087874,37.227872 76.235664,37.467185 76.330464,37.620714 76.689364,42.92799 76.898344,47.2672 76.953344,48.40892 77.067114,50.09035 77.151174,51.00371 77.235174,51.91708 77.349804,53.59851 77.405734,54.74022 77.461634,55.88193 77.536024,56.99398 77.570944,57.21144 77.605844,57.4289 77.678244,58.40039 77.731764,59.37031 77.785264,60.34022 77.863454,61.29729 77.905464,61.49711 77.947464,61.69693 78.056424,63.49046 78.147594,65.48272 78.238794,67.47497 78.349744,69.51602 78.394224,70.01837 78.577794,72.09144 78.803674,75.19164 78.890334,76.82712 78.994594,78.79486 79.408434,85.49903 79.647224,89.08892 79.734324,90.39837 79.833974,91.51932 79.868664,91.57992 79.903364,91.64052 79.985874,93.67045 80.052024,96.09088 80.118224,98.5113 80.225034,101.42577 80.289464,102.56749 80.353864,103.70919 80.425934,107.70726 80.449554,111.45206 L 80.492454,118.26081 80.920854,118.70974 C 81.302104,119.10924 81.337184,119.24636 81.239514,119.95524 81.119364,120.82733 81.497874,121.83125 81.946834,121.83125 82.400094,121.83125 83.324924,122.70432 83.633014,123.42307 83.953964,124.17182 84.024234,125.12941 83.967474,127.98119 83.950074,128.8519 83.984574,130.79488 84.043874,132.29893 84.179194,135.72862 84.027374,136.78646 83.126824,138.69108 82.338114,140.35906 82.141134,141.56757 82.447224,142.86056 82.792664,144.31976 82.817754,144.48518 82.912284,145.92758 83.053924,148.08858 82.669554,149.08392 80.931704,151.0564 79.871804,152.2594 79.283484,154.04823 79.947714,154.04823 80.290884,154.04823 80.803794,154.54111 80.803794,154.87088 80.803794,155.02118 80.654424,155.05627 80.308864,154.98716 79.793624,154.88412 79.475254,155.18987 79.475254,155.78774 79.475254,156.19005 78.830644,156.98029 78.117524,157.45221 77.768234,157.68336 77.482454,157.82248 77.482454,157.76135 77.482454,157.70015 77.351324,157.76835 77.191044,157.91394 77.030774,158.05898 76.520244,158.22799 76.056544,158.28949 75.225844,158.39969 75.206054,158.39192 74.711094,157.7609 Z M 76.871054,157.03371 C 78.115744,156.48312 78.467974,155.851 78.807194,153.55904 79.008774,152.19708 79.311034,151.59292 80.473284,150.22871 81.816184,148.65247 82.314894,147.39307 82.314584,145.57883 82.314474,144.8938 82.273684,144.18387 82.223984,144.0012 81.309934,140.64364 81.309424,140.65562 82.474014,138.21612 83.452144,136.16722 83.707664,134.81405 83.482644,132.87472 83.397944,132.14402 83.326504,130.11925 83.324054,128.37522 83.319054,124.86212 83.240754,124.17286 82.790884,123.69005 82.622384,123.50919 82.529854,123.31591 82.585244,123.26052 82.640644,123.20512 82.533944,123.1598 82.348284,123.1598 82.162574,123.1598 81.627014,123.00038 81.158144,122.80553 L 80.305664,122.45126 80.305664,121.07163 C 80.305664,120.31283 80.238864,119.65074 80.157304,119.60031 79.968154,119.48341 79.869694,119.89682 79.645714,121.74823 79.079904,126.4253 78.630334,127.96402 77.488344,129.13226 76.921774,129.71184 76.363284,129.77609 75.807034,129.32568 75.233054,128.86089 75.325454,128.14861 76.235564,126.02239 76.999494,124.23764 77.026484,124.12288 76.825494,123.51384 76.668114,123.03701 76.661564,122.78831 76.799594,122.53042 76.901194,122.34057 76.981994,122.01218 76.979134,121.80067 76.975134,121.5059 76.887934,121.59277 76.605484,122.17264 75.773074,123.8818 74.821894,126.29465 74.057934,128.635 73.476144,130.41724 73.139914,130.88928 71.890334,131.67811 71.125584,132.16087 70.675134,132.98067 70.588164,134.04802 70.533564,134.71765 70.615064,135.10091 71.203194,136.94336 71.354604,137.41765 72.173724,138.51769 73.253924,139.69741 73.348624,139.80083 73.713984,139.98945 74.065844,140.11659 75.201144,140.52675 75.811704,141.72604 75.491194,142.91632 75.315794,143.56769 74.148014,144.89144 73.006004,145.73343 72.351574,146.21593 72.044284,146.88928 71.912004,148.1306 71.765714,149.50326 72.543294,151.02677 73.532824,151.3063 74.565964,151.59817 74.808954,151.76762 74.927814,152.27918 75.109184,153.05977 74.999314,153.76232 74.643684,154.09624 73.992804,154.70734 74.511774,156.41766 75.537934,157.04335 75.831104,157.2221 76.080144,157.36862 76.091374,157.36897 76.102574,157.3692 76.453464,157.21844 76.871074,157.03371 Z M 75.738794,150.56847 C 74.927484,150.23289 74.327234,149.17633 74.327234,148.0838 74.327234,147.27656 74.566264,146.60403 75.266414,145.44132 75.949894,144.30629 76.153094,143.59826 76.189414,142.22538 76.224514,140.90065 75.853124,140.08729 74.889844,139.37883 73.900064,138.65087 73.164334,137.03351 73.527644,136.38431 73.768704,135.95356 73.912444,136.06152 74.117214,136.82715 74.265024,137.3798 74.535774,137.73919 75.314614,138.41661 76.458244,139.4113 76.620564,139.66081 76.887744,140.83459 77.157104,142.01796 76.968444,142.97405 76.085964,144.8994 75.666684,145.81409 75.323634,146.67744 75.323634,146.81795 75.323634,146.95847 75.267534,147.07359 75.199084,147.07377 75.130484,147.07393 75.056674,147.32567 75.034834,147.63314 74.980034,148.4061 75.570644,149.22775 76.381404,149.50618 77.025404,149.72734 77.814634,149.65807 77.814634,149.38037 77.814634,149.29887 77.912734,149.2323 78.032674,149.2323 78.689464,149.2323 79.898084,147.04204 80.408734,144.92639 80.724764,143.61702 80.738634,143.73252 79.954464,141.14433 79.799794,140.63383 79.790734,140.34387 79.920764,140.0649 81.647824,136.35871 81.855744,135.82536 81.957774,134.83975 82.019774,134.23979 82.001774,133.78809 81.915674,133.78809 81.832674,133.78809 81.805894,133.68081 81.856174,133.54972 81.906474,133.4186 81.876374,133.28758 81.789174,133.25855 81.702074,133.22955 81.600254,133.04717 81.562934,132.85335 81.525634,132.65954 81.426904,132.24877 81.343604,131.94053 81.232854,131.5307 81.302004,130.72755 81.601174,128.95149 82.003984,126.55972 82.011464,125.40846 81.627974,124.82047 81.368424,124.42245 80.869324,125.21192 80.635744,126.39 80.165074,128.76374 79.970294,129.25117 79.266284,129.81692 78.614714,130.34054 78.598234,130.34448 78.689174,129.95465 78.740674,129.73395 79.008634,128.95553 79.284664,128.22484 79.560704,127.49415 79.922004,126.30472 80.087554,125.58167 80.324474,124.54692 80.482694,124.19761 80.830774,123.94089 81.393054,123.5262 81.911894,123.65817 82.458894,124.35506 82.843634,124.84521 82.867524,124.99405 82.851294,126.80001 82.841294,127.85768 82.744154,129.20879 82.634304,129.80248 82.506914,130.49105 82.475454,131.45317 82.547404,132.45955 82.689604,134.44809 82.500304,135.50723 81.534164,138.12993 80.714844,140.35395 80.625254,141.10641 81.035794,142.31562 81.576924,143.90951 81.295284,145.77979 80.202504,147.84907 79.596754,148.99613 78.599224,150.12778 77.852264,150.51531 77.398134,150.75091 76.249564,150.77981 75.738664,150.56851 Z M 74.406274,140.95264 C 74.365374,140.91174 74.088044,140.88524 73.789984,140.89374 73.174324,140.91124 72.722384,140.55428 71.990404,139.47234 71.726464,139.08219 71.429784,138.67117 71.331134,138.55897 70.865754,138.02967 69.192044,135.69677 68.997714,135.30653 68.877494,135.0651 68.654984,134.71811 68.503274,134.53543 67.711374,133.58195 65.541894,129.63633 65.353044,128.80612 65.238764,128.30377 64.971954,127.22019 64.760124,126.39816 64.153484,124.04401 63.694524,120.93721 63.275884,116.3511 63.238384,115.94009 63.167504,115.15542 63.118414,114.6074 63.069314,114.05939 62.955094,112.26586 62.864574,110.62179 62.707834,107.77513 62.485734,105.11001 61.958104,99.74441 61.827864,98.42003 61.678894,96.43969 61.627054,95.34364 61.575254,94.2476 61.495494,92.67826 61.449904,91.85623 61.219674,87.70589 61.049994,58.79269 61.253834,58.4479 61.298434,58.3725 61.386214,57.46908 61.448874,56.44042 61.511574,55.41174 61.590994,54.40289 61.625414,54.19851 61.659914,53.99414 61.729384,53.19171 61.779924,52.41535 61.830524,51.63899 61.900514,50.85432 61.935554,50.67164 61.970654,50.48898 62.166644,49.27584 62.371194,47.97579 62.575754,46.67574 62.807864,45.65209 62.886994,45.701 62.966094,45.7499 62.988124,45.6785 62.935894,45.54233 62.821714,45.2448 63.075974,43.89849 63.629424,41.8701 63.853724,41.04807 64.194874,39.77766 64.387564,39.04696 65.318684,35.515978 67.037744,31.264479 68.785714,28.169578 69.121024,27.575889 69.695724,26.529668 70.062844,25.844642 70.967284,24.156933 71.004504,24.092789 71.821494,22.81392 72.215364,22.197395 72.604004,21.692968 72.685144,21.692968 72.766244,21.692968 72.881574,21.674298 72.941364,21.651458 73.097484,21.591848 73.152664,22.082419 73.170174,23.685776 73.179174,24.462141 73.339554,26.143566 73.527724,27.422281 73.952814,30.310927 73.925284,30.131262 74.049484,30.826654 74.106584,31.146333 74.196164,31.930997 74.248554,32.570356 74.300954,33.209715 74.373574,34.069112 74.409944,34.480124 74.446244,34.891136 74.523254,36.12419 74.580954,37.220227 74.638654,38.31627 74.715544,39.62404 74.751864,40.1264 74.788164,40.62875 74.856074,42.12336 74.902744,43.44774 75.002344,46.27375 75.661244,55.39896 75.906144,57.34436 75.938544,57.60186 76.011254,58.74665 76.067684,59.88837 76.124084,61.03007 76.201624,62.41258 76.239954,62.9606 76.278354,63.50862 76.386874,65.19005 76.481234,66.6971 76.793634,71.68599 76.999334,74.88935 77.158404,77.24236 77.354944,80.14967 77.451634,81.74891 77.565044,83.96806 77.614044,84.9271 77.692574,86.12278 77.739534,86.62513 77.786534,87.12748 77.935874,89.44412 78.071484,91.7732 78.207104,94.10229 78.429274,97.91353 78.565194,100.24262 78.701114,102.57171 78.793354,105.50494 78.770184,106.76091 78.746984,108.01687 78.786684,109.04441 78.858384,109.04432 78.930084,109.04424 78.918784,109.17504 78.833084,109.335 78.747484,109.49496 78.672334,109.99938 78.666094,110.45595 78.651994,111.48647 78.182754,117.28003 78.067554,117.84571 78.020954,118.07406 77.881824,118.74663 77.758154,119.34032 77.561564,120.28423 77.565184,120.46875 77.787054,120.81003 78.002124,121.14094 78.009414,121.31728 77.835054,121.9693 77.693534,122.49842 77.684184,122.75654 77.805054,122.79684 77.901654,122.82904 77.980734,123.05442 77.980734,123.29767 77.980734,123.73823 77.215484,126.24826 76.984834,126.56422 76.781734,126.84246 76.641464,128.11562 76.802914,128.21541 77.149634,128.4297 77.490954,128.04644 77.953194,126.92381 78.695554,125.12086 78.977054,123.59861 78.977764,121.38337 78.978224,119.65011 79.020764,119.3561 79.344344,118.84212 79.692974,118.28843 79.713674,118.04834 79.781074,113.77707 79.841274,109.96165 79.647644,102.96158 79.392894,99.74442 79.353094,99.24207 79.277034,97.18699 79.223814,95.17758 79.140714,92.03977 78.975714,89.18995 78.723854,86.5421 78.621994,85.47127 78.335664,80.58511 78.232404,78.15572 78.124214,75.61044 77.844184,70.97056 77.731274,69.85238 77.689774,69.44136 77.579014,67.64784 77.485154,65.86678 77.288484,62.13466 77.137394,60.09463 76.488874,52.41536 76.307604,50.26894 76.083474,46.71926 75.990814,44.52717 75.898114,42.33509 75.791654,40.38634 75.754134,40.19662 75.716634,40.00692 75.639934,38.9607 75.583724,37.871691 75.527524,36.782695 75.447014,35.480675 75.404824,34.978326 75.330824,34.097724 75.171164,31.483932 75.064884,29.415084 74.952834,27.233791 74.991484,24.018441 75.147884,22.523309 75.323274,20.845596 75.583074,19.96556 76.569614,17.707367 77.635314,15.267989 78.002384,14.043688 78.088244,12.642327 78.157544,11.510569 78.120444,11.236056 77.837594,10.788969 77.528114,10.299788 77.463984,10.273526 76.893114,10.40228 75.946014,10.615882 74.369294,12.572706 72.572404,15.764547 71.920494,16.922586 67.684624,25.43264 67.684624,25.584354 67.684624,25.638174 67.539914,25.998987 67.363064,26.386172 67.186204,26.773359 66.842794,27.575893 66.599934,28.169583 66.357084,28.763272 66.055654,29.473208 65.930104,29.747218 65.804564,30.021228 65.589664,30.682508 65.452544,31.21673 65.176924,32.290558 65.054804,32.684304 64.460434,34.41544 64.237454,35.064883 63.823984,36.559487 63.541624,37.736776 63.259254,38.91406 62.961104,39.99725 62.879044,40.14385 62.700534,40.4628 61.793754,44.84611 61.542834,46.60301 61.445034,47.28804 61.256464,49.04419 61.123874,50.50558 60.991274,51.96697 60.847154,53.31211 60.803604,53.49478 60.760104,53.67746 60.677814,54.5268 60.620854,55.38221 60.563854,56.23763 60.485044,57.09702 60.445634,57.29198 60.182524,58.59367 60.106134,62.92292 60.140544,74.58529 60.174644,86.15375 60.282924,90.68483 60.634464,95.26061 60.680064,95.8543 60.747494,96.97525 60.784284,97.75162 60.895744,100.104 61.202964,104.61147 61.287964,105.14159 61.331964,105.4156 61.408944,106.1629 61.459164,106.80226 61.509364,107.44162 61.581924,108.22628 61.620374,108.54597 61.712674,109.31339 61.852594,110.97542 61.961534,112.59805 62.009934,113.31965 62.083334,113.9646 62.124534,114.03128 62.165734,114.09798 62.274784,114.96481 62.366834,115.9576 62.458934,116.9504 62.569214,117.98687 62.612024,118.26087 62.691524,118.76968 62.955154,121.12097 63.133434,122.91075 63.364064,125.22609 64.956304,130.35183 65.994194,132.12017 68.135364,135.76821 69.503064,137.61187 71.580004,139.64985 73.364554,141.40095 73.410934,141.43084 73.999464,141.2087 74.264134,141.1088 74.447234,140.99359 74.406344,140.95269 Z M 70.093364,132.25139 C 70.258564,132.04619 70.980844,131.31784 71.698444,130.63281 72.991784,129.39817 73.337244,128.82003 73.831854,127.06237 73.908954,126.78836 74.092874,126.15316 74.240554,125.6508 74.388224,125.14845 74.532964,124.58798 74.562184,124.4053 74.591384,124.22264 74.780364,123.62479 74.982064,123.07677 75.183764,122.52874 75.429524,121.85617 75.528184,121.58217 75.626884,121.30815 75.922154,120.80909 76.184404,120.47312 76.661514,119.8619 76.723904,119.62353 77.502344,115.43769 77.660904,114.58509 77.715994,112.23894 77.709024,106.63614 77.704024,102.43465 77.649524,98.77287 77.588434,98.49887 77.527334,98.22485 77.440544,96.76762 77.395554,95.26056 77.149274,87.01081 77.128314,86.61318 76.646984,81.06184 76.472754,79.05244 76.288734,76.39951 76.238034,75.16647 76.187334,73.93342 76.111534,72.25199 76.069544,71.42996 76.027544,70.60793 75.954444,69.00124 75.907014,67.85952 75.859514,66.71781 75.784844,64.92429 75.740874,63.87392 75.618304,60.94578 75.356604,56.98938 75.169674,55.23844 74.848974,52.2346 74.649684,49.83392 74.583774,48.1806 74.448124,44.77834 74.023114,38.38985 73.904304,37.967482 73.865704,37.830475 73.792554,36.812697 73.741614,35.705763 73.644714,33.600713 73.473324,32.385334 72.749044,28.667732 72.508824,27.434686 72.269704,25.878303 72.217654,25.209109 L 72.123054,23.992389 71.650764,24.856034 C 71.391004,25.331043 71.097194,25.817621 70.997844,25.937326 70.634984,26.374546 67.392994,32.942333 66.868324,34.303111 65.923704,36.753069 64.474824,41.33387 64.107264,43.03252 64.067764,43.21519 63.917774,43.88777 63.774004,44.52712 63.630234,45.16648 63.408214,46.43689 63.280624,47.35026 63.153034,48.26363 62.936114,49.72087 62.798594,50.58856 62.361084,53.34906 62.203594,54.95503 62.104784,57.66345 61.959404,61.6485 61.937584,87.77338 62.077884,89.86339 62.145384,90.86809 62.243214,92.66161 62.295394,93.84899 62.423644,96.76743 62.683704,100.91393 62.764064,101.322 62.950144,102.2669 63.066004,103.21355 63.282334,105.55671 63.413044,106.97243 63.596094,108.91541 63.689124,109.87445 63.782124,110.83349 63.977944,112.88856 64.124244,114.44128 64.667914,120.21172 64.845984,121.93074 64.924674,122.16853 64.969074,122.30271 65.043794,122.74878 65.090684,123.1598 65.236094,124.4342 65.482404,125.49893 66.070394,127.39451 66.382034,128.39921 66.667214,129.33334 66.704114,129.47034 66.741014,129.60735 66.808574,129.75681 66.854244,129.80248 66.899944,129.84818 67.255464,130.52205 67.644384,131.30005 68.033294,132.07805 68.631134,133.15597 68.972914,133.69543 L 69.594344,134.67627 69.693644,133.65037 C 69.753144,133.0361 69.913494,132.47477 70.093344,132.25139 Z" style="fill:#46fafa;fill-opacity:1;stroke:#000000;stroke-width:0.21602426;stroke-miterlimit:4;stroke-dasharray:none;stroke-opacity:1" label="caryopsis_cross_section" connector-curvature="0" ontology="NULL"/>
    <g transform="matrix(0.23280217,0,0,0.23280217,-23.463399,-14.118829)" style="fill:#46fafa;fill-opacity:1;stroke:#000000;stroke-width:0.21602426;stroke-miterlimit:4;stroke-dasharray:none;stroke-opacity:1" inkscape:label="anther" id="anther" label="anther" ontology="PO_0009066">
      <path d="M 226.5043,549.08648 C 222.21858,538.37219 219.36144,548.37219 219.36144,548.37219 223.64716,559.80076 220.79002,575.51505 220.79002,575.51505 220.79002,582.65791 227.93288,571.94362 227.93288,571.94362 230.79002,558.37219 226.5043,549.08648 226.5043,549.08648 Z" id="anther3" inkscape:connector-curvature="0" inkscape:label="anther3" style="fill:#46fafa;fill-opacity:1;stroke:#000000;stroke-width:0.21602426;stroke-miterlimit:4;stroke-dasharray:none;stroke-opacity:1"/>
      <path d="M 162.21859,573.37219 C 162.21859,570.51505 167.21859,567.65791 167.21859,567.65791 172.93288,566.94362 166.5043,559.08648 166.5043,559.08648 153.64716,559.80076 152.93288,580.51505 152.93288,580.51505 152.93288,588.37219 162.21859,583.37219 162.21859,583.37219 162.93288,579.80076 162.21859,573.37219 162.21859,573.37219 Z" id="anther4" inkscape:connector-curvature="0" inkscape:label="anther4" style="fill:#46fafa;fill-opacity:1;stroke:#000000;stroke-width:0.21602426;stroke-miterlimit:4;stroke-dasharray:none;stroke-opacity:1"/>
      <path d="M 222.02008,446.55864 C 226.28512,450.62107 226.20228,437.14421 226.20228,437.14421 228.41317,427.28759 221.8544,419.60492 221.8544,419.60492 215.27718,421.23538 219.80472,431.05057 219.80472,431.05057 221.43517,437.6278 222.02008,446.55864 222.02008,446.55864 Z" id="anther2" inkscape:connector-curvature="0" inkscape:label="anther2" style="fill:#46fafa;fill-opacity:1;stroke:#000000;stroke-width:0.21602426;stroke-miterlimit:4;stroke-dasharray:none;stroke-opacity:1"/>
      <path d="M 170.07573,440.69363 C 165.07573,432.1222 165.07573,447.83648 165.07573,447.83648 165.07573,461.40791 171.5043,462.83648 171.5043,462.83648 180.79002,462.83648 170.07573,440.69363 170.07573,440.69363 Z" id="anther1" inkscape:connector-curvature="0" inkscape:label="anther1" style="fill:#46fafa;fill-opacity:1;stroke:#000000;stroke-width:0.21602426;stroke-miterlimit:4;stroke-dasharray:none;stroke-opacity:1"/>
      <path inkscape:label="anther3_2" inkscape:connector-curvature="0" id="anher3_2" d="M 236.93488,589.84347 C 233.20304,600.76303 229.83793,590.92233 229.83793,590.92233 233.53322,579.28943 229.87573,563.74193 229.87573,563.74193 229.51022,556.60843 237.19199,566.94317 237.19199,566.94317 240.73985,580.35062 236.93491,589.84347 236.93491,589.84347 Z" style="fill:#46fafa;fill-opacity:1;stroke:#000000;stroke-width:0.21602426;stroke-miterlimit:4;stroke-dasharray:none;stroke-opacity:1"/>
      <path inkscape:label="anther4_2" inkscape:connector-curvature="0" id="anther4_2" d="M 164.67866,588.66405 C 166.02604,586.14456 171.78252,585.98297 171.78252,585.98297 177.15836,588.04785 175.19478,578.08765 175.19478,578.08765 163.52022,572.65433 153.12187,590.58381 153.12187,590.58381 149.41659,597.51241 159.96285,597.48227 159.96285,597.48227 162.27694,594.66975 164.67866,588.66405 164.67866,588.66405 Z" style="fill:#46fafa;fill-opacity:1;stroke:#000000;stroke-width:0.21602426;stroke-miterlimit:4;stroke-dasharray:none;stroke-opacity:1"/>
      <path inkscape:label="anther5_2" inkscape:connector-curvature="0" id="anther5_2" d="M 169.43496,533.06537 C 172.28512,532.86565 175.48479,537.65369 175.48479,537.65369 176.59678,543.30407 183.98532,536.34197 183.98532,536.34197 182.37402,523.56621 161.66047,524.30169 161.66047,524.30169 153.82255,524.85094 159.45943,533.76441 159.45943,533.76441 163.07205,534.2273 169.43496,533.06537 169.43496,533.06537 Z" style="fill:#46fafa;fill-opacity:1;stroke:#000000;stroke-width:0.21602426;stroke-miterlimit:4;stroke-dasharray:none;stroke-opacity:1"/>
      <path d="M 174.14295,548.66405 C 175.49033,546.14456 181.24681,545.98297 181.24681,545.98297 186.62265,548.04785 184.65907,538.08765 184.65907,538.08765 172.98451,532.65433 162.58616,550.58381 162.58616,550.58381 158.88088,557.51241 169.42714,557.48227 169.42714,557.48227 171.74123,554.66975 174.14295,548.66405 174.14295,548.66405 Z" id="anther5" inkscape:connector-curvature="0" inkscape:label="anther5" style="fill:#46fafa;fill-opacity:1;stroke:#000000;stroke-width:0.21602426;stroke-miterlimit:4;stroke-dasharray:none;stroke-opacity:1"/>
      <path d="M 220.32782,508.60108 C 223.17798,508.40136 226.37765,513.1894 226.37765,513.1894 227.48964,518.83978 234.87818,511.87768 234.87818,511.87768 233.26688,499.10192 212.55333,499.8374 212.55333,499.8374 204.71541,500.38665 210.35229,509.30012 210.35229,509.30012 213.96491,509.76301 220.32782,508.60108 220.32782,508.60108 Z" id="anther6_2" inkscape:connector-curvature="0" inkscape:label="anther6_2" style="fill:#46fafa;fill-opacity:1;stroke:#000000;stroke-width:0.21602426;stroke-miterlimit:4;stroke-dasharray:none;stroke-opacity:1"/>
      <path inkscape:label="anther6" inkscape:connector-curvature="0" id="anther6" d="M 225.03581,524.19976 C 226.38319,521.68027 232.13967,521.51868 232.13967,521.51868 237.51551,523.58356 235.55193,513.62336 235.55193,513.62336 223.87737,508.19004 213.47902,526.11952 213.47902,526.11952 209.77374,533.04812 220.32,533.01798 220.32,533.01798 222.63409,530.20546 225.03581,524.19976 225.03581,524.19976 Z" style="fill:#46fafa;fill-opacity:1;stroke:#000000;stroke-width:0.21602426;stroke-miterlimit:4;stroke-dasharray:none;stroke-opacity:1"/>
      <path inkscape:label="anther2_2" inkscape:connector-curvature="0" id="anther2_2" d="M 212.57572,408.55076 C 211.14715,402.83648 204.0043,414.26505 204.0043,414.26505 196.86144,421.40791 198.29002,431.40791 198.29002,431.40791 204.71859,433.55076 206.14716,422.83648 206.14716,422.83648 208.29002,416.40791 212.57572,408.55076 212.57572,408.55076 Z" style="fill:#46fafa;fill-opacity:1;stroke:#000000;stroke-width:0.21602426;stroke-miterlimit:4;stroke-dasharray:none;stroke-opacity:1"/>
      <path inkscape:label="anther1_2" inkscape:connector-curvature="0" id="anther1_2" d="M 172.04002,432.30077 C 167.04002,423.72934 167.04002,439.44362 167.04002,439.44362 167.04002,453.01505 173.46859,454.44362 173.46859,454.44362 182.75431,454.44362 172.04002,432.30077 172.04002,432.30077 Z" style="fill:#46fafa;fill-opacity:1;stroke:#000000;stroke-width:0.21602426;stroke-miterlimit:4;stroke-dasharray:none;stroke-opacity:1"/>
    </g>
    <g transform="matrix(0.23280217,0,0,0.23280217,-23.463399,-14.118829)" style="fill:#46fafa;fill-opacity:1;stroke:#000000;stroke-width:0.21602426;stroke-miterlimit:4;stroke-dasharray:none;stroke-opacity:1" inkscape:label="carpel" id="carpel" label="carpel" ontology="PO_0009030">
      <path d="M 202.04002,643.72933 C 207.93288,656.05076 198.29002,665.15791 198.29002,665.15791 191.14716,666.05076 180.07573,640.15791 180.07573,640.15791 177.7973,625.16122 178.64438,623.36704 176.14716,618.72934 167.88251,607.073 164.9427,612.55992 161.86145,604.08648 161.86145,595.51505 168.29002,594.08648 168.29002,594.08648 179.0043,594.08648 181.5043,607.30076 181.5043,607.30076 181.14716,616.94362 183.64716,626.58648 183.64716,626.58648 186.30246,633.53128 199.61211,638.8334 202.04002,643.72933 Z" id="carpel1" inkscape:connector-curvature="0" sodipodi:nodetypes="ccccccccc" inkscape:label="carpel1" style="fill:#46fafa;fill-opacity:1;stroke:#000000;stroke-width:0.21602426;stroke-miterlimit:4;stroke-dasharray:none;stroke-opacity:1"/>
      <path sodipodi:nodetypes="ccccccccc" inkscape:connector-curvature="0" id="carpel2" d="M 205.87904,618.66852 C 200.93045,631.61157 211.42153,640.03286 211.42153,640.03286 218.7141,640.3514 227.78712,613.25958 227.78712,613.25958 228.86371,597.90671 227.86082,596.16153 230.00563,591.26701 237.40587,578.80252 240.82592,584.11102 243.24737,575.28956 242.54648,566.62109 235.93206,565.70233 235.93206,565.70233 225.10275,566.57895 223.65645,580.14736 223.65645,580.14736 224.80594,589.87016 223.06759,599.82674 223.06759,599.82674 220.95166,607.0674 207.93267,613.51852 205.87904,618.66852 Z" inkscape:label="carpel2" style="fill:#46fafa;fill-opacity:1;stroke:#000000;stroke-width:0.21602426;stroke-miterlimit:4;stroke-dasharray:none;stroke-opacity:1"/>
      <path sodipodi:nodetypes="ccccccccc" inkscape:connector-curvature="0" id="carpel3" d="M 197.75431,584.08647 C 203.64717,596.4079 194.00431,605.51505 194.00431,605.51505 186.86145,606.4079 175.79002,580.51505 175.79002,580.51505 173.51159,565.51836 174.35867,563.72418 171.86145,559.08648 163.5968,547.43014 160.65699,552.91706 157.57574,544.44362 157.57574,535.87219 164.00431,534.44362 164.00431,534.44362 174.71859,534.44362 177.21859,547.6579 177.21859,547.6579 176.86145,557.30076 179.36145,566.94362 179.36145,566.94362 182.01675,573.88842 195.3264,579.19054 197.75431,584.08647 Z" inkscape:label="carpel3" style="fill:#46fafa;fill-opacity:1;stroke:#000000;stroke-width:0.21602426;stroke-miterlimit:4;stroke-dasharray:none;stroke-opacity:1"/>
      <path d="M 201.59333,553.48995 C 196.64474,566.433 207.13582,574.85429 207.13582,574.85429 214.42839,575.17283 223.50141,548.08101 223.50141,548.08101 224.578,532.72814 223.57511,530.98296 225.71992,526.08844 233.12016,513.62395 236.54021,518.93245 238.96166,510.11099 238.26077,501.44252 231.64635,500.52376 231.64635,500.52376 220.81704,501.40038 219.37074,514.96879 219.37074,514.96879 220.52023,524.69159 218.78188,534.64817 218.78188,534.64817 216.66595,541.88883 203.64696,548.33995 201.59333,553.48995 Z" id="carpel4" inkscape:connector-curvature="0" sodipodi:nodetypes="ccccccccc" inkscape:label="carpel4" style="fill:#46fafa;fill-opacity:1;stroke:#000000;stroke-width:0.21602426;stroke-miterlimit:4;stroke-dasharray:none;stroke-opacity:1"/>
      <path sodipodi:nodetypes="ccccccccc" inkscape:connector-curvature="0" id="carpel6" d="M 196.41937,481.24411 C 192.47009,494.52622 203.57161,502.12471 203.57161,502.12471 210.86728,501.88736 217.8523,474.18365 217.8523,474.18365 217.7574,458.79337 216.62462,457.12957 218.39073,452.08602 224.82097,439.09452 228.63508,444.12736 230.37819,435.14721 229.01966,426.55721 222.3545,426.14447 222.3545,426.14447 211.62331,427.84266 211.21376,441.48179 211.21376,441.48179 213.09982,451.08892 212.12421,461.14892 212.12421,461.14892 210.56543,468.5296 198.07513,475.95276 196.41937,481.24411 Z" inkscape:label="carpel6" style="fill:#46fafa;fill-opacity:1;stroke:#000000;stroke-width:0.21602426;stroke-miterlimit:4;stroke-dasharray:none;stroke-opacity:1"/>
      <path d="M 196.607,520.52398 C 201.52943,533.2642 191.2112,541.59842 191.2112,541.59842 184.02068,541.93625 174.98465,515.2648 174.98465,515.2648 173.87271,500.13683 174.856,498.41352 172.72488,493.5966 165.38634,481.33608 162.03104,486.57924 159.61425,477.8929 160.27706,469.34714 166.79685,468.41995 166.79685,468.41995 177.47905,469.24847 178.94973,482.6165 178.94973,482.6165 177.84799,492.20287 179.59484,502.01018 179.59484,502.01018 181.70516,509.13951 194.56496,515.45497 196.607,520.52398 Z" id="carpel5" inkscape:connector-curvature="0" sodipodi:nodetypes="ccccccccc" inkscape:label="carpel5" style="fill:#46fafa;fill-opacity:1;stroke:#000000;stroke-width:0.21602426;stroke-miterlimit:4;stroke-dasharray:none;stroke-opacity:1"/>
    </g>
    <path inkscape:label="caryposis" sodipodi:nodetypes="ccsccccccccsc" inkscape:connector-curvature="0" id="caryopsis" d="M 115.97777,14.312923 C 118.8662,16.629931 123.38549,31.480018 123.38549,31.480018 124.75143,37.792869 126.00186,43.672493 126.34678,48.806493 127.0925,59.906443 126.91298,67.460373 126.91298,67.460373 127.92375,105.83864 126.32507,111.43636 126.32507,111.43636 125.26682,134.01226 119.85801,144.94747 119.85801,144.94747 118.67305,148.55688 117.3719,146.47605 116.91844,146.47605 116.05379,146.73261 114.94684,146.86324 114.94684,146.86324 112.69137,147.54856 109.74589,135.42325 109.74589,135.42325 103.16125,109.7902 103.39641,86.391203 103.39641,86.391203 102.43436,53.718663 104.57224,47.236123 104.57224,47.236123 106.77852,34.366182 110.03278,26.17607 112.40439,21.084645 114.58297,16.407605 115.97777,14.312923 115.97777,14.312923 Z" style="fill:#46fafa;fill-opacity:1;stroke:#000000;stroke-width:0.21602426;stroke-miterlimit:4;stroke-dasharray:none;stroke-opacity:1" label="caryposis" nodetypes="ccsccccccccsc" connector-curvature="0" ontology="PO_0009001"/>
    <path inkscape:label="plant_embryo" inkscape:connector-curvature="0" id="plant.embryo" d="M 78.90405,119.36346 C 79.98491,118.19945 80.60849,118.73989 80.60849,118.73989 81.23206,119.40503 81.10735,120.19489 81.10735,120.19489 80.81635,121.77463 81.52307,122.06563 81.52307,122.06563 82.89494,122.43978 83.35223,123.60378 83.35223,123.60378 83.80952,124.47679 83.76795,125.72395 83.76795,125.72395 83.68485,131.91815 83.89266,132.8743 83.89266,132.8743 84.05895,136.69891 83.3938,137.77977 83.3938,137.77977 81.56464,141.81224 82.18822,142.56053 82.18822,142.56053 83.64323,147.67386 81.98036,149.79403 81.98036,149.79403 78.77933,153.11977 79.52762,154.15907 79.52762,154.15907 79.48602,154.4085 80.02648,154.32536 80.02648,154.32536 80.60849,154.78265 80.65006,155.19837 80.65006,155.19837 80.52534,155.44779 80.06806,155.23997 80.06806,155.23997 79.56919,155.23997 79.44448,155.4894 79.44448,155.4894 79.31976,156.19612 79.19505,156.48712 79.19505,156.48712 77.94789,158.64885 75.07944,158.60728 75.07944,158.60728 74.58058,158.56568 73.33342,155.82197 73.33342,155.82197 72.95928,154.20067 72.95928,153.86809 72.95928,153.86809 74.08171,154.24224 73.957,153.95119 73.957,153.95119 74.58058,152.99504 73.79071,152.82875 73.79071,152.82875 73.2087,152.49618 72.50198,152.49618 72.50198,152.49618 70.79754,151.99732 70.75597,149.04571 70.75597,149.04571 70.71437,145.76154 72.41884,145.17953 72.41884,145.17953 74.74686,143.43352 74.62214,142.51894 74.62214,142.51894 74.62214,141.06393 73.74913,141.14707 73.74913,141.14707 72.33569,141.10547 71.25483,138.94377 71.25483,138.94377 69.30096,135.2023 69.3841,134.45401 69.3841,134.45401 69.4257,132.37542 70.5481,131.87655 70.5481,131.87655 73.54128,129.42382 73.62442,127.42837 73.62442,127.42837 75.12101,121.56675 75.95245,120.90159 75.95245,120.90159 77.24117,119.90387 77.78161,121.4836 77.78161,121.4836 77.69851,122.19032 77.44903,122.8139 77.44903,122.8139 77.44903,123.27119 77.65689,123.22962 77.65689,123.22962 77.90632,123.72848 77.36589,125.18349 77.36589,125.18349 76.24344,127.59466 76.45131,128.09352 76.45131,128.09352 76.57602,128.96653 77.1996,128.30138 77.1996,128.30138 79.44448,124.39363 78.73775,120.94317 78.73775,120.94317 78.73775,119.94545 78.90405,119.36344 78.90405,119.36344 Z" style="fill:#46fafa;fill-opacity:1;stroke:#000000;stroke-width:0.21602426;stroke-miterlimit:4;stroke-dasharray:none;stroke-opacity:1" label="plant_embryo" connector-curvature="0" ontology="PO_0009009"/>
    <path inkscape:label="endosperm" sodipodi:nodetypes="ccscsccccccsc" inkscape:connector-curvature="0" id="endosperm" d="M 69.62283,135.31281 C 64.78644,129.31608 64.35891,122.60673 64.35891,122.60673 59.70942,90.360333 60.66832,66.309053 61.61755,52.632943 62.14502,45.033273 63.77099,40.706093 63.77099,40.706093 66.6751,30.484782 70.34694,24.70125 71.97785,22.596904 72.51001,21.91027 72.82487,21.838226 72.82487,21.838226 72.97098,26.935859 73.89739,31.687878 73.89739,31.687878 78.66957,90.069493 78.23368,111.90669 78.23368,111.90669 77.29302,119.66715 76.23477,120.84298 76.23477,120.84298 75.29411,121.19573 74.94849,122.94521 74.94849,122.94521 73.34391,130.1463 72.19538,130.21517 72.19538,130.21517 71.62188,130.85378 70.53179,131.78331 69.82447,132.74053 69.00454,133.85014 69.62283,135.31281 69.62283,135.31281 Z" style="fill:#46fafa;fill-opacity:1;stroke:#000000;stroke-width:0.21602426;stroke-miterlimit:4;stroke-dasharray:none;stroke-opacity:1" label="endosperm" nodetypes="ccscsccccccsc" connector-curvature="0" ontology="PO_0009089"/>
  </g>
</svg>
