<?xml version="1.0" encoding="UTF-8" standalone="no"?>
<svg xmlns:dc="http://purl.org/dc/elements/1.1/" xmlns:cc="http://creativecommons.org/ns#" xmlns:rdf="http://www.w3.org/1999/02/22-rdf-syntax-ns#" xmlns:svg="http://www.w3.org/2000/svg" xmlns="http://www.w3.org/2000/svg" xmlns:sodipodi="http://sodipodi.sourceforge.net/DTD/sodipodi-0.dtd" xmlns:inkscape="http://www.inkscape.org/namespaces/inkscape" version="1.1" id="svg2" preserveAspectRatio="none" viewBox="0 0 33.433189 27.061121" height="27.061121" width="33.433189" inkscape:version="0.92.3 (unknown)" sodipodi:docname="macaca_mulatta.svg">
  <sodipodi:namedview pagecolor="#ffffff" bordercolor="#666666" borderopacity="1" objecttolerance="10" gridtolerance="10" guidetolerance="10" inkscape:pageopacity="0" inkscape:pageshadow="2" inkscape:window-width="3375" inkscape:window-height="1416" id="namedview27" showgrid="false" inkscape:zoom="8.7209987" inkscape:cx="-59.903698" inkscape:cy="13.53056" inkscape:window-x="65" inkscape:window-y="24" inkscape:window-maximized="1" inkscape:current-layer="LAYER_EFO"/>
  <defs id="defs4"/>
  <metadata id="metadata">
    <rdf:RDF>
      <cc:Work rdf:about="">
        <dc:format>image/svg+xml</dc:format>
        <dc:type rdf:resource="http://purl.org/dc/dcmitype/StillImage"/>
        <dc:title/>
      </cc:Work>
    </rdf:RDF>
  </metadata>
  <g transform="scale(0.29153969,0.29153969)" id="container" inkscape:label="EFO" inkscape:groupmode="layer" label="EFO" groupmode="layer">
    <g id="outline" style="fill:#79fafa;fill-opacity:1" ontology="NULL">
      <path id="path832" d="m 89.85235,92.438603 c -2.30855,-0.32915 -3.49837,-0.71663 -3.1726,-1.24373 0.0861,-0.13932 1.4685,-0.69731 2.71446,-1.24 3.81053,-1.65969 5.13021,-2.92026 4.94532,-4.730496 -0.0014,-1.52218 -1.01909,-3.01091 -3.15032,-4.97541 -2.5355,-2.33715 -4.28767,-5.77556 -8.4932,-13.13312 -2.53495,-4.43488 -2.99724,-5.92392 -2.54565,-8.199644 0.16883,-0.850816 0.27828,-1.576574 0.24322,-1.612798 -0.03505,-0.03622 -1.12678,0.981598 -2.42606,2.261822 -2.54923,2.51186 -2.35702,2.12339 -3.95548,7.99428 -0.39841,1.46329 -1.2429,3.87424 -1.87665,5.35767 -1.73837,4.06905 -1.79531,5.60071 -1.79531,10.04064 0.10313,1.30496 0.36993,3.701456 -1.32048,5.190456 -1.63672,1.9974 -6.09623,3.61091 -8.59714,3.15236 -0.62057,-0.11379 -0.54729,-0.73996 -4.81855,-0.29039 -3.73821,0.39346 -4.09837,-0.07679 -4.21751,-0.6674 -0.12445,-0.6169 0.93143,-1.66775 4.54075,-2.9805 1.67246,-0.6083 4.19881,-1.570166 5.30126,-2.271566 1.10245,-0.70141 2.41993,-1.34271 2.92775,-1.42512 l 0.52104,-0.47894 -0.24938,-1.73923 c -0.48652,-3.39307 -1.44116,-6.91632 -0.73654,-13.65249 0.98485,-9.415071 1.77112,-11.213919 4.2689,-14.487214 2.47434,-3.242591 4.86353,-5.964724 4.96583,-5.657831 0.05973,0.179186 -0.46717,1.005799 -1.17089,1.836913 -2.35068,2.776239 -4.52086,5.841475 -5.11032,7.217996 -1.01962,2.381036 -2.35684,12.897786 -2.35445,18.516926 0.18429,2.523 0.63218,4.63745 0.78008,5.71894 0.16782,1.22707 0.73618,2.71365 -0.24055,3.06775 -0.51284,0.18593 -2.02127,0.75073 -3.01994,1.43454 -0.99867,0.6838 -3.0968,1.733626 -4.6625,2.332936 -3.22726,1.23532 -4.80973,2.09869 -4.56688,2.49162 0.09789,0.1584 1.63788,0.18974 3.75683,0.07646 2.73077,-0.14599 3.69831,-0.10286 4.0392,0.18005 1.08735,0.90242 6.30284,-0.66522 7.82738,-2.3527 1.3427,-1.4862 1.62027,-2.729666 1.41317,-6.330606 -0.20854,-3.6258 0.18061,-5.60527 1.89001,-9.61382 1.12759,-2.64422 3.23153,-9.60823 3.63567,-12.03405 0.23244,-1.395193 0.64947,-1.625523 0.78652,-0.43441 0.08972,0.77971 0.14021,0.7517 2.40847,-1.336164 1.62061,-1.491723 2.4698,-2.520248 2.82587,-3.422653 0.62271,-1.57814 0.7486,-5.283985 0.40403,-11.893396 -0.1544,-2.961534 -0.14303,-4.706061 0.03068,-4.706061 0.32029,0 0.80237,7.651724 0.77545,12.308158 -0.01233,2.131646 -0.29037,3.616884 -0.5088,4.765357 -0.28841,1.341442 -0.67579,2.119207 -0.91236,3.576799 -0.34541,2.14767 -0.0405,3.18583 2.04782,6.97249 4.71274,8.54539 6.83999,11.87026 8.97741,14.03164 2.39163,2.41845 3.01211,3.5126 3.01211,5.31154 0,0.985956 -0.19682,1.504646 -0.89013,2.345746 -0.91172,1.10607 -2.9395,2.46152 -3.98318,2.66252 -0.32155,0.06192 -0.94544,0.30163 -1.38644,0.5327 l -0.80181,0.42011 0.85194,0.16225 c 0.46857,0.08924 2.15517,0.31597 3.74799,0.50384 3.52391,0.41564 5.16338,0.1007 5.83016,-1.11997 0.23402,-0.42841 1.05928,-1.90118 1.83392,-3.27284 1.4171,-2.509246 1.55292,-2.909966 1.49178,-4.401256 0.0292,-1.00637 -1.28183,-1.87932 -1.99434,-2.65467 -1.87028,-2.01923 -3.26587,-4.22612 -4.31492,-6.8233 -1.0051,-2.48836 -2.33386,-8.76532 -2.74143,-12.95023 l -0.34561,-3.548663 -0.60379,0.864823 c -0.33208,0.475654 -0.78689,0.867076 -1.01068,0.869828 -0.3341,0.0041 -0.32705,-0.08567 0.03939,-0.501803 0.24545,-0.278743 0.78693,-1.186662 1.2033,-2.017599 0.66478,-1.326713 0.75702,-1.862899 0.75702,-4.400682 0,-4.379897 0.54111,-9.931861 1.32428,-13.587544 0.38662,-1.804665 0.70295,-3.835019 0.70295,-4.511892 0,-1.414121 -1.67189,-7.727178 -2.61459,-9.872724 -0.99174,-2.257151 -0.88038,-5.785295 0.28794,-9.122518 2.20571,-6.3004447 5.59603,-10.8109417 9.05669,-12.0490647 3.54627,-1.268748 9.1018,1.628404 10.97413,6.401792 1.68751,4.3022127 1.57637,2.6057757 0.71268,-0.15904 -0.87416,-2.798361 -3.30127,-6.074781 -5.16559,-7.271114 -4.39498,-2.39112399 -9.54231,-0.145729 -12.32306,2.79286 -4.09207,4.381745 -6.94016,9.7744277 -7.58735,13.5403737 -0.58217,3.387645 -1.16665,3.877762 -2.93865,4.403989 -1.88629,0.560169 -4.12478,0.565057 -8.21283,0.01793 -7.92813,-1.061053 -15.03942,-0.313722 -24.76112,2.602162 -6.12352,1.836661 -9.65339,2.2625 -12.25763,1.478737 -1.4194,-0.427177 -5.41879,-2.982513 -7.17263,-4.582822 C 32.12618,21.595993 31.18386,20.765329 30.60438,20.272215 30.02489,19.779098 28.659399,18.541042 27.569941,17.520979 22.81221,13.066291 21.506511,12.047732 18.925638,10.777683 15.340182,9.0132763 11.260314,8.6592063 7.077434,9.7494403 4.588099,10.398265 3.983986,10.733695 4.821711,11.001924 c 0.787288,0.252076 2.418382,2.800302 2.418382,3.778194 0,0.662535 -0.427264,1.246054 -2.027226,2.768623 -1.114974,1.061038 -2.027226,2.016386 -2.027226,2.122995 0,0.106609 0.260644,0.193835 0.579208,0.193835 0.318564,0 0.579207,0.130321 0.579207,0.289603 0,0.159282 -0.187498,0.289604 -0.416661,0.289604 -0.271623,0 -0.484496,0.452355 -0.611533,1.299507 -0.263476,1.756974 -0.00799,2.579422 0.948848,3.054584 l 0.803355,0.39894 -0.79641,0.10435 c -0.709888,0.09302 -0.79641,0.223241 -0.79641,1.198647 0,1.67854 0.809069,2.212332 4.894065,3.228911 2.513514,0.625506 3.567779,0.367075 4.688965,-1.149409 0.628704,-0.850366 1.132308,-1.151959 1.132308,-0.678107 0,0.119534 -0.506234,0.771143 -1.12496,1.448019 -0.774618,0.847421 -1.360851,1.230688 -1.882424,1.230688 -0.974236,0 -0.954433,0.135037 0.183747,1.252953 0.517667,0.508452 2.40334,2.515852 4.190387,4.460894 l 3.249171,3.536438 0.314764,-1.222299 c 0.991815,-3.851454 1.53247,-3.875656 0.737798,-0.03303 -0.250589,1.211719 -0.455616,3.224149 -0.455616,4.472066 0,3.08874 1.000977,11.426231 1.882829,15.682746 0.397982,1.92097 0.723604,3.67114 0.723604,3.88926 0,0.62164 -0.518735,0.46414 -0.737073,-0.22378 -0.176328,-0.55556 -0.288593,-0.47305 -1.074537,0.78968 -0.919944,1.47802 -4.559672,9.15334 -4.559672,9.61526 -2.595446,6.58915 -2.711041,7.48157 -6.006972,10.96858 -1.078823,1.11937 -2.195845,1.8537 -4.449993,2.925416 -3.044809,1.44765 -5.024934,2.96841 -3.856499,2.96184 0.306508,-0.0017 1.197028,-0.19721 1.978932,-0.43441 2.101092,-0.63739 4.344768,-0.57398 4.841913,0.13682 0.37321,0.53362 0.504412,0.54517 2.161409,0.19029 2.06318,-0.44186 2.115818,-0.46944 4.0993,-2.14774 2.36974,-2.005126 3.659432,-4.201106 5.025325,-8.556676 0.842651,-2.68705 1.690417,-4.66378 2.876095,-6.70617 0.924687,-1.59283 1.940504,-3.48249 2.257374,-4.19926 4.814231,-10.889999 7.603955,-17.585802 7.780705,-18.674953 0.09087,-0.559954 0.27848,-1.018099 0.41692,-1.018099 0.39943,0 0.30295,0.612622 -0.49648,3.152519 -0.8741,2.777117 -0.86174,2.807071 1.61846,3.920117 5.8516,2.219163 10.74065,2.353563 16.07155,0.496021 6.88148,-2.886558 14.30438,-6.67419 20.48494,-8.557019 2.96632,-0.895507 4.46134,-1.159003 9.85105,-1.736247 0.59731,-0.06397 1.08602,-0.0078 1.08602,0.124895 0,0.132664 -0.74935,0.319056 -1.66523,0.414208 -6.43915,0.668967 -11.84206,2.545495 -19.22134,6.122087 -6.31198,3.059289 -9.83702,4.604096 -12.63685,5.373539 -4.04462,1.111534 -10.86587,0.0049 -14.93778,-2.075358 -0.92961,-0.474916 -1.74412,-0.86348 -1.81002,-0.86348 -0.30361,0 -0.05959,1.249889 0.57283,2.933958 1.37959,3.673762 2.30355,6.164532 2.3305,12.883072 0.01471,3.66631 -0.45137,5.48783 -0.99834,7.04217 -0.36042,1.02422 -0.55632,3.21149 -0.79536,4.81503 -0.42678,2.86277 -0.949,6.109036 -2.17228,7.005816 -0.20479,0.15012 -0.636982,0.362 -1.065326,0.362 -0.428344,0 -1.813345,0.27331 -3.077778,0.60735 -3.897721,1.02971 -8.829102,0.39773 -8.546843,-1.13244 0.05977,-0.32398 1.196122,-0.73237 2.653874,-1.21253 2.80103,-0.92261 4.411724,-1.989116 4.880642,-3.231666 0.200832,-0.53217 0.666251,-1.68436 1.034268,-2.56041 1.339295,-3.18816 1.614787,-5.1847 0.911087,-6.60286 -1.48635,-3.35223 -1.178597,-4.62481 -1.733582,-7.3225 l -0.917746,1.67741 c -1.82,2.88556 -3.039898,6.06505 -3.937466,9.19868 -1.119168,3.90936 -2.12884,5.65492 -4.304887,7.988886 -1.951434,2.09305 -4.050146,3.0707 -6.426837,3.34376 -1.47379,0.16932 -1.668146,0.12702 -1.965016,-0.42769 -0.418234,-0.78148 -1.031829,-0.78027 -4.091571,0.008 C 0.845924,90.666973 0,90.601373 0,89.725963 c 0,-0.93391 1.796346,-2.31358 4.923264,-3.781276 2.523305,-1.18436 3.083495,-1.84569 4.552191,-3.38141 0.973459,-1.01789 2.052662,-2.46154 2.461434,-3.33452 2.553008,-5.40301 4.351345,-11.00833 7.796497,-16.24634 1.335114,-2.24733 1.277709,-2.71914 0.486488,-6.04757 -0.818895,-3.444848 -1.360468,-6.486689 -1.534781,-10.86014 -0.235468,-5.907753 -0.227883,-5.042334 -3.191294,-8.568934 -0.888646,-1.057531 -2.694261,-3.232345 -3.863484,-4.524195 L 9.504453,30.632762 6.996655,30.0095 C 3.049119,29.028421 2.651867,28.519188 2.582793,24.351408 2.492423,18.89874 2.492243,18.899366 4.720596,16.869875 5.917517,15.779766 6.36368,14.965499 6.357266,14.611331 6.246115,12.282086 3.748465,11.639962 3.187109,10.851654 c 0.207359,-0.657496 4.76154,-2.0081057 7.347088,-2.1884017 5.98954,-0.417667 10.245357,1.165696 17.009199,7.3850807 5.264374,4.840619 8.718884,7.979138 11.182724,9.217354 2.06176,1.03615 2.12912,1.048753 4.77846,0.894073 2.53032,-0.147733 4.66813,-0.986993 11.95453,-3.03079 6.21781,-1.744063 14.98781,-2.193302 21.14107,-1.301786 5.1102,0.740389 9.08759,0.660068 9.6811,-0.492152 1.09212,-0.347516 0.27019,-6.012365 5.79644,-13.6845327 3.38639,-4.979378 6.41822,-6.91591899 10.247,-7.51200499 5.75566,-0.896071 9.74926,2.56549499 11.66286,10.10912169 0.8128,3.204184 0.91679,4.705033 0.26497,4.705033 -0.4787,0 -0.82282,-0.593803 -1.35394,-2.724671 -0.78237,-3.1389097 -3.14818,-5.7669387 -5.846,-7.4976887 -2.17346,-1.394355 -3.53651,-1.530417 -5.22927,-0.953637 -2.67087,0.910057 -5.35062,3.866356 -7.21572,7.8455547 -1.72925,3.689377 -2.33987,4.920236 -2.35502,8.098562 -0.01286,2.699518 0.34793,3.227677 1.76518,7.783326 1.73338,5.571842 1.59252,6.934323 0.68283,10.896114 -1.0668,5.228772 -1.03815,10.049437 -1.25227,15.545513 -0.48677,8.062225 1.29502,20.643515 7.24818,26.624715 1.7425,1.56299 1.55207,1.91951 1.48322,3.6459 -0.0967,1.47415 -0.32514,2.156716 -1.19206,3.561306 -0.58987,0.95569 -1.25764,2.13123 -1.48394,2.61231 -1.11373,2.36763 -3.64528,2.90498 -9.65139,2.04864 z" style="fill:#79fafa;fill-opacity:1;stroke:#000000;stroke-width:0.21602426;stroke-miterlimit:4;stroke-dasharray:none;stroke-opacity:1" inkscape:connector-curvature="0"/>
      <path id="path830" d="m 26.134581,89.660073 c 1.149577,-0.31856 2.382637,-0.5792 2.740132,-0.5792 1.147537,0 1.890827,-2.0787 2.537117,-7.095286 0.22572,-1.75211 0.70251,-4.03274 1.05952,-5.06807 1.25706,-3.64543 0.71615,-12.8587 -1.09241,-18.607038 -0.38838,-1.234436 -0.74793,-2.244429 -0.799,-2.244429 -0.05107,0 -0.32424,0.619028 -0.60703,1.375618 -0.2828,0.75659 -1.222017,2.799309 -2.087159,4.539369 -2.565318,5.15964 -2.550076,5.07628 -1.657561,9.06657 0.419285,1.87455 0.944907,3.84774 1.168053,4.38486 0.223142,0.53712 0.404718,1.51453 0.403502,2.17203 -0.0023,1.29421 -0.80156,4.14419 -1.553339,5.5395 -0.257458,0.47785 -0.468909,1.08688 -0.469891,1.3534 -0.005,1.35483 -2.621745,3.252896 -5.723311,4.151406 -0.996532,0.28869 -1.73653,0.60175 -1.644436,0.69568 0.952608,0.97167 4.792299,1.12851 7.725813,0.31559 z" style="fill:#79fafa;fill-opacity:1;stroke:#000000;stroke-width:0.21602426;stroke-miterlimit:4;stroke-dasharray:none;stroke-opacity:1" inkscape:connector-curvature="0"/>
      <path id="path828" d="M 9.415924,24.697814 C 8.865697,23.380937 8.864536,21.905678 9.41213,19.865585 10.165288,17.059603 10.027364,16.269243 8.499513,14.635849 6.983357,13.01495 6.953383,12.587261 8.424839,13.570286 c 1.975442,1.319719 2.444467,3.569847 1.506788,7.228741 -0.424921,1.658074 -0.445393,2.147418 -0.137927,3.297002 0.444241,1.660962 0.216418,2.023876 -0.377768,0.601785 z" style="fill:#79fafa;fill-opacity:1;stroke:#000000;stroke-width:0.21602426;stroke-miterlimit:4;stroke-dasharray:none;stroke-opacity:1" inkscape:connector-curvature="0"/>
      <path id="path826" d="m 17.738228,23.149031 c -0.577024,-0.232836 -0.418532,-0.637571 0.187597,-0.479065 1.26341,0.330391 2.274683,-0.93549 3.714474,-4.64966 1.171888,-3.023075 0.812452,-3.657192 -2.073009,-3.657192 -1.006393,0 -1.611859,-0.12309 -1.611859,-0.32769 0,-0.464811 4.185822,-0.164156 4.798948,0.344693 0.712017,0.590922 0.336713,2.542721 -1.033106,5.372763 -1.451375,2.998537 -2.58114,3.961831 -3.983045,3.396151 z" style="fill:#79fafa;fill-opacity:1;stroke:#000000;stroke-width:0.21602426;stroke-miterlimit:4;stroke-dasharray:none;stroke-opacity:1" inkscape:connector-curvature="0"/>
      <path id="path824" d="m 18.601024,20.485821 c -0.250768,-0.154985 -0.271888,-0.4829 -0.07526,-1.168505 0.150333,-0.524183 0.197941,-1.330025 0.105795,-1.790759 -0.124634,-0.623166 -0.04227,-0.885767 0.321643,-1.025411 0.269047,-0.103244 0.636806,-0.04009 0.817238,0.140342 0.244342,0.244344 0.238729,0.32806 -0.02201,0.32806 -0.252198,0 -0.299774,0.427803 -0.170188,1.530359 0.187289,1.593538 -0.232332,2.446285 -0.97723,1.985914 z" style="fill:#79fafa;fill-opacity:1;stroke:#000000;stroke-width:0.21602426;stroke-miterlimit:4;stroke-dasharray:none;stroke-opacity:1" inkscape:connector-curvature="0"/>
      <path id="path822" d="m 5.792075,18.272765 c 0.540337,-0.557487 1.112753,-1.013613 1.272035,-1.013613 0.159282,0 -0.152491,0.456126 -0.692828,1.013613 -0.540337,0.557487 -1.112753,1.013613 -1.272035,1.013613 -0.159282,0 0.152491,-0.456126 0.692828,-1.013613 z" style="fill:#79fafa;fill-opacity:1;stroke:#000000;stroke-width:0.21602426;stroke-miterlimit:4;stroke-dasharray:none;stroke-opacity:1" inkscape:connector-curvature="0"/>
      <path id="path843" d="m 7.658904,16.365107 c -0.272503,-0.440918 0.319262,-0.955715 0.860056,-0.748194 0.260183,0.09984 0.377122,0.359578 0.278086,0.617661 -0.197651,0.515078 -0.85396,0.590349 -1.138142,0.130533 z" style="fill:#79fafa;fill-opacity:1;stroke:#000000;stroke-width:0.21602426;stroke-miterlimit:4;stroke-dasharray:none;stroke-opacity:1" inkscape:connector-curvature="0"/>
    </g>
    <path style="fill:#79fafa;fill-opacity:1;stroke:#000000;stroke-width:0.21602426;stroke-miterlimit:4;stroke-dasharray:none;stroke-opacity:1" d="M 22.059878,21.641221 C 23.118404,21.43635 23.946273,17.836721 23.44813,17.33597 23.774728,16.897105 22.030143,13.966354 21.327536,13.851339 21.158797,13.823719 21.154744,13.776549 21.144532,13.619036 21.083902,12.68402 15.418166,11.017786 15.169733,11.180683 9.8559112,9.9601731 8.8215597,11.842336 8.8215597,11.842336 7.5453338,13.469685 9.9311473,14.954921 9.9311473,14.954921 10.509383,15.169053 10.728897,15.53692 10.966048,15.853335 11.078561,16.003452 10.852427,16.023247 10.831854,16.186568 10.785634,16.553465 10.675448,17.839391 10.622367,18.171572 10.197868,19.152357 10.754353,19.401621 10.754353,19.401621 11.284771,19.784143 12.393977,19.576265 13.236042,19.940907 14.131553,20.328702 14.315979,20.777076 14.979205,20.851579 15.900044,20.964882 17.446246,21.811038 17.446246,21.811038 18.870569,22.632726 21.451271,22.916693 22.059878,21.641221 Z" id="brain" inkscape:connector-curvature="0" connector-curvature="0" ontology="UBERON_0000955"/>
    <path style="fill:#79fafa;fill-opacity:1;stroke:#000000;stroke-width:0.21602426;stroke-miterlimit:4;stroke-dasharray:none;stroke-opacity:1" d="M 12.031252,10.782582 C 9.4166409,10.608884 8.6761392,12.016753 8.6761392,12.016753 7.8167915,13.333201 9.4623507,14.61308 9.4623507,14.61308 9.9011662,14.997045 10.029154,15.015329 10.029154,15.015329 L 10.394834,15.1616 C 10.870218,15.417577 10.979922,15.34444 10.979922,15.34444 12.224169,14.175198 12.263752,11.14307 12.031252,10.782582 Z" id="prefrontal.cortex" inkscape:connector-curvature="0" connector-curvature="0" ontology="UBERON_0000451"/>
    <path style="fill:#79fafa;fill-opacity:1;stroke:#000000;stroke-width:0.21602426;stroke-miterlimit:4;stroke-dasharray:none;stroke-opacity:1" d="M 22.083204,21.642817 21.922894,21.871828 C 21.922894,21.871828 21.740055,22.292358 20.80757,22.475199 20.80757,22.475199 19.326566,22.804311 17.223907,21.725556 17.059351,21.579282 17.443315,21.305024 17.443315,21.305024 18.613492,20.82964 20.112779,21.140466 20.112779,21.140466 20.771002,21.433011 21.721771,21.433011 21.721771,21.433011 22.050882,21.433011 22.083204,21.642817 22.083204,21.642817 Z" id="cerebellum" inkscape:connector-curvature="0" connector-curvature="0" ontology="UBERON_0002037"/>
    <path style="fill:#79fafa;fill-opacity:1;stroke:#000000;stroke-width:0.21602426;stroke-miterlimit:4;stroke-dasharray:none;stroke-opacity:1" d="M 27.662751,45.324954 C 27.280828,46.307224 27.192093,47.213284 27.787167,48.168914 28.946238,49.906064 32.61977,52.100554 33.691479,51.697504 34.154464,51.484194 34.481326,49.918164 34.166017,49.331234 32.935971,47.710654 33.094443,46.322284 32.040538,45.265384 30.507939,43.938744 29.914265,43.935184 29.914265,43.935184 28.424478,43.780164 27.662751,45.324954 27.662751,45.324954 Z" id="heart" inkscape:connector-curvature="0" connector-curvature="0" ontology="UBERON_0000948"/>
    <path style="fill:#79fafa;fill-opacity:1;stroke:#000000;stroke-width:0.21602426;stroke-miterlimit:4;stroke-dasharray:none;stroke-opacity:1" d="M 53.552994,34.19879 C 52.321101,33.624174 52.834391,32.223545 52.834391,32.223545 54.217793,29.713789 57.383414,29.418435 59.917777,29.170893 61.902494,29.170893 62.347344,29.637769 62.347344,29.637769 63.036212,30.032818 62.891378,31.110223 62.655318,31.397531 60.762482,33.547942 54.841534,34.922807 53.552994,34.19879 Z" id="kidney" inkscape:connector-curvature="0" connector-curvature="0" ontology="UBERON_0002113"/>
    <path style="fill:#79fafa;fill-opacity:1;stroke:#000000;stroke-width:0.21602426;stroke-miterlimit:4;stroke-dasharray:none;stroke-opacity:1" d="M 49.770839,53.444944 C 50.967061,54.335754 56.682956,51.147364 56.682956,51.147364 58.290174,49.752594 59.514871,50.009894 59.321347,49.124554 59.224477,48.017784 57.563686,46.568964 56.854485,46.344374 54.232995,45.176164 51.416343,43.743454 51.100542,43.260134 50.282878,42.386114 49.969573,40.503724 49.969573,40.503724 48.564344,37.611908 47.738466,40.411404 47.738466,40.411404 46.37793,45.175714 48.97323,53.051904 49.770839,53.444944 Z" id="liver" inkscape:connector-curvature="0" connector-curvature="0" ontology="UBERON_0002107"/>
    <ellipse style="fill:#79fafa;fill-opacity:1;stroke:#000000;stroke-width:0.21602426;stroke-miterlimit:4;stroke-dasharray:none;stroke-opacity:1" id="testis" transform="matrix(0.97836337,0.20689399,-0.20689406,0.97836335,0,0)" cx="98.343117" cy="20.11804" rx="1.4480187" ry="1.9651681" ontology="UBERON_0000473"/>
  </g>
</svg>
