<?xml version="1.0" encoding="UTF-8" standalone="no"?>
<!-- Created with Inkscape (http://www.inkscape.org/) -->
<svg xmlns:dc="http://purl.org/dc/elements/1.1/" xmlns:cc="http://creativecommons.org/ns#" xmlns:rdf="http://www.w3.org/1999/02/22-rdf-syntax-ns#" xmlns:svg="http://www.w3.org/2000/svg" xmlns="http://www.w3.org/2000/svg" xmlns:sodipodi="http://sodipodi.sourceforge.net/DTD/sodipodi-0.dtd" xmlns:inkscape="http://www.inkscape.org/namespaces/inkscape" width="127.79726" height="59.702709" viewBox="0 0 127.79726 59.702709" preserveAspectRatio="none" id="svg2" version="1.1" inkscape:version="0.92.3 (unknown)" sodipodi:docname="monodelphis_domestica.svg">
  <defs id="defs4"/>
  <sodipodi:namedview id="base" pagecolor="#ffffff" bordercolor="#666666" borderopacity="1.0" inkscape:pageopacity="0.0" inkscape:pageshadow="2" inkscape:zoom="5.6" inkscape:cx="-16.520196" inkscape:cy="52.87489" inkscape:document-units="px" inkscape:current-layer="LAYER_EFO" showgrid="false" inkscape:window-width="3375" inkscape:window-height="1416" inkscape:window-x="65" inkscape:window-y="24" inkscape:window-maximized="1" fit-margin-top="0" fit-margin-left="0" fit-margin-right="0" fit-margin-bottom="0"/>
  <metadata id="metadata">
    <rdf:RDF>
      <cc:Work rdf:about="">
        <dc:format>image/svg+xml</dc:format>
        <dc:type rdf:resource="http://purl.org/dc/dcmitype/StillImage"/>
        <dc:title/>
      </cc:Work>
    </rdf:RDF>
  </metadata>
  <g inkscape:label="EFO" id="container" inkscape:groupmode="layer" label="EFO" groupmode="layer">
    <g id="outline" style="fill:#62fafa;fill-opacity:1" ontology="NULL">
      <path id="path838" d="m 64.571533,59.538789 c -0.38957,-0.28741 -0.78226,-0.75281 -1.42775,-0.69157 -0.67365,0.06392 -0.82891,0.21096 -1.11737,-0.0982 -0.24102,-0.25831 -0.36112,-0.49668 -0.5701,-0.41422 -0.15469,0.06104 -0.57254,0.27524 -0.75495,0.28068 -0.285,0.0085 -0.17719,-0.19938 -0.10136,-0.50149 0.10419,-0.41514 0.11981,-0.4114 -0.54918,-0.13188 -0.83831,0.35027 -1.0482,0.15486 -0.71059,-0.66159 0.0821,-0.19853 -0.0095,-0.22816 -0.65201,-0.21094 -0.70895,0.01901 -1.03162,0.0019 -1.03162,-0.33152 0,-0.37705 0.43272,-0.47275 2.39384,-1.35846 1.10768,-0.50027 1.86477,-1.05589 2.46094,-1.80607 0.431,-0.54235 0.93847,-1.70906 0.80251,-1.84503 -0.0448,-0.0448 -0.53471,0.33018 -1.03983,0.65514 -2.56074,1.64738 -3.45379,1.25402 -3.18227,0.51426 l 0.171,-0.4659 -1.03775,0.22158 c -0.93724,0.20013 -1.31888,-0.20017 -1.71173,-0.57586 -0.83397,-0.79753 -1.15024,-1.97908 -0.62291,-2.61448 0.26558,-0.32 2.48357,-2.04747 3.07946,-2.36685 0.7067,-0.37877 1.16902,-0.34885 2.26899,0.21974 0.94417,0.48806 2.25651,1.01479 2.25651,0.74645 0,-0.07459 -0.15757,-0.47206 -0.44688,-0.81028 -1.57396,-1.84011 -4.99734,-2.65043 -9.08822,-2.62745 -1.63882,0.0092 -2.57925,0.30539 -4.5266,0.9369 -5.00586,1.63225 -5.81473,2.66644 -9.1782,5.21929 -1.71493,1.0481 -2.79146,2.56317 -3.9008,4.04308 -0.79322,1.04133 -2.531962,2.81702 -3.313222,3.38296 -0.801092,0.58031 -1.543038,0.83927 -2.053991,0.47544 -0.346187,-0.24651 -0.501554,-0.35096 -1.13669,-0.27631 -0.812339,0.09547 -1.477001,0.14288 -1.732435,-0.31355 -0.09657,-0.17257 -0.278114,-0.67119 -0.60506,-0.6058 -0.71779,0.14356 -1.426779,-0.09698 -1.426779,-0.64689 -0.0451,-0.33416 0.667872,-0.7918 0.439675,-0.93642 -0.124007,-0.07664 -0.409721,-0.23888 -0.351824,-0.45117 0.08116,-0.29763 0.549597,-0.71088 1.733215,-1.50244 0.210677,-0.1409 0.929099,-0.34979 1.639898,-0.4642 1.392576,-0.22416 2.242105,-0.40331 2.61298,-0.87232 0.226131,-0.28596 0.219361,-0.30406 -0.17578,-0.47021 -0.324534,-0.13645 -0.766096,-0.1195 -0.766096,-0.45278 0,-0.43227 0.612006,-1.28045 0.769256,-1.28045 0.236141,-0.79673 1.618849,-1.29426 1.835607,-1.88919 5.63e-4,-0.62985 -0.773149,-1.28691 -1.922984,-2.26599 -2.428589,-2.06794 -3.390598,-3.58803 -4.601953,-7.29489 -0.619544,-1.89587 -1.474316,-3.79512 -2.194626,-4.69931 -0.619251,-0.77734 -1.317049,-1.17049 -2.572789,-1.64077 -0.766978,-0.28724 -0.981061,-0.19466 -6.496347,-0.21497 -6.120865,-0.02254 -7.51501,-0.23759 -9.340981,-0.86684 -1.197828,-0.41278 -2.712772,-1.67565 -2.497304,-1.89112 0.046361,-0.04636 0.285259,0.08481 0.530882,0.29149 0.882322,0.74243 2.108571,1.23035 3.965872,1.57802 0.929916,0.17407 2.281339,0.21296 6.957895,0.20024 4.894053,-0.01331 5.93954,0.01938 6.669605,0.20856 2.838076,0.73542 4.110366,2.2999 5.582304,6.86433 0.663858,2.0586 1.32494,3.56217 1.993326,4.53363 0.519186,0.75461 2.03974,2.32069 2.844484,2.92965 0.589997,0.44646 1.166792,1.33207 1.280495,1.96609 0.04049,0.22577 0.149411,0.45733 0.24205,0.51458 0.126093,0.07793 0.114574,0.15796 -0.04583,0.31836 -0.117843,0.11784 -0.07782,0.57794 -0.128071,0.89223 -0.393509,1.50711 -0.778575,2.28521 -1.808737,3.12352 -0.0072,0.29551 -1.379476,0.63145 -2.605453,0.79742 -0.386716,0.05235 -0.892963,0.17953 -1.124993,0.28262 -0.498563,0.2215 -1.897874,1.46543 -1.648483,1.46543 0.233681,0 0.209184,0.4311 -0.04348,0.76515 -0.472382,0.62455 0.0015,1.10364 0.793698,0.80244 0.313938,-0.11936 0.403687,-0.0762 0.753661,0.36241 l 0.397284,0.4979 0.987412,-0.08278 c 0.764654,-0.06411 1.073149,-0.03213 1.36746,0.14172 0.922805,0.54511 1.880704,-0.25174 5.436025,-4.52213 1.36309,-1.63724 1.77125,-2.01606 3.97978,-3.69364 1.35351,-1.02812 3.12537,-2.32187 3.93748,-2.87501 2.89032,-2.23027 6.68688,-5.94863 5.27361,-9.57173 -0.05907,-0.14449 -0.03796,-0.24609 0.05113,-0.24609 0.08346,0 0.22468,0.37069 0.38442,0.8004 0.76715,2.06361 -0.06724,4.65549 -2.31128,6.98102 -0.55654,0.57675 -1.27026,1.04615 -1.15199,0.99971 0.76725,-0.30131 3.66095,-1.21751 4.61341,-1.46069 3.17144,-0.80974 7.76775,-0.32937 10.2842,1.07483 0.72655,0.40542 0.8794,0.45148 0.7879,0.23743 -0.26876,-0.62871 -0.73939,-2.38557 -0.66974,-2.50015 0.04187,-0.06887 0.21686,0.24753 0.38886,0.70312 0.17201,0.45559 0.6452,1.52443 1.05153,2.37521 0.65665,1.37487 0.99543,1.6752 1.05979,2.70112 0.08677,1.38317 -0.19876,2.66606 -0.7427,3.86569 -0.58461,1.28933 -1.62051,1.97728 -3.55049,2.91149 l -1.61718,0.78279 0.67546,0.0454 c 0.74444,0.05004 0.91948,0.24856 0.65494,0.74284 -0.14992,0.28013 -0.13983,0.30251 0.09464,0.20996 0.14435,-0.05698 0.47736,-0.13964 0.74003,-0.18368 0.4575,-0.07672 0.47451,-0.06405 0.40466,0.30137 -0.05635,0.29478 -0.0261,0.36349 0.13314,0.30238 0.67677,-0.2597 0.86296,-0.23925 1.0988,0.12067 0.21482,0.32786 0.32645,0.36396 1.12556,0.36396 0.74588,0 0.95499,0.05712 1.31357,0.35885 0.4061,0.34171 0.44315,0.34793 0.77552,0.13016 1.45546,-1.65657 2.63615,-3.72056 3.51517,-5.43257 1.58885,-3.11403 2.3576,-4.3849 3.09729,-5.12033 0.2385,-0.23713 1.19301,-1.02051 2.12113,-1.74085 0.92812,-0.72034 2.05795,-1.66538 2.51074,-2.1001 0.86568,-0.83112 2.64104,-3.03009 2.98788,-3.70079 0.11213,-0.21684 0.26682,-0.39426 0.34375,-0.39426 -0.62261,2.13239 -3.19739,4.9264 -4.86217,6.07889 -0.20364,0.14888 -0.29823,0.17085 0.66951,0.13101 0.63952,-0.02633 2.0487,0.05803 3.13151,0.18746 1.0828,0.12944 2.91795,0.27019 4.0781,0.31279 3.54162,0.13005 4.99262,-0.29465 6.78565,-1.9861 1.76835,-1.66818 3.14777,-4.02199 4.45787,-7.60685 1.39576,-3.81921 2.47283,-5.59747 6.386611,-10.54432 2.65408,-3.35464 4.05492,-4.62405 6.15226,-5.57503 1.30772,-0.59295 2.45905,-0.82142 4.15112,-0.82377 2.54425,-0.0035 4.48172,0.49958 6.87096,1.78424 1.29867,0.69828 2.90406,1.85392 3.6075,2.59685 0.76665,0.80969 2.00103,2.64041 2.52544,3.74549 1.09724,2.31222 1.31462,3.7398 1.27913,6.32637 -0.0519,3.78127 -1.01394,6.44462 -2.32355,9.34299 -0.66472,1.47113 -0.17272,1.29556 0.99409,-0.13163 1.14441,-1.39978 1.76094,-2.70476 2.47782,-5.24463 1.12715,-3.99346 1.3436,-7.52183 0.63697,-10.38338 -0.64875,-2.62714 -2.80531,-5.71238 -5.33024,-7.62562 -2.64231,-2.00217 -5.27789,-3.18388 -8.01558,-3.59393 -1.1205,-0.16783 -1.63949,-0.17961 -2.55416,-0.05799 -2.86394,0.38083 -6.2727,2.11152 -8.20358,4.16512 -0.50273,0.53468 -2.14957,2.20619 -3.659631,3.71447 -2.95288,2.94939 -3.80455,3.55749 -5.28759,3.77541 -2.23215,0.32799 -3.73821,-0.53049 -6.24651,-3.56062 -1.08842,-1.31485 -3.56137,-3.92752 -5.9702,-6.30748 -3.48196,-3.44024 -7.25136,-5.25348 -13.95192,-6.92208 -1.49919,-0.37334 -5.38062,-0.43701 -7.21713,-0.14637 -1.94799,0.30829 -5.38557,1.12091 -6.93307,1.63892 -1.38066,0.46217 -4.5991,2.04916 -6.00319,2.96015 -2.12875,1.38114 -3.52806,1.75613 -4.4051,1.18048 -0.45788,-0.30053 -1.23543,-1.31976 -1.89715,-2.48683 -0.51587,-0.90983 -1.62226,-2.04931 -1.88911,-2.04931 -0.10614,0 -0.11474,0.26555 -0.16792,0.65352 -0.12953,0.94503 -1.46697,3.16853 -1.69805,2.93744 -0.04394,-0.04393 0.12074,-0.40595 0.36595,-0.80447 1.40221,-2.27889 1.43859,-4.39852 0.12144,-7.0763295 -1.0571,-2.14911 -2.532605,-3.76779 -3.785392,-4.15271 -1.403153,-0.43111 -3.53641,-0.29867 -4.845962,0.30087 -2.195194,1.50391 -3.134796,3.86404 -2.595934,6.0795695 0.296863,1.20297 0.644541,2.42315 1.46858,3.5513 0.676044,0.92553 0.774867,1.30293 0.170505,0.65116 -0.502028,-0.54142 -1.566953,-2.39723 -1.907283,-3.32377 -0.610881,-1.66311 -0.702786,-3.1800695 0.100195,-4.8186695 1.088308,-2.22085 2.835196,-3.42761 5.719325,-3.4326 1.599666,-0.00275 2.954248,0.65699 4.019556,1.66716 0.72905,0.6913 1.49204,1.89351 1.9767,2.79959 0.92191,1.7506295 0.89285,2.9155095 1.00475,4.0337895 0.96463,0.68163 2.04131,2.30167 2.53889,3.18216 0.52441,0.93589 1.17794,1.95298 1.61464,2.16119 0.87578,0.41755 1.40913,0.0075 4.32145,-1.71202 4.55865,-2.84263 8.14548,-3.55402 12.54556,-4.30357 5.03156,-0.78795 9.58952,0.2517 14.31295,2.14579 2.09236,0.86614 4.95049,2.52756 6.25627,3.70869 1.58459,1.43335 5.9479,6.17252 7.51041,8.02735 1.9346,2.29654 3.34904,3.17118 5.10384,3.10753 2.27879,-0.02668 6.787201,-5.24299 8.526181,-7.18896 4.22396,-4.03905 8.69068,-5.99388 14.21857,-4.03715 8.02501,2.7867 11.72523,9.40374 11.48121,14.79224 -0.19571,4.73016 -1.25264,9.99244 -4.32262,13.07911 -0.77945,0.77092 -1.75229,1.26455 -1.90315,1.26455 0.83475,-1.83878 2.45058,-5.60794 2.92368,-7.77596 0.74171,-3.78178 0.4568,-7.26155 -0.86783,-10.01299 -1.27745,-2.64211 -3.28015,-4.62221 -5.81243,-6.06046 -7.4945,-3.49339 -12.26014,-1.30832 -16.12375,3.52922 -3.145121,4.05353 -5.862781,7.57588 -7.471261,12.81882 -1.40528,3.60301 -3.50602,6.58323 -5.64989,7.75561 -1.64864,0.90157 -4.56518,1.0513 -9.09297,0.525 -3.25387,-0.37822 -4.71416,-0.50098 -5.58623,0.01835 -2.11358,1.30116 -3.35574,4.16811 -4.22176,5.83164 -1.03645,1.75657 -2.11542,3.59578 -3.31749,5.21835 -0.69228,0.81021 -1.14266,1.34833 -1.76871,0.89746 z" style="fill:#62fafa;fill-opacity:1;stroke:#000000;stroke-width:0.21602426;stroke-miterlimit:4;stroke-dasharray:none;stroke-opacity:1" inkscape:connector-curvature="0"/>
      <path id="path836" d="m 61.457033,52.359529 c 0.61835,-0.35336 1.32434,-0.70915 1.56886,-0.79063 0.52287,-0.17424 0.60017,-0.33687 0.70777,-1.48912 0.12957,-1.38757 0.04459,-1.54836 -0.87935,-1.6638 -0.47288,-0.05908 -1.15395,-0.29399 -1.71446,-0.59135 -1.17001,-0.6207 -1.43132,-0.57774 -2.8369,0.46644 -2.12976,1.58216 -2.34277,1.98078 -1.62383,3.0388 0.53431,0.78631 1.05797,1.00825 1.90147,0.8059 0.37548,-0.09008 0.74898,-0.12281 0.82999,-0.07274 0.08102,0.05007 0.44916,0.08586 0.1473,0.5925 -0.24173,0.40572 0.02255,0.49695 0.38744,0.42397 0.21309,-0.04262 0.89336,-0.3666 1.51171,-0.71997 z" style="fill:#62fafa;fill-opacity:1;stroke:#000000;stroke-width:0.21602426;stroke-miterlimit:4;stroke-dasharray:none;stroke-opacity:1" inkscape:connector-curvature="0"/>
      <path id="path834" d="m 33.040758,51.482389 c 0.378311,-0.67687 0.859029,-2.12816 0.743266,-2.24392 -0.227991,-0.228 -1.929093,1.86946 -1.929093,2.37857 0,0.16951 0.444503,0.48221 0.726256,0.51091 0.05139,0.0052 0.2582,-0.28527 0.459571,-0.64556 z" style="fill:#62fafa;fill-opacity:1;stroke:#000000;stroke-width:0.21602426;stroke-miterlimit:4;stroke-dasharray:none;stroke-opacity:1" inkscape:connector-curvature="0"/>
      <path id="path832" d="M 2.738567,29.259619 C 0.748339,28.950219 0,28.286739 0,27.114939 c 4.1e-5,-1.6765 2.022774,-2.96643 3.200982,-3.65023 2.565527,-1.72921 5.986968,-3.0819 7.705772,-5.0174 0.217911,-0.26437 0.75953,-1.07395 1.11679,-1.71226 1.415898,-2.73888 3.039076,-2.97059 4.836654,-4.83613 2.456225,-2.5447095 3.347598,-3.1139395 4.835293,-3.4569095 1.020205,-0.23519 4.113195,0.10286 4.112316,0.36719 -1.39e-4,0.04749 -0.935153,0.08635 -2.077768,0.08635 -2.057601,0 -2.086316,0.00434 -3.000532,0.45471 -0.637194,0.3139 -1.22401,0.7672795 -1.894863,1.4639795 -1.987759,2.06436 -2.485205,2.52148 -3.404862,3.12883 -1.550243,1.02381 -2.008035,1.53005 -3.121643,3.45202 -0.333483,0.57556 -0.852749,1.3138 -1.153925,1.64054 -0.703617,0.76333 -2.776371,2.13646 -5.177804,3.43011 -4.346251,2.34133 -5.787616,3.71812 -5.314215,5.07612 0.081029,0.23244 0.173939,0.396 0.206467,0.36347 0.032528,-0.03253 0.143727,-0.4629 0.247109,-0.95639 l 0.187966,-0.89725 0.284342,0.64953 c 0.162564,0.37134 0.078106,0.4645 -0.097674,0.83312 -0.234765,0.4923 -0.446225,0.61489 -0.138404,0.84708 0.339204,0.25586 1.264507,0.48531 2.553888,0.6333 0.444724,0.05104 0.808589,0.14879 0.808589,0.21722 0,0.15278 -0.545469,0.25006 -1.975911,0.02768 z" style="fill:#62fafa;fill-opacity:1;stroke:#000000;stroke-width:0.21602426;stroke-miterlimit:4;stroke-dasharray:none;stroke-opacity:1" inkscape:connector-curvature="0"/>
      <path id="path830" d="m 16.551524,20.760709 c 0.162681,-0.73806 1.190525,-1.45132 1.352327,-1.18951 0.07517,0.12162 -0.31655,0.37739 -0.437493,0.57117 -0.742923,1.19035 -0.215631,2.89131 1.210858,2.89291 0.858339,9.9e-4 1.53867,-0.33901 1.940713,-0.96878 0.243607,-0.5271 0.297098,-0.94501 -0.02128,-1.66074 -0.355526,-0.57837 -1.145851,-0.86776 -1.521233,-0.79193 -0.521998,0.0177 -0.974193,0.12445 -1.044359,-0.08611 0.38792,-0.53671 1.620238,-0.47671 2.207099,-0.15582 0.772943,0.48655 1.124848,1.27421 1.124848,1.97917 0,0.81304 -0.649301,1.8251 -1.770036,2.13587 -2.481296,0.66518 -3.4479,-1.13165 -3.041441,-2.72623 z" style="fill:#62fafa;fill-opacity:1;stroke:#000000;stroke-width:0.21602426;stroke-miterlimit:4;stroke-dasharray:none;stroke-opacity:1" inkscape:connector-curvature="0"/>
      <path id="path828" d="m 33.192648,21.809509 c -0.03225,-0.10311 -0.14713,-1.00756 -0.193914,-1.58021 -0.112117,-1.3723 -0.504832,-2.72853 -0.790825,-2.26579 -0.04858,0.07861 -0.365018,0.29359 -0.519042,0.29359 -0.244539,0 -0.276256,-0.0847 -0.250148,-0.66797 0.01644,-0.36738 -0.01886,-0.99265 -0.07846,-1.20535 -0.158775,-0.56664 0.389619,-0.51007 0.645073,0.07032 0.200669,0.45591 0.203937,0.33283 1.344254,0.3733 1.127393,0.04001 1.148156,0.15884 1.511709,-0.27321 0.202738,-0.24094 0.306468,-0.51273 0.306468,-0.60397 0,-0.09125 -0.486669,-0.32203 -0.942602,-0.7584 -0.667195,-0.63856 -0.848432,-1.13459 -0.928696,-1.60967 -0.112506,-0.66592 0.02248,-1.45209 0.594295,-0.96828 0.112984,0.09559 0.436663,0.53554 0.529901,0.72256 0.09324,0.18701 0.358538,0.3636 0.743011,0.54588 0.84318,0.39973 1.03064,0.61106 1.03339,1.38346 0.0027,0.75779 -0.26428,1.33266 -0.920445,1.85906 -0.483354,0.38776 -0.447847,0.45795 -0.625236,1.65132 -0.103443,0.69591 -0.327727,1.58145 -0.467717,1.99855 -0.250121,0.74524 -0.875514,1.40414 -0.991016,1.03481 z" style="fill:#62fafa;fill-opacity:1;stroke:#000000;stroke-width:0.21602426;stroke-miterlimit:4;stroke-dasharray:none;stroke-opacity:1" inkscape:connector-curvature="0"/>
      <path id="path826" d="m 34.091748,19.124049 c 0.07747,-0.44368 0.170696,-1.03947 0.207168,-1.32399 l 0.06631,-0.5173 -1.185166,-0.0452 c -0.844492,-0.0322 -1.185068,0.0027 -1.184833,0.12125 1.41e-4,0.09154 0.173527,0.18647 0.385217,0.21094 0.593264,0.06859 1.048982,1.01265 1.135048,2.35135 l 0.06867,1.06812 0.183365,-0.52924 c 0.100851,-0.29109 0.24675,-0.89225 0.324221,-1.33593 z" style="fill:#62fafa;fill-opacity:1;stroke:#000000;stroke-width:0.21602426;stroke-miterlimit:4;stroke-dasharray:none;stroke-opacity:1" inkscape:connector-curvature="0"/>
      <path id="path824" d="m 35.744363,15.676159 c 0.13197,-0.81328 -0.02314,-1.15193 -0.658979,-1.43865 -0.314847,-0.14198 -0.759174,-0.47081 -0.987394,-0.73074 l -0.414945,-0.47259 v 0.44401 c 0,0.36391 0.168081,0.60482 0.931528,1.33519 0.785231,0.75121 0.92048,0.94894 0.861206,1.25903 -0.04236,0.22161 -0.01933,0.31686 0.05794,0.23959 0.07055,-0.07055 0.16534,-0.35668 0.21064,-0.63584 z" style="fill:#62fafa;fill-opacity:1;stroke:#000000;stroke-width:0.21602426;stroke-miterlimit:4;stroke-dasharray:none;stroke-opacity:1" inkscape:connector-curvature="0"/>
      <path id="path851" d="M 19.162296,8.1779195 C 17.305491,6.2167795 17.083205,2.5312295 18.335588,0.63387947 18.623677,0.19742947 19.179443,-5.3214745e-7 19.57225,-5.3214745e-7 c 0.55089,0 1.062432,0.0591300021475 1.877364,1.11926003214745 0.326999,0.42539 1.164569,1.40989 1.534185,1.83528 2.03094,2.33738 2.132687,3.05095 2.215838,4.26298 0.03641,0.53069 -0.127868,0.75813 -0.224132,0.55304 -0.07261,-0.15469 -0.13646,-0.44285 -0.141895,-0.64036 -0.02609,-0.94786 -1.08605,-2.38457 -4.424788,-5.99751 -0.378599,-0.40970003 -0.769796,-0.74490003 -0.869324,-0.74490003 -0.244099,0 -0.719803,0.69000003 -0.987334,1.43211003 -0.444789,1.2338 -0.185046,3.94386 0.509685,5.31785 0.136875,0.2707 0.476434,0.72598 0.754577,1.01172 0.278142,0.28575 0.449687,0.55417 0.381209,0.59649 -0.06848,0.04232 -0.760939,-0.27822 -1.035339,-0.56804 z" style="fill:#62fafa;fill-opacity:1;stroke:#000000;stroke-width:0.21602426;stroke-miterlimit:4;stroke-dasharray:none;stroke-opacity:1" inkscape:connector-curvature="0"/>
    </g>
    <path inkscape:label="UBERON_0000955" sodipodi:nodetypes="ccccccccccccccccccccccccc" inkscape:connector-curvature="0" id="brain" d="M 22.251214,14.368166 C 21.575168,13.746966 20.54479,13.646466 20.54479,13.646466 18.826443,13.824986 17.419926,14.772376 17.419926,14.772376 15.48079,16.265636 14.639923,18.491646 14.639923,18.491646 14.673873,18.807866 14.781127,19.188376 14.781127,19.188376 14.670736,19.845796 13.907227,19.589916 13.907227,19.589916 13.435766,19.357056 12.4164,19.864626 12.4164,19.864626 11.592856,20.622716 11.337,21.386236 11.337,21.386236 11.632433,22.114666 11.949644,22.315906 11.949644,22.315906 12.983389,23.121916 13.856169,22.485316 13.856169,22.485316 14.656777,22.019286 15.031799,20.736216 15.031799,20.736216 15.153192,20.686916 15.323857,20.759816 15.323857,20.759816 15.804083,21.130576 17.586954,20.878946 17.586954,20.878946 17.991644,20.714926 18.426913,20.161286 18.426913,20.161286 18.710196,20.046546 19.774518,20.462996 19.774518,20.462996 21.627528,21.313726 22.198368,20.281096 22.198368,20.281096 22.528629,19.817256 22.958296,18.087926 22.958296,18.087926 23.092952,19.117186 23.523949,19.366516 23.523949,19.366516 24.506215,19.580816 26.182971,19.183596 26.182971,19.183596 27.811612,18.900116 28.092648,18.314916 28.092648,18.314916 28.861556,18.003086 31.081941,17.668096 31.081941,17.668096 31.317099,17.667096 31.409975,16.733946 31.409975,16.733946 31.325675,16.061266 30.960325,15.973796 30.960325,15.973796 29.550438,16.215766 27.496206,15.682206 27.496206,15.682206 26.559977,12.087706 23.210899,12.630446 22.251245,14.369196 Z" style="fill:#62fafa;fill-opacity:1;stroke:#000000;stroke-width:0.21602426;stroke-miterlimit:4;stroke-dasharray:none;stroke-opacity:1" label="UBERON_0000955" nodetypes="ccccccccccccccccccccccccc" connector-curvature="0" ontology="UBERON_0000955"/>
    <path inkscape:label="UBERON_0002037" sodipodi:nodetypes="ccccc" inkscape:connector-curvature="0" id="cerebellum" d="M 22.230905,14.331286 C 23.539223,12.434826 25.360436,13.092516 25.63566,13.208606 27.190264,13.882526 27.573811,15.856136 27.493908,15.945766 27.354696,16.379236 25.033148,17.073536 24.580981,17.000436 23.542008,16.769596 22.05191,14.802106 22.230905,14.331286 Z" style="fill:#62fafa;fill-opacity:1;stroke:#000000;stroke-width:0.21602426;stroke-miterlimit:4;stroke-dasharray:none;stroke-opacity:1" label="UBERON_0002037" nodetypes="ccccc" connector-curvature="0" ontology="UBERON_0002037"/>
    <path inkscape:label="UBERON_0000948" sodipodi:nodetypes="cccccc" inkscape:connector-curvature="0" id="heart" d="M 33.564999,38.889476 C 33.060839,40.471466 33.522439,40.899196 33.522439,40.899196 34.769636,42.062836 36.483961,41.727516 38.183411,42.338326 38.816331,42.498626 39.366701,41.757216 39.366701,41.757216 39.525891,41.040056 36.325891,37.829136 34.872191,37.614396 34.159021,37.964706 33.791275,38.593376 33.565009,38.889476 Z" style="fill:#62fafa;fill-opacity:1;stroke:#000000;stroke-width:0.21602426;stroke-miterlimit:4;stroke-dasharray:none;stroke-opacity:1" label="UBERON_0000948" nodetypes="cccccc" connector-curvature="0" ontology="UBERON_0000948"/>
    <path inkscape:label="UBERON_0002113" sodipodi:nodetypes="ccccccc" inkscape:connector-curvature="0" id="kidney" d="M 60.718631,21.453266 C 60.718631,20.423866 61.637921,19.399276 61.637921,19.399276 62.393861,18.668556 65.647201,19.003366 65.647201,19.003366 69.255551,19.715996 70.458341,21.062116 70.458341,21.062116 71.099821,22.249896 70.057411,22.915346 70.057411,22.915346 69.048621,23.391266 64.573391,22.566616 63.402001,22.566616 61.562981,22.449856 60.780471,21.941706 60.718631,21.453266 Z" style="fill:#62fafa;fill-opacity:1;stroke:#000000;stroke-width:0.21602426;stroke-miterlimit:4;stroke-dasharray:none;stroke-opacity:1" label="UBERON_0002113" nodetypes="ccccccc" connector-curvature="0" ontology="UBERON_0002113"/>
    <path inkscape:label="UBERON_0002107" sodipodi:nodetypes="ccccccccccc" inkscape:connector-curvature="0" id="liver" d="M 57.728481,25.765796 C 53.215881,32.732396 52.248891,37.772076 52.248891,37.772076 52.136541,38.998016 53.103451,39.731706 54.523901,39.629376 56.651581,39.790356 57.476951,40.619086 57.476951,40.619086 58.121611,41.656646 59.743031,42.218856 59.743031,42.218856 60.710021,42.144656 60.710021,40.588376 60.710021,40.588376 60.710021,39.476666 59.904201,36.808626 59.904201,36.808626 59.756851,36.291366 60.307101,33.918216 60.307101,33.918216 60.387701,32.584176 59.388161,29.771626 59.388161,29.771626 59.165121,29.319496 59.340061,26.136356 59.340061,26.136356 59.348061,25.013036 58.009531,25.256266 57.728411,25.765796 Z" style="fill:#62fafa;fill-opacity:1;stroke:#000000;stroke-width:0.21602426;stroke-miterlimit:4;stroke-dasharray:none;stroke-opacity:1" label="UBERON_0002107" nodetypes="ccccccccccc" connector-curvature="0" ontology="UBERON_0002107"/>
    <path inkscape:label="UBERON_0000473" sodipodi:nodetypes="ccccc" inkscape:connector-curvature="0" id="testis" d="M 74.030181,44.495586 C 73.480681,45.734586 75.461171,46.548766 75.461171,46.548766 76.814981,46.954996 77.832651,46.856216 78.666611,46.265616 79.381731,45.584276 79.161701,44.741106 78.666611,44.377606 77.297801,43.435216 74.614611,43.361606 74.030181,44.495716 Z" style="fill:#62fafa;fill-opacity:1;stroke:#000000;stroke-width:0.21602426;stroke-miterlimit:4;stroke-dasharray:none;stroke-opacity:1" label="UBERON_0000473" nodetypes="ccccc" connector-curvature="0" ontology="UBERON_0000473"/>
  </g>
</svg>
