<?xml version="1.0" encoding="UTF-8" standalone="no"?>
<!-- Generator: Adobe Illustrator 18.1.1, SVG Export Plug-In . SVG Version: 6.00 Build 0)  -->
<svg xmlns:dc="http://purl.org/dc/elements/1.1/" xmlns:cc="http://creativecommons.org/ns#" xmlns:rdf="http://www.w3.org/1999/02/22-rdf-syntax-ns#" xmlns:svg="http://www.w3.org/2000/svg" xmlns="http://www.w3.org/2000/svg" xmlns:sodipodi="http://sodipodi.sourceforge.net/DTD/sodipodi-0.dtd" xmlns:inkscape="http://www.inkscape.org/namespaces/inkscape" version="1.1" id="Layer_1" x="0px" y="0px" enable-background="new 0 0 1417.3 1275.6" xml:space="default" inkscape:version="0.92.3 (unknown)" sodipodi:docname="mus_musculus.brain.svg" width="142.0164" height="81.638588" viewBox="0 0 142.0164 81.638588" preserveAspectRatio="none">
  <metadata id="metadata">
    <rdf:RDF>
      <cc:Work rdf:about="">
        <dc:format>image/svg+xml</dc:format>
        <dc:type rdf:resource="http://purl.org/dc/dcmitype/StillImage"/>
        <dc:title/>
      </cc:Work>
    </rdf:RDF>
  </metadata>
  <defs id="defs16264"/>
  <sodipodi:namedview pagecolor="#ffffff" bordercolor="#666666" borderopacity="1" objecttolerance="10" gridtolerance="10" guidetolerance="10" inkscape:pageopacity="0" inkscape:pageshadow="2" inkscape:window-width="1855" inkscape:window-height="1056" id="namedview16262" showgrid="false" inkscape:zoom="2.56" inkscape:cx="-32.667557" inkscape:cy="36.204686" inkscape:window-x="65" inkscape:window-y="24" inkscape:window-maximized="1" inkscape:current-layer="Layer_1" fit-margin-top="0" fit-margin-left="0" fit-margin-right="0" fit-margin-bottom="0"/>
  <g inkscape:label="EFO" id="container" inkscape:groupmode="layer">
    <g id="g892" style="fill:#88fafa;fill-opacity:1">
      <path id="path888" d="M 74.171769,3.9516602e-6 70.365813,0.46734595 l -0.06465,0.014788 c 0,0 -0.511921,0.116377 -1.13571,0.293658 C 68.541664,0.95307195 67.827351,1.162785 67.192517,1.503338 66.739728,1.746237 66.412379,2.032465 66.116634,2.285565 65.933839,2.442006 65.885843,2.490237 65.792422,2.576649 65.693524,2.618651 65.594268,2.6637 65.341484,2.755802 64.99168,2.883256 64.52464,2.997558 64.483028,3.000893 64.297624,3.015747 63.670252,2.707 62.54869,2.696943 61.013903,2.683175 58.770714,3.17104 58.770714,3.17104 l -6.834514,1.339305 -6.055505,0.73752 -7.852825,0.372457 -0.0039,3.29e-4 c 0,0 -3.705272,0.171995 -5.610355,0.547108 -1.556804,0.306537 -3.764468,1.274658 -3.764468,1.274658 l -0.105175,0.043742 -0.09617,0.061754 c 0,0 -0.408097,0.261325 -0.888368,0.614332 -0.480272,0.353006 -1.025838,0.753475 -1.476646,1.317756 -0.418852,0.524283 -0.584699,1.043515 -0.720151,1.4165 -0.135452,0.372986 -0.240814,0.59998 -0.308451,0.685414 -0.02307,0.02914 -0.357188,0.339854 -0.639098,0.551289 -0.105271,0.07895 -0.110956,0.07884 -0.193628,0.137018 l -0.728191,-0.02798 -1.536792,-0.542927 -2.885749,-0.944976 -2.987385,-0.279184 -2.282675,0.338365 -2.384955,0.650676 -2.1964768,1.051119 -2.3704817,0.248947 -2.9841692,1.30843 -0.061434,0.03538 c 0,0 -0.4512313,0.258998 -0.9774608,0.621728 -0.5262312,0.362733 -1.1304874,0.774751 -1.6178461,1.435156 -0.39028178,0.528856 -0.54929938,1.02314 -0.71210968,1.475366 -0.1628102,0.452226 -0.27210787,0.832388 -0.27210787,0.832388 l -0.006439,0.02253 -0.005797,0.02251 -0.04889,0.195548 -3.2936e-4,0.0016 c 0,0 -0.0589486,0.236727 -0.10260347,0.534236 -0.04365484,0.297526 -0.10159233,0.655572 -0.01414595,1.157268 0.17248843,0.989624 0.63597022,1.397666 0.65131992,1.438046 0.0477373,0.125584 0.0953181,0.420097 0.1656444,0.836587 0.0703263,0.416491 0.17287871,0.987829 0.57734271,1.554804 0.5105274,0.715663 1.1761942,0.981933 1.5982262,1.17945 0.422032,0.197516 0.6078841,0.333014 0.6230149,0.352842 0.086793,0.114056 0.1365554,0.780316 0.5654429,1.808574 0.4447084,1.0662 1.3672881,2.802118 1.3672881,2.802118 l 0.07655,0.145708 2.6477358,2.925627 1.5876105,1.403958 2.6171805,1.732673 1.616237,0.860697 2.329635,1.007706 2.722355,1.237993 2.962619,0.797657 4.322833,0.610154 2.907299,0.425202 2.370481,0.998698 3.025341,1.076525 1.468282,2.003176 1.457027,2.683746 1.486296,2.129255 2.038871,3.278798 1.639396,2.515856 0.264387,0.155358 c 0,0 0.469161,0.276349 1.068487,0.559334 0.599324,0.282968 1.270002,0.617152 2.154017,0.667066 0.791673,0.04473 1.360943,-0.175564 1.876445,-0.351541 0.34667,-0.118355 0.46315,-0.174395 0.621406,-0.241238 0.108832,-0.0016 0.216498,-0.0059 0.477314,0.01317 0.363804,0.02658 0.811502,0.1754 0.696349,0.109364 -0.04374,-0.02508 0.04536,0.03928 0.213889,0.322277 0.168531,0.283001 0.389729,0.75489 0.916352,1.19521 0.560535,0.468677 1.208419,0.791498 1.777056,1.071058 0.56864,0.279559 1.042434,0.478607 1.042434,0.478607 l 0.0891,0.03763 3.124403,0.799272 3.530957,0.314241 h 4.898889 0.009 c 0,0 0.631513,-0.0081 1.396881,-0.07528 0.765367,-0.06712 1.625669,-0.138677 2.457645,-0.500461 0.304818,-0.132567 0.514403,-0.200628 0.825006,-0.504972 0.02737,-0.02683 0.05517,-0.07452 0.08363,-0.108409 0.06213,0.02752 0.08519,0.03272 0.15503,0.06562 0.23097,0.108787 0.492364,0.239575 0.795736,0.354769 0.303372,0.115176 0.633785,0.293689 1.282697,0.156643 -0.368193,0.07776 0.03317,0.02235 0.433249,0.125436 0.400075,0.103089 0.926061,0.267999 1.466031,0.435824 0.539972,0.167824 1.093161,0.338959 1.611414,0.461217 0.391135,0.09229 0.697558,0.232231 1.180416,0.181098 0.01777,0.0069 0.03822,0.02465 0.05532,0.03022 0.485942,0.158174 0.670226,0.05411 0.816962,0.01581 l 0.05243,0.123839 0.983573,-0.128335 c 0,0 0.557307,-0.07267 1.193926,-0.137985 0.477975,-0.04903 0.8484,-0.06086 1.124129,-0.07236 0.02551,0.03213 0.03219,0.03801 0.06015,0.07397 0.238528,0.306847 0.481099,0.724013 1.075239,1.118651 0.29707,0.197333 0.833479,0.435823 1.451237,0.257003 0.61776,-0.17885 0.963214,-0.66773 1.141498,-1.062384 0.330515,-0.731638 0.412734,-1.587674 0.455121,-2.901502 0.107111,-0.04188 0.218324,-0.07205 0.539066,-0.267604 1.121374,-0.683716 1.590073,-0.954201 1.788316,-1.069773 l 2.859373,0.13283 h 3.983826 3.550575 l 1.638759,0.27951 3.30645,0.615292 0.0965,0.0035 c 0,0 0.43289,0.01581 0.96621,0.0033 0.53332,-0.01252 1.13686,-0.02515 1.76933,-0.19908 0.7608,-0.209242 1.28363,-0.600899 1.69086,-0.873262 0.40723,-0.272363 0.68834,-0.420624 0.8546,-0.453823 0.27622,-0.05518 1.20382,-0.02861 1.94431,0.0701 0.74048,0.09872 1.33416,0.225791 1.33416,0.225791 0.002,0 0.29151,0.06386 0.63716,0.174017 0.29834,0.09507 0.54387,0.233483 0.58732,0.243149 0.0245,0.09612 0.037,0.179797 0.037,0.179797 l 9.9e-4,0.0084 0.33418,2.732014 0.0682,0.16435 c 0,0 0.73698,1.825004 1.29846,2.823674 0.68158,1.21227 2.10288,2.87514 2.10288,2.87514 l 0.0228,0.02765 2.58115,2.80085 2.9861,3.11861 0.0325,0.02991 c 0,0 2.65217,2.41991 3.75996,3.43252 1.23991,1.13341 3.40488,2.78251 3.40488,2.78251 l 0.0476,0.03634 3.30711,2.08134 0.29332,0.03408 c 0,0 0.79664,0.09272 1.669,0.1856 0.87235,0.09288 1.66716,0.19137 2.23313,0.19137 0.82453,0 1.11078,-0.36867 1.39238,-0.62494 0.28162,-0.25629 0.50949,-0.52913 0.71405,-0.79188 0.40911,-0.52551 0.71853,-1.02957 0.71853,-1.02957 l 0.005,-0.0074 0.004,-0.0077 c 0,0 0.21264,-0.35317 0.42682,-0.79702 0.2142,-0.44384 0.50014,-0.87211 0.50014,-1.70919 0,-0.59838 -0.004,-0.9874 0.13671,-2.13472 0.0432,-0.35268 0.21174,-1.17163 0.36731,-1.98644 0.15557,-0.81482 0.31605,-1.59384 0.29623,-2.35569 -0.024,-0.92181 -0.19459,-1.82724 -0.19459,-1.82724 l -0.019,-0.10613 -0.0363,-0.10164 c 0,0 -0.15309,-0.42884 -0.3673,-0.93983 -0.21423,-0.511 -0.44404,-1.07532 -0.83787,-1.60692 v 0 c -0.67789,-0.91501 -2.00639,-2.55317 -2.00639,-2.55317 l -0.0212,-0.02606 -2.64516,-2.942997 c -0.0501,-0.06674 -1.26019,-1.676271 -2.05721,-2.463751 -1.33059,-1.314651 -3.30229,-3.671229 -3.31545,-3.686956 l -3.39491,-4.33054 -2.60077,-3.778304 -2.16592,-2.87675 -1.89735,-1.588563 -0.81375,-0.302664 c 0.28605,-0.189019 0.59054,-0.455734 0.8472,-0.914432 0.63454,-1.133998 0.80162,-2.392642 0.75038,-3.541248 -0.0294,-0.657597 -0.21845,-1.155555 -0.37792,-1.605294 -0.15725,-0.443448 -0.30675,-0.785619 -0.31103,-0.795418 -0.001,-0.0026 -0.20814,-0.492984 -0.51398,-1.069131 -0.28489,-0.53669 -0.60548,-1.141343 -1.17302,-1.678626 5e-4,-0.014 0.0112,0.01564 0.002,-0.05018 -0.0249,-0.171926 -0.11282,-0.561475 -0.32904,-0.947236 -0.0222,-0.09471 -0.0453,-0.187817 -0.0791,-0.253771 0.0592,-0.16873 0.20487,-0.538584 0.18623,-1.078781 -0.0733,-2.125385 -1.09937,-4.666667 -1.09937,-4.666667 l -0.0212,-0.05757 -1.22738,-2.541908 c -0.0378,-0.09935 -1.22798,-3.222445 -2.25437,-5.021751 -0.41385,-0.725508 -1.02137,-1.435247 -1.55416,-2.039837 -0.53279,-0.604589 -0.98743,-1.071058 -0.98743,-1.071058 l -0.0135,-0.01383 -2.70724,-2.616215 -2.91791,-2.200012 -0.0785,-0.043744 c 0,0 -0.71793,-0.39998 -1.63167,-0.834654 -0.91395,-0.434711 -1.98025,-0.919253 -3.01654,-1.10712 C 99.540241,6.625134 98.278676,7.071134 97.429141,7.043647 96.753174,7.021774 95.235588,6.815798 94.965706,6.778938 L 93.951255,6.317706 91.471738,4.485006 C 91.409994,4.426369 91.071672,4.103265 90.552814,3.658714 89.989209,3.175824 89.332662,2.626853 88.628124,2.251543 87.470151,1.634682 85.913581,1.163218 84.577076,0.79258595 c -1.336503,-0.370633 -2.431271,-0.611437 -2.431271,-0.611437 L 82.034518,0.15638295 78.378765,7.0995166e-4 h -4.207364 z" style="fill:#88fafa;fill-opacity:1;stroke:#000000;stroke-width:0.21602426;stroke-miterlimit:4;stroke-dasharray:none;stroke-opacity:1" inkscape:connector-curvature="0"/>
      <path id="path886" d="m 74.330981,2.606568 h 3.992831 l 3.355664,0.14313 c 0.07993,0.017739 0.989153,0.217717 2.201298,0.553864 1.264052,0.35054 2.782358,0.85348 3.522274,1.247639 0.286479,0.152608 0.947944,0.652204 1.454453,1.086175 0.506509,0.433971 0.894158,0.804098 0.894158,0.804098 l 0.0595,0.056609 2.811772,2.07779 1.611092,0.733016 0.183335,0.026375 c 0,0 1.800538,0.276157 2.927881,0.312634 1.49425,0.048346 2.608401,-0.299524 3.323821,-0.169826 0.4721,0.085586 1.52909,0.500117 2.36148,0.896086 0.79631,0.378811 1.36625,0.695848 1.41939,0.725298 l 2.63198,1.984514 2.55574,2.469869 c 0.005,0.0049 0.41027,0.420687 0.89384,0.969421 0.48641,0.551963 1.05028,1.265847 1.24539,1.60787 0.80013,1.402665 2.11124,4.729385 2.11124,4.729385 l 0.019,0.04889 1.20486,2.495913 c 0.0215,0.0632 0.88467,2.6047 0.92632,3.812063 -0.001,-0.03573 -4.9e-4,-0.01136 -0.0939,0.290132 -0.0727,0.234487 -0.15449,0.703659 -0.063,1.186844 -0.001,0.0033 -0.0142,0.03537 -0.0142,0.03537 -1e-5,9.8e-5 0.045,0.464642 0.045,0.464774 4e-5,1.32e-4 0.0641,0.180159 0.093,0.236727 0.19665,0.3853 0.24541,0.371516 0.2898,0.387572 0.0392,0.266188 0.15674,0.981835 0.74041,1.486297 0.0537,0.04641 0.45054,0.585452 0.69893,1.053372 0.24838,0.46792 0.41748,0.86618 0.41748,0.86618 l 0.003,0.0068 0.003,0.0071 c 0,0 0.12152,0.278473 0.24734,0.633308 0.12583,0.354851 0.22974,0.830708 0.23062,0.85042 0.0351,0.787151 -0.1094,1.595496 -0.42103,2.152408 0.0854,-0.15269 -0.0885,0.04306 -0.52459,0.298811 -0.21804,0.127874 -0.48764,0.283397 -0.77226,0.568654 -0.28462,0.285258 -0.58017,0.769547 -0.62237,1.317106 -0.0399,0.51734 0.14345,0.832256 0.27918,1.046949 0.13574,0.214692 0.26841,0.355295 0.38758,0.473123 0.23834,0.23564 0.4638,0.391756 0.4638,0.391756 l 0.13959,0.09907 1.56092,0.580874 1.32419,1.108687 1.95267,2.593386 2.61525,3.799532 3.47338,4.430253 0.0122,0.01482 c 0,0 1.97431,2.380736 3.49397,3.8822 0.36367,0.359297 1.85714,2.241813 1.85714,2.241813 l 0.0296,0.03829 2.6606,2.960689 c 0.0242,0.03 1.33611,1.65415 1.92018,2.44252 0.061,0.08237 0.34389,0.62277 0.52846,1.06302 0.15802,0.37695 0.24003,0.60724 0.27114,0.69281 0.0155,0.09258 0.12883,0.75603 0.1441,1.3422 0.005,0.20664 -0.10243,1.02172 -0.25089,1.79926 -0.14844,0.77753 -0.31978,1.54922 -0.39433,2.1582 -0.15107,1.23424 -0.156,1.85124 -0.156,2.45153 0,-0.23774 -0.0847,0.25201 -0.24122,0.57638 -0.15363,0.31836 -0.30308,0.56905 -0.30877,0.57863 -0.003,0.0046 -0.2542,0.40821 -0.55515,0.79476 -0.12529,0.16093 -0.24403,0.28763 -0.34063,0.38501 -0.26124,-0.02016 -0.93687,-0.07253 -1.6664,-0.15021 -0.70533,-0.07509 -1.14184,-0.12593 -1.3525,-0.1502 l -2.69726,-1.69729 c -0.0719,-0.05538 -2.1647,-1.66795 -3.18906,-2.60432 -1.10056,-1.00601 -3.68203,-3.36155 -3.72844,-3.4039 l -2.90891,-3.03789 -2.5075,-2.72075 c -0.0261,-0.03272 -1.47306,-1.84571 -1.82723,-2.475658 -0.31098,-0.553109 -0.99029,-2.142791 -1.09615,-2.391062 l -0.28658,-2.343782 c 0,0 -0.0282,-0.271013 -0.11418,-0.589239 -0.086,-0.318243 -0.15429,-0.750098 -0.70375,-1.23027 -0.58701,-0.513009 -1.1295,-0.651538 -1.60626,-0.803471 -0.47676,-0.151933 -0.87969,-0.238324 -0.87969,-0.238324 h -9.8e-4 -6.6e-4 c 0,0 -0.68577,-0.147388 -1.5368,-0.260852 -0.85102,-0.113447 -1.82713,-0.236973 -2.79922,-0.04277 -0.80151,0.160118 -1.36233,0.5552 -1.79314,0.843339 -0.43081,0.288123 -0.74199,0.474376 -0.93276,0.526842 -0.12206,0.03356 -0.69008,0.09593 -1.13956,0.106466 -0.40615,0.0096 -0.67173,0 -0.73238,-0.0023 l -3.11829,-0.580231 -1.875478,-0.320038 h -3.771221 -3.923036 l -3.573734,-0.165964 -0.331289,0.191703 c 0,0 -0.817579,0.473256 -2.160452,1.292025 -0.03676,0.02241 -0.31744,0.103798 -0.756495,0.379207 -0.439055,0.27541 -0.994607,1.020913 -1.014129,1.775771 -0.0073,0.282787 -0.03527,0.423044 -0.05275,0.652607 -0.144377,-0.175202 -0.339522,-0.369754 -0.948836,-0.421348 -0.651195,-0.05512 -1.30514,0.03144 -1.983227,0.100998 -0.422407,0.04333 -0.556161,0.06243 -0.788017,0.09102 -0.01806,-0.0072 -0.03204,-0.01907 -0.0505,-0.02572 -0.380518,-0.137343 -0.788713,-0.104423 -1.201966,-0.01004 -0.2819,-0.08865 -0.49601,-0.08524 -0.632343,-0.06689 -0.173335,0.0233 -0.295477,0.05951 -0.428102,0.102282 0.43314,-0.139648 0.06727,-0.02864 -0.317136,-0.119343 -0.384404,-0.09069 -0.903292,-0.247925 -1.436442,-0.413625 -0.533149,-0.1657 -1.081505,-0.339734 -1.58922,-0.470555 -0.441408,-0.113744 -0.772552,-0.254133 -1.356353,-0.184935 3.29e-4,0.0048 -0.02712,0.01202 -0.08491,-0.01004 -0.132628,-0.05036 -0.357934,-0.15717 -0.61015,-0.27597 -0.252218,-0.118783 -0.52796,-0.251564 -0.871964,-0.355081 -0.344005,-0.103534 -0.842378,-0.275427 -1.514922,0.08876 h -3.29e-4 c -0.307117,0.166326 -0.541197,0.282754 -0.812781,0.62784 -0.03593,0.04566 -0.05775,0.112706 -0.08588,0.171118 -0.22667,0.07849 -0.950536,0.222268 -1.573781,0.276925 -0.660654,0.05795 -1.205183,0.06563 -1.205183,0.06563 h -4.756081 l -3.205136,-0.285291 -2.7156,-0.694749 c -0.05808,-0.02469 -0.37651,-0.158455 -0.832082,-0.382435 -0.495019,-0.243363 -1.091597,-0.594739 -1.255036,-0.731407 -0.01303,-0.01087 -0.14571,-0.188294 -0.348657,-0.529098 -0.202946,-0.340787 -0.503007,-0.874843 -1.156937,-1.249883 -0.714219,-0.409624 -1.291351,-0.410678 -1.802787,-0.448043 -0.511437,-0.03737 -0.935007,-0.0238 -0.935007,-0.0238 l -0.256667,0.0077 -0.234476,0.104868 c 0,0 -0.311455,0.138051 -0.705033,0.272429 -0.393579,0.134362 -0.922173,0.213836 -0.887082,0.215812 h -3.29e-4 c -0.05723,-0.0033 -0.704582,-0.193514 -1.187814,-0.421661 -0.344603,-0.16272 -0.4754,-0.242671 -0.61401,-0.32068 L 43.429119,52.296535 41.368055,48.982363 39.925825,46.916461 38.454324,44.20602 36.408376,41.414508 32.697945,40.093862 30.08945,38.994808 26.847003,38.521042 22.676629,37.932446 20.075209,37.231916 17.525895,36.072392 15.270561,35.096865 13.857599,34.34456 11.496123,32.781062 10.153279,31.593575 7.8358664,29.03268 C 7.7480775,28.863637 6.9412689,27.314202 6.6322926,26.573425 6.4910982,26.23491 6.5395781,25.243524 5.7333114,24.186859 5.2069172,23.496984 4.5539158,23.246787 4.1428037,23.054375 3.7316933,22.861964 3.5698695,22.733712 3.5616026,22.722118 3.5470614,22.701715 3.4856739,22.563137 3.432303,22.247051 3.378932,21.930982 3.3430813,21.470209 3.1331778,20.91804 2.8319957,20.125767 2.5939023,19.848843 2.6130875,19.958914 c 0.00983,0.05644 6.587e-4,-0.162835 0.02541,-0.331285 0.024438,-0.166557 0.052429,-0.280762 0.05307,-0.283364 v 0 c 4.9e-6,-3.3e-5 6.587e-4,-0.0026 6.587e-4,-0.0026 l 0.039561,-0.157927 c 0.00315,-0.01087 0.087402,-0.301182 0.2164644,-0.659673 0.1314454,-0.365102 0.3627277,-0.818695 0.3566971,-0.810527 0.074468,-0.100899 0.5684401,-0.53944 0.9999774,-0.836903 0.408693,-0.281713 0.7193177,-0.46037 0.7552096,-0.481172 l 2.4640788,-1.080387 2.4142238,-0.253452 2.3904247,-1.14375 2.007995,-0.548073 1.81726,-0.269534 2.383027,0.222897 2.579547,0.844624 1.880625,0.664507 1.980654,0.07655 0.348979,-0.228685 c 0,0 0.299609,-0.196639 0.651964,-0.46091 0.352354,-0.264269 0.750508,-0.552898 1.118983,-1.018309 0.415433,-0.524728 0.579839,-1.042618 0.714683,-1.413927 0.134843,-0.371309 0.239615,-0.595555 0.306521,-0.679303 0.09647,-0.120754 0.575978,-0.544477 0.983895,-0.844302 0.357857,-0.26303 0.588807,-0.410839 0.65904,-0.456408 0.185556,-0.073471 2.319537,-0.916532 3.154961,-1.081029 1.35736,-0.267266 5.246259,-0.501756 5.246259,-0.501756 L 46.10035,7.847862 52.344977,7.087185 59.274053,5.729224 h 6.59e-4 c 0,0 2.423398,-0.432303 3.250487,-0.424885 0.259582,0.00232 0.974531,0.391019 2.165918,0.295586 0.621498,-0.049786 1.10637,-0.235394 1.542583,-0.39433 0.436211,-0.158935 0.782227,-0.311348 0.782227,-0.311348 l 0.2081,-0.091988 0.165001,-0.156961 c 0,0 0.182807,-0.173596 0.422313,-0.378568 C 68.050846,4.061759 68.382755,3.823501 68.424707,3.800996 68.648706,3.680832 69.325286,3.440845 69.877874,3.2838 70.402979,3.134565 70.788556,3.046689 70.830248,3.037103 L 74.33097,2.607392 Z" style="fill:#88fafa;fill-opacity:1;stroke:#000000;stroke-width:0.21602426;stroke-miterlimit:4;stroke-dasharray:none;stroke-opacity:1" inkscape:connector-curvature="0"/>
    </g>
    <path style="fill:#88fafa;fill-opacity:1;stroke:#000000;stroke-width:0.21602426;stroke-miterlimit:4;stroke-dasharray:none;stroke-opacity:1" d="m 137.09343,79.082748 c 0,0 -0.002,0.0018 -0.002,0.0023 -0.054,0.04912 -0.0642,0.02761 0.002,-0.0023 z" id="path16294" inkscape:connector-curvature="0" ontology="NULL"/>
    <path sodipodi:nodetypes="ccccccccccccccccccccccccccccccccccccccccccccccccccccccccccccccccccccccccccccccccccccccccccccccccccccccccccccccccccccccccccccccccccccccccccccccccccccccccccccccccccccccccccccccccccccccccccccccccccccccccccccc" inkscape:connector-curvature="0" d="m 26.063686,14.245997 c 0.791388,-0.74333 0.196448,0.07307 0.120366,0.303306 -0.0062,0.119903 -0.182625,0.537744 -0.182625,0.537744 0,0 -0.09971,0.262433 -0.10173,0.355032 -0.0012,0.09924 -0.07036,0.238226 -0.06987,0.337461 l -0.05878,0.256801 c -3.3e-4,0.11134 -0.04007,0.09354 -0.04007,0.204878 0.01243,0.120627 -0.01868,0.142695 -0.06801,0.39024 -0.04453,0.07999 -0.05607,0.217723 -0.07109,0.307572 -0.0092,0.08934 -0.07702,-0.685 -0.07768,-0.595316 0.139246,0.161814 0.03941,0.919703 0.04056,1.04178 -1.35e-4,0.115259 -0.0796,0.445128 -0.0796,0.445128 3.3e-4,0.08908 0.0012,0.217854 0.0012,0.306913 -0.0015,0.116824 -0.01026,0.193926 -0.01075,0.310766 -0.018,0.127767 -0.04336,0.12859 0.0012,0.243042 0.02039,0.130624 -0.01748,0.175302 0.03213,0.295386 0.05215,0.125568 0.09314,0.261017 0.105133,0.395955 0.03869,0.122653 0.173919,0.424576 0.201449,0.551363 0.05748,0.116576 0.09118,0.175515 0.160116,0.285916 0.07014,0.129026 0.12813,0.264854 0.190857,0.399002 0.06517,0.127725 0.08251,0.25326 0.146825,0.380409 0.03835,0.124481 0.08982,0.250625 0.14594,0.365917 0.06317,0.146137 0.148445,0.279395 0.22982,0.415009 0.0617,0.127 0.138718,0.24165 0.207916,0.36348 0.05924,0.124366 0.141726,0.234322 0.229408,0.338745 0.0887,0.09318 0.170776,0.184309 0.232554,0.298482 0.08931,0.113777 0.179731,0.231654 0.251435,0.358292 0.09195,0.113069 0.1765,0.229893 0.262829,0.346766 0.06485,0.09993 0.138465,0.192889 0.215374,0.283248 0.08569,0.09652 0.176363,0.188262 0.265581,0.281338 0.154209,0.131629 0.242091,0.319149 0.381024,0.46405 0.159629,0.157598 0.290708,0.346733 0.458225,0.495866 0.09967,0.124959 0.221698,0.223948 0.325187,0.343884 0.113738,0.07562 0.212875,0.169751 0.319823,0.256801 0.19694,0.156873 0.40336,0.301165 0.596881,0.463621 0.216374,0.158471 0.418037,0.341084 0.604161,0.535834 0.144493,0.120414 0.277264,0.252569 0.395308,0.400385 0.112521,0.07554 0.163154,0.204367 0.24956,0.304723 0.077,0.121385 0.183558,0.217755 0.270204,0.332224 0.144343,0.137705 0.262252,0.301215 0.406874,0.438672 0.202346,0.225941 0.441419,0.415141 0.681408,0.597177 0.174298,0.152576 0.349575,0.305184 0.506977,0.47594 0.08288,0.105082 0.164129,0.213737 0.232446,0.329392 0.07282,0.115539 0.160477,0.222168 0.229633,0.342121 0.125246,0.169949 0.255725,0.335303 0.385232,0.502371 0.125064,0.176371 0.234109,0.361421 0.340231,0.550407 0.12601,0.167298 0.230597,0.350883 0.333685,0.533924 0.06592,0.115094 0.168334,0.184309 0.221619,0.309778 0.02054,0.108837 0.09176,0.189019 0.132432,0.290116 0.05592,0.135366 0.111914,0.272577 0.17659,0.404205 0.0904,0.161402 0.158759,0.336111 0.257671,0.492293 0.08789,0.157993 0.17112,0.31732 0.254948,0.477751 0.03998,0.09369 0.09222,0.175037 0.157239,0.251893 0.07038,0.06582 0.06455,0.169883 0.102334,0.251219 0.06248,0.110779 0.08772,0.235969 0.134548,0.352693 0.05974,0.102266 0.100041,0.21247 0.133064,0.326263 0.01994,0.05868 0.02084,0.120809 0.02255,0.182201 -0.01225,0.08754 0.03716,0.151884 0.07637,0.22622 0.03719,0.09364 0.05688,0.191555 0.06489,0.291812 0.03933,0.103797 0.08546,0.203165 0.117905,0.310223 0.01143,0.108211 0.03297,0.199888 0.08752,0.29331 0.04911,0.07503 0.07231,0.166557 0.08423,0.255286 0.0085,0.08498 0.0072,0.170542 0.0079,0.255863 0.0076,0.0493 -0.0261,0.120561 0.02241,0.142694 0.04535,0.0665 0.08892,0.134741 0.109291,0.213441 0.01535,0.07872 0.01441,0.159015 0.01385,0.238868 -0.0034,0.09968 0.05403,0.190517 0.09655,0.277632 0.03551,0.05676 0.04245,0.122934 0.0485,0.188509 0.0044,0.03488 0.0026,0.06976 0.0022,0.104785 3.29e-4,0.0472 -3.29e-4,0.09438 -8.23e-4,0.141575 8.23e-4,0.05841 -3.3e-4,0.116807 -1.06e-4,0.175235 3.3e-4,0.06508 1.65e-4,0.130179 -3.29e-4,0.195261 8.9e-5,0.08921 -3.29e-4,0.178397 3.29e-4,0.267587 3.3e-4,0.07621 -3.29e-4,0.152427 -3.29e-4,0.228641 0.0012,0.06912 1.65e-4,0.138232 3.29e-4,0.207348 8.24e-4,0.05923 -1.64e-4,0.118454 3.3e-4,0.177689 -0.0015,0.06757 8.23e-4,0.135152 -3.3e-4,0.202736 3.3e-4,0.06241 1.19e-4,0.124811 -4.1e-5,0.187208 -1.65e-4,0.04403 0.0015,0.08804 3.3e-4,0.132056 1.64e-4,0.05581 -1.65e-4,0.11162 -3.3e-4,0.167446 1.01e-4,0.07419 1.65e-4,0.148376 -3.29e-4,0.222564 8.23e-4,0.08339 -1.06e-4,0.166788 3.29e-4,0.250181 8.24e-4,0.0622 -9e-5,0.124383 3.3e-4,0.186582 8.23e-4,0.05069 -3.3e-4,0.101377 9e-5,0.152098 0.0012,0.03397 1.65e-4,0.0679 -1e-4,0.101854 8.23e-4,0.05579 -3.3e-4,0.111554 -1.65e-4,0.167347 0.01084,0.08463 0.03104,0.176405 -0.01637,0.24086 -0.02622,0.164317 -0.01772,0.107338 -0.02622,0.164317 -0.0073,0.06544 -1.1e-4,0.186697 -1.1e-4,0.186697 -0.05676,0.06157 -0.0082,0.100471 -0.03083,0.181477 -0.02005,0.07154 -0.01968,0.195853 -0.02185,0.26958 0.0012,0.08191 -0.0018,0.287332 -0.04048,0.36152 -0.03544,0.0579 -0.01352,0.34637 -0.03158,0.412473 -0.0062,0.07946 -0.302686,-0.31826 -0.348794,-0.256884 -0.0432,0.03908 -0.02562,-0.121961 -0.03489,-0.06541 0.006,0.08054 0.07581,0.02001 0.02927,0.07895 -0.01505,0.02638 0.168883,-0.377494 -0.03917,-0.04194 -0.0039,0.03725 0.08643,-0.03445 0.08717,0.003 -8.6e-5,0.06126 -0.03013,-0.04637 -0.03013,0.01482 -0.0012,0.05196 0.01904,-0.204022 0.01954,-0.152049 l -0.426284,-0.395098 0.0596,0.03974 c 3.3e-4,-0.05184 -0.0091,0.104933 -0.01026,0.05311 -1.65e-4,-0.06037 -0.119542,-0.180357 -0.120695,-0.240712 0.665271,-1.073874 0.148862,0.296093 0.148191,0.255385 -0.0092,-0.05199 -0.09618,-0.204384 -0.0797,-0.11358 0.01019,-0.01449 0.410694,-0.676931 0.08225,0.03307 0.05588,-0.328651 0.372753,-0.617449 -0.01584,-0.01416 0.005,0.0026 -0.05878,-0.01136 -0.05845,-0.01711 0.0068,-0.06446 -0.07017,-0.02852 -0.03324,-0.07934 0.04343,-0.0494 0.01332,0.05151 0.0175,-0.014 0.01393,-0.08293 -0.06734,0.01383 -6.58e-4,-0.04247 0.05895,-0.06913 -6.59e-4,0.148953 -0.0081,0.04336 -8.23e-4,-0.08087 -0.06943,0.0058 -0.05666,-0.07404 0.02035,-0.09454 0.01382,0.04244 0.01382,0.04244 0.06179,0.02781 -0.129634,-0.102414 -0.118581,-0.14915 0.0055,-0.06355 -0.281521,-0.0481 -0.231549,-0.09169 0.04192,-0.04736 -0.263879,0.01701 -0.267146,-0.04408 1.65e-4,-0.05573 -0.337767,-0.158948 -0.30813,-0.276447 l -0.178919,0.03732 c -0.198356,-0.07061 0.963302,-0.349812 0.963722,-0.400549 8.23e-4,-0.06233 0.0096,-0.01532 0.01026,-0.0777 3.3e-4,-0.08351 0.158786,-0.246492 0.15928,-0.330001 -8.24e-4,-0.07402 -8.24e-4,-0.148063 -3.3e-4,-0.222103 -1.64e-4,-0.05569 -8.23e-4,-0.111389 -3.29e-4,-0.1671 -0.0012,-0.04413 8.23e-4,-0.08827 3.29e-4,-0.132419 -1.59e-4,-0.0624 -3.29e-4,-0.124777 -3.9e-5,-0.187174 -0.0012,-0.06749 0.0012,-0.134971 -3.29e-4,-0.202457 3.29e-4,-0.05932 -3.3e-4,-0.118619 3.29e-4,-0.177936 3.29e-4,-0.06926 -8.24e-4,-0.138528 3.29e-4,-0.207809 -2.9e-5,-0.07606 -8.23e-4,-0.152164 -3.29e-4,-0.228229 8.23e-4,-0.08932 3.29e-4,-0.178628 3.29e-4,-0.267933 -8.23e-4,-0.06493 -8.23e-4,-0.129883 -3.29e-4,-0.194816 1.65e-4,-0.05844 -8.24e-4,-0.116873 -3e-6,-0.175318 -1.65e-4,-0.04733 -8.24e-4,-0.09461 3.29e-4,-0.14192 -7.1e-5,-0.03259 -5.3e-5,-0.06503 3.29e-4,-0.09762 -0.0019,-0.0538 -0.0022,-0.10556 -0.03118,-0.152444 -0.04664,-0.101541 -0.112067,-0.20799 -0.114035,-0.321092 -8.24e-4,-0.07267 0.0012,-0.145642 -0.0071,-0.217969 -0.006,-0.05688 -0.04734,-0.109166 -0.08097,-0.152493 -0.06166,-0.06996 -0.06708,-0.133374 -0.05933,-0.224277 0.0012,-0.08175 0.0019,-0.163576 -0.0026,-0.245224 -0.0055,-0.07572 -0.02409,-0.152295 -0.06585,-0.215961 -0.05628,-0.101343 -0.09395,-0.198175 -0.09799,-0.315871 -0.03182,-0.115588 -0.08374,-0.220193 -0.127327,-0.331252 -0.0042,-0.086 -0.01583,-0.170905 -0.04704,-0.251663 -0.04438,-0.08672 -0.107472,-0.169653 -0.09811,-0.271211 8.23e-4,-0.05273 0.0034,-0.106399 -0.01075,-0.157598 -0.0279,-0.111027 -0.06783,-0.215878 -0.124805,-0.314982 -0.049,-0.11437 -0.07073,-0.239378 -0.1345,-0.348264 -0.03458,-0.07511 -0.03294,-0.163905 -0.0914,-0.22678 -0.06726,-0.08425 -0.123238,-0.172073 -0.163693,-0.273285 -0.0811,-0.158652 -0.164289,-0.315295 -0.250279,-0.471016 -0.09767,-0.160875 -0.172296,-0.335468 -0.262758,-0.500691 -0.06695,-0.133341 -0.123679,-0.27378 -0.181998,-0.410793 -0.04009,-0.09953 -0.116523,-0.178842 -0.131905,-0.288337 -0.0495,-0.117779 -0.167739,-0.179764 -0.213792,-0.300935 -0.101191,-0.183914 -0.209072,-0.364765 -0.332481,-0.533824 -0.104478,-0.184095 -0.210279,-0.365473 -0.333438,-0.537201 -0.130938,-0.171151 -0.267866,-0.337033 -0.392482,-0.51296 -0.07163,-0.117515 -0.161631,-0.221954 -0.231425,-0.339799 C 32.78587,29.833845 32.713782,29.728335 32.633323,29.630482 32.475486,29.46773 32.31325,29.31028 32.138639,29.166153 31.898792,28.976969 31.656368,28.787011 31.449181,28.559919 31.304853,28.415659 31.17595,28.256217 31.032857,28.110575 30.943247,28.000404 30.841216,27.900493 30.762593,27.78166 30.679332,27.67783 30.619477,27.557466 30.5125,27.474533 30.397956,27.328414 30.261311,27.205365 30.125235,27.080719 29.942326,26.888094 29.740144,26.713155 29.528521,26.554602 29.332838,26.394237 29.1253,26.251378 28.927603,26.094191 28.817156,26.004243 28.706906,25.91418 28.597895,25.8228 c -0.102216,-0.115292 -0.217563,-0.217723 -0.316688,-0.33644 -0.162598,-0.158323 -0.302356,-0.340738 -0.461443,-0.502799 -0.133315,-0.149035 -0.22944,-0.328651 -0.381989,-0.460444 -0.09289,-0.0937 -0.185317,-0.187948 -0.272485,-0.287299 -0.07518,-0.09342 -0.14958,-0.187405 -0.215178,-0.288222 -0.09228,-0.117844 -0.174287,-0.241881 -0.267604,-0.359166 -0.07464,-0.126638 -0.16795,-0.241502 -0.254168,-0.360038 -0.05837,-0.107453 -0.145962,-0.187175 -0.22299,-0.280465 -0.08988,-0.10999 -0.174941,-0.22515 -0.237498,-0.35411 -0.07136,-0.120002 -0.142925,-0.236809 -0.204991,-0.362525 -0.08447,-0.137178 -0.169853,-0.274455 -0.235282,-0.422502 -0.05774,-0.114732 -0.128027,-0.221312 -0.166348,-0.345876 -0.06295,-0.130261 -0.121357,-0.299272 -0.176513,-0.432332 -0.06172,-0.130361 -0.108046,-0.262219 -0.176067,-0.388067 -0.07427,-0.121418 -0.09554,-0.220127 -0.155951,-0.349121 -0.02554,-0.131875 -0.08671,-0.247875 -0.127964,-0.374744 -0.0078,-0.124316 -0.08276,-0.19004 -0.130362,-0.305842 -0.0509,-0.120957 -0.06734,-0.234454 -0.08391,-0.367252 -0.0471,-0.124382 -0.09446,-0.299173 -0.07595,-0.437783 -8.23e-4,-0.116577 -0.07865,-0.23317 -0.0803,-0.349738 3.7e-5,-0.08934 -0.05845,-0.208402 -0.05845,-0.208402 -8.24e-4,-0.115144 -0.03977,-0.270008 -0.04007,-0.385152 8.24e-4,-0.122011 -0.109609,-0.373163 -0.110432,-0.495174 -0.0012,-0.09301 -0.06618,-0.229415 -0.06618,-0.229415 0.005,-0.09914 -0.06954,-0.292027 -0.06954,-0.292027 0,0 -0.105452,-0.226599 -0.124125,-0.346321 3.29e-4,-0.111224 -0.178811,-0.321816 -0.179148,-0.433057 l -0.238754,-0.375848 c 0,0 -0.200168,-0.29914 -0.199509,-0.399034 0.0012,-0.100521 -0.277832,-0.461267 -0.256053,-0.559713 0.02696,-0.108721 0.556321,0.03974 0.881708,0.05485 -0.365124,-0.03499 0.223068,0.214462 -0.257139,-0.026 l 1.215956,0.13899 z" id="path16312" style="fill:#88fafa;fill-opacity:1;stroke:#000000;stroke-width:0.21602426;stroke-miterlimit:4;stroke-dasharray:none;stroke-opacity:1" ontology="NULL"/>
    <path sodipodi:nodetypes="cccccccccccccccccccccscccccccccccccccccccccccccccccccccccccccccccccccccccccccccccccccccccccccccccccccccccccccccccccccccccccccccccccccccccccccccccccccccccccccccccccccccccccccccccccccccccccccccccccccccccccc" inkscape:connector-curvature="0" d="m 90.569538,6.960581 c 0.123444,0.250568 -0.899267,-0.817338 -0.803829,-0.554049 0.0041,0.132851 1.147171,0.716016 1.205909,0.820076 0.03301,0.012301 -0.291058,-0.066343 0.306546,0.256493 -0.597604,-0.322836 -0.639752,-0.379033 -0.04299,-0.100918 0,0 0.14567,0.124182 0.166662,0.20223 0,0 0.125336,0.06493 0.168396,0.095178 0.0217,0.057562 0.312484,0.25091 0.361583,0.288069 0.06088,0.02029 0.41889,0.448468 -0.155424,-0.090477 0.213479,0.179298 0.621441,0.443049 0.655908,0.508143 0.03533,0.08243 -0.122288,-0.197324 -0.07362,-0.123929 0.02614,0.09567 0.202763,0.19347 0.262394,0.230938 0.03807,0.07885 0.161964,0.069269 0.21146,0.142898 0.04431,0.073609 0.232535,0.079432 0.273479,0.154373 0,0 -0.07948,0 0.247882,0.091446 0.08111,0.075148 0.135831,0.077913 0.135831,0.077913 0.098,0.035872 0.252172,0.068545 0.278776,0.169513 0.155024,0.00774 0.164773,-0.060299 0.19951,0.034726 0.04938,0.092729 0.257342,0.048748 0.294174,0.152074 0.01275,0.181563 0.08343,-0.375544 0.04859,-0.210354 0.06458,0.158243 0.258458,0.110203 0.30001,0.276287 0.02218,0.102497 0.317899,-0.278161 0.342034,0.090832 0.008,0.122123 -0.148926,0.899192 -0.195659,1.098342 0.05087,0.142268 -0.0587,0.422283 -0.03104,0.571466 0.02554,0.158729 -0.05147,0.53904 -0.04964,0.699602 -0.01841,0.13717 -0.0056,0.643875 0.04141,0.767335 0.04995,0.15246 0.0362,0.13451 0.04167,0.293705 0.0049,0.182597 0.06334,0.583888 0.06259,0.766533 -0.01807,0.214084 -0.0091,0.19755 0.04075,0.404173 0.04917,0.201551 0.04895,0.586621 0.0595,0.793507 0.0069,0.185956 0.0067,0.372044 0.0075,0.558099 -1.8e-5,0.153794 -8.23e-4,0.307588 -3.29e-4,0.461382 -3.3e-4,0.163987 -3.3e-4,0.327992 -0.0012,0.491979 1.65e-4,0.16081 8.23e-4,0.321619 3.29e-4,0.482445 -3.29e-4,0.170889 -8.23e-4,0.341793 9.4e-5,0.512698 -0.0012,0.173917 -4.9e-5,0.347819 -3.29e-4,0.52172 1.64e-4,0.155276 8.23e-4,0.310553 3.29e-4,0.465812 3e-5,0.171621 -1.65e-4,0.343233 -8.23e-4,0.514862 0.0012,0.183947 -1.65e-4,0.367894 3.29e-4,0.551857 -3.29e-4,0.201765 -3.29e-4,0.40353 -0.0012,0.605295 3.3e-4,0.21904 1.65e-4,0.438064 1.65e-4,0.657087 8.23e-4,0.172288 0.0015,0.344575 0.0012,0.516863 -0.0019,0.191324 -3.3e-4,0.382665 -3.3e-4,0.57399 1.45e-4,0.207957 -8.23e-4,0.415914 -0.0012,0.623871 3.29e-4,0.24002 -8.24e-4,0.48004 3.29e-4,0.720044 -0.02368,0.202885 -0.06451,0.397816 -0.09653,0.599531 -0.02356,0.167232 -0.04769,0.336358 -0.04922,0.505056 8.24e-4,0.213589 -0.06789,0.419174 -0.104169,0.628152 -0.01535,0.243067 -0.05343,0.478542 -0.10553,0.715829 -0.05593,0.225017 -0.05347,0.458763 -0.09287,0.685889 -0.05438,0.20468 -0.08854,0.413576 -0.15691,0.61399 -0.06463,0.161551 -0.08894,0.334118 -0.15203,0.495883 -0.06657,0.176026 -0.114599,0.358359 -0.173401,0.537497 -0.0625,0.218134 -0.149453,0.424049 -0.193996,0.647634 -0.07254,0.243034 -0.133,0.489263 -0.205017,0.732494 -0.05504,0.258102 -0.150028,0.503886 -0.211394,0.76011 -0.08411,0.240712 -0.135431,0.490119 -0.201245,0.735821 -0.06658,0.227339 -0.142792,0.451797 -0.242932,0.666062 -0.119351,0.218101 -0.205966,0.451534 -0.294402,0.683748 -0.115605,0.278621 -0.159876,0.578683 -0.232176,0.870364 -0.07107,0.300128 -0.155242,0.598115 -0.258942,0.888263 -0.07209,0.224195 -0.135459,0.450234 -0.209388,0.674 -0.08408,0.217311 -0.183183,0.427788 -0.271451,0.643155 -0.06801,0.186401 -0.146963,0.36908 -0.227625,0.550144 -0.0825,0.182119 -0.270912,0.767554 -0.344633,0.953609 -0.109711,0.208731 -0.03962,0.04198 -0.110641,0.26492 -0.06845,0.212667 -0.165399,0.414135 -0.233779,0.626605 -0.07638,0.234948 -0.178408,0.459817 -0.258915,0.693086 -0.06826,0.253952 -0.160357,0.50074 -0.25137,0.746969 -0.09328,0.273499 -0.178369,0.549897 -0.286814,0.817583 -0.09152,0.247349 -0.187029,0.492951 -0.292619,0.734338 -0.09665,0.214544 -0.213314,0.41766 -0.328126,0.622159 -0.08986,0.167676 -0.22181,0.304722 -0.319557,0.466701 -0.104386,0.16048 -0.189395,0.33257 -0.291134,0.494664 -0.133344,0.21153 -0.277412,0.414975 -0.408024,0.628466 -0.142858,0.223371 -0.244746,0.469303 -0.395267,0.687486 -0.142246,0.204746 -0.263154,0.424181 -0.391971,0.637902 -0.120817,0.171448 -0.229125,0.351212 -0.343658,0.52704 -0.108972,0.152806 -0.219886,0.303389 -0.337672,0.449114 -0.1128,0.151768 -0.204098,0.317798 -0.315188,0.470818 -0.09303,0.137046 -0.206629,0.256636 -0.30618,0.388281 -0.0838,0.12183 -0.194817,0.217986 -0.299719,0.319791 -0.131144,0.10271 -0.241188,0.22617 -0.348197,0.35383 -0.131916,0.171925 -0.295392,0.311869 -0.446669,0.46456 -0.177218,0.176553 -0.325048,0.379784 -0.489243,0.568358 -0.176034,0.192741 -0.346299,0.389895 -0.511395,0.592533 -0.09717,0.133242 -0.232404,0.228064 -0.344465,0.346518 -0.130072,0.123196 -0.257917,0.246657 -0.374736,0.383242 -0.131412,0.130722 -0.259414,0.265232 -0.370822,0.414399 -0.100291,0.133868 -0.206089,0.263783 -0.314486,0.390965 -0.118875,0.147898 -0.266178,0.265891 -0.407695,0.389582 -0.149073,0.125749 -0.250257,0.284302 -0.375383,0.436153 -0.109548,0.148129 -0.301003,0.203758 -0.443638,0.317716 -0.168128,0.161847 -0.220071,0.03285 -0.389495,0.192971 -0.16889,0.158142 -0.392143,0.251466 -0.538709,0.431295 -0.126637,0.1685 -0.274263,0.265628 -0.42788,0.408043 -0.190135,0.189612 -0.544505,0.612953 -0.865417,0.759501 l -0.346878,0.21461 c -0.111417,0.327728 -0.263383,0.273285 -0.496874,0.480304 -0.181672,0.09237 -0.09753,0.22044 -0.40736,0.297279 -0.331363,0.0804 0.03143,0.04634 -0.140123,0.17591 l -0.01308,0.06357 -0.280986,0.09835 c 0.172162,-0.128022 -0.531275,0.286295 -0.359469,0.157796 0.295429,-0.213787 -0.242034,0.136387 9.89e-4,-0.140241 0.227636,-0.214083 0.35533,-0.308099 0.59409,-0.50904 0.201775,-0.196726 0.413102,-0.333921 0.617819,-0.527765 0.180542,-0.200612 0.480212,-0.457133 0.670645,-0.646514 0.144248,-0.148129 0.276803,-0.265183 0.395478,-0.439711 0.147215,-0.182777 0.30881,-0.29252 0.485237,-0.446478 0.158239,-0.172815 0.250743,-0.200827 0.41271,-0.369294 0.127951,-0.124036 0.442031,-0.324154 0.442031,-0.324154 0.110058,-0.170806 0.360527,-0.264311 0.518158,-0.385367 0.137417,-0.125633 0.264576,-0.243593 0.379097,-0.39164 0.121779,-0.111488 0.212797,-0.176503 0.330609,-0.292899 0.09283,-0.162242 0.229698,-0.30492 0.367887,-0.42703 0.115119,-0.1381 0.227792,-0.279345 0.371796,-0.384938 0.106849,-0.12817 0.236424,-0.222564 0.348388,-0.343603 0.167732,-0.203149 0.335109,-0.405342 0.512641,-0.599021 0.174234,-0.179945 0.3094,-0.392876 0.486987,-0.570219 0.146219,-0.156313 0.311741,-0.287711 0.445502,-0.456491 0.108909,-0.130624 0.213097,-0.263339 0.340514,-0.373657 0.118283,-0.07434 0.210834,-0.192692 0.307208,-0.293294 0.099,-0.136948 0.215924,-0.252075 0.307635,-0.394111 0.128193,-0.138726 0.203314,-0.312446 0.315931,-0.463869 0.09982,-0.157746 0.238398,-0.288584 0.340346,-0.446528 0.118145,-0.173424 0.218431,-0.357815 0.345776,-0.524454 0.136656,-0.211646 0.253675,-0.435429 0.391663,-0.645839 0.162297,-0.210098 0.259759,-0.454021 0.398663,-0.679747 0.130826,-0.213458 0.267006,-0.422271 0.403736,-0.63059 0.10841,-0.156643 0.184314,-0.330199 0.291113,-0.487468 0.09087,-0.168714 0.21629,-0.306715 0.32096,-0.466405 0.11382,-0.20379 0.234507,-0.400977 0.334584,-0.612821 0.102258,-0.242358 0.210233,-0.482461 0.293737,-0.732691 0.109504,-0.266451 0.203321,-0.538123 0.288622,-0.813911 0.08799,-0.246328 0.187367,-0.489987 0.252096,-0.743577 0.0728,-0.235179 0.175654,-0.458039 0.258316,-0.689677 0.05938,-0.21797 0.163384,-0.417232 0.230606,-0.632566 0.09039,-0.214495 0.106888,-0.45962 0.229416,-0.662966 0.06775,-0.190831 0.150584,-0.375436 0.221298,-0.56518 0.09166,-0.172732 0.157023,-0.362509 0.232845,-0.542651 0.079,-0.217789 0.184829,-0.423737 0.271839,-0.638149 0.07609,-0.225133 0.146204,-0.44997 0.211355,-0.678496 0.109923,-0.284812 0.192946,-0.580609 0.264175,-0.877642 0.07343,-0.295138 0.118312,-0.597851 0.226676,-0.882697 0.0929,-0.232577 0.16768,-0.473075 0.287183,-0.693794 0.118312,-0.198423 0.179183,-0.428233 0.25054,-0.647503 0.08167,-0.237682 0.102802,-0.496459 0.205431,-0.729167 0.05523,-0.26077 0.155584,-0.505549 0.209534,-0.766616 0.07007,-0.240711 0.124664,-0.484914 0.207735,-0.721559 0.03792,-0.230073 0.117464,-0.439957 0.187547,-0.65931 0.05501,-0.182316 0.113783,-0.362475 0.16919,-0.543837 0.06433,-0.161682 0.09878,-0.326855 0.155062,-0.49244 0.06985,-0.197204 0.109525,-0.39831 0.161791,-0.601541 0.05681,-0.223552 0.09474,-0.581302 0.154029,-0.80604 0.04922,-0.236216 0.103527,-0.228344 0.106332,-0.471806 0.03032,-0.205619 0.02023,-0.465038 0.02827,-0.672188 0.0019,-0.173062 0.08096,-0.366659 0.10442,-0.538469 0.02622,-0.199047 0.01766,-0.430998 0.06379,-0.625649 0.0012,-0.240136 -8.2e-5,-0.480271 3.29e-4,-0.72039 -8.23e-4,-0.207611 -0.0015,-0.415206 -0.0012,-0.622801 -1.65e-4,-0.191193 0.0012,-0.382402 -3.3e-4,-0.573594 -3.29e-4,-0.172617 8.24e-4,-0.345234 0.0012,-0.517851 2.6e-5,-0.21909 -8.6e-5,-0.438179 1.65e-4,-0.657285 -8.24e-4,-0.201485 -8.24e-4,-0.40297 -0.0012,-0.604455 8.23e-4,-0.184062 -8.24e-4,-0.368124 3.29e-4,-0.552203 -8.23e-4,-0.171365 -0.0012,-0.342731 -8.23e-4,-0.514096 -3.3e-4,-0.155358 1.05e-4,-0.310709 3.29e-4,-0.466067 -3.29e-4,-0.173819 8.24e-4,-0.347622 -3.29e-4,-0.521424 8.23e-4,-0.170921 3.29e-4,-0.341858 8.5e-5,-0.512779 -3.29e-4,-0.160941 3.3e-4,-0.321884 3.3e-4,-0.482809 -3.3e-4,-0.163823 -3.3e-4,-0.327629 -8.24e-4,-0.491436 8.24e-4,-0.153892 3.3e-4,-0.307769 0.0012,-0.461662 0.0012,-0.184671 0.0015,-0.369425 -0.004,-0.55403 -0.0087,-0.200497 -0.02386,-0.400846 -0.07102,-0.596387 -0.05203,-0.21456 -0.05142,-0.423077 -0.03087,-0.645954 -3.3e-4,-0.181378 -0.03891,-0.362756 -0.04236,-0.544117 -0.0045,-0.147652 -0.0068,-0.297395 -0.05016,-0.439727 -0.04927,-0.133193 -0.07524,-0.336292 -0.05479,-0.483976 -0.0015,-0.155145 -0.04007,-0.231655 -0.06251,-0.385515 -0.02566,-0.152552 -0.07696,-0.295683 -0.131936,-0.43953 -0.0095,-0.107048 -0.02278,-0.21424 -0.08661,-0.303564 -0.05687,-0.105381 -0.06368,-0.207064 -0.07433,-0.326086 -0.03727,-0.168162 -0.09313,-0.329051 -0.15956,-0.487538 -0.03211,-0.15166 -0.103613,-0.285085 -0.145515,-0.432396 C 93.0404,10.080692 92.972457,10.002334 92.930255,9.904144 92.895861,9.805371 92.828881,9.72281 92.804899,9.621289 92.785444,9.532602 92.734649,9.461127 92.684212,9.387069 92.626726,9.295352 92.617412,9.180903 92.5441,9.096703 92.491804,9.010019 92.411085,8.893217 92.348502,8.809792 92.306382,8.737228 92.198346,8.615841 92.161046,8.542921 92.116067,8.482072 91.974647,8.237949 91.944603,8.164234 91.874647,8.112377 91.818529,7.99597 91.784039,7.910429 91.731903,7.844046 91.953484,8.037395 91.911137,7.965949 91.868112,7.918612 91.78602,7.950386 91.746357,7.900107 91.703805,7.856155 91.650907,7.839732 91.605248,7.799102 91.562975,7.762112 91.422177,7.65401 91.411091,7.634159 91.354489,7.583792 91.380255,7.568801 91.346135,7.499382 91.343154,7.457697 91.209288,7.426663 91.172385,7.410405 91.104845,7.367056 91.007838,7.299246 90.977971,7.228523 90.910469,7.12128 90.766859,7.318158 90.758984,7.183542 90.672116,6.921465 89.898543,6.568388 89.77019,6.325 l 1.116402,0.910052 z" id="path16316" style="fill:#88fafa;fill-opacity:1;stroke:#000000;stroke-width:0.21602426;stroke-miterlimit:4;stroke-dasharray:none;stroke-opacity:1" ontology="NULL"/>
    <path sodipodi:nodetypes="sscscsssscccssssssscssccssss" inkscape:connector-curvature="0" id="path5402" d="m 105.85718,42.769753 c -1.18019,-0.03327 -2.3604,-0.09644 -2.62267,-0.140373 -1.49181,-0.249868 -2.96854,-0.605657 -3.521849,-0.848526 -0.33596,-0.147471 -0.718114,-0.293904 -0.849248,-0.325407 -0.352793,-0.08476 -1.069099,-0.458582 -1.641294,-0.856579 -0.277484,-0.193005 -0.761921,-0.47986 -1.076508,-0.637474 -0.900961,-0.45137 -1.576344,-0.923571 -2.648159,-1.85149 -0.547181,-0.473717 -1.173044,-0.992374 -1.390816,-1.152607 -0.217772,-0.160217 -0.496937,-0.397404 -0.62038,-0.527073 l -0.224442,-0.235755 0.14113,-0.417907 c 0.24231,-0.480023 0.904008,-2.414775 1.015133,-2.808046 0.04122,-0.145873 0.246492,0.236793 0.509551,1.033182 0.476105,1.441389 1.193332,2.879336 1.709158,3.42673 0.595348,0.631759 1.439116,1.24934 2.796074,2.046552 2.62156,1.540148 3.88467,1.967293 7.04095,2.381066 0.77513,0.101607 4.7063,0.05026 5.71475,-0.07463 0.54639,-0.06768 1.38683,-0.160051 1.86766,-0.205272 1.33598,-0.125667 2.36725,-0.281404 3.23101,-0.485096 0.43019,-0.101443 1.1467,-0.673325 1.1801,-0.65269 0.0334,0.02065 -0.0798,0.621664 -0.0798,0.751744 0,0.254842 -0.0694,0.5041 0.27094,0.831631 l 0.20025,0.472663 -0.17839,-0.320631 c 0.17839,0.320631 -0.24411,0.08074 -0.63593,0.143534 -0.69034,0.110632 -1.46477,0.100554 -2.80293,0.184458 -1.21094,0.07595 -3.76504,0.254973 -4.56299,0.294792 -0.37153,0.01854 -1.64114,0.0064 -2.82135,-0.02679 z" style="fill:#88fafa;fill-opacity:1;stroke:#000000;stroke-width:0.21602426;stroke-miterlimit:4;stroke-dasharray:none;stroke-opacity:1" ontology="NULL"/>
    <path inkscape:label="UBERON_0001896" sodipodi:nodetypes="ssssssssscsssssscscsss" inkscape:connector-curvature="0" id="medulla.oblongata" d="m 135.33111,79.379472 c -0.84806,-0.19704 -1.46859,-0.55822 -3.50629,-2.04084 -2.41434,-1.75668 -7.15421,-5.77362 -7.15421,-6.06307 0,-0.0797 -1.43055,-1.62726 -3.17897,-3.43906 -2.63883,-2.73446 -3.40513,-3.65052 -4.5099,-5.391371 -0.98733,-1.555788 -0.88622,-3.713073 -1.21636,-4.818954 -0.24476,-0.819894 -0.53212,-1.245471 -1.07827,-1.53891 -1.83881,-0.987949 -1.44195,-0.775712 -0.23834,-1.062977 0.55196,-0.131737 1.79456,-1.286866 2.55289,-1.813719 1.44489,-1.003853 3.43758,-3.163484 3.60689,-3.909111 0.15934,-0.701621 1.1395,-2.873677 1.29678,-2.873677 0.0703,0 0.46303,0.571001 0.87274,1.268892 1.34725,2.294909 3.6569,5.437012 5.4355,7.39458 2.24735,2.473454 3.84241,4.311929 5.54248,6.388218 0.74877,0.914477 2.07649,2.410899 2.95051,3.325369 1.33629,1.39815 1.68969,1.89374 2.22123,3.11486 0.5995,1.37724 0.62684,1.52172 0.52987,2.80031 -0.0562,0.74148 -0.25802,1.97822 -0.44844,2.74831 -0.25627,1.03642 -0.32099,1.71842 -0.24914,2.62529 0,0 -0.15893,0.89456 -0.29461,1.2811 -0.12359,0.3521 -0.37488,0.75991 -0.37488,0.75991 -1.33645,1.42237 -1.56048,1.52343 -2.75948,1.24485 z" style="fill:#88fafa;fill-opacity:1;stroke:#000000;stroke-width:0.21602426;stroke-miterlimit:4;stroke-dasharray:none;stroke-opacity:1" ontology="UBERON_0001896"/>
    <path sodipodi:nodetypes="csssssssssssssssssssssssssssssssssssssssccc" inkscape:label="UBERON_0000956" inkscape:connector-curvature="0" id="cerebral.cortex" d="m 37.219074,32.915199 c -1.461982,-0.347916 -0.17521,-0.0438 -0.628301,-0.112428 -1.258157,-0.190557 -0.513676,-0.0043 -1.257663,-0.864161 -0.990959,-1.145306 -1.294792,-1.77706 -3.214138,-4.021007 -0.682632,-0.798079 -2.483444,-2.290051 -3.320234,-3.144088 -0.803161,-0.819713 -2.137447,-2.083207 -2.563163,-3.302158 -1.378345,-3.946593 -1.068214,-5.35635 0.699011,-8.345272 1.241952,-2.100523 1.310619,-2.545165 2.561003,-3.2339734 0.71395,-0.393299 3.703062,-1.26973 4.696366,-1.476464 1.48936,-0.309976 6.11584,-0.329762 9.036859,-0.569418 1.718388,-0.140986 6.407362,-0.550655 8.110344,-0.751514 3.59757,-0.42432 2.795516,-0.479571 10.99018,-1.90536 0,0 3.843048,1.128722 5.534264,-1.154271 0.368898,-0.49798 0.961429,-0.545149 1.497603,-0.782556 0.609391,-0.269825 1.511666,-0.243524 1.511666,-0.243524 0.365228,-0.03208 1.575359,-0.133117 2.088895,-0.239696 0.513538,-0.106577 1.225838,-0.184131 2.516763,-0.21349 5.557289,-0.126387 4.885175,-0.04174 6.709062,0.108487 2.085549,0.171772 3.462678,0.752305 4.188763,1.291649 0.684211,0.508242 0.104286,0.832731 -0.679054,1.778702 -0.398251,0.480934 -0.808999,0.779404 -1.46961,1.067888 -1.710555,0.746987 -3.251351,2.340177 -6.868288,7.1018374 -3.564171,4.692192 -5.113118,5.072788 -5.904193,4.974202 -0.283885,-0.03538 -0.917312,0.425206 -1.375613,-0.479147 -0.357913,-0.706262 -0.956695,-1.758748 -0.357913,-1.803475 1.020266,-0.07622 3.815339,-0.595869 5.046699,-2.89621 0.595334,-1.112164 0.652713,-1.289296 0.717529,-2.215094 0,0 -0.07829,-0.70471 0.07045,-1.006265 0.137083,-0.277914 0.696322,-0.6159464 0.696322,-0.6159464 0.53944,-0.477172 0.738076,-0.760821 0.881655,-1.258966 0.173661,-0.60253 0.170276,-0.65926 -0.05377,-0.900939 -0.212121,-0.228819 -0.345367,-0.237171 -1.180907,-0.07406 -1.123408,0.219311 -5.178669,1.090785 -3.754946,2.229074 0.599566,0.4793614 -0.878246,1.3190054 -1.627112,1.6296994 -1.829948,0.75922 -5.801108,3.0217 -8.793734,4.746416 -3.566358,2.055365 -6.334721,2.338104 -9.183746,4.030142 -2.489823,1.478706 -3.029944,1.799382 -5.656419,4.20302 -1.305404,1.194651 -1.261065,2.197509 -1.67019,3.94626 -0.18891,0.807472 -0.41193,3.449432 0.167214,4.283173 l 0.150479,0.216631 c -0.150479,-0.216631 -1.974956,-0.08877 -1.974956,-0.08877 0,0 -5.141974,0.0218 -7.068018,-0.07687 z" style="fill:#88fafa;fill-opacity:1;stroke:#000000;stroke-width:0.21602426;stroke-miterlimit:4;stroke-dasharray:none;stroke-opacity:1" ontology="UBERON_0000956"/>
    <path inkscape:label="UBERON_0000369" sodipodi:nodetypes="sssscscscssssss" inkscape:connector-curvature="0" id="corpus.striatum" d="m 44.261952,54.27337 c -1.737906,-2.82419 -3.723548,-5.633158 -4.061862,-6.547221 -0.139255,-0.376239 0.0079,0.234915 0.885835,-0.620515 1.718344,-1.674359 -2.195767,2.066369 -0.61321,0.575502 0.91841,-0.865199 2.903193,-3.869331 2.84375,-4.541715 0,0 0.314333,-3.660034 0.438261,-4.66967 0.271229,-2.209419 0.09287,-3.546187 0.567992,-3.062128 1.142468,0.164635 -3.7238,-0.665015 6.064503,0.931085 1.017639,0.165938 3.285137,0.231024 3.285137,0.231024 0.155339,1.140063 -0.721826,6.2777 -1.030145,7.331351 -0.840441,2.872123 -0.304828,-0.711469 -0.299769,0.572254 0.008,2.017325 -1.91925,1.668558 -2.470025,5.000819 -0.299083,1.809484 0.761991,2.455435 0.586372,3.886014 -0.241267,1.965358 -0.249771,0.813615 -1.777903,1.222028 -2.091385,0.55895 -3.649724,0.941187 -4.418936,-0.308828 z" style="fill:#88fafa;fill-opacity:1;stroke:#000000;stroke-width:0.21602426;stroke-miterlimit:4;stroke-dasharray:none;stroke-opacity:1" ontology="UBERON_0000369"/>
    <path inkscape:label="UBERON_0001894" sodipodi:nodetypes="csscscccccccsscscssscscssscsssssssssssscscscssscscscc" inkscape:connector-curvature="0" id="diencephalon" d="m 73.236975,55.71065 c -1.224205,0.240954 0.456213,-0.414888 -0.415969,0.01704 -0.599302,0.296794 -1.18424,0.455357 -2.653921,1.505935 l -1.316671,1.101135 -0.665428,0.390048 c -0.578148,0.338887 -3.668505,0.224045 -4.852482,0.17127 -0.496706,-0.179726 -1.064311,-0.0018 -2.060499,-0.143912 l -0.945459,9.88e-4 -1.539678,-0.155394 -1.405207,-0.200627 -1.226549,-0.33744 c -0.566659,-0.34638 -0.843584,-0.302333 -1.058253,-0.735199 0,0 -0.289883,-0.70254 -0.33114,-0.923744 -0.145442,-0.779785 -0.509895,-1.55001 -0.417469,-2.562312 0.195257,-2.138537 -0.105497,-2.652574 0.433335,-4.665073 0.328471,-1.22689 1.409048,-2.735302 1.972019,-3.69963 l 1.343077,-2.300598 -0.442138,-1.020643 c -0.947497,-2.18723 -1.116274,-3.83882 -0.870971,-6.291633 0.170269,-1.702536 0.601888,-2.372267 1.213674,-4.055247 0.358545,-0.986311 0.697139,-1.955484 1.139828,-2.779226 0.789132,-1.468439 1.161014,-1.911445 1.53629,-1.805472 0.210518,0.05945 1.538051,0.27291 2.097807,0.357066 1.129785,-0.04588 0.980414,0.121262 2.110285,-0.20457 0.710891,-0.205006 2.074785,-0.498555 2.813183,-0.933873 0.738397,-0.435318 1.80024,-0.816235 2.080842,-1.058954 0.749538,-0.648341 1.406584,-0.997593 1.577664,-1.192908 0.07707,-0.08798 0.08965,-0.180946 0.408018,-0.509213 0.526875,-0.543247 0.850722,-1.020203 1.142591,-0.212235 0.459617,1.272306 3.179347,5.984855 3.662461,9.88424 0.411075,3.317959 0.406049,2.506542 0.08001,4.583466 -0.118666,0.755911 -0.522573,1.550938 -1.04417,2.151425 -0.547958,0.630837 -1.110382,1.055735 -2.076656,1.393433 -0.862913,0.301575 -0.311,0.313072 -0.682319,0.731476 -0.408537,0.460341 -0.265231,0.17026 -0.555214,0.250307 0,0 -0.731736,-0.09999 0.07546,-0.06667 0.524172,0.02164 0.345611,-0.719019 0.825632,-0.816315 0.821682,-0.166557 2.065047,0.703917 3.563111,1.641188 1.080342,0.675921 1.984099,1.284482 3.320531,3.49371 0.578455,0.95623 1.227877,2.436477 1.153248,4.341224 0,0 -2.25711,1.864651 -1.593065,1.329693 0.568074,-0.457645 0.140094,-0.129165 0.140094,-0.129165 -0.161364,0.380705 -0.367767,0.536037 -0.634713,0.537922 -0.619896,0.0044 -2.212349,0.450978 -0.947687,-0.515655 0,0 -1.195659,0.369488 0.114096,-0.232878 0.08058,-0.03706 -0.327259,0.489323 0.696986,0.564977 0.706036,0.05215 -1.254806,1.371795 -1.86037,1.804171 -0.207395,0.148081 0.398452,-0.565333 -0.204635,0.173784 0,0 -0.827359,0.86208 -1.219208,0.990716 -0.20984,0.06888 -0.658942,0.06399 -0.658942,0.06399 0,0 -2.083114,0.05648 -1.593332,-0.0261 l 0.690932,-0.116497 z" style="fill:#88fafa;fill-opacity:1;stroke:#000000;stroke-width:0.21602426;stroke-miterlimit:4;stroke-dasharray:none;stroke-opacity:1" ontology="UBERON_0001894"/>
    <path inkscape:label="UBERON_0000007" sodipodi:nodetypes="ssscsscssssssssss" inkscape:connector-curvature="0" id="pituitary.gland" d="m 76.325773,59.2614 c -2.464035,-0.139166 -3.997611,-1.238104 -4.269962,-1.48732 0,0 -1.027033,-0.384977 -1.863733,-0.359048 -0.537681,0.01666 0.28841,-0.654327 0.530591,-0.861067 0,0 -0.03252,-0.131322 0.362821,-0.297732 1.769272,-0.744751 2.062354,-0.850022 3.975529,-1.014613 0.859267,-0.07392 2.207474,-1.013478 2.207474,-1.013478 0.561747,-0.409163 3.763957,-3.5727 4.052515,-3.331639 0.778299,0.650189 -0.04851,-0.251516 1.323987,1.439469 0.219163,0.27002 1.212582,1.39046 1.749986,1.900049 0.549838,0.521379 1.308251,1.44001 1.304695,1.743055 -0.0061,0.517615 -0.984169,0.934087 -1.566479,1.587098 -0.399308,0.447788 -1.060008,0.931591 -1.060008,0.931591 -0.06192,0.189075 0.03592,-0.01508 -0.441933,0.276334 -0.195307,0.119109 -0.643215,0.390252 -1.140984,0.549337 -0.816178,0.260844 -1.126511,0.252982 -1.733618,0.236447 -2.180408,-0.05938 -1.868967,-0.210268 -3.430881,-0.298483 z" style="fill:#88fafa;fill-opacity:1;stroke:#000000;stroke-width:0.21602426;stroke-miterlimit:4;stroke-dasharray:none;stroke-opacity:1" ontology="UBERON_0000007"/>
    <g id="hippocampus" ontology="EFO_0000530">
      <path sodipodi:nodetypes="cssssssssssssasssssssaacc" inkscape:connector-curvature="0" id="path4435" d="m 62.240067,28.487133 c -0.127474,0.01812 -0.125685,-0.108134 -0.497831,0.003 -0.594953,0.177725 0.405398,-0.170849 -0.418032,0.187528 0,0 -0.250058,0.07752 -0.97169,-0.458669 -0.288959,-0.214703 -0.379225,-0.632446 -0.425891,-0.837943 -0.10001,-0.440404 -0.0064,-1.00425 0.460754,-1.772141 0.231232,-0.380116 0.529348,-0.941697 0.662483,-1.247961 0.695798,-1.600612 0.428689,-4.586235 3.278158,-5.59349 0.67217,-0.237605 1.399043,-1.450915 2.451831,-1.922336 0.577264,-0.258487 1.48422,-0.697088 2.262253,-0.460881 0.875057,0.265662 0.728447,1.862724 1.316252,1.946299 0.331134,0.04708 0.999152,0.124524 1.326565,0.13932 0.830973,0.03755 0.848237,0.461238 1.191853,0.781106 0.277443,0.25827 0.223019,0.382555 0.241766,0.602905 0.02481,0.291608 -0.06269,0.655739 -0.177213,0.879767 -0.239219,0.467957 -2.077764,0.939397 -2.484289,1.143769 -5.566118,2.798261 0.130985,-0.147773 0.637284,-0.413323 0.600383,-0.314899 1.390332,0.714557 1.521449,1.246122 0.09077,0.367998 -0.892514,1.436938 -1.368757,1.906786 -1.124647,1.109547 -1.619991,1.734482 -2.812511,2.459874 -0.99152,0.603126 -1.745061,0.752328 -2.706474,1.245351 0,0 -0.8606,0.22731 -1.300042,0.258895 -0.429025,0.03083 -0.858649,-0.05146 -1.288293,-0.06894 -0.299767,-0.01219 0,0 -0.899625,-0.02507 z" style="fill:#88fafa;fill-opacity:1;stroke:#000000;stroke-width:0.03259318;stroke-miterlimit:4;stroke-dasharray:none;stroke-opacity:1"/>
      <path sodipodi:nodetypes="ccssssssscssssssscc" inkscape:connector-curvature="0" id="path4455" d="m 71.730778,21.566724 c -0.09362,0.0097 -0.206226,0.02346 -0.250248,0.03054 -0.04402,0.0071 -0.291881,-0.005 -0.511403,0.03335 -0.331006,0.05791 -0.624784,0.09137 -0.875,0.12664 -0.530031,0.07472 -0.82197,0.162437 -1.076419,0.195874 -0.417385,0.05484 -0.701486,0.191085 -1.105588,0.309067 -0.212795,0.06213 -0.277461,0.09813 -0.47488,0.160464 -0.234398,0.07401 -0.460683,0.117092 -0.660283,0.280197 -0.214479,0.175263 -0.210405,0.24338 -0.473341,0.378913 -0.0096,0.0049 0.256498,-0.370014 0.255494,-0.386649 -0.0028,-0.0473 1.148246,-0.531395 1.758032,-0.667833 0.268366,-0.06005 0.602264,-0.136292 0.741997,-0.169432 0.139735,-0.03314 0.411607,-0.08373 0.604163,-0.112417 0.192562,-0.02869 0.61365,-0.09219 0.935756,-0.141109 0.322106,-0.04893 0.648521,-0.09062 0.725366,-0.09265 0.07685,-0.002 0.230513,-0.01328 0.341479,-0.02498 0.144088,-0.0152 0.214092,-0.01152 0.244902,0.01291 0.05109,0.0405 0.04136,0.04412 -0.180024,0.06712 z" style="fill:#88fafa;fill-opacity:1;stroke:#000000;stroke-width:0.03259318;stroke-miterlimit:4;stroke-dasharray:none;stroke-opacity:1"/>
    </g>
    <path inkscape:label="UBERON_0002037" sodipodi:nodetypes="csscsssccscssccccsscasssssscsssasssssssccsssscssccsccsscccsscsscascaassascsacc" inkscape:connector-curvature="0" id="cerebellum" d="m 115.61856,41.020077 c 0,0 0.065,0.09292 -0.47701,0.157579 -0.30107,0.03592 -1.03137,0.124135 -1.79962,0.222549 -0.57814,0.07406 -1.33541,0.273929 -1.88722,0.182111 -0.18034,0.337482 -1.07276,-0.586733 -1.07276,-0.586733 -0.079,0.567299 0.68683,0.654014 0.68683,0.654014 -0.27664,-0.329047 -1.3294,-0.614728 -0.0289,-0.0035 0,0 0.0289,0.0035 -0.93562,0.18275 l -1.27375,0.04376 c -0.76276,-0.212049 -0.81302,0.04014 -1.41858,0.0068 -1.00532,-0.05534 -2.16114,0.109866 -2.82071,-0.089 0,0 -1.14727,0.286338 -1.29059,-0.214325 -0.13657,-0.47707 -0.13657,-0.47707 -0.13657,-0.47707 -0.0625,-0.375554 -1.03557,-1.12099 -1.03557,-1.12099 -2.334869,-0.96553 -2.237879,-0.74769 -2.152949,-1.111638 0.0229,0.32921 -1.45811,0.303075 -1.45811,0.303075 -0.86812,0.300366 -1.10649,0.327688 -1.10649,0.327688 0,0 -0.17707,-0.286406 -0.347246,-0.250234 -0.232379,0.04939 -0.44134,-0.319295 -0.44134,-0.319295 -0.830676,-0.263877 -0.159772,-0.192607 -0.159772,-0.192607 0,0 -0.400945,-0.176094 -0.576329,-0.304311 -0.12234,-0.08944 -0.32422,-0.318707 -0.32422,-0.318707 -0.71097,-0.353618 -0.795945,-0.686535 -1.214626,-1.112472 -0.75018,-0.763218 -1.005186,-1.511644 -1.154995,-1.934108 -0.503128,-1.418946 -0.510703,-1.393488 -0.695589,-2.055422 -0.216537,-0.775243 1.445654,-3.469422 0.595316,-1.615516 -0.600487,1.30917 -0.228674,0.348129 0.271013,-0.765358 0.718891,-1.601998 4.251128,0.701086 2.481059,-0.194378 0,0 -1.7706,0.166972 -2.024585,-0.353361 -0.454926,-0.93201 0.301051,-1.639859 0.591249,-3.251338 0.131134,-0.728114 2.251018,0.706117 2.089797,-0.0066 -0.06796,-0.300494 -0.862409,-0.0058 -1.25848,-0.163415 -0.257723,-0.102603 -0.541185,0.08757 -0.68495,-0.49232 -0.09362,-0.3776 0.04392,-1.438996 0.155062,-2.306267 0.159278,-1.250706 0.210921,-3.050269 0.180966,-3.117299 0,0 -0.01005,-0.556799 -0.02874,-0.767491 -0.02951,-0.330056 0.0074,-0.767539 0.0074,-0.767539 0.128878,-0.527934 -0.139335,-1.301795 0.03791,-2.168292 0.129323,-0.632357 0.291532,-0.92891 0.572903,-0.957182 l 1.582783,1.494012 -1.863018,-1.824346 c -0.344015,-0.181648 -0.42922,-0.953766 -0.516055,-1.755098 -0.117664,-1.086264 -0.05662,-0.982704 -0.01449,-1.429976 0.03867,-0.409502 0.18915,-1.133589 0.358984,-1.564993 0.461415,-1.1724294 1.061145,-1.4750244 2.097274,-1.3716664 0.470229,0.04691 1.201769,0.10233 1.455389,0.5430414 0.29448,0.314373 -0.15834,-0.3617974 -0.92222,-0.4453724 -1.616512,-0.17686 0.1465,-0.143251 0.32559,-0.156343 0.25874,-0.01891 1.58643,-0.183562 2.351629,-0.09452 0.34387,-0.04633 1.08321,-0.09185 1.3589,0.01436 1.28722,0.30304 2.61817,0.9966034 3.60811,2.4042664 0.25721,0.365744 0.0516,0.679812 0.0272,1.091707 l -0.92876,0.865068 c 0,0 1.3051,-1.613302 1.78239,-1.501001 0.49427,0.116294 -0.12567,-0.162634 0.7867,0.592663 0.85169,0.705055 2.3744,2.081445 3.19757,3.030777 0.90318,1.021972 1.1415,0.984766 0.92724,1.620072 -0.0107,0.296525 0.0461,-0.289457 0.0666,-0.292161 0.0205,-0.0027 -0.15852,0.05844 -0.0155,-0.03025 0.17591,-0.109042 -0.0773,-0.01398 0.0905,0.04683 0.3354,0.121514 1.41618,2.189914 1.892,3.233713 0.3415,0.749143 0.39218,0.945231 0.41009,1.586437 0.0112,0.402397 -0.0708,0.643837 -0.22441,0.861246 l -1.38782,1.964353 c 0,0 0.5479,-1.56948 1.20425,-1.558201 1.68979,0.02904 2.35449,2.183406 2.96074,4.115836 0.27159,0.865673 -0.0405,1.332038 -0.0859,1.878624 -0.0527,0.635929 0.15154,1.168291 -0.16534,1.601382 -0.0544,0.0743 -0.17342,0.06317 -0.25326,0.110187 -0.51026,0.30048 -1.98544,0.887667 -1.42214,1.086452 0.4652,0.164165 1.65211,-1.514004 2.60933,0.424889 0.78817,1.596487 1.37708,2.393897 1.59614,3.727718 0.13479,0.820694 0.61025,2.286801 -0.19691,2.487287 -0.51177,0.127116 -0.67635,0.227017 -1.03626,0.718051 -0.7003,0.259961 -0.7635,1.436674 -0.9567,0.949327 0,0 -0.18201,0.182111 -0.27069,0.27541 -0.0417,0.04388 -0.1229,0.133723 -0.1229,0.133723 z" style="fill:#88fafa;fill-opacity:1;stroke:#000000;stroke-width:0.21602426;stroke-miterlimit:4;stroke-dasharray:none;stroke-opacity:1" ontology="UBERON_0002037"/>
    <path inkscape:label="UBERON_0002298" sodipodi:nodetypes="sccsscssssssssssssss" inkscape:connector-curvature="0" id="brainstem" d="m 107.13386,55.542456 c 0,-0.131198 0.12516,-0.708335 0.27815,-1.282526 0.15297,-0.574189 0.33353,-1.83307 0.40122,-2.797508 0.10748,-1.531066 0.0564,-1.993634 -0.40251,-3.646102 -0.29762,-1.071663 -0.89655,-2.548449 -1.3808,-3.40467 -0.7756,-1.371354 -0.82339,-1.385245 -0.5134,-1.56666 0.18797,-0.110023 1.48112,-0.0234 2.99217,-0.04458 1.51105,-0.02117 4.18197,-0.249035 5.63905,-0.328555 0,0 2.05135,-0.354828 2.50378,-0.144587 0.53343,0.247889 1.15117,0.845782 1.15117,0.845782 1.00971,0.367885 1.73542,0.388633 3.2266,2.241803 0,0 0.71981,0.73345 0.76617,1.250555 0.0451,0.503123 -0.75883,1.714615 -0.75883,1.714615 -0.71877,1.860848 -1.70442,3.005022 -3.17825,4.253634 -0.80837,0.684826 -2.44785,1.624377 -2.77051,2.16332 -0.25248,0.421726 -1.33828,0.533836 -1.78566,0.578751 -0.49131,0.04932 -1.52278,-0.315992 -1.52278,-0.315992 -1.90232,-0.550982 -3.11267,-0.256633 -3.98463,0.299623 -0.40667,0.259439 -0.66094,0.329875 -0.66094,0.183095 z" style="fill:#88fafa;fill-opacity:1;stroke:#000000;stroke-width:0.21602426;stroke-miterlimit:4;stroke-dasharray:none;stroke-opacity:1" ontology="UBERON_0002298"/>
    <path inkscape:label="UBERON_0001891" sodipodi:nodetypes="csccsscsssssccscssssccssassssssccc" inkscape:connector-curvature="0" id="midbrain" d="m 80.749743,49.767453 c -0.249571,-1.83622 -1.660725,-4.202119 -3.358948,-5.631544 -1.01421,-0.853679 -2.661111,-1.896847 -3.551104,-2.249291 l -0.602347,-0.238543 0.894011,-0.450705 c 0.825241,-0.416033 0.942954,-0.534166 1.529994,-1.535513 0.587938,-1.002873 0.647668,-1.192425 0.790906,-2.509658 0.151455,-1.392991 0.143946,-1.478863 -0.33588,-3.840521 -0.548646,-2.700338 -1.195893,-4.558119 -2.735448,-7.851457 -0.523993,-1.120924 -0.969187,-2.245421 -0.989294,-2.498879 -0.02011,-0.253459 -0.202753,-0.678709 -0.405852,-0.944997 -0.267736,-0.351027 -0.313698,-0.484164 -0.1671,-0.484164 0.111191,0 0.392068,-0.159782 0.624151,-0.35507 0.36185,-0.304467 0.421365,-0.446176 0.41761,-0.994347 -0.0053,-0.776102 -0.221955,-1.090301 -0.87644,-1.271015 l -0.497134,-0.137263 0.791828,-0.663526 c 1.140569,-0.955738 2.547589,-2.571195 3.589655,-4.121432 1.153546,-1.716047 4.105489,-5.2032894 5.340798,-6.3092984 0.52289,-0.468149 1.611817,-1.15864 2.017488,-1.527979 1.25792,-1.145271 1.794315,-0.860017 1.974425,-1.4612 l 0.0451,-0.695293 0.67278,-0.153209 c 1.103802,-0.251363 2.3561,1.357799 3.605868,2.443787 0.541515,0.470558 1.778789,1.07321 2.421489,1.863274 0.764433,0.939712 1.003816,1.621848 1.583537,3.2709574 0,0 0.583839,1.817105 0.643354,2.166291 0.312512,1.833809 0.191493,5.677723 0.191493,5.677723 -0.003,6.581846 -0.459704,6.485237 -1.681002,10.66224 -1.096742,3.751007 -2.689189,9.332306 -3.531368,10.800498 -1.652893,2.881532 -3.575455,6.596975 -7.070711,8.948028 l -0.649868,0.925509 -0.681976,-0.833403 z" style="fill:#88fafa;fill-opacity:1;stroke:#000000;stroke-width:0.21602426;stroke-miterlimit:4;stroke-dasharray:none;stroke-opacity:1" ontology="UBERON_0001891"/>
    <path inkscape:label="UBERON_0001897" sodipodi:nodetypes="sssssccsscsssss" inkscape:connector-curvature="0" id="dorsal.plus.ventral.thalamus" d="m 62.67018,44.956592 c -2.79292,-0.201187 -4.461557,-1.832573 -5.40397,-3.795274 -1.610829,-3.354796 -0.195684,-10.535911 2.724593,-13.70737 0.512186,-0.556246 0.08407,-0.0072 1.660643,-0.02361 2.216205,-0.02307 3.019745,0.339993 5.55215,-0.869259 1.18248,-0.564641 3.115862,-1.600186 3.115862,-1.600186 0,0 0.469629,-0.380376 0.794344,-0.578584 0,0 0.08905,-0.09279 0.806048,-0.749074 0.488318,-0.446971 0.167709,-0.684021 0.793382,-0.452747 0,0 -0.08868,0.530723 -0.076,0.01413 0.01054,-0.429754 0.824896,1.828066 1.201583,2.491938 2.202015,3.880818 2.912392,6.390777 2.851774,8.819175 -0.09437,3.780413 -0.09536,5.422877 -2.551507,6.645875 -3.627913,1.806455 -3.442484,2.786004 -5.706775,3.384075 -1.309168,0.345785 -4.376713,0.520712 -5.762127,0.420915 z" style="fill:#88fafa;fill-opacity:1;stroke:#000000;stroke-width:0.21602426;stroke-miterlimit:4;stroke-dasharray:none;stroke-opacity:1" ontology="UBERON_0001897"/>
    <path inkscape:label="UBERON_0001898" sodipodi:nodetypes="sscssccssacsscscassscsss" inkscape:connector-curvature="0" id="hypothalamus" d="m 59.164457,58.747596 c -1.274921,-0.09302 -4.167952,-0.267137 -4.217343,-0.684337 0,0 -0.324475,-0.758488 -0.597716,-1.505551 -0.474868,-1.298396 -0.302809,-1.92465 -0.302809,-3.690171 0,-3.097689 0.293201,-3.925646 2.777707,-7.844024 0.444708,-0.701368 0.871855,-1.535587 0.949195,-1.853822 l 0.140649,-0.578606 0.884233,0.523409 c 1.230779,0.728548 2.372456,1.906829 4.143824,1.671176 2.023521,-0.269198 4.268668,0.0106 6.231733,-0.69624 1.42614,-0.513516 2.954934,-2.486633 3.78849,-2.488476 0.232038,-4.94e-4 0.928203,0.197979 1.547012,0.441095 0.867954,0.340995 1.510844,0.747602 2.812766,1.77897 0.928204,0.735322 1.789521,1.454377 1.914009,1.597902 0.124506,0.143525 0.614148,0.918552 1.088104,1.722282 0.716735,1.215443 0.898029,1.657424 1.077483,2.626746 0.118678,0.640978 -0.09963,1.35139 -0.491628,1.858191 -0.140159,0.181206 0.147162,-0.247497 -0.598882,0.33714 -2.27,1.778882 -2.794387,2.217436 -4.455872,3.177356 -0.897555,0.51856 -2.080939,-0.07278 -3.029082,0.505684 l -1.973484,0.719113 -1.031298,1.311966 c -0.727069,0.924941 -1.142191,0.847858 -2.03924,1.016032 -1.069682,0.200535 -6.171965,0.232605 -8.617851,0.05417 z" style="fill:#88fafa;fill-opacity:1;stroke:#000000;stroke-width:0.21602426;stroke-miterlimit:4;stroke-dasharray:none;stroke-opacity:1" ontology="UBERON_0001898"/>
    <path inkscape:label="UBERON_0000004" sodipodi:nodetypes="ssssssscsssssssssscssssssssssscscs" inkscape:connector-curvature="0" id="nose" d="M 34.166422,40.732564 C 33.793046,40.527106 32.720031,40.12323 31.653244,39.726701 29.584789,38.957846 28.923647,38.897091 26.799338,38.68857 23.409432,38.355818 21.079954,37.84889 19.226552,37.003985 18.499986,36.672767 17.049333,35.915303 16.51594,35.739806 15.717649,35.477154 14.98854,35.058845 13.312132,34.012912 10.17656,32.056589 9.9249841,31.65659 7.3917221,28.49055 L 6.6563301,27.571468 6.4321817,26.442647 C 6.2492065,25.521181 6.1259819,25.16697 5.7613522,24.514351 5.3294247,23.741279 5.0869821,23.83828 4.0994116,23.192211 3.0842574,22.528099 3.2712969,22.375474 3.1433328,21.858113 3.0725278,21.571841 2.9053563,21.014747 2.7718426,20.620126 2.4285059,19.605334 2.48631,19.10546 3.079867,17.956434 c 0.4626568,-0.895626 0.465756,-0.898958 1.210734,-1.301335 0.4107894,-0.221876 1.1997269,-0.561033 1.753196,-0.753683 0.5534692,-0.192649 1.2160681,-0.456565 1.4724441,-0.586481 0.409846,-0.207685 0.574426,-0.233062 1.36284,-0.210144 l 0.896702,0.02606 1.5516909,-0.76297 c 1.427256,-0.701785 1.664459,-0.78603 2.957911,-1.050525 1.375544,-0.28128 1.289308,-0.333706 2.569988,-0.228872 2.074391,0.169802 3.040112,0.401539 4.655071,1.055951 0.800091,0.324213 1.487598,0.635147 1.527794,0.690967 0.118542,0.164613 1.077664,1.279511 1.287925,3.130722 0.123427,1.086694 0.870738,2.922938 0.870738,2.922938 0.628436,1.578743 2.670747,4.327429 4.057778,5.474397 1.283718,1.061537 3.127618,2.798574 3.898449,3.869955 0.753703,1.047573 1.481088,2.109625 2.311728,4.082556 0.57122,1.35676 1.447824,2.310934 1.12777,4.866088 l -0.182213,1.45471 -0.693104,0.266697 c -0.349021,0.134299 -0.528487,0.166217 -0.564356,0.16194 -0.03587,-0.0043 -0.613156,-0.127389 -0.986531,-0.332846 z" style="fill:#88fafa;fill-opacity:1;stroke:#000000;stroke-width:0.21602426;stroke-miterlimit:4;stroke-dasharray:none;stroke-opacity:1" ontology="UBERON_0000004"/>
    <path inkscape:label="UBERON_0002259" sodipodi:nodetypes="ccccccc" inkscape:connector-curvature="0" id="corpora.quadrigemina" d="m 84.969429,39.211748 c 2.539062,-4.6875 7.617187,-3.71093 7.617187,-3.71093 6.25,2.14843 5.859375,4.6875 5.859375,4.6875 -0.78125,3.32031 -4.296875,1.36718 -4.296875,1.36718 -3.710937,-0.78125 -5.46875,-0.58593 -5.46875,-0.58593 -0.651042,0.0651 -1.302083,0.13021 -1.953125,0.19531 -1.660156,0 -1.757812,-1.95313 -1.757812,-1.95313 z" style="fill:#88fafa;fill-opacity:1;stroke:#000000;stroke-width:0.21602426;stroke-miterlimit:4;stroke-dasharray:none;stroke-opacity:1" ontology="UBERON_0002259"/>
  </g>
</svg>
