<?xml version="1.0" encoding="UTF-8" standalone="no"?>
<!-- Created with Inkscape (http://www.inkscape.org/) -->
<svg xmlns:dc="http://purl.org/dc/elements/1.1/" xmlns:cc="http://creativecommons.org/ns#" xmlns:rdf="http://www.w3.org/1999/02/22-rdf-syntax-ns#" xmlns:svg="http://www.w3.org/2000/svg" xmlns="http://www.w3.org/2000/svg" xmlns:sodipodi="http://sodipodi.sourceforge.net/DTD/sodipodi-0.dtd" xmlns:inkscape="http://www.inkscape.org/namespaces/inkscape" width="120.96103" height="139.71811" viewBox="0 0 120.96103 139.71811" preserveAspectRatio="none" id="svg2" version="1.1" inkscape:version="0.92.3 (unknown)" sodipodi:docname="oryza_sativa.flower_parts.svg">
  <defs id="defs4"/>
  <sodipodi:namedview id="base" pagecolor="#ffffff" bordercolor="#666666" borderopacity="1.0" inkscape:pageopacity="0.0" inkscape:pageshadow="2" inkscape:zoom="3.959798" inkscape:cx="46.812213" inkscape:cy="57.65439" inkscape:document-units="px" inkscape:current-layer="LAYER_EFO" showgrid="false" inkscape:window-width="1680" inkscape:window-height="1006" inkscape:window-x="75" inkscape:window-y="34" inkscape:window-maximized="0" fit-margin-top="0" fit-margin-left="0" fit-margin-right="0" fit-margin-bottom="0"/>
  <metadata id="metadata">
    <rdf:RDF>
      <cc:Work rdf:about="">
        <dc:format>image/svg+xml</dc:format>
        <dc:type rdf:resource="http://purl.org/dc/dcmitype/StillImage"/>
        <dc:title/>
      </cc:Work>
    </rdf:RDF>
  </metadata>
  <g inkscape:label="EFO" id="container" inkscape:groupmode="layer" label="EFO" groupmode="layer">
    <g id="endosperm_embryo_outline" style="fill:#85fafa;fill-opacity:1" ontology="NULL">
      <path id="path849" d="m 71.308797,82.066296 0.26016,-3.636066 -3.90814,-4.193831 c -7.851558,-8.425508 -9.180284,-13.425 -9.196459,-34.602595 -0.0134,-17.577933 0.555923,-19.180506 8.813112,-24.806706 3.420739,-2.330785 4.808122,-3.665831 6.155272,-5.9230403 2.167064,-3.6310213 3.439837,-3.8556505 3.863446,-0.6818457 0.207564,1.5551102 0.942847,3.001474 2.42411,4.768411 3.183961,3.798004 6.40011,9.557962 7.321007,13.111548 1.273908,4.9158 1.062287,12.108283 -0.543395,18.46894 -1.961597,7.770518 -6.501225,22.296916 -8.046866,25.749253 -0.866435,1.93526 -1.437783,4.407346 -1.653292,7.153428 -0.207983,2.650151 -0.574881,4.277416 -0.995805,4.416596 -0.509928,0.168617 -0.541044,-0.109554 -0.132455,-1.184222 0.29372,-0.772532 0.53403,-2.713464 0.53403,-4.313179 0,-2.02944 0.466669,-4.005241 1.543951,-6.536811 1.738655,-4.08577 5.083011,-14.898708 7.463083,-24.129549 1.7113,-6.637089 2.05649,-12.443252 1.058791,-17.809075 C 85.60967,24.369688 82.967674,19.03404 80.177198,15.614141 76.942857,11.650261 76.210816,10.36974 76.189779,8.6391458 l -0.01932,-1.5894716 -1.232445,2.0046933 c -1.792782,2.9161485 -3.399831,4.5005045 -6.681836,6.5874955 -8.39959,5.341195 -9.343439,8.356964 -8.825948,28.200463 0.179015,6.864501 0.563359,13.792222 0.854101,15.394937 0.805688,4.441379 3.811002,9.979177 7.68832,14.167042 4.038044,4.361458 4.712456,5.835086 4.240591,9.265945 -0.537567,3.908575 -1.19586,3.468994 -0.904443,-0.603954 z" style="fill:#85fafa;fill-opacity:1;stroke:#000000;stroke-width:0.21602426;stroke-miterlimit:4;stroke-dasharray:none;stroke-opacity:1" inkscape:connector-curvature="0"/>
      <path id="path847" d="m 71.435113,75.190903 c 0,-0.468348 2.774845,-1.648415 3.876128,-1.648415 0.836231,0 0.222596,0.420954 -1.916502,1.314733 -1.077795,0.450331 -1.959626,0.600483 -1.959626,0.333682 z" style="fill:#85fafa;fill-opacity:1;stroke:#000000;stroke-width:0.21602426;stroke-miterlimit:4;stroke-dasharray:none;stroke-opacity:1" inkscape:connector-curvature="0"/>
      <path id="path845" d="M 68.6106,71.29074 C 66.713727,68.756728 65.876813,66.905829 64.323931,61.810449 62.318695,55.230745 61.527934,50.02359 61.117088,40.69345 c -0.332389,-7.548614 -0.268219,-8.509952 0.794099,-11.896029 1.869453,-5.958764 5.057485,-8.259389 11.378307,-8.211107 4.023659,0.03073 7.697368,1.491216 9.127191,3.62851 0.986896,1.475215 1.205616,2.52755 1.21133,5.828056 0.01669,9.630922 -6.400777,40.523473 -8.779429,42.262785 -0.531791,0.38885 -1.862864,0.707001 -2.957952,0.707001 -1.628706,0 -2.225643,-0.313373 -3.280034,-1.721926 z" style="fill:#85fafa;fill-opacity:1;stroke:#000000;stroke-width:0.21602426;stroke-miterlimit:4;stroke-dasharray:none;stroke-opacity:1" inkscape:connector-curvature="0"/>
      <path id="path843" d="m 74.688043,70.893371 c 1.819773,-2.472117 -0.07508,-7.417522 -2.842051,-7.417522 -3.91132,0 -4.982147,6.969538 -1.303435,8.483455 1.767966,0.727579 3.072085,0.392247 4.145486,-1.065933 z" style="fill:#85fafa;fill-opacity:1;stroke:#000000;stroke-width:0.21602426;stroke-miterlimit:4;stroke-dasharray:none;stroke-opacity:1" inkscape:connector-curvature="0"/>
      <path id="path841" d="M 79.620454,52.349561 C 80.86097,45.91028 82.56787,33.718704 82.564511,31.32155 c -0.0032,-2.213584 -0.0089,-2.219997 -2.25486,-2.49661 -1.238459,-0.152538 -4.243817,-0.54149 -6.678574,-0.864351 -5.376667,-0.712961 -7.787982,-0.354944 -9.878402,1.4667 l -1.589467,1.385108 0.140995,9.067293 c 0.07755,4.987013 0.322211,10.128848 0.543707,11.4263 0.39637,2.32185 0.441163,2.364509 2.84358,2.708159 4.160702,0.595161 6.696791,3.084128 6.958433,6.829135 0.06036,0.863945 0.370826,1.571286 0.689911,1.571863 0.616993,0.001 2.232796,1.586448 2.296111,2.252805 0.02077,0.218551 0.04763,1.053021 0.05974,1.854379 0.02549,1.688647 2.797556,-8.321637 3.924772,-14.17277 z" style="fill:#85fafa;fill-opacity:1;stroke:#000000;stroke-width:0.21602426;stroke-miterlimit:4;stroke-dasharray:none;stroke-opacity:1" inkscape:connector-curvature="0"/>
      <path id="path839" d="m 67.72635,65.653835 c 0,-1.351711 1.612613,-3.257741 2.914718,-3.445049 0.67213,-0.09669 1.111331,-0.618864 1.202328,-1.429473 0.157374,-1.401937 -1.64117,-4.72099 -2.558242,-4.72099 -0.316838,0 -0.08192,0.628206 0.522036,1.39601 1.131601,1.438599 1.477644,3.372399 0.603469,3.372399 -0.27205,0 -0.570076,-0.647953 -0.662281,-1.439902 -0.19465,-1.671825 -3.056535,-3.85833 -5.05011,-3.85833 -0.967118,0 -1.217793,0.227687 -1.02081,0.927192 1.810723,6.430073 3.117474,10.199096 3.536103,10.199096 0.282031,0 0.512789,-0.45043 0.512789,-1.000953 z" style="fill:#85fafa;fill-opacity:1;stroke:#000000;stroke-width:0.21602426;stroke-miterlimit:4;stroke-dasharray:none;stroke-opacity:1" inkscape:connector-curvature="0"/>
      <path id="path837" d="m 66.717932,25.425534 c 0.321313,-0.966582 0.434608,-1.907019 0.251774,-2.089861 -0.520542,-0.520534 -2.293028,1.52882 -3.189559,3.687784 l -0.813824,1.959788 1.583702,-0.900142 c 0.915823,-0.520536 1.830073,-1.641283 2.167907,-2.657569 z" style="fill:#85fafa;fill-opacity:1;stroke:#000000;stroke-width:0.21602426;stroke-miterlimit:4;stroke-dasharray:none;stroke-opacity:1" inkscape:connector-curvature="0"/>
      <path id="path835" d="m 81.761914,25.658312 c -1.107426,-2.333734 -3.550008,-3.508674 -7.294162,-3.508674 -2.824348,0 -2.908841,0.04329 -3.231321,1.655699 -0.560587,2.802917 -0.435352,3.112711 1.25833,3.112711 1.284087,0 1.596622,-0.22904 1.62671,-1.192102 0.02049,-0.655659 0.261864,-1.668944 0.536413,-2.251749 0.369166,-0.783649 0.446071,-0.409964 0.295272,1.434686 l -0.203907,2.494333 2.184154,0.283112 c 3.970953,0.514723 5.361103,0.560658 5.531734,0.182792 0.09276,-0.205416 -0.223696,-1.200281 -0.703223,-2.210808 z" style="fill:#85fafa;fill-opacity:1;stroke:#000000;stroke-width:0.21602426;stroke-miterlimit:4;stroke-dasharray:none;stroke-opacity:1" inkscape:connector-curvature="0"/>
      <path id="path833" d="m 78.92479,26.388222 c -0.04763,-0.437105 -0.235007,-1.390785 -0.416377,-2.119291 -0.25467,-1.02296 -0.183271,-1.188458 0.313564,-0.726823 0.353833,0.328749 0.5412,1.282433 0.416379,2.119294 -0.124824,0.836856 -0.265929,1.163925 -0.313566,0.72682 z" style="fill:#85fafa;fill-opacity:1;stroke:#000000;stroke-width:0.21602426;stroke-miterlimit:4;stroke-dasharray:none;stroke-opacity:1" inkscape:connector-curvature="0"/>
      <path id="path863" d="m 69.753708,25.990856 c 0.261346,-0.509955 0.636095,-1.599527 0.832776,-2.421272 0.331172,-1.383653 0.25155,-1.481543 -1.077293,-1.324558 -1.141802,0.134895 -1.477397,0.491496 -1.642962,1.74579 -0.114436,0.866944 -0.460343,1.880229 -0.768672,2.25175 -0.429757,0.517829 -0.240663,0.675482 0.81019,0.675482 0.771286,0 1.578609,-0.405506 1.845961,-0.927192 z" style="fill:#85fafa;fill-opacity:1;stroke:#000000;stroke-width:0.21602426;stroke-miterlimit:4;stroke-dasharray:none;stroke-opacity:1" inkscape:connector-curvature="0"/>
    </g>
    <g id="reproduction_outline" style="fill:#85fafa;fill-opacity:1" ontology="NULL">
      <path id="path987" d="m 17.866514,119.83049 c -2.855893,-0.4939 -4.213339,-1.07668 -4.661086,-1.57144 -0.31488,-0.34794 -0.689015,-1.83179 -0.974647,-3.86551 C 11.6877,110.52676 11.549747,110.07832 9.3640001,105.07445 8.4508187,102.98389 7.3190789,100.48946 7.1027884,99.531286 6.5519321,97.090982 5.6650638,71.553005 6.1305738,65.737359 6.4912362,61.231579 9.2257193,48.173428 10.593871,43.100125 c 0.422833,-1.567925 1.260137,-4.308376 1.860675,-5.709255 0.659228,-1.537792 1.507127,-2.548086 1.507127,-3.340541 0,-1.802272 0.479408,-3.560414 1.240475,-3.560414 0.342461,0 0.726237,0.790473 0.852843,0.995324 0.147895,0.2393 1.541775,-1.720728 3.898909,-4.176561 2.017799,-2.102289 3.974232,-3.187197 4.347638,-3.299059 0.914706,-0.27403 2.613292,1.702591 4.258536,4.955613 0.77944,1.54113 1.386286,2.387981 1.641124,2.29019 0.702659,-0.269635 1.543074,1.686591 1.77709,4.136518 0.123325,1.291086 0.298127,2.421329 0.388451,2.511656 0.09032,0.09033 0.629217,-0.973042 1.197535,-2.36304 0.568323,-1.389994 1.162557,-2.527262 1.320523,-2.527262 0.967603,0 0.714335,3.661223 -0.506948,7.328396 -0.453114,1.360571 -0.777787,2.792503 -0.721495,3.182073 0.172746,1.195568 3.094119,-5.120974 3.362638,-7.270646 0.207717,-1.662874 0.292686,-1.814436 1.017192,-1.814436 0.770571,0 0.792857,0.06507 0.881928,2.574998 0.109227,3.077902 -0.571646,6.650204 -1.673098,8.778132 -0.467376,0.902935 -0.796639,2.075483 -0.800525,2.850769 -0.0037,0.72433 -0.195232,2.217297 -0.425785,3.317704 -0.357702,1.707276 -0.612105,2.427208 0.05893,4.434532 2.697235,8.068453 0.498182,30.331348 -0.562173,33.120286 -0.305856,0.804472 -0.282246,0.879131 0.217027,0.686242 1.105026,-0.426908 3.752365,-0.822265 5.0634,-0.756179 1.569543,0.07912 2.437178,0.711593 2.302247,3.235461 -0.154924,4.054726 -6.124191,11.484034 -9.419034,14.210304 -2.977558,2.34639 -3.448773,2.39429 -2.16544,6.05949 1.236422,3.53122 1.131041,4.24277 -4.199144,5.94466 -2.764719,0.88276 -7.423487,1.28553 -9.448003,0.93541 z" style="fill:#85fafa;fill-opacity:1;stroke:#000000;stroke-width:0.21602426;stroke-miterlimit:4;stroke-dasharray:none;stroke-opacity:1" inkscape:connector-curvature="0"/>
      <path id="path985" d="m 26.988751,117.93151 c 4.031208,-1.25144 4.086645,-1.27828 4.4133,-2.13744 0.213127,-0.56058 0.0843,-1.29454 -0.499395,-2.84529 -1.311366,-3.48398 -1.095713,-4.42212 1.485582,-6.46251 0.887547,-0.70157 2.039238,-1.87638 2.559315,-2.61071 0.520075,-0.73432 1.63012,-2.04782 2.466762,-2.91889 0.836645,-0.87107 2.245026,-2.783236 3.129745,-4.249261 1.320003,-2.187327 1.608572,-2.929381 1.608572,-4.136432 0,-2.253201 -0.468616,-2.676198 -2.723503,-2.458401 -1.02817,0.09931 -2.823283,0.48059 -3.989135,0.847293 l -2.119727,0.666727 -0.198643,1.497517 c -0.652403,4.918348 -2.818754,13.264017 -3.675349,14.158987 -0.162209,0.16947 -0.0066,-0.5299 0.345798,-1.55416 0.352398,-1.02427 0.629469,-2.30323 0.615717,-2.84215 -0.02843,-1.11385 -0.0156,-1.143 -1.03691,2.35772 -0.281412,0.9646 -0.721567,2.03364 -0.97812,2.37564 -0.256557,0.34201 -0.09997,-0.29547 0.347973,-1.41662 0.802721,-2.00911 0.815741,-2.17544 0.905186,-11.561455 l 0.09075,-9.523022 -0.273355,7.918809 c -0.182727,5.293327 -0.431751,8.496418 -0.751095,9.660948 -0.262752,0.95818 -0.409021,1.31452 -0.325041,0.79188 0.08398,-0.52264 0.234665,-2.0193 0.334845,-3.3259 0.170384,-2.222188 0.125105,-2.461893 -0.701002,-3.710929 -0.485734,-0.734413 -0.94575,-1.272697 -1.02225,-1.196193 -0.07651,0.07651 -0.24938,3.029269 -0.38417,6.561702 l -0.245069,6.4226 0.115163,-6.81017 c 0.172111,-10.177734 0.722967,-24.021415 1.254096,-31.516857 0.259237,-3.658489 0.615853,-9.502571 0.792465,-12.986846 0.176618,-3.484278 0.411033,-6.691394 0.520916,-7.126929 0.142801,-0.565979 0.100556,-0.700413 -0.148082,-0.471256 -0.517132,0.476619 -0.965145,5.090128 -1.322272,13.616478 -0.17513,4.181133 -0.459291,10.16775 -0.631471,13.3036 -0.172175,3.135847 -0.457708,9.977698 -0.634517,15.204112 -0.176808,5.226413 -0.527169,10.785418 -0.778583,12.353338 -0.717771,4.47634 -1.244549,6.81018 -1.537141,6.81018 -0.148196,0 -0.186465,-0.39198 -0.08505,-0.87107 0.101421,-0.47909 0.05373,-1.29869 -0.105982,-1.82133 l -0.290386,-0.95026 -0.03438,1.10864 -0.03438,1.10863 -1.118593,-1.74213 -1.118587,-1.74214 0.144137,2.05889 c 0.07928,1.13239 0.231531,2.41523 0.338346,2.85077 0.10681,0.43553 -0.01077,0.29299 -0.261307,-0.31675 -0.625223,-1.52168 -0.638673,-12.256008 -0.0268,-21.380789 0.399862,-5.962931 0.615581,-18.996302 0.290972,-17.579755 -0.05988,0.261321 -0.354529,3.468439 -0.654769,7.12693 -0.401335,4.890324 -0.531236,9.608627 -0.490544,17.817555 0.04768,9.618729 -0.01539,11.342559 -0.455208,12.441769 -0.280806,0.70181 -0.814132,1.43374 -1.185166,1.62651 -0.674545,0.35048 -0.674541,0.35044 0.017,-0.40518 1.019556,-1.11403 1.367298,-2.29135 1.367298,-4.62914 0,-1.92732 -0.148269,-2.3825 -1.903964,-5.845183 -1.047185,-2.065312 -2.037592,-4.500784 -2.200914,-5.412169 -0.21561,-1.203187 -0.268696,0.164882 -0.193823,4.994737 0.08871,5.722175 0.19445,6.916365 0.756629,8.544815 0.823096,2.38428 0.689159,2.60398 -0.250502,0.4109 -0.66433,-1.55048 -0.740554,-2.40949 -1.061697,-11.964859 -0.190292,-5.661949 -0.340894,-12.432531 -0.334687,-15.045737 0.0064,-2.698325 -0.722597,-10.94036 0.01217,-18.480091 0.828805,-8.504925 3.304881,-16.039297 3.173051,-14.621595 -0.0972,1.045283 -2.137116,7.635218 -2.676298,14.605076 -0.369502,4.77645 -0.07069,12.96393 -0.07004,15.376723 8.22e-4,3.814484 0.08309,4.52122 0.628851,5.416341 0.345214,0.566195 0.712906,1.029446 0.817092,1.029446 0.104189,0 0.08753,-2.542381 -0.03701,-5.649736 -0.16831,-4.199494 -0.12462,-5.958244 0.17021,-6.851579 0.486793,-1.475003 2.217436,-3.443643 3.491128,-3.971225 0.856001,-0.354566 0.947734,-0.532847 0.956183,-1.858336 0.0051,-0.806377 0.140722,-5.279535 0.301288,-9.94034 l 0.291938,-8.474191 -0.755422,-0.755421 c -1.047969,-1.047971 -1.242092,-2.518181 -0.816203,-6.181558 0.210605,-1.81155 0.271573,-4.194487 0.143479,-5.608006 l -0.222732,-2.457941 -0.692737,1.563426 c -0.381004,0.859882 -1.071447,2.011388 -1.534312,2.5589 l -0.841577,0.995475 0.817932,2.805552 c 1.10838,3.801801 1.298369,5.810109 0.658847,6.964468 -1.091276,1.748933 -0.631798,0.591124 -0.986227,0.503052 -0.166516,-0.166508 -1.565461,4.43811 -2.192398,7.216244 -1.78019,7.888558 -1.961436,16.973731 -1.02053,51.155502 0.08403,3.05272 0.04701,3.79298 -0.118785,2.37564 -0.13247,-1.13239 -0.334886,-7.44954 -0.449824,-14.038109 l -0.208967,-11.979222 -0.784463,-0.84601 c -0.94202,-1.015925 -0.898651,-0.62347 -0.923115,-8.35309 -0.02336,-7.375192 0.385955,-7.122222 0.749062,0.462963 0.13995,2.923636 0.324866,5.386111 0.410919,5.472164 0.08605,0.08605 0.239196,-3.232514 0.340315,-7.374591 0.237463,-9.727073 1.285993,-17.06331 3.223729,-22.555442 0.462211,-1.310046 0.455955,-1.435937 -0.102103,-2.05465 -0.71318,-0.790681 -1.302709,-2.44683 -1.350776,-3.794693 -0.113694,-3.188203 -3.087556,15.626073 -3.599788,22.774247 -0.09987,1.393708 -0.476106,5.159487 -0.836076,8.368393 -0.558432,4.978142 -0.632379,7.139716 -0.503862,14.728983 0.162485,9.595228 0.439142,11.850967 2.072513,16.898607 1.254444,3.87663 3.551316,8.8915 4.145634,9.05136 0.439043,0.1181 0.437037,0.13856 -0.01677,0.1709 -0.679006,0.0484 -1.071057,-0.69403 -2.528307,-3.86278 C 9.8697098,102.27488 9.5232494,97.629285 9.8407495,84.327174 9.942627,80.058937 10.168685,75.640242 10.343102,74.507851 c 0.586106,-6.616007 1.083587,-13.323623 1.818689,-19.638645 0.381411,-3.739357 0.899892,-5.284032 2.135913,-10.662047 0.615621,-2.678612 1.098469,-4.237111 0.914328,-4.958909 -0.734177,-2.877801 -0.870642,-2.977461 -1.70632,-1.246105 -1.510302,3.129036 -2.662911,7.849538 -5.6266114,23.043731 -0.7977469,4.089858 -0.7728792,35.123079 0.030884,38.559995 0.1929356,0.824989 1.1947314,3.390679 2.2262184,5.701539 2.0365,4.56241 2.409614,5.74681 2.720605,8.63611 0.488811,4.54137 0.896925,4.80723 7.480166,4.87291 3.237494,0.0323 4.041931,-0.0747 6.651797,-0.88492 z" style="fill:#85fafa;fill-opacity:1;stroke:#000000;stroke-width:0.21602426;stroke-miterlimit:4;stroke-dasharray:none;stroke-opacity:1" inkscape:connector-curvature="0"/>
      <path id="path983" d="m 18.810612,114.09885 c -1.079965,-0.43501 -1.798026,-1.72123 -1.388312,-2.48679 0.185974,-0.34749 0.24466,-0.89156 0.130422,-1.20906 -0.266743,-0.74133 0.01165,-0.47646 0.515428,0.49041 0.252159,0.48395 0.267413,0.67437 0.04291,0.53562 -0.217855,-0.13464 -0.348353,0.0816 -0.348353,0.57732 0,2.30855 4.680926,2.38784 10.69039,0.18108 0.914622,-0.33587 1.66295,-0.50501 1.66295,-0.37587 0,0.23917 -0.271263,0.34879 -4.423412,1.78768 -2.434631,0.8437 -5.479085,1.06472 -6.882019,0.49961 z" style="fill:#85fafa;fill-opacity:1;stroke:#000000;stroke-width:0.21602426;stroke-miterlimit:4;stroke-dasharray:none;stroke-opacity:1" inkscape:connector-curvature="0"/>
      <path id="path981" d="m 26.656775,108.84909 c 0.01521,-0.36901 0.09025,-0.44406 0.191369,-0.19138 0.0915,0.22866 0.08025,0.50186 -0.02499,0.60711 -0.105253,0.10526 -0.180119,-0.0818 -0.166363,-0.41573 z" style="fill:#85fafa;fill-opacity:1;stroke:#000000;stroke-width:0.21602426;stroke-miterlimit:4;stroke-dasharray:none;stroke-opacity:1" inkscape:connector-curvature="0"/>
      <path id="path979" d="m 27.298321,108.24197 c -0.01147,-0.34842 0.177484,-1.34619 0.419865,-2.21726 0.57251,-2.05747 0.601486,-1.15837 0.03573,1.10863 -0.239126,0.95818 -0.444145,1.45706 -0.4556,1.10863 z" style="fill:#85fafa;fill-opacity:1;stroke:#000000;stroke-width:0.21602426;stroke-miterlimit:4;stroke-dasharray:none;stroke-opacity:1" inkscape:connector-curvature="0"/>
      <path id="path977" d="m 25.165936,103.79285 c 0.261526,-1.90833 0.554202,-4.895598 0.650394,-6.638386 0.155492,-2.817241 0.103119,-3.286713 -0.472165,-4.23269 -0.355877,-0.585195 -0.691187,-1.01228 -0.745136,-0.949078 -0.05395,0.0632 -0.180139,3.749644 -0.280419,8.192094 -0.10545,4.67143 -0.0655,7.87069 0.09475,7.58746 0.152392,-0.26934 0.49105,-2.05107 0.752577,-3.9594 z" style="fill:#85fafa;fill-opacity:1;stroke:#000000;stroke-width:0.21602426;stroke-miterlimit:4;stroke-dasharray:none;stroke-opacity:1" inkscape:connector-curvature="0"/>
      <path id="path975" d="m 23.167974,106.7374 c 2.05e-4,-0.56619 0.08234,-4.42502 0.182198,-8.575167 l 0.181561,-7.545718 -0.726401,-0.773223 c -0.399525,-0.425272 -0.838291,-0.661339 -0.975037,-0.524593 -0.136745,0.136745 -0.344985,3.595193 -0.462748,7.685439 l -0.21412,7.436812 0.843994,1.66295 c 0.464195,0.91462 0.917325,1.66295 1.006953,1.66295 0.08963,0 0.163248,-0.46325 0.1636,-1.02945 z" style="fill:#85fafa;fill-opacity:1;stroke:#000000;stroke-width:0.21602426;stroke-miterlimit:4;stroke-dasharray:none;stroke-opacity:1" inkscape:connector-curvature="0"/>
      <path id="path973" d="m 23.691118,104.36176 c -0.07258,-0.47909 -0.131956,-0.0871 -0.131956,0.87107 0,0.95817 0.05938,1.35015 0.131956,0.87107 0.07258,-0.47909 0.07258,-1.26305 0,-1.74214 z" style="fill:#85fafa;fill-opacity:1;stroke:#000000;stroke-width:0.21602426;stroke-miterlimit:4;stroke-dasharray:none;stroke-opacity:1" inkscape:connector-curvature="0"/>
      <path id="path971" d="m 24.017994,89.493776 c -0.0533,-2.58031 -0.09704,-0.557857 -0.09719,4.494344 -1.5e-4,5.052199 0.04346,7.16336 0.09691,4.691471 0.05345,-2.471887 0.05357,-6.605505 2.05e-4,-9.185815 z" style="fill:#85fafa;fill-opacity:1;stroke:#000000;stroke-width:0.21602426;stroke-miterlimit:4;stroke-dasharray:none;stroke-opacity:1" inkscape:connector-curvature="0"/>
      <path id="path969" d="m 31.592473,98.343465 c 0.102175,-0.914624 0.112215,-1.66295 0.0223,-1.66295 -0.371009,0 -1.227124,4.424645 -0.991533,5.124515 0.222894,0.66213 0.274249,0.60917 0.515502,-0.5316 0.147368,-0.69686 0.351545,-2.015343 0.453731,-2.929965 z" style="fill:#85fafa;fill-opacity:1;stroke:#000000;stroke-width:0.21602426;stroke-miterlimit:4;stroke-dasharray:none;stroke-opacity:1" inkscape:connector-curvature="0"/>
      <path id="path967" d="m 20.062139,93.829743 c -0.235709,-6.052509 -0.254662,-6.178678 -0.942762,-6.276519 -0.865018,-0.122988 -0.894282,-0.293767 -1.376422,-8.031504 -0.339192,-5.443543 -0.10814,-5.973998 0.196913,-7.44368 0.382948,-1.844972 0.953106,-2.363627 1.223783,-2.59294 -0.0012,0.04666 0.540646,-0.109189 0.254151,0.0496 -2.021741,2.012498 -1.47272,7.824385 -1.331536,10.178851 0.200875,3.321453 0.492271,6.35972 0.647544,6.751702 0.162786,0.410932 0.553425,0.71269 0.922616,0.71269 0.578846,0 0.640757,-0.205188 0.645081,-2.138077 0.0024,-1.175944 0.282802,-5.409501 0.622594,-9.4079 0.339789,-3.998402 0.569342,-7.318283 0.510113,-7.37751 -0.05923,-0.05923 -0.517567,0.233299 -1.01853,0.650062 -0.500963,0.416759 -1.093799,0.669189 -1.227594,0.650769 -0.182164,-0.02508 -0.673101,0.42563 -1.108635,1.076594 -0.788959,1.179209 -0.791573,1.20782 -0.708331,7.756183 0.04961,3.902496 -0.03617,6.572613 -0.211144,6.572613 -0.162081,0 -0.587144,-0.39198 -0.944585,-0.871069 -0.612955,-0.821567 -0.650461,-0.831954 -0.659924,-0.182739 -0.0055,0.378577 0.417581,1.115939 0.940222,1.63858 1.077157,1.077161 1.168443,1.731305 0.444192,3.183103 -0.381475,0.76468 -0.476866,1.692975 -0.387465,3.770506 0.112077,2.604392 0.214014,2.944886 1.852263,6.186944 2.068444,4.093398 2.012394,4.257608 1.657456,-4.85626 z" style="fill:#85fafa;fill-opacity:1;stroke:#000000;stroke-width:0.21602426;stroke-miterlimit:4;stroke-dasharray:none;stroke-opacity:1" inkscape:connector-curvature="0"/>
      <path id="path965" d="m 31.005707,97.076455 c 2.009499,-8.65092 1.932639,-7.262774 1.600378,-28.903651 l -0.114288,-7.44368 1.062521,-4.214977 1.062527,-4.214975 -0.552402,-2.595197 c -0.303819,-1.42736 -0.613554,-3.094084 -0.688303,-3.703836 -0.246603,-2.011673 -0.416803,-2.109284 -1.093845,-0.627324 -0.557273,1.219813 -0.599478,1.608083 -0.300389,2.763551 0.985525,3.807369 0.582223,12.326282 -1.218483,25.737982 -0.497946,3.708684 -0.622689,6.605278 -0.647953,15.045733 -0.0172,5.749059 -0.02411,10.559731 -0.01535,10.690392 0.04878,0.727407 0.332264,-0.06583 0.905591,-2.534018 z" style="fill:#85fafa;fill-opacity:1;stroke:#000000;stroke-width:0.21602426;stroke-miterlimit:4;stroke-dasharray:none;stroke-opacity:1" inkscape:connector-curvature="0"/>
      <path id="path963" d="m 29.750263,77.358621 c 0.19368,-1.655031 0.658854,-5.646108 1.033721,-8.869065 0.715488,-6.151416 0.948458,-17.816782 0.396446,-19.850945 -0.268847,-0.990696 -0.281891,-0.996544 -0.971395,-0.435534 -0.829089,0.674588 -1.152255,3.392531 -1.677674,14.109809 -0.179361,3.658491 -0.468073,8.789878 -0.641586,11.403085 -0.173513,2.613206 -0.444755,8.362565 -0.602762,12.776352 l -0.287278,8.025064 1.003836,1.425757 1.003839,1.425759 0.195357,-8.500568 c 0.107448,-4.675313 0.353822,-9.854681 0.547496,-11.509714 z" style="fill:#85fafa;fill-opacity:1;stroke:#000000;stroke-width:0.21602426;stroke-miterlimit:4;stroke-dasharray:none;stroke-opacity:1" inkscape:connector-curvature="0"/>
      <path id="path961" d="m 32.551657,93.275428 c -0.07967,-0.304874 -0.144859,-0.05543 -0.144859,0.554315 0,0.609748 0.06519,0.859192 0.144859,0.554318 0.07967,-0.304877 0.07967,-0.803761 0,-1.108633 z" style="fill:#85fafa;fill-opacity:1;stroke:#000000;stroke-width:0.21602426;stroke-miterlimit:4;stroke-dasharray:none;stroke-opacity:1" inkscape:connector-curvature="0"/>
      <path id="path959" d="m 26.113369,86.54444 c 0.109405,-3.397168 0.339388,-8.742367 0.511073,-11.878214 0.171682,-3.135846 0.456656,-8.807694 0.633268,-12.604107 0.366629,-7.880837 0.829154,-12.516135 1.306267,-13.091018 0.229311,-0.276307 0.214806,-0.609851 -0.04786,-1.100652 -0.556893,-1.040557 -0.152616,-3.516047 0.82786,-5.069221 l 0.846604,-1.341103 -0.512398,-2.331903 c -0.281817,-1.282546 -0.512397,-3.45386 -0.512397,-4.825138 V 31.809855 L 27.3805,30.178203 c -1.608716,-1.470276 -1.910972,-1.622223 -3.056091,-1.536355 -1.030224,0.07725 -1.452664,0.320608 -2.231425,1.285479 -0.846512,1.04881 -0.902541,1.236934 -0.47167,1.583762 0.979438,0.788383 2.461564,13.525348 1.770044,15.211226 -0.127193,0.310088 -0.292758,3.731012 -0.367918,7.602057 -0.07516,3.871039 -0.243842,8.249835 -0.374842,9.730653 -0.220185,2.489001 -0.198372,2.659554 0.288734,2.257672 0.341882,-0.282072 0.538,-0.949444 0.558487,-1.900514 0.02598,-1.206118 0.0765,-1.325505 0.285176,-0.673912 0.462622,1.444542 0.326001,2.184688 -0.597396,3.23638 l -0.914147,1.041157 -0.115297,10.366778 -0.115297,10.366777 0.712693,0.499261 0.712692,0.499261 0.0075,-3.581426 c 0.0112,-5.333319 2.072149,-29.203271 2.498587,-28.938216 0.102467,0.06369 0.143694,-1.993179 0.09162,-4.570825 -0.08435,-4.174898 -0.162171,-4.747707 -0.712692,-5.245922 -0.574257,-0.519695 -0.617513,-1.009859 -0.611045,-6.924427 0.0061,-5.601479 0.08027,-6.526653 0.618017,-7.711338 0.429818,-0.946912 0.803555,-1.346198 1.260054,-1.346198 0.739252,0 0.754241,0.147662 0.337591,3.3259 -0.181847,1.387149 -0.173989,3.343854 0.021,5.226413 0.400166,3.863687 0.416266,7.222456 0.03691,7.701262 -0.163811,0.206756 -0.379247,3.868116 -0.478748,8.136354 -0.0995,4.268241 -0.397466,9.898511 -0.662137,12.511719 -0.46044,4.546065 -0.871715,10.397191 -1.317944,18.750178 -0.19526,3.65502 -0.168598,3.915856 0.495654,4.848709 0.386109,0.542244 0.738877,0.942051 0.783931,0.888468 0.04506,-0.05358 0.17143,-2.876928 0.280836,-6.274096 z" style="fill:#85fafa;fill-opacity:1;stroke:#000000;stroke-width:0.21602426;stroke-miterlimit:4;stroke-dasharray:none;stroke-opacity:1" inkscape:connector-curvature="0"/>
      <path id="path957" d="m 16.789248,87.997776 c 0.476169,-0.573751 0.224771,-1.489481 -0.618393,-2.252534 -0.616035,-0.557507 -0.625377,-0.537934 -0.622666,1.304421 0.0014,1.028734 0.104426,2.654381 0.228695,3.612557 l 0.225938,1.742138 0.197067,-1.966955 c 0.108391,-1.08182 0.373601,-2.179655 0.589359,-2.439627 z" style="fill:#85fafa;fill-opacity:1;stroke:#000000;stroke-width:0.21602426;stroke-miterlimit:4;stroke-dasharray:none;stroke-opacity:1" inkscape:connector-curvature="0"/>
      <path id="path955" d="m 34.058339,90.783329 c 0.945095,-0.362664 1.257761,-1.529554 1.475307,-5.505901 0.119141,-2.177669 0.39146,-6.240018 0.605148,-9.027438 0.222872,-2.907166 0.104634,-7.436529 0.0021,-10.343696 -0.18052,-5.114204 -0.578057,-10.086832 -0.994976,-10.086832 -0.32089,0 -0.80773,2.488368 -1.208443,6.176672 -0.26803,2.467046 -0.672572,28.983783 -0.442167,28.983016 0.0293,-9.6e-5 0.282709,-0.08822 0.563114,-0.195821 z" style="fill:#85fafa;fill-opacity:1;stroke:#000000;stroke-width:0.21602426;stroke-miterlimit:4;stroke-dasharray:none;stroke-opacity:1" inkscape:connector-curvature="0"/>
      <path id="path953" d="m 25.386228,69.281437 c 0.369219,-4.006916 0.622339,-7.712918 0.562483,-8.235561 -0.177249,-1.54775 -1.634007,14.843933 -1.71717,19.321894 l -0.07647,4.117779 0.279922,-3.959404 c 0.153958,-2.177672 0.582015,-7.23779 0.951234,-11.244708 z" style="fill:#85fafa;fill-opacity:1;stroke:#000000;stroke-width:0.21602426;stroke-miterlimit:4;stroke-dasharray:none;stroke-opacity:1" inkscape:connector-curvature="0"/>
      <path id="path951" d="m 13.51766,80.461237 c -0.268005,-0.574051 -0.627916,-1.970225 -0.799804,-3.102616 l -0.312518,-2.058891 0.113194,2.591097 c 0.08277,1.894586 0.270657,2.802015 0.698979,3.37577 0.753929,1.009908 0.928706,0.540947 0.300149,-0.80536 z" style="fill:#85fafa;fill-opacity:1;stroke:#000000;stroke-width:0.21602426;stroke-miterlimit:4;stroke-dasharray:none;stroke-opacity:1" inkscape:connector-curvature="0"/>
      <path id="path949" d="m 34.338721,57.086472 c 0.451984,-2.003458 0.969636,-4.140594 1.150328,-4.749196 0.180694,-0.608597 0.319821,-1.321291 0.309164,-1.583759 -0.04582,-1.128983 -2.234609,7.07204 -2.66994,10.003846 -0.516505,3.478489 -0.621008,8.638623 -0.240647,11.882698 0.185348,1.580827 0.280613,0.494527 0.43343,-4.942384 0.165211,-5.877995 0.324474,-7.53862 1.017665,-10.611205 z" style="fill:#85fafa;fill-opacity:1;stroke:#000000;stroke-width:0.21602426;stroke-miterlimit:4;stroke-dasharray:none;stroke-opacity:1" inkscape:connector-curvature="0"/>
      <path id="path947" d="m 22.62465,55.185958 c 0.107555,-4.290117 0.07407,-6.370445 -0.08411,-5.226415 -0.144534,1.045285 -0.327822,5.250171 -0.407307,9.344194 -0.07949,4.094026 -0.04164,6.445911 0.08411,5.226417 0.125751,-1.219497 0.309041,-5.424386 0.407311,-9.344196 z" style="fill:#85fafa;fill-opacity:1;stroke:#000000;stroke-width:0.21602426;stroke-miterlimit:4;stroke-dasharray:none;stroke-opacity:1" inkscape:connector-curvature="0"/>
      <path id="path945" d="m 26.216612,58.115918 c -0.07967,-0.304874 -0.144863,-0.05543 -0.144863,0.554317 0,0.609747 0.06519,0.85919 0.144863,0.554316 0.07967,-0.304872 0.07967,-0.803759 0,-1.108633 z" style="fill:#85fafa;fill-opacity:1;stroke:#000000;stroke-width:0.21602426;stroke-miterlimit:4;stroke-dasharray:none;stroke-opacity:1" inkscape:connector-curvature="0"/>
      <path id="path943" d="m 32.039945,51.226553 -0.312942,-2.217265 0.142529,2.217265 c 0.07838,1.219497 0.171856,3.215037 0.207711,4.434534 l 0.06519,2.217268 0.105227,-2.217268 c 0.05787,-1.219497 -0.0356,-3.215037 -0.207713,-4.434534 z" style="fill:#85fafa;fill-opacity:1;stroke:#000000;stroke-width:0.21602426;stroke-miterlimit:4;stroke-dasharray:none;stroke-opacity:1" inkscape:connector-curvature="0"/>
      <path id="path941" d="m 35.643285,48.613347 c 0.176433,-0.808541 0.121292,-1.029446 -0.256968,-1.029446 -0.734527,0 -0.909503,0.526956 -0.661221,1.991329 0.241913,1.426828 0.442889,1.216294 0.918189,-0.961883 z" style="fill:#85fafa;fill-opacity:1;stroke:#000000;stroke-width:0.21602426;stroke-miterlimit:4;stroke-dasharray:none;stroke-opacity:1" inkscape:connector-curvature="0"/>
      <path id="path939" d="m 31.565453,45.186323 c 1.951749,-3.490051 3.989598,-10.049518 3.412309,-10.983596 -0.109106,-0.17653 -0.644709,0.802594 -1.190232,2.175838 -0.545524,1.373245 -1.803224,3.7079 -2.794891,5.188124 -1.920596,2.866803 -2.572506,4.960382 -1.825035,5.861024 0.548178,0.660517 1.023466,0.216239 2.397849,-2.24139 z" style="fill:#85fafa;fill-opacity:1;stroke:#000000;stroke-width:0.21602426;stroke-miterlimit:4;stroke-dasharray:none;stroke-opacity:1" inkscape:connector-curvature="0"/>
      <path id="path937" d="m 18.653964,45.900327 c 0.05466,-0.661753 -0.262269,-2.656105 -0.70429,-4.431901 -0.442016,-1.775793 -0.945691,-4.312809 -1.119274,-5.637813 -0.47274,-3.608533 -1.102191,-4.909506 -1.906487,-3.940392 -0.637692,0.768374 -0.485074,3.659079 0.281368,5.329219 0.471657,1.027785 0.780605,2.553114 0.962351,4.751285 0.147223,1.780646 0.37466,3.522612 0.505417,3.871039 0.693189,1.847151 1.830404,1.880772 1.980915,0.05856 z" style="fill:#85fafa;fill-opacity:1;stroke:#000000;stroke-width:0.21602426;stroke-miterlimit:4;stroke-dasharray:none;stroke-opacity:1" inkscape:connector-curvature="0"/>
      <path id="path935" d="m 26.712787,45.920937 c 0.08116,-0.740409 0.0095,-2.629045 -0.159236,-4.19697 -0.298219,-2.771102 -0.155133,-7.824255 0.262341,-9.265005 0.286877,-0.990033 -0.306449,-0.896464 -1.004252,0.158377 -0.516197,0.780305 -0.568111,1.531161 -0.498256,7.206114 0.04289,3.484276 0.152871,6.584489 0.2444,6.889363 0.318643,1.061356 1.003321,0.591928 1.155003,-0.791879 z" style="fill:#85fafa;fill-opacity:1;stroke:#000000;stroke-width:0.21602426;stroke-miterlimit:4;stroke-dasharray:none;stroke-opacity:1" inkscape:connector-curvature="0"/>
      <path id="path933" d="m 36.094261,46.043027 c 1.233818,-1.320805 2.032165,-4.141122 2.193687,-7.749631 0.156702,-3.500688 -0.341404,-4.897951 -0.689679,-1.934674 -0.128722,1.09523 -0.826912,3.184945 -1.787825,5.351022 -0.867139,1.954707 -1.576621,3.933507 -1.576621,4.397325 0,1.126441 0.773226,1.099824 1.860438,-0.06404 z" style="fill:#85fafa;fill-opacity:1;stroke:#000000;stroke-width:0.21602426;stroke-miterlimit:4;stroke-dasharray:none;stroke-opacity:1" inkscape:connector-curvature="0"/>
      <path id="path931" d="m 23.008312,45.190627 c 0.233969,-1.560191 0.184661,-2.19099 -0.685656,-8.77226 -0.316775,-2.395438 -0.688394,-4.355345 -0.825817,-4.355345 -0.308726,0 -0.270864,-0.655566 -0.384176,6.651801 -0.07433,4.793149 0.0027,6.371779 0.344154,7.047738 0.67147,1.329507 1.301168,1.097382 1.551495,-0.571934 z" style="fill:#85fafa;fill-opacity:1;stroke:#000000;stroke-width:0.21602426;stroke-miterlimit:4;stroke-dasharray:none;stroke-opacity:1" inkscape:connector-curvature="0"/>
      <path id="path929" d="m 31.35993,37.783218 c -0.03038,-2.728795 -0.41243,-5.332185 -0.846175,-5.765931 -0.613094,-0.613095 -0.813166,2.355786 -0.391003,5.802062 0.349473,2.852852 0.444921,3.156503 0.827664,2.633071 0.268608,-0.367342 0.423871,-1.379333 0.409514,-2.669202 z" style="fill:#85fafa;fill-opacity:1;stroke:#000000;stroke-width:0.21602426;stroke-miterlimit:4;stroke-dasharray:none;stroke-opacity:1" inkscape:connector-curvature="0"/>
      <path id="path1022" d="m 20.032086,32.614696 c 1.445445,-2.973599 2.500106,-4.236786 3.770306,-4.515771 0.957822,-0.210373 2.498764,0.423567 3.700443,1.522354 0.871112,0.796518 0.897491,0.55849 0.108163,-0.975958 -0.914742,-1.778243 -2.516965,-3.867594 -2.96587,-3.867594 -0.219398,0 -2.066565,1.674826 -4.104816,3.721837 l -3.705906,3.721839 0.343297,2.291468 0.343299,2.291464 0.621052,-0.789542 c 0.341583,-0.434248 1.192095,-1.964293 1.890032,-3.400097 z" style="fill:#85fafa;fill-opacity:1;stroke:#000000;stroke-width:0.21602426;stroke-miterlimit:4;stroke-dasharray:none;stroke-opacity:1" inkscape:connector-curvature="0"/>
    </g>
    <path sodipodi:nodetypes="ssssssssssssssssscsssssssssss" inkscape:connector-curvature="0" id="path3050" d="m 91.121898,135.46749 c -1.119599,-0.32003 -1.901513,-1.1322 -2.797485,-2.08805 -1.603438,-1.71058 -1.628581,-1.92293 -1.599329,-13.50726 0.05377,-21.30516 3.022915,-37.473403 7.831906,-42.648421 2.17465,-2.340176 6.86341,-5.433392 8.24973,-5.442419 1.68147,-0.01094 7.31,6.303964 9.2515,10.379695 2.77506,5.825578 3.82586,22.389465 1.97462,31.125895 -1.25265,5.9115 -3.70819,10.3232 -9.01411,16.19508 -2.27588,2.51864 -5.0311,4.26009 -6.05878,5.86612 -0.26395,0.41249 -1.1133,0.3668 -1.4574,0.32644 -0.52759,-0.0619 -1.05385,-0.84778 -1.54457,-0.79958 -0.45569,0.0448 -1.04376,0.91223 -1.46959,0.8387 -0.651717,-0.11254 -1.267304,-0.60992 -1.843189,-0.97962 -0.40692,-0.26124 -1.032702,0.87366 -1.523303,0.73342 z m 11.890902,-5.54321 c 9.81346,-10.07256 12.11118,-18.50767 10.01296,-36.758479 -0.96639,-8.405877 -2.25632,-11.565708 -6.6141,-16.201992 l -3.7901,-4.032316 -3.41532,2.453657 c -5.567625,3.999943 -7.35531,8.041721 -9.535988,21.55992 -0.815316,5.05424 -1.531937,13.53773 -1.770051,20.95411 -0.354718,11.04833 -0.271302,12.65814 0.73556,14.1948 0.744594,1.1364 1.442377,2.05098 2.451383,2.45752 0.420421,0.16939 1.002416,-0.57227 1.565802,-0.54599 0.578303,0.027 1.142908,0.81977 1.957324,0.83277 0.46677,0.007 0.89613,-0.87175 1.30781,-0.8033 0.58671,0.0976 1.43536,1.04785 2.12366,0.82835 0.58599,-0.18688 1.1484,-0.81458 1.87063,-1.60792 0.81296,-0.893 1.81862,-2.01547 3.10043,-3.33113 z" style="fill:#85fafa;fill-opacity:1;stroke:#000000;stroke-width:0.21602426;stroke-miterlimit:4;stroke-dasharray:none;stroke-opacity:1" nodetypes="ssssssssssssssssscsssssssssss" connector-curvature="0" ontology="NULL"/>
    <path sodipodi:nodetypes="ccccccccc" inkscape:connector-curvature="0" id="path4061" d="m 92.835075,133.19104 c -1.614919,-3.37664 -1.541515,-7.12031 -1.541515,-7.12031 -0.146809,-1.54152 0.367028,-2.93622 0.367028,-2.93622 0.513838,-5.43199 3.450052,-34.647315 3.450052,-34.647315 0.58724,-6.092643 6.8267,-13.653394 6.8267,-13.653394 -1.71265,3.482372 -3.72423,8.418035 -4.69709,10.60343 -1.64701,10.331235 -2.34458,21.047729 -3.450908,31.531239 -0.660646,6.01923 -1.3947,7.63415 -1.3947,7.63415 -0.807458,5.87243 0.440433,8.58842 0.440433,8.58842 z" style="fill:#85fafa;fill-opacity:1;stroke:#000000;stroke-width:0.21602426;stroke-miterlimit:4;stroke-dasharray:none;stroke-opacity:1" nodetypes="ccccccccc" connector-curvature="0" ontology="NULL"/>
    <path style="fill:#85fafa;fill-opacity:1;stroke:#000000;stroke-width:0.21602426;stroke-miterlimit:4;stroke-dasharray:none;stroke-opacity:1" d="m 96.50883,133.58527 c 2.08297,-2.67227 3.00957,-5.74748 4.13731,-9.02194 0.97275,-4.05225 4.30332,-17.27436 4.7138,-37.546581 -0.15805,-6.289088 -2.1175,-12.048469 -2.1175,-12.048469 0.22607,3.557851 0.51402,7.657519 0.53073,10.959857 -0.15057,11.750353 -1.37005,19.698563 -2.94309,30.452773 -1.00182,5.79361 -1.96304,9.44814 -1.96304,9.44814 -1.19282,5.61012 -2.35821,7.75622 -2.35821,7.75622 z" id="path4063" inkscape:connector-curvature="0" sodipodi:nodetypes="cccccccc" connector-curvature="0" nodetypes="cccccccc" ontology="NULL"/>
    <path inkscape:label="PO_0009010" sodipodi:nodetypes="cccccccccccccccccc" inkscape:connector-curvature="0" id="seed" d="m 102.63802,72.915989 c -4.36005,2.595272 -7.00723,5.527928 -7.00723,5.527928 l -0.72667,0.830487 C 92.620279,82.077296 90.959306,88.825 90.959306,88.825 c -2.802892,12.56111 -3.425758,31.97373 -3.425758,31.97373 0.10381,12.04206 0.519054,10.58871 0.519054,10.58871 l 0.934298,1.34954 1.14192,1.24573 c 1.141917,1.34954 2.180026,0.20762 2.180026,0.20762 l 0.726675,-0.20762 c 1.141919,1.45335 2.076219,0.62286 2.076219,0.62286 0.93429,-1.24573 1.45335,-0.10381 1.45335,-0.10381 1.34954,1.45335 2.59527,-0.62286 2.59527,-0.62286 v 0 l 1.45335,-1.45336 c 11.33535,-10.37064 12.39649,-19.82786 12.39649,-19.82786 1.29761,-6.02088 1.6037,-24.798737 -3.75393,-32.166336 -2.58606,-3.660493 -6.61825,-7.515355 -6.61825,-7.515355 z" style="fill:#85fafa;fill-opacity:1;stroke:#000000;stroke-width:0.21602426;stroke-miterlimit:4;stroke-dasharray:none;stroke-opacity:1" label="PO_0009010" nodetypes="cccccccccccccccccc" connector-curvature="0" ontology="PO_0009010"/>
    <g transform="matrix(0.20553494,0,0,0.20553494,6.0000004,0.02938277)" style="fill:#85fafa;fill-opacity:1;stroke:#000000;stroke-width:0.21602426;stroke-miterlimit:4;stroke-dasharray:none;stroke-opacity:1" inkscape:label="PO_0009066" id="anther" label="PO_0009066" ontology="PO_0009066">
      <path d="m 43.125,155.31361 c 2.053572,-2.23215 3.214286,-1.60715 3.214286,-1.60715 2.095041,0.89286 3.251269,4.91072 3.251269,4.91072 1.080403,2.60089 2.105874,9.28571 2.105874,9.28571 1.480874,8.92486 2.563135,16.04527 2.563135,16.04527 1.696428,8.125 3.686865,16.6333 3.686865,16.6333 2.053571,8.57143 2.80484,13.75 2.80484,13.75 2.053572,11.69643 -0.394126,13.75 -0.394126,13.75 -1.517857,2.5 -2.857143,1.78572 -2.857143,1.78572 -3.928571,-0.80357 -5.803571,-7.41072 -5.803571,-7.41072 -1.071429,-2.5 -1.607143,-11.07143 -1.607143,-11.07143 -1.160714,-16.60714 -2.5,-21.33928 -2.5,-21.33928 -0.982143,-4.28572 -2.142857,-7.5 -2.142857,-7.5 -3.072698,-6.58099 -3.482143,-11.96429 -3.482143,-11.96429 C 40.372462,158.44309 43.125,155.31361 43.125,155.31361 Z" id="path3759" inkscape:connector-curvature="0" sodipodi:nodetypes="ccccccccccccccc" style="fill:#85fafa;fill-opacity:1;stroke:#000000;stroke-width:0.21602426;stroke-miterlimit:4;stroke-dasharray:none;stroke-opacity:1"/>
      <path d="m 74.017857,160.40289 c 0.08929,-6.875 1.607143,-3.92857 1.607143,-3.92857 2.971736,8.21428 8.681766,51.25 7.589286,60.26786 -1.339285,15.53571 -6.517857,8.48214 -6.517857,8.48214 -5.553603,-7.95239 -3.618782,-23.4384 -3.035715,-38.75 -0.08929,-14.46429 0.357143,-26.07143 0.357143,-26.07143 z" id="path3761" inkscape:connector-curvature="0" sodipodi:nodetypes="cccccc" style="fill:#85fafa;fill-opacity:1;stroke:#000000;stroke-width:0.21602426;stroke-miterlimit:4;stroke-dasharray:none;stroke-opacity:1"/>
      <path d="m 94.642857,162.90289 c 0.446429,-5.26786 5.267858,-8.21428 5.267858,-8.21428 1.874995,-1.16072 1.696425,1.60714 1.696425,1.60714 -1.33928,5.89286 -1.696425,9.73214 -1.696425,9.73214 -1.339485,12.50013 0.251685,42.00483 0.803575,44.19643 1.33928,24.375 -4.107147,19.46429 -4.107147,19.46429 -2.748646,-0.53855 -2.363902,-17.55721 -2.678571,-46.16072 -0.446429,-17.23214 0.714285,-20.625 0.714285,-20.625 z" id="path3763" inkscape:connector-curvature="0" sodipodi:nodetypes="cccccccc" style="fill:#85fafa;fill-opacity:1;stroke:#000000;stroke-width:0.21602426;stroke-miterlimit:4;stroke-dasharray:none;stroke-opacity:1"/>
      <path d="m 119.46429,156.02789 c 5.625,9.82143 4.37669,35.00001 2.67857,39.28572 -2.05357,4.91071 -2.85715,1.16071 -2.85715,1.16071 -5.17857,-25.17857 -2.58928,-38.03571 -2.58928,-38.03571 v 0 l 0.44643,-1.51786 c 0.98214,-2.67857 2.32143,-0.89286 2.32143,-0.89286 z" id="path3765" inkscape:connector-curvature="0" sodipodi:nodetypes="ccccccc" style="fill:#85fafa;fill-opacity:1;stroke:#000000;stroke-width:0.21602426;stroke-miterlimit:4;stroke-dasharray:none;stroke-opacity:1"/>
      <path d="m 140.80357,166.29575 c 1.60714,1.42857 -0.17857,9.64286 -0.17857,9.64286 -4.64286,21.07142 -10.26786,31.42857 -10.26786,31.42857 -4.375,10.08928 -6.16071,12.85714 -6.16071,12.85714 -4.64286,8.48215 -6.42857,10 -6.42857,10 -2.85715,3.39286 -4.82143,0.98214 -4.82143,0.98214 -3.39286,-4.28571 -0.80357,-10.625 -0.80357,-10.625 2.58928,-8.57143 6.51785,-13.92857 6.51785,-13.92857 3.57143,-5.08928 6.33929,-9.73214 6.33929,-9.73214 5.80357,-9.91071 7.85714,-14.55357 7.85714,-14.55357 3.57143,-8.39286 4.82143,-11.07143 4.82143,-11.07143 2.14286,-4.82143 3.125,-5 3.125,-5 z" id="path3767" inkscape:connector-curvature="0" sodipodi:nodetypes="cccccccccccc" style="fill:#85fafa;fill-opacity:1;stroke:#000000;stroke-width:0.21602426;stroke-miterlimit:4;stroke-dasharray:none;stroke-opacity:1"/>
      <path d="m 156.07143,169.42075 c 1.78571,3.125 1.07143,18.125 1.07143,18.125 -0.98215,16.60714 -4.375,25 -4.375,25 -3.83929,10.53572 -8.125,13.21428 -8.125,13.21428 -4.01786,3.83929 -5.26786,2.5 -5.26786,2.5 -4.46429,-1.25 -0.35714,-10.26785 -0.35714,-10.26785 3.92857,-10.71429 6.16071,-15.26786 6.16071,-15.26786 7.85714,-19.46429 7.85714,-22.58929 7.85714,-22.58929 0.80358,-4.19642 0.89286,-5.44642 0.89286,-5.44642 1.16071,-7.58929 2.14286,-5.26786 2.14286,-5.26786 z" id="path3769" inkscape:connector-curvature="0" sodipodi:nodetypes="cccccccccc" style="fill:#85fafa;fill-opacity:1;stroke:#000000;stroke-width:0.21602426;stroke-miterlimit:4;stroke-dasharray:none;stroke-opacity:1"/>
    </g>
    <path inkscape:label="PO_0009009" sodipodi:nodetypes="ccccccc" inkscape:connector-curvature="0" id="plant.embryo" d="m 64.229668,55.532333 c -1.027675,0 -0.513837,1.174487 -0.513837,1.174487 0.102247,0.565478 2.795371,10.468511 3.523456,9.983125 0.587242,0 0.587242,-1.468107 0.587242,-1.468107 0.587244,-2.128756 2.624242,-2.972915 2.624242,-2.972915 2.275565,-0.146811 1.119431,-3.266538 1.119431,-3.266538 -1.669971,-5.211778 -7.340534,-3.450052 -7.340534,-3.450052 z" style="fill:#85fafa;fill-opacity:1;stroke:#000000;stroke-width:0.21602426;stroke-miterlimit:4;stroke-dasharray:none;stroke-opacity:1" label="PO_0009009" nodetypes="ccccccc" connector-curvature="0" ontology="PO_0009009"/>
    <path inkscape:label="PO_0009089" sodipodi:nodetypes="cccccccccc" inkscape:connector-curvature="0" id="endosperm" d="m 62.234588,30.777007 c 3.477661,-4.308149 9.446784,-3.010513 9.446784,-3.010513 4.515769,0.467148 10.329177,1.34954 10.329177,1.34954 0.934296,0.05191 0.519054,2.180027 0.519054,2.180027 -1.244582,20.043526 -6.671757,36.294456 -6.79961,35.399489 0.24009,-3.4971 -1.961913,-3.934316 -2.595271,-4.360053 -0.778581,-0.259527 -0.726675,-3.166231 -0.726675,-3.166231 -1.45335,-4.389638 -6.124838,-5.020812 -7.474379,-5.242446 -2.176777,0.23914 -2.048484,-2.542348 -2.128121,-3.010513 -1.193825,-15.986867 -0.570959,-20.1393 -0.570959,-20.1393 z" style="fill:#85fafa;fill-opacity:1;stroke:#000000;stroke-width:0.21602426;stroke-miterlimit:4;stroke-dasharray:none;stroke-opacity:1" label="PO_0009089" nodetypes="cccccccccc" connector-curvature="0" ontology="PO_0009089"/>
    <path inkscape:label="PO_0009030" sodipodi:nodetypes="cccccccccccccccccccccc" inkscape:connector-curvature="0" id="carpel" d="M 23.47047,108.99066 C 15.909721,94.01597 16.570369,94.23618 16.570369,94.23618 c -1.027675,-5.064967 0.734053,-6.606479 0.734053,-6.606479 0,-1.174484 -1.541512,-2.569186 -1.541512,-2.569186 -3.376646,0.146811 -4.551131,-1.394701 -4.551131,-1.394701 -1.4681065,-3.743673 -0.734053,-9.028856 -0.734053,-9.028856 0.220216,-7.780964 1.394701,-8.882046 1.394701,-8.882046 1.835134,-1.247891 3.30324,-0.293621 3.30324,-0.293621 0.880864,2.055349 0.440432,5.064969 0.440432,5.064969 1.761728,-4.771348 3.670267,-4.918157 3.670267,-4.918157 2.128755,-2.202161 2.936213,-4.551132 2.936213,-4.551132 1.981944,-2.495782 3.596862,-0.0734 3.596862,-0.0734 1.174486,4.918157 0.14681,6.75329 0.14681,6.75329 -1.541512,1.835133 -4.624536,3.596861 -4.624536,3.596861 -1.981944,0.734054 -1.10108,10.129935 -1.10108,10.129935 -0.293621,2.642594 -1.614917,3.303241 -1.614917,3.303241 0,2.275565 0.587242,2.715998 0.587242,2.715998 3.817078,1.468107 6.019238,4.697941 6.019238,4.697941 3.670266,3.376643 5.431995,10.937393 5.431995,10.937393 v 0 1.24789 c -1.835133,5.21178 -7.193723,4.62454 -7.193723,4.62454 z" style="fill:#85fafa;fill-opacity:1;stroke:#000000;stroke-width:0.21602426;stroke-miterlimit:4;stroke-dasharray:none;stroke-opacity:1" label="PO_0009030" nodetypes="cccccccccccccccccccccc" connector-curvature="0" ontology="PO_0009030"/>
  </g>
</svg>
