<?xml version="1.0" encoding="UTF-8" standalone="no"?>
<!-- Created with Inkscape (http://www.inkscape.org/) -->
<svg xmlns:dc="http://purl.org/dc/elements/1.1/" xmlns:cc="http://creativecommons.org/ns#" xmlns:rdf="http://www.w3.org/1999/02/22-rdf-syntax-ns#" xmlns:svg="http://www.w3.org/2000/svg" xmlns="http://www.w3.org/2000/svg" xmlns:sodipodi="http://sodipodi.sourceforge.net/DTD/sodipodi-0.dtd" xmlns:inkscape="http://www.inkscape.org/namespaces/inkscape" width="123.11169" height="89.384377" viewBox="0 0 123.11169 89.384377" preserveAspectRatio="none" id="svg2" version="1.1" inkscape:version="0.92.3 (unknown)" sodipodi:docname="rattus_norvegicus.svg">
  <defs id="defs4"/>
  <sodipodi:namedview id="base" pagecolor="#ffffff" bordercolor="#666666" borderopacity="1.0" inkscape:pageopacity="0.0" inkscape:pageshadow="2" inkscape:zoom="2.8" inkscape:cx="-1.53728" inkscape:cy="-0.099784429" inkscape:document-units="px" inkscape:current-layer="LAYER_EFO" showgrid="false" inkscape:window-width="1680" inkscape:window-height="1006" inkscape:window-x="75" inkscape:window-y="34" inkscape:window-maximized="0" fit-margin-top="0" fit-margin-left="0" fit-margin-right="0" fit-margin-bottom="0"/>
  <metadata id="metadata">
    <rdf:RDF>
      <cc:Work rdf:about="">
        <dc:format>image/svg+xml</dc:format>
        <dc:type rdf:resource="http://purl.org/dc/dcmitype/StillImage"/>
        <dc:title/>
      </cc:Work>
    </rdf:RDF>
  </metadata>
  <g inkscape:label="EFO" id="container" inkscape:groupmode="layer" label="EFO" groupmode="layer">
    <g id="rat_outline" style="fill:#7dfafa;fill-opacity:1;stroke:#000000;stroke-opacity:1" ontology="NULL">
      <path id="path850" d="m 81.284793,89.327184 c -0.757261,-0.0362 -3.533162,-0.1898 -6.168666,-0.3417 -2.635503,-0.152 -7.38561,-0.2771 -10.555784,-0.2782 -7.165565,0 -11.658852,-0.3602 -16.263433,-1.295 -2.729789,-0.5543 -5.747253,-1.8478 -5.747253,-2.4638 0,-0.3671 0.274115,-0.3513 1.674188,0.0965 4.387519,1.4032 6.298086,1.6385 14.847904,1.8294 9.865497,0.2203 33.771139,0.2234 37.673379,0.0095 1.745106,-0.0976 4.818812,-0.2671 6.830472,-0.3764 8.31486,-0.4519 12.75928,-2.0906 14.72068,-5.4277 0.47927,-0.8154 0.53039,-1.0625 0.53039,-2.5641 0,-1.5471 -0.0468,-1.756 -0.67883,-3.029 -0.81709,-1.6459 -2.69062,-4.0264 -4.24364,-5.392 -1.67215,-1.4704 -7.65337,-6.0603 -9.82656,-7.5408 -1.03747,-0.7068 -3.4701,-2.4621 -5.40586,-3.9008 -4.420348,-3.285 -5.655884,-3.9014 -7.821412,-3.9014 -0.819146,0 -1.399682,0.1679 -2.905894,0.8402 -2.289154,1.0217 -3.713774,1.195 -6.083329,0.7397 -2.237465,-0.4297 -2.966176,-0.377 -5.149715,0.3723 -2.648397,0.9088 -3.667537,1.1371 -5.715215,1.2802 l -1.752158,0.1223 -0.314873,0.7613 c -0.405804,0.9812 -1.284061,2.0413 -2.125133,2.5654 -2.21471,1.3796 -6.82013,2.5458 -11.289717,2.8584 -1.830386,0.128 -2.9159,0.3169 -4.520055,0.7863 -1.16113,0.3397 -2.26373,0.7035 -2.450213,0.8082 -0.30622,0.1719 -0.272848,0.2295 0.344453,0.5937 l 0.683522,0.4033 2.501233,-0.8337 c 2.106865,-0.7021 2.72551,-0.8335 3.923747,-0.8335 0.78239,0 1.422524,0.0705 1.422524,0.1574 0,0.0867 -0.475016,0.1585 -1.055581,0.1597 -0.639334,0 -1.779489,0.2204 -2.891371,0.5553 -1.009677,0.3042 -2.356051,0.701 -2.991925,0.8818 -0.635874,0.1807 -1.198371,0.3969 -1.249993,0.4805 -0.194725,0.315 2.982301,0.1511 4.432584,-0.2288 0.799191,-0.2093 1.642817,-0.3443 1.874746,-0.3 0.231919,0.0438 0.46685,0.0095 0.522073,-0.082 0.165184,-0.2672 1.922193,-1.1001 2.154198,-1.021 0.118223,0.04 -0.26006,0.378 -0.840625,0.7504 -1.131827,0.7261 -1.177587,0.7967 -0.826111,1.2754 0.209334,0.285 0.339535,0.2385 1.483436,-0.5295 1.456782,-0.9781 2.84013,-1.5322 5.47935,-2.1949 2.302858,-0.5782 6.77619,-2.0294 7.730721,-2.5079 0.869556,-0.4358 1.354045,-1.2158 1.506402,-2.4252 0.158113,-1.2551 0.451145,-2.158 0.658745,-2.0297 0.102861,0.0639 0.101184,0.2319 -0.0038,0.4289 -0.09545,0.1783 -0.228107,0.7723 -0.294804,1.3198 -0.190485,1.5638 -0.682473,2.4255 -1.692761,2.9647 -1.009401,0.5388 -5.619539,2.0806 -8.671042,2.8999 -2.071759,0.5563 -3.334454,1.1355 -4.817595,2.2099 -0.964079,0.6984 -1.515284,0.6999 -1.87445,0.0095 -0.151929,-0.2938 -0.376777,-0.5677 -0.499669,-0.6086 -0.122892,-0.041 -0.970778,0.1197 -1.884199,0.3568 -1.275893,0.3315 -2.043951,0.4193 -3.314308,0.3792 l -1.653557,-0.0524 -0.0076,-0.5254 c -0.0057,-0.3836 -0.144887,-0.5975 -0.516079,-0.792 -0.632739,-0.3316 -0.598719,-0.968 0.0688,-1.2869 0.254723,-0.1217 1.516675,-0.5099 2.804356,-0.8629 1.804113,-0.4945 2.856045,-0.669 4.585294,-0.7603 2.540133,-0.1341 6.250934,-0.7727 8.026802,-1.3812 2.671115,-0.9152 4.043933,-1.8702 4.792007,-3.3335 0.574124,-1.1229 0.520368,-1.1842 -1.166323,-1.3291 -4.162042,-0.3576 -6.593767,-1.137 -14.067963,-4.5095 l -1.722293,-0.7771 -2.500023,0.0829 c -2.82169,0.0934 -3.489145,0.298 -5.070125,1.5568 -1.479463,1.178 -3.882371,5.6832 -5.126178,9.6112 -0.363836,1.1489 -0.844866,2.3566 -1.068942,2.6837 -0.512019,0.7472 -1.635775,1.3906 -2.296082,1.3147 -0.443903,-0.0515 -0.500756,-0.131 -0.475684,-0.6677 0.02354,-0.5035 -0.02439,-0.5864 -0.275373,-0.4766 -2.044266,0.8941 -3.745756,1.0418 -3.846854,0.3339 -0.04936,-0.3459 -0.14766,-0.3764 -0.960706,-0.2983 -0.752363,0.0724 -0.927191,0.0314 -1.03272,-0.244 -0.160848,-0.4192 0.262947,-0.7103 2.2145,-1.5212 0.811188,-0.337 1.696697,-0.7707 1.967801,-0.9638 0.271105,-0.1929 0.60113,-0.3509 0.73339,-0.3509 0.48709,0 -0.302552,0.5412 -2.40916,1.6514 -1.738874,0.9164 -1.981056,1.0915 -1.375981,0.9951 0.63493,-0.1011 2.630119,-0.7018 3.625674,-1.0914 0.176696,-0.0696 0.321268,-0.0458 0.321268,0.0533 0,0.0985 -0.619579,0.4155 -1.37684,0.7047 -1.030328,0.3933 -1.376849,0.6114 -1.376849,0.8665 0,0.299 0.0957,0.3249 0.780218,0.2107 0.898459,-0.15 3.238281,-0.9559 3.584221,-1.2346 0.128648,-0.1037 0.287838,-0.1345 0.353754,-0.0686 0.06594,0.0658 -0.02106,0.2228 -0.193249,0.3488 -0.172207,0.1259 -0.331397,0.4761 -0.353763,0.7783 -0.04841,0.6546 0.289048,0.663 1.265306,0.0314 0.53267,-0.3447 0.761387,-0.7663 1.661199,-3.0616 1.59638,-4.0724 2.56287,-6.1934 3.271635,-7.18 0.354974,-0.4941 0.645414,-0.9648 0.645414,-1.046 0,-0.243 1.511043,-1.7734 2.223219,-2.2518 1.262362,-0.8478 3.694897,-3.3366 5.443768,-5.5697 0.228593,-0.2919 0.467288,-0.479 0.53044,-0.4159 0.06318,0.0629 -0.123874,0.4266 -0.415619,0.8076 -0.291746,0.381 -0.715865,0.9645 -0.942495,1.2967 -0.538483,0.7894 -0.703705,0.984 -1.765995,2.0801 l -0.893009,0.9216 0.617635,-0.0968 c 1.529969,-0.2397 3.451247,-0.2948 4.332601,-0.1242 0.528705,0.1023 2.34614,0.797 4.03873,1.5438 4.213415,1.8589 4.197672,1.8556 3.070544,0.6509 -1.188928,-1.2709 -1.611294,-1.9792 -2.116547,-3.5496 -0.46989,-1.4605 -0.554207,-4.0109 -0.19504,-5.8991 0.290554,-1.52749 1.285775,-4.66575 1.479605,-4.66575 0.08681,0 0.0019,0.50243 -0.189637,1.1165 -1.755379,5.64005 -1.32619,9.83935 1.297735,12.69775 1.689807,1.8408 3.453191,2.549 7.860455,3.1566 4.034013,0.5562 6.107239,0.363 9.877171,-0.9199 2.141057,-0.7287 3.422048,-0.8034 5.700596,-0.3321 2.268685,0.4692 3.469152,0.2889 6.178748,-0.9276 l 2.269447,-1.019 1.08681,0.2762 c 1.583467,0.4025 3.418808,1.3625 5.400903,2.825 2.003384,1.4782 7.198814,5.2155 8.495204,6.1109 2.4153,1.6683 7.56803,5.7414 9.00398,7.1173 1.98632,1.9034 3.09203,3.34 3.96009,5.1455 0.60034,1.2486 0.66197,1.5221 0.66197,2.9373 0,1.3244 -0.0751,1.7134 -0.49649,2.5713 -1.25372,2.5528 -4.03341,4.2075 -8.59066,5.1139 -5.28586,1.0515 -10.258239,1.2204 -35.522501,1.2073 -22.277245,-0.0114 -23.490349,-0.0496 -26.862901,-0.8287 -1.759811,-0.4069 -2.257345,-0.4373 -1.280992,-0.0781 1.118438,0.4111 4.117139,0.9723 6.848747,1.2817 3.85282,0.4363 7.091654,0.5854 13.56939,0.6243 3.222492,0.019 6.939964,0.1194 8.261046,0.2221 5.271407,0.4102 20.786413,0.5638 25.682231,0.2542 0.88988,-0.0562 3.69863,-0.2188 6.24168,-0.361 4.65796,-0.2607 6.31391,-0.4979 8.42845,-1.2074 4.42159,-1.4836 7.30179,-4.7565 7.30179,-8.2973 0,-2.7471 -1.52726,-6.1427 -3.93292,-8.744 -0.96466,-1.0431 -3.32494,-2.9019 -8.18269,-6.4443 -5.41622,-3.9497 -7.14067,-5.4165 -8.47866,-7.212 -2.13061,-2.859 -3.002569,-5.2899 -4.393291,-12.2475 -0.110999,-0.5553 -0.642859,-2.2488 -1.181914,-3.76333 -0.539054,-1.51453 -1.407143,-4.09587 -1.929092,-5.73632 -2.487377,-7.81778 -8.152734,-16.52428 -13.298456,-20.43701 -2.227013,-1.69339 -5.86276,-3.56584 -8.903791,-4.5855502 -2.428046,-0.81417 -6.664008,-1.50575 -9.362302,-1.52852 -3.020094,-0.02545 -4.604877,0.39064 -8.307569,2.1813402 -4.031554,1.94977 -5.269987,2.33379 -7.856195,2.43615 -1.782691,0.07052 -2.352239,0.02049 -3.57979,-0.31491 -1.483207,-0.4052 -3.974644,-1.54015 -4.335535,-1.975 -0.336849,-0.40587 0.107683,-0.2819 1.441849,0.40211 2.253066,1.15511 3.55143,1.47264 5.931563,1.45063 1.853523,-0.01716 2.333419,-0.09225 3.932495,-0.61533 1.00174,-0.32769 2.860476,-1.10599 4.130528,-1.72956 4.958173,-2.4343302 7.665501,-2.7617402 13.934226,-1.6851202 3.057307,0.52509 4.109992,0.81089 6.262389,1.7002302 4.878783,2.01583 8.024666,4.20442 10.955431,7.62169 2.876342,3.35382 4.52218,5.89257 6.816957,10.51539 1.539927,3.10218 1.817368,3.80412 2.902367,7.34315 0.464324,1.51453 1.120163,3.49718 1.457411,4.40589 0.794788,2.14155 1.461271,4.54187 1.835075,6.60887 0.700535,3.8738 1.776774,6.8634 3.293194,9.148 1.34465,2.0258 3.0073,3.4401 10.56831,8.9897 1.46404,1.0747 2.7445,2.0208 2.84547,2.1027 0.10096,0.082 0.59663,0.4615 1.10147,0.8436 3.28614,2.4868 5.42006,5.4673 6.35547,8.8769 1.4934,5.4435 -2.40972,10.2048 -9.60746,11.72 -0.73561,0.1548 -2.70055,0.362 -4.36653,0.4605 -1.66598,0.0984 -4.22691,0.2683 -5.69094,0.3775 -2.56381,0.1913 -19.020903,0.3649 -21.845881,0.2305 z" style="fill:#7dfafa;fill-opacity:1;stroke:#000000;stroke-width:0.21602426;stroke-miterlimit:4;stroke-dasharray:none;stroke-opacity:1" inkscape:connector-curvature="0"/>
      <path id="path848" d="m 27.211165,64.550884 c 0.408186,-0.997 0.396627,-1.0035 -0.874749,-0.4991 -0.658898,0.2614 -1.328382,0.4253 -1.487744,0.3641 -0.398047,-0.1528 -0.363121,-0.6001 0.08157,-1.0447 0.314626,-0.3147 0.328634,-0.3878 0.09177,-0.4787 -0.375881,-0.1442 -0.353868,-0.6819 0.04174,-1.0197 0.176695,-0.1507 0.858225,-0.5702 1.514521,-0.9321 2.616816,-1.4428 3.504145,-3.251 4.030459,-8.213 0.323621,-3.0511 0.883831,-5.9223 1.12628,-5.7725 0.0952,0.0591 0.134547,0.1692 0.08748,0.2454 -0.164489,0.2661 -0.480534,2.5207 -0.739631,5.2765 -0.538321,5.7254 -1.352397,7.2659 -4.922095,9.3145 -0.802259,0.4603 -1.001015,0.8494 -0.433954,0.8494 0.125589,0 0.917585,-0.3333 1.759973,-0.7407 0.842397,-0.4074 1.616477,-0.7124 1.720177,-0.6778 0.214823,0.0714 -1.212456,0.9739 -2.445114,1.5456 -0.702447,0.326 -1.728821,1.158 -1.428375,1.158 0.269408,0 1.826708,-0.6281 2.765372,-1.1154 0.928124,-0.4817 1.095147,-0.5175 1.32821,-0.2844 0.233063,0.2331 0.16305,0.3272 -0.556789,0.7491 -1.345316,0.7884 -1.090774,1.0333 0.65217,0.6274 1.696058,-0.3949 2.6461,-0.8364 3.294467,-1.5309 0.419488,-0.4493 0.465316,-0.6744 0.573618,-2.8174 0.108636,-2.1493 0.670142,-5.184 1.09329,-5.9089 0.256,-0.4385 0.21692,0.0371 -0.173532,2.1115 -0.189999,1.0095 -0.398885,2.4964 -0.464191,3.3041 -0.243726,3.0146 -0.328243,3.676 -0.491502,3.846 -0.104787,0.1091 -0.167481,0.0924 -0.167481,-0.0448 0,-0.1206 -0.363197,0.0581 -0.8071,0.397 -0.789623,0.6027 -2.909524,1.3151 -4.59307,1.5434 -0.651636,0.0886 -0.705516,0.0648 -0.5758,-0.252 z" style="fill:#7dfafa;fill-opacity:1;stroke:#000000;stroke-width:0.21602426;stroke-miterlimit:4;stroke-dasharray:none;stroke-opacity:1" inkscape:connector-curvature="0"/>
      <path id="path846" d="m 34.108208,62.962284 c 0.01191,-0.8591 0.415362,-3.9459 0.662014,-5.0652 0.339183,-1.5391 0.281929,-4.0733 -0.108351,-4.7953 -0.134385,-0.2486 -0.775614,-2.0248 -1.424944,-3.947 -1.177854,-3.4868 -2.765229,-7.2901 -3.710849,-8.89124 -0.651674,-1.1034 -2.381314,-3.61074 -3.685796,-5.34303 -1.80459,-2.39639 -2.612538,-3.88329 -3.232459,-5.94887 -0.138912,-0.46288 -0.371631,-0.6116 -1.76225,-1.12615 -2.174439,-0.80458 -3.938404,-1.26467 -7.401658,-1.93055 -3.333624,-0.64096 -4.6524485,-0.9885 -5.636349,-1.48531 -0.7758051,-0.39174 -1.6767037,-1.6115 -1.563846,-2.11736 0.0567,-0.25427 0.1421799,-0.1806 0.3577465,0.30847 0.5507948,1.24955 1.6330968,1.80402 4.6479985,2.3812 1.110652,0.21263 2.680254,0.51294 3.487992,0.66737 3.372257,0.6447 7.178267,1.98641 8.949475,3.1549 0.875836,0.5778 0.908561,0.93853 0.03621,0.3994 -0.358699,-0.22169 -0.689353,-0.3659 -0.73479,-0.32046 -0.146973,0.14697 0.600091,2.0862 1.123374,2.91601 0.279757,0.44365 1.387198,1.96318 2.460962,3.37676 3.773867,4.96812 4.740634,6.80939 6.698962,12.75876 0.68133,2.0699 1.355008,4.0112 1.497064,4.314 0.142046,0.303 0.386382,1.1689 0.542952,1.9244 0.307955,1.4861 0.263357,2.183 -0.305611,4.7763 -0.188302,0.8582 -0.344148,2.0286 -0.346339,2.601 -0.0019,0.5723 -0.05413,1.1713 -0.115402,1.331 -0.132413,0.345 -0.440663,0.388 -0.436127,0.061 z" style="fill:#7dfafa;fill-opacity:1;stroke:#000000;stroke-width:0.21602426;stroke-miterlimit:4;stroke-dasharray:none;stroke-opacity:1" inkscape:connector-curvature="0"/>
      <path id="path844" d="m 73.627021,60.134384 c 0.05784,-0.0934 0.420841,-0.1908 0.806566,-0.2159 1.00659,-0.0657 2.016792,-0.3632 2.345264,-0.6917 0.295729,-0.2957 0.34634,-0.547 0.287066,-1.4255 -0.02287,-0.3384 0.03564,-0.4816 0.164127,-0.4023 0.10978,0.0677 0.199595,0.571 0.199595,1.118 0,0.867 -0.06089,1.0346 -0.474426,1.3055 -0.517298,0.3389 -3.518744,0.6202 -3.328192,0.3119 z" style="fill:#7dfafa;fill-opacity:1;stroke:#000000;stroke-width:0.21602426;stroke-miterlimit:4;stroke-dasharray:none;stroke-opacity:1" inkscape:connector-curvature="0"/>
      <path id="path842" d="m 7.1189367,22.114904 c -2.3796369,-0.76403 -4.75004,-2.16613 -5.7620049,-3.40824 -1.17928364,-1.44747 -1.61532435,-3.22475 -1.20787204,-4.92322 0.1840334,-0.76715 0.4309043,-1.16978 1.17106924,-1.90994 0.829923,-0.82992 1.1066975,-0.98192 2.4045567,-1.32056 0.8066712,-0.21048 1.7852733,-0.4368 2.1746672,-0.50291 0.3893939,-0.06614 2.1369113,-0.5273302 3.88338,-1.0249302 3.9786381,-1.13357 4.8202631,-1.30934 9.6592601,-2.01734 5.389021,-0.78849 10.991454,-0.96364 10.991454,-0.34363 0,0.10365 -0.207228,0.11787 -0.504834,0.03468 -0.920282,-0.25735 -5.054907,-0.0951 -7.756212,0.3044 -6.939897,1.02634 -8.290606,1.30175 -12.2678521,2.50142 -1.1435767,0.34494 -3.0761377,0.8333202 -4.294578,1.0853102 -2.6027034,0.53826 -3.6121429,0.98108 -4.3370605,1.90256 -0.79803744,1.01442 -0.88680464,1.46202 -0.33181684,1.67303 0.70966094,0.26982 1.69055974,-0.09072 2.25299954,-0.82814 0.5977184,-0.78364 0.7417756,-0.71321 0.3257277,0.15925 -0.5065688,1.06228 -1.4324823,1.39914 -2.82614134,1.02818 -0.22137,-0.05889 -0.2703801,0.11613 -0.2499489,0.89268 0.0357356,1.35631 0.76485574,2.75605 2.01709714,3.87215 1.0369324,0.92421 3.2570552,2.14221 4.276291,2.34605 0.3151688,0.06299 0.6209033,0.19205 0.6793953,0.28669 0.1426755,0.23085 0.036212,0.29973 -0.2975773,0.19256 z" style="fill:#7dfafa;fill-opacity:1;stroke:#000000;stroke-width:0.21602426;stroke-miterlimit:4;stroke-dasharray:none;stroke-opacity:1" inkscape:connector-curvature="0"/>
      <path id="path840" d="m 31.857963,17.526434 c -0.156541,-0.1767 -0.717895,-1.27129 -1.247468,-2.43242 -0.755716,-1.65699 -0.981861,-2.37063 -1.051197,-3.31727 -0.212308,-2.8985002 1.351586,-6.1239202 3.536049,-7.2928802 0.362626,-0.19404 1.02726,-0.29697 1.945874,-0.30134 1.233945,-0.00571 1.499093,0.05699 2.294739,0.54383 2.066269,1.26434 2.29146,3.98945 0.58369,7.0632302 -0.690897,1.24353 -3.852333,5.38438 -4.407978,5.77356 -0.539312,0.37776 -1.301519,0.36084 -1.653709,-0.03669 z" style="fill:#7dfafa;fill-opacity:1;stroke:#000000;stroke-width:0.21602426;stroke-miterlimit:4;stroke-dasharray:none;stroke-opacity:1" inkscape:connector-curvature="0"/>
      <path id="path838" d="m 33.12952,17.122514 c 0.321706,-0.19616 0.685008,-0.54695 0.807348,-0.77952 0.12233,-0.23259 0.437394,-0.63664 0.700131,-0.89791 0.784306,-0.77988 1.280049,-1.41513 1.18138,-1.5138 -0.05098,-0.05098 0.162507,-0.3597 0.474407,-0.68607 0.531478,-0.55614 1.74342,-2.8249 1.985621,-3.7170902 0.215309,-0.79311 0.178945,-2.4266 -0.06404,-2.87875 -0.312091,-0.58064 -0.912439,-1.28505 -1.095234,-1.28505 -0.07681,0 -0.284331,-0.13088 -0.461103,-0.29087 -0.223914,-0.20264 -0.708965,-0.29579 -1.598981,-0.3071 -1.142014,-0.01449 -1.370884,0.04555 -2.156943,0.56624 -0.48365,0.32036 -0.80324,0.58374 -0.710204,0.58528 0.09301,0.00191 0.0791,0.06347 -0.03097,0.13768 -0.462886,0.31204 -1.350948,1.77776 -1.615353,2.66609 -0.600301,2.0168202 -0.693985,2.9060202 -0.419955,3.9858402 0.103328,0.40716 0.817877,1.9175 0.987359,2.08699 0.08062,0.08062 0.153292,0.20163 0.161516,0.26894 0.09129,0.74677 0.887033,2.41794 1.150542,2.41644 0.06575,-3.8e-4 0.382762,-0.16119 0.704458,-0.35734 z" style="fill:#7dfafa;fill-opacity:1;stroke:#000000;stroke-width:0.21602426;stroke-miterlimit:4;stroke-dasharray:none;stroke-opacity:1" inkscape:connector-curvature="0"/>
      <path id="path836" d="m 32.589008,16.424954 c -0.03802,-0.07576 -0.09186,-0.46813 -0.119748,-0.872 -0.02783,-0.40387 -0.1357,-0.83758 -0.239619,-0.96379 -0.130783,-0.15884 -0.127209,-0.22947 0.01163,-0.22947 0.110285,0 -0.0057,-0.30375 -0.257544,-0.675 -0.610649,-0.89985 -0.698902,-1.33332 -0.45549,-2.23728 0.537606,-1.9965402 3.36511,-2.1766502 4.163757,-0.26523 0.155454,0.37205 0.230652,0.88011 0.169234,1.14334 -0.0608,0.26056 -0.134537,0.57693 -0.163879,0.70305 -0.02935,0.12612 -0.487566,0.62178 -1.018292,1.10147 -0.569187,0.51446 -0.976096,1.04158 -0.992115,1.28522 -0.01496,0.22719 -0.105968,0.41306 -0.202273,0.41306 -0.09631,0 -0.12132,0.05384 -0.05556,0.11953 0.06575,0.06575 -0.02373,0.22833 -0.19888,0.36132 -0.366895,0.27861 -0.543495,0.3105 -0.641173,0.11578 z" style="fill:#7dfafa;fill-opacity:1;stroke:#000000;stroke-width:0.21602426;stroke-miterlimit:4;stroke-dasharray:none;stroke-opacity:1" inkscape:connector-curvature="0"/>
      <path id="path834" d="m 33.697459,14.174704 c 0.230194,-0.4031 0.495457,-0.73291 0.589475,-0.73291 0.392824,0 0.875502,-0.77704 0.837251,-1.34787 -0.110409,-1.64784 -1.58322,-2.1930902 -2.726387,-1.00936 -0.408729,0.42322 -0.344319,1.4363 0.149852,2.35723 0.189636,0.35339 0.357203,0.72514 0.372383,0.8261 0.01515,0.10098 0.04022,0.28685 0.05556,0.41306 0.05022,0.41216 0.29571,0.24 0.721869,-0.50625 z" style="fill:#7dfafa;fill-opacity:1;stroke:#000000;stroke-width:0.21602426;stroke-miterlimit:4;stroke-dasharray:none;stroke-opacity:1" inkscape:connector-curvature="0"/>
      <path id="path832" d="m 18.584273,15.194134 c -0.247834,-0.24782 -0.459836,-0.59892 -0.471128,-0.78021 -0.01124,-0.18128 -0.05156,-0.59809 -0.08958,-0.92623 -0.101174,-0.87431 0.227441,-0.72991 0.345721,0.15193 0.220579,1.64452 1.128739,1.92001 3.29825,1.00052 0.697121,-0.29545 0.27646,0.25923 -0.471004,0.62106 -1.090221,0.52777 -2.041883,0.50334 -2.61228,-0.06709 z" style="fill:#7dfafa;fill-opacity:1;stroke:#000000;stroke-width:0.21602426;stroke-miterlimit:4;stroke-dasharray:none;stroke-opacity:1" inkscape:connector-curvature="0"/>
      <path id="path830" d="m 21.714586,13.259194 c -0.466011,-0.40333 -1.056659,-0.78588 -1.312535,-0.8501 -0.501203,-0.1258 -2.157123,0.0048 -2.681436,0.21112 -0.176695,0.06956 -0.321258,0.04431 -0.321258,-0.05632 0,-0.29578 2.28196,-0.83482 2.979852,-0.7039 0.404622,0.07595 0.956903,0.44379 1.575291,1.04932 0.523722,0.51283 0.952215,0.96635 0.952215,1.0078 0,0.23431 -0.444894,-0.01124 -1.192129,-0.65796 z" style="fill:#7dfafa;fill-opacity:1;stroke:#000000;stroke-width:0.21602426;stroke-miterlimit:4;stroke-dasharray:none;stroke-opacity:1" inkscape:connector-curvature="0"/>
      <path id="path866" d="m 28.415874,5.3184338 c 0.0038,-1.61842 1.486657,-3.69222 3.313421,-4.63362996 1.436228,-0.74015 3.340658,-0.90711 4.211052,-0.36919 0.391586,0.24202 0.102318,1.62189996 -0.533842,2.54653996 -0.321639,0.46747 -0.667407,0.84997 -0.768381,0.84997 -0.100965,0 0.07376,-0.37408 0.388365,-0.83129 0.699359,-1.01649 0.889215,-1.92949996 0.473053,-2.27488996 -0.435298,-0.36126 -2.035937,-0.16831 -3.262458,0.3933 -2.003299,0.91727996 -3.421191,2.67898996 -3.485934,4.33123996 -0.03955,1.00847 -0.337592,0.99775 -0.335276,-0.0121 z" style="fill:#7dfafa;fill-opacity:1;stroke:#000000;stroke-width:0.21602426;stroke-miterlimit:4;stroke-dasharray:none;stroke-opacity:1" inkscape:connector-curvature="0"/>
    </g>
    <path inkscape:label="UBERON_0000955" inkscape:connector-curvature="0" id="brain" d="M 34.662608,15.879166 34.390264,15.647086 33.573369,15.623986 C 32.075285,15.581686 31.96703,15.570486 31.640721,15.424896 31.26364,15.256606 30.927668,14.998286 30.72146,14.718066 L 30.55881,14.497056 30.243537,14.615096 C 29.83212,14.769146 28.816677,14.971876 28.370678,14.988996 27.913148,15.006496 26.995925,14.850466 26.471661,14.665816 25.623622,14.367116 24.656503,13.815366 23.919969,13.210036 23.502016,12.866536 23.106961,12.686796 22.521727,12.573876 22.015416,12.476176 21.318095,12.479676 21.008902,12.581876 20.833483,12.639476 20.689091,12.645576 20.367977,12.608576 20.011393,12.567376 19.918442,12.538376 19.702713,12.400656 19.410158,12.213886 19.006508,11.734446 18.833624,11.368376 18.585952,10.843986 18.614951,10.492566 18.928054,10.223746 L 19.108438,10.068906 19.458437,10.142006 C 19.967035,10.248226 20.52392,10.435056 20.940968,10.639416 L 21.306043,10.818306 21.336913,10.560346 C 21.395043,10.074796 21.643058,9.796566 22.261311,9.523296 23.392738,9.023216 25.762465,8.635476 28.027976,8.579716 28.819352,8.560216 30.396273,8.718896 30.901155,8.868796 31.83837,9.147056 32.330406,9.605696 32.266282,10.141276 32.239032,10.368506 32.302782,10.397436 32.44032,10.220276 32.654829,9.944076 33.11455,9.733866 33.530493,9.721776 33.796451,9.713776 34.30444,9.885326 34.654782,10.100856 35.25493,10.470056 35.608588,11.336306 35.683871,12.621506 35.687671,12.683006 35.750011,12.751046 35.850132,12.802546 36.168217,12.966196 36.533187,13.529156 36.710359,14.129446 L 36.792499,14.407756 36.661678,14.733016 C 36.589738,14.911916 36.468383,15.154266 36.392013,15.271576 36.160075,15.627896 35.483033,16.045846 35.054168,16.097456 34.964688,16.108256 34.866856,16.053856 34.662564,15.879746 L 34.662564,15.879746 Z" style="fill:#7dfafa;fill-opacity:1;stroke:#000000;stroke-width:0.21602426;stroke-miterlimit:4;stroke-dasharray:none;stroke-opacity:1" label="UBERON_0000955" connector-curvature="0" ontology="UBERON_0000955"/>
    <path inkscape:label="UBERON_0002113" inkscape:connector-curvature="0" id="kidney" d="M 72.537146,25.865976 C 72.336846,25.799676 72.141644,25.696536 71.943278,25.552276 71.516872,25.242176 71.238724,24.926266 70.785331,24.237086 70.444166,23.718496 70.211646,23.414426 69.846229,23.008996 69.340975,22.448426 68.828365,21.979166 68.201411,21.503296 67.578448,21.030436 67.378416,20.919246 66.890277,20.774436 65.635196,20.402136 64.769556,19.972036 64.249341,19.462276 64.014363,19.232026 63.849131,18.961226 63.807563,18.738256 63.761153,18.489486 63.894953,17.874216 64.083862,17.467266 64.332162,16.932426 64.846383,16.456236 65.406793,16.242136 66.187363,15.943946 66.891849,15.900286 68.075316,16.076796 70.443927,16.430006 72.269139,17.080826 73.52867,18.021296 73.953495,18.338496 74.295194,18.684876 74.467134,18.972616 74.808928,19.544596 74.972035,20.685806 74.918098,22.127936 74.871028,23.387576 74.658715,24.614416 74.40808,25.075876 74.34785,25.186806 74.04211,25.485096 73.856304,25.614256 73.677349,25.738636 73.436682,25.850396 73.257156,25.892466 73.097014,25.930066 72.684682,25.914866 72.537146,25.865966 Z" style="fill:#7dfafa;fill-opacity:1;stroke:#000000;stroke-width:0.21602426;stroke-miterlimit:4;stroke-dasharray:none;stroke-opacity:1" label="UBERON_0002113" connector-curvature="0" ontology="UBERON_0002113"/>
    <path inkscape:label="CL_0000336" inkscape:connector-curvature="0" id="adrenal.medulla.chromaffin.cell" d="M 64.011485,19.471726 C 63.890489,19.431326 63.595066,19.200296 63.442117,19.026416 63.288417,18.851696 63.080311,18.517306 62.980566,18.284816 62.950546,18.215016 62.902516,18.054316 62.873788,17.927766 62.828908,17.730356 62.826908,17.676686 62.859588,17.549866 62.917438,17.325756 63.02321,17.153736 63.225493,16.954806 63.433912,16.749846 63.626465,16.630846 63.983439,16.486346 64.356576,16.335296 65.239607,16.150836 65.475062,16.174756 65.532912,16.180756 65.514032,16.199856 65.365358,16.286066 64.550977,16.758666 64.081707,17.473236 63.975968,18.401776 63.928228,18.820926 63.953388,18.923276 64.193278,19.286726 L 64.354327,19.530706 64.215511,19.512206 C 64.139171,19.502106 64.047334,19.483806 64.011446,19.471806 Z" style="fill:#7dfafa;fill-opacity:1;stroke:#000000;stroke-width:0.21602426;stroke-miterlimit:4;stroke-dasharray:none;stroke-opacity:1" label="CL_0000336" connector-curvature="0" ontology="CL_0000336"/>
    <path inkscape:label="UBERON_0001388" inkscape:connector-curvature="0" id="gastrocnemius" d="M 71.933491,59.821246 C 71.933491,59.777846 72.37322,58.491376 72.910664,56.962506 73.530404,55.199526 73.924297,53.928376 73.987506,53.487336 74.167489,52.231536 73.983706,50.127496 73.466652,47.531516 73.337365,46.882146 73.231588,46.169056 73.231588,45.946886 73.231588,45.504786 73.651496,44.552856 73.97608,44.259106 74.160285,44.092406 74.17194,44.096766 74.559198,44.476826 75.428545,45.330026 76.106253,46.934166 76.105577,48.137146 76.104624,50.130346 75.272138,53.310226 74.008356,56.149486 73.731171,56.772226 73.35733,57.731896 73.177595,58.282086 72.997868,58.832266 72.800884,59.328136 72.739857,59.384016 72.529074,59.577046 71.933491,59.899976 71.933491,59.821246 Z" style="fill:#7dfafa;fill-opacity:1;stroke:#000000;stroke-width:0.21602426;stroke-miterlimit:4;stroke-dasharray:none;stroke-opacity:1" label="UBERON_0001388" connector-curvature="0" ontology="UBERON_0001388"/>
    <path inkscape:label="UBERON_0000948" sodipodi:nodetypes="cssssssccscsscsssccscccsssscc" inkscape:connector-curvature="0" id="heart" d="M 41.902656,38.993426 C 41.615036,38.976026 41.128517,38.887276 40.821516,38.796326 40.354142,38.657876 40.195619,38.566396 39.847297,38.234156 39.618485,38.015916 39.321746,37.676696 39.187876,37.480336 38.954689,37.138336 38.936783,37.069256 38.761717,35.836906 38.607272,34.749756 38.545693,34.481626 38.364118,34.105986 38.033569,33.422126 37.680187,32.504556 37.71738,32.426686 37.77741,32.300876 38.303301,31.990166 38.415015,32.014456 38.475045,32.027556 38.572938,32.112156 38.632631,32.202706 38.794908,32.448746 39.126296,32.375186 39.593374,31.989416 L 39.974049,31.675026 39.912009,31.213846 C 39.854649,30.787186 39.863219,30.744716 40.026744,30.646636 40.307835,30.478046 40.47666,30.487676 40.618525,30.680436 40.690565,30.778336 40.936495,30.970236 41.164975,31.106866 41.393454,31.243506 41.595517,31.437286 41.648492,31.519386 41.755898,31.685846 41.888739,32.073786 42.409354,32.003736 43.006624,31.923436 43.450641,32.112056 43.465764,32.224426 43.446514,32.435526 43.457164,32.431756 43.523224,32.626196 43.667576,32.729956 43.798693,32.902276 43.663459,33.053496 43.482503,33.255846 43.330566,33.449496 43.246772,33.228326 43.037381,32.895396 42.963261,32.989046 42.625088,32.959746 42.784154,33.348826 42.762703,33.318916 42.787309,33.634116 42.801029,33.732216 42.955723,33.842776 43.279192,33.985316 43.69221,34.167296 43.808059,34.266366 44.205897,34.777726 44.782688,35.519116 45.078655,36.091486 45.21039,36.720336 45.397873,37.615226 45.21809,38.206846 44.658147,38.534446 44.238631,38.780026 42.67589,39.040346 41.902705,38.993436 Z" style="fill:#7dfafa;fill-opacity:1;stroke:#000000;stroke-width:0.21602426;stroke-miterlimit:4;stroke-dasharray:none;stroke-opacity:1" label="UBERON_0000948" nodetypes="cssssssccscsscsssccscccsssscc" connector-curvature="0" ontology="UBERON_0000948"/>
    <path inkscape:label="UBERON_0002107" inkscape:connector-curvature="0" id="liver" d="M 62.274203,55.305746 C 61.590615,55.052786 61.41026,54.944496 60.490368,54.234746 57.781116,52.144406 55.262158,50.762546 53.56102,50.433406 53.066545,50.337806 52.452789,49.846376 52.141832,49.297206 L 51.883183,48.840426 51.957133,46.912446 C 52.010883,45.509316 52.079283,44.705786 52.208436,43.960756 52.963181,39.607046 54.291563,35.610796 56.57601,30.821426 57.40415,29.085246 57.53177,28.863896 57.774209,28.743356 58.102824,28.579936 58.495181,28.589556 58.680311,28.765556 58.918014,28.991526 59.366653,31.424806 59.431072,32.837506 59.483872,33.994086 59.689102,35.140666 59.957339,35.776846 60.41079,36.852326 61.400941,40.367806 61.383178,40.839236 61.377478,40.983716 61.529037,41.690106 61.719408,42.409016 62.400633,44.981616 63.077664,47.729256 63.367847,49.098976 63.559894,50.005466 63.725736,50.585636 63.842787,50.760476 64.127766,51.186186 64.196903,51.681866 64.142575,52.909646 64.088255,54.137086 63.915754,54.783576 63.503423,55.304876 63.257314,55.616046 63.113047,55.616146 62.274328,55.305616 L 62.274328,55.305616 Z" style="fill:#7dfafa;fill-opacity:1;stroke:#000000;stroke-width:0.21602426;stroke-miterlimit:4;stroke-dasharray:none;stroke-opacity:1" label="UBERON_0002107" connector-curvature="0" ontology="UBERON_0002107"/>
    <path inkscape:label="UBERON_0002048" inkscape:connector-curvature="0" id="lung" d="M 48.431422,34.784426 C 48.342132,34.775426 48.029248,34.746526 47.736017,34.719326 45.753559,34.535546 43.533255,34.038816 42.474081,33.542086 41.410504,33.043306 39.518015,31.726706 38.616478,30.858366 37.776568,30.049386 37.427808,29.485216 37.423253,28.928076 37.421353,28.651966 37.439163,28.592606 37.626812,28.264656 38.988928,25.883656 42.29304,23.421356 46.531613,21.628616 48.678521,20.720566 49.632394,20.489166 51.22703,20.489566 52.252822,20.489756 53.058083,20.643726 53.739222,20.969706 54.021409,21.104756 54.084199,21.158666 54.215706,21.378796 55.198892,23.024626 55.325958,25.874566 54.55121,28.903856 53.957667,31.224636 52.945358,33.244826 51.852354,34.289746 51.526199,34.601566 51.343899,34.678786 50.726274,34.766756 50.429488,34.809056 48.816165,34.821456 48.431422,34.784356 Z" style="fill:#7dfafa;fill-opacity:1;stroke:#000000;stroke-width:0.21602426;stroke-miterlimit:4;stroke-dasharray:none;stroke-opacity:1" label="UBERON_0002048" connector-curvature="0" ontology="UBERON_0002048"/>
    <path inkscape:label="UBERON_0002106" sodipodi:nodetypes="ccsscssscccssccc" inkscape:connector-curvature="0" id="spleen" d="M 69.741204,33.085836 C 69.649144,31.616316 68.531464,29.212566 67.717255,28.235946 66.180625,26.534996 64.24634,24.032826 62.055435,22.730306 61.677104,22.505386 61.433225,22.315996 61.051074,21.950326 L 60.820775,21.729956 60.773985,21.536906 C 60.580488,20.738616 60.61752,19.976156 60.885871,19.233236 61.004703,18.904216 61.161796,18.613696 61.270852,18.521226 61.469371,18.352886 61.855801,18.234756 62.160049,18.249406 62.395761,18.260806 62.66778,18.340806 63.197734,18.554826 65.361947,19.618716 67.422918,20.569476 69.108227,21.974756 70.619594,23.242896 71.93371,24.937436 72.938405,26.456096 73.425761,27.192756 74.031484,28.290096 74.246422,29.212346 74.575494,30.624346 74.82876,31.739666 74.82305,33.293966 74.7755,35.173496 73.307882,36.915136 72.181905,36.849416 70.099426,36.644256 69.676174,34.416836 69.741213,33.085836 Z" style="fill:#7dfafa;fill-opacity:1;stroke:#000000;stroke-width:0.216;stroke-miterlimit:4;stroke-dasharray:none;stroke-opacity:1" label="UBERON_0002106" nodetypes="ccsscssscccssccc" connector-curvature="0" ontology="UBERON_0002106"/>
    <path inkscape:label="UBERON_0002370" inkscape:connector-curvature="0" id="thymus" d="M 37.29085,33.098836 C 37.054643,33.032536 36.159814,32.638096 35.583538,32.346246 34.382851,31.738176 33.608046,31.117236 33.394567,30.591996 33.345487,30.471256 33.344247,30.457606 33.378367,30.419856 33.434117,30.358256 33.579458,30.328056 33.812882,30.329556 34.132873,30.331556 34.376819,30.371456 34.764173,30.484896 35.087928,30.579696 35.316131,30.599296 36.073858,30.597506 36.823505,30.595506 36.981904,30.586006 38.333938,30.458036 39.56106,30.341916 39.792217,30.330976 39.917119,30.383036 40.237349,30.516616 40.43176,30.746046 40.43176,30.990356 40.43176,31.236626 40.33694,31.373106 39.898614,31.757676 39.175802,32.391846 38.430444,32.874456 37.928287,33.033416 37.735143,33.094616 37.398762,33.129016 37.290831,33.098716 L 37.290831,33.098716 Z" style="fill:#7dfafa;fill-opacity:1;stroke:#000000;stroke-width:0.21602426;stroke-miterlimit:4;stroke-dasharray:none;stroke-opacity:1" label="UBERON_0002370" connector-curvature="0" ontology="UBERON_0002370"/>
    <path inkscape:label="UBERON_0000995" sodipodi:nodetypes="ssssscsccccsssss" inkscape:connector-curvature="0" id="uterus" d="M 79.683166,48.857296 C 76.360301,47.056726 74.255636,45.737776 72.701739,44.482196 71.907351,43.840316 71.490598,43.416796 71.183797,42.939646 70.975358,42.615486 70.892061,41.945486 70.900256,41.580226 70.913786,40.977936 70.967146,40.187436 71.308385,40.059506 71.412781,40.020306 71.683361,40.007506 71.819509,40.030806 72.311117,40.115206 75.240385,41.572036 76.47311,42.345206 76.724441,42.502846 76.944668,42.617426 76.962497,42.599836 77.053887,42.509636 75.679256,41.296536 74.570501,40.488806 73.583093,39.689016 73.85414,38.496356 74.183718,38.116816 74.358936,37.852526 75.231837,37.902696 75.812831,38.223896 L 76.478647,38.790676 C 77.311343,39.499496 79.161312,41.354976 79.588996,41.910286 80.762161,43.433516 81.586262,45.160806 81.964734,46.889816 82.278778,48.324476 82.233399,49.149586 81.821667,49.491296 81.469754,49.783356 81.298471,49.732576 79.683166,48.857286 Z" style="fill:#7dfafa;fill-opacity:1;stroke:#000000;stroke-width:0.21602426;stroke-miterlimit:4;stroke-dasharray:none;stroke-opacity:1" label="UBERON_0000995" nodetypes="ssssscsccccsssss" connector-curvature="0" ontology="UBERON_0000995"/>
    <path inkscape:label="UBERON_0000473" sodipodi:end="6.275538" sodipodi:start="0" transform="matrix(0.98317496,0.18266638,-0.18266637,0.98317496,0,0)" d="M 95.418077,37.507164 A 3.0357144,1.9642859 0 0 1 92.388166,39.471446 3.0357144,1.9642859 0 0 1 89.34667,37.514675 3.0357144,1.9642859 0 0 1 92.364951,35.54291 3.0357144,1.9642859 0 0 1 95.417988,37.492143 L 92.382362,37.507164 Z" sodipodi:ry="1.9642859" sodipodi:rx="3.0357144" sodipodi:cy="37.507164" sodipodi:cx="92.382362" id="testis" style="fill:#7dfafa;fill-opacity:1;stroke:#000000;stroke-width:0.21602426;stroke-miterlimit:4;stroke-dasharray:none;stroke-opacity:1" sodipodi:type="arc" label="UBERON_0000473" end="6.275538" start="0" ry="1.9642859" rx="3.0357144" cy="37.507164" cx="92.382362" type="arc" ontology="UBERON_0000473"/>
    <path inkscape:label="UBERON_0001155" sodipodi:nodetypes="ccsssscccssc" inkscape:connector-curvature="0" id="colon" d="M 85.158065,53.771846 C 85.324484,53.086816 85.130295,52.460746 84.671223,52.202206 84.251196,51.965666 80.421028,49.846026 75.310928,48.417866 70.200826,46.989706 65.635184,47.430566 64.610875,45.946206 63.924962,44.952226 64.225569,42.833966 65.597772,41.549366 66.871636,40.356836 66.641862,39.566226 64.89831,39.142646 63.043769,38.692106 61.72117,39.970486 61.013015,42.898036 60.583129,44.675176 60.634216,45.663216 61.221011,46.921116 61.918126,49.733696 66.158033,49.616476 69.576193,50.097986 75.76089,50.700916 77.815835,53.133716 80.322906,53.764506 84.849958,54.903516 84.883125,54.903546 85.15806,53.771506 Z" style="fill:#7dfafa;fill-opacity:1;stroke:#000000;stroke-width:0.21602426;stroke-miterlimit:4;stroke-dasharray:none;stroke-opacity:1" label="UBERON_0001155" nodetypes="ccsssscccssc" connector-curvature="0" ontology="UBERON_0001155"/>
  </g>
</svg>
