<?xml version="1.0" encoding="UTF-8" standalone="no"?>
<!-- Created with Inkscape (http://www.inkscape.org/) -->
<svg xmlns:dc="http://purl.org/dc/elements/1.1/" xmlns:cc="http://creativecommons.org/ns#" xmlns:rdf="http://www.w3.org/1999/02/22-rdf-syntax-ns#" xmlns:svg="http://www.w3.org/2000/svg" xmlns="http://www.w3.org/2000/svg" xmlns:sodipodi="http://sodipodi.sourceforge.net/DTD/sodipodi-0.dtd" xmlns:inkscape="http://www.inkscape.org/namespaces/inkscape" width="122.26315" height="47.05262" viewBox="0 0 122.26315 47.05262" preserveAspectRatio="none" id="svg2" version="1.1" inkscape:version="0.92.3 (unknown)" sodipodi:docname="tetraodon_nigroviridis.svg" style="enable-background:new">
  <defs id="defs4"/>
  <sodipodi:namedview id="base" pagecolor="#ffffff" bordercolor="#666666" borderopacity="1.0" inkscape:pageopacity="0.0" inkscape:pageshadow="2" inkscape:zoom="5.6" inkscape:cx="22.041358" inkscape:cy="27.557051" inkscape:document-units="px" inkscape:current-layer="LAYER_EFO" showgrid="false" inkscape:window-width="3375" inkscape:window-height="1416" inkscape:window-x="65" inkscape:window-y="24" inkscape:window-maximized="1" showguides="true" inkscape:guide-bbox="true" fit-margin-top="0" fit-margin-left="0" fit-margin-right="0" fit-margin-bottom="0"/>
  <metadata id="metadata">
    <rdf:RDF>
      <cc:Work rdf:about="">
        <dc:format>image/svg+xml</dc:format>
        <dc:type rdf:resource="http://purl.org/dc/dcmitype/StillImage"/>
        <dc:title/>
      </cc:Work>
    </rdf:RDF>
  </metadata>
  <g inkscape:label="EFO" id="container" inkscape:groupmode="layer" label="EFO" groupmode="layer">
    <g id="outline" style="stroke:#000000;stroke-opacity:1;fill:#7bfafa;fill-opacity:1" ontology="NULL">
      <path id="path937" d="m 36.633236,43.738545 c -1.276029,-2.355941 -1.102306,-4.941128 -0.08713,-7.180058 0.307508,-0.678195 0.38727,-0.846855 0.444059,-1.030721 -6.055494,-0.611125 -7.464737,-2.260151 -10.62601,-2.215205 -1.028032,0.06731 -2.667587,0.342312 -3.643455,0.549377 -2.737569,0.81663 -5.061315,1.40462 -7.564142,2.072762 C 12.377373,36.637866 5.0903272,37.162579 3.3605928,36.903194 2.0958682,36.71353 1.1476404,35.14454 0.32751942,31.683349 -0.13996518,29.303237 -0.44274378,19.167001 1.8638022,18.089828 c 0.6262251,-0.268477 1.3963556,-0.06664 3.9543131,0.219995 5.8652187,0.65723 9.0452627,1.042051 10.8413357,1.311921 4.830418,0.500862 9.09187,-0.299275 13.113895,-1.385446 5.387072,-1.360956 7.481304,-1.980037 9.656509,-4.029372 3.804335,-3.584197 5.121,-4.2083397 10.430675,-4.9900907 1.73618,-0.255621 1.05819,-0.200106 1.498309,-0.256684 0.198997,-1.080981 -4.180725,-7.052853 -6.869905,-7.146932 -0.809055,0.00949 -3.014025,0.529361 -4.187535,0.86788 -1.547497,0.412518 -3.371122,1.02767 -3.972213,2.788481 -0.562001,2.523702 5.128998,4.9445797 6.411699,5.8501987 -1.601934,-0.176168 -6.664399,-2.2798937 -7.531222,-4.6790977 -0.588756,-1.899861 1.513372,-3.461753 3.044526,-4.199535 0.747391,-0.360128 6.571293,-1.98958803 7.968428,-1.032526 1.058046,0.724781 2.185501,1.608579 2.995012,2.610228 1.492844,1.785212 2.236208,3.46352 2.656399,4.857664 0.431659,0 5.370295,-1.754722 7.130437,-2.555245 4.079224,-2.193577 9.584459,-4.778921 13.799268,-5.90647303 1.770138,-0.414872001228 8.147804,-0.596926 14.819189,-0.173312 5.516775,0.578293 11.437895,0.639599 16.722768,2.06374803 2.0867,0.732706 4.56875,1.633584 6.31551,2.687622 1.45392,0.877325 2.90556,2.341249 4.14216,3.604542 0.82928,0.746819 2.15952,1.224995 3.74218,2.1602477 1.24575,0.826607 3.69534,2.301256 3.71741,3.644947 0.0158,1.04957 -0.8923,2.197234 -1.89611,2.771793 l -0.6526,0.373538 0.34234,0.560306 c 0.45737,0.748606 0.90525,1.336902 0.33524,2.480764 -0.58516,1.174265 -1.97234,2.318253 -4.56584,3.854093 -2.8675,1.698102 -3.93748,2.75804 -9.43168,8.193651 -4.11308,4.642865 -6.544223,7.50966 -11.163784,9.046226 -8.34589,2.705068 -15.576827,3.637523 -21.802034,3.24628 -6.77296,-0.425665 -12.766359,-2.041596 -20.914328,-5.621527 -2.772771,-1.218275 -5.028001,-2.558497 -6.307442,-2.807329 -0.803094,-0.156195 -8.26345,-0.83304 -8.674415,-0.83304 -0.198061,0 -0.746764,0.89981 -1.112571,2.115283 -0.529946,1.760876 -0.162428,3.436437 1.224379,5.582094 1.524159,2.358163 3.009167,3.321163 4.453888,2.888251 1.019822,-0.305591 2.34805,-1.202288 2.950152,-1.991685 0.507619,-0.665533 0.396635,-0.77229 0.464597,-3.329082 0.03862,-1.452838 0.221181,-4.229956 0.267118,-4.275901 0.04594,-0.04593 0.241702,2.141993 0.241702,3.254819 0,1.112844 -0.102689,2.220363 -0.05526,2.172924 0.08056,-0.08055 0.660836,-4.441609 0.660836,-4.966504 0,-0.131467 0.06817,-0.239046 0.151495,-0.239046 0.188794,0 0.321527,4.844139 0.02983,5.927398 -0.486774,1.807737 -1.894205,3.370214 -3.447891,4.096932 -4.130857,0.608835 -5.340764,-0.676257 -6.727343,-3.164282 z" style="fill:#7bfafa;fill-opacity:1;stroke:#000000;stroke-width:0.21602426;stroke-miterlimit:4;stroke-dasharray:none;stroke-opacity:1" inkscape:connector-curvature="0"/>
      <path id="path935" d="m 83.140456,43.521831 c 4.624308,-0.965072 11.816214,-3.166854 14.127461,-4.325064 2.03352,-1.019049 3.417903,-2.209327 8.599683,-7.393958 5.12215,-5.124959 6.74679,-6.510598 9.58389,-8.174042 3.82072,-2.240157 5.01647,-3.892259 4.06222,-5.612577 -0.32199,-0.580485 -0.32021,-0.593887 0.11981,-0.902288 1.17015,-0.820119 1.70119,-1.769327 1.70119,-2.417191 0,-0.582092 -0.43823,-0.995442 -0.58875,-0.995442 -0.88757,1.319304 -1.91197,0.953846 -3.06553,0.391433 -1.10773,-0.559609 -1.74201,-1.667292 -1.74201,-2.81388 -0.0805,-1.3357127 0.68749,-1.13656 0.41119,-0.858147 -0.4879,0.487902 -0.14648,1.559253 0.43569,2.322518 0.60046,0.787243 1.9338,1.42236 2.64424,1.259544 0.70426,-0.1614 0.96674,-0.513986 0.7114,-0.991089 -0.3523,-0.658279 -4.72452,-3.3604477 -5.20377,-3.3604477 -0.31266,0.5661107 -1.04207,0.3621487 -1.71818,0.197426 -1.51866,-0.416736 -2.73022,-2.476562 -2.73022,-3.619618 0,-0.359784 -0.0537,-0.597117 -1.21675,-1.172219 -1.81284,-0.896376 -4.38393,-1.876436 -5.60991,-2.13841 -1.63763,-0.349935 -8.271909,-1.128037 -10.6229,-1.245907 C 91.806535,1.6106703 89.663361,1.4786583 88.276602,1.3791103 83.1613,1.0119093 76.819267,0.84768727 74.873534,1.0320473 c -2.190088,0.207511 -4.366426,0.838025 -6.39444,1.852548 -0.770422,0.385407 -2.70348,1.268777 -4.295685,1.963044 -1.592205,0.694267 -3.525264,1.576823 -4.295686,1.961236 -0.770422,0.384414 -2.325273,1.008444 -3.455225,1.386737 -1.129952,0.378293 -2.180528,0.736081 -2.334612,0.795083 -0.154084,0.059004 -0.448245,0.125061 -0.653691,0.146793 -1.606465,0.169934 -7.064778,1.1210227 -7.744457,1.3494407 -1.144275,0.384556 -2.76889,1.185778 -3.021471,1.490118 -0.33471,0.403303 0.579893,0.309366 1.434683,-0.147354 1.838291,-1.299986 4.394936,-0.202267 4.790102,-1.024907 0.478575,-0.645352 0.794031,-1.0087507 1.292697,-1.2542917 l -0.940171,1.4808907 c -0.726807,1.144813 -3.074603,0.161127 -4.143069,0.896269 -0.483741,0.332829 -1.262795,0.764914 -1.920426,0.800342 -0.916495,0.04937 -1.160266,-0.28176 -3.032113,1.414379 -1.070263,0.969799 -2.370479,1.994337 -2.889368,2.276752 -1.410608,0.76775 -4.609442,1.845513 -7.497701,2.526155 -1.190091,0.24753 -2.259418,0.68042 -3.096982,1.025055 -1.435958,0.6097 -2.775698,1.584523 -3.523904,3.497443 -0.632114,2.082526 -0.538236,4.186945 0.333312,5.958114 0.831284,1.701091 1.141715,1.961865 3.372701,2.686127 1.047699,0.340122 2.899196,0.926638 4.080509,1.294909 2.748927,0.856989 6.237625,1.520112 9.898754,1.881547 1.592205,0.157204 4.037674,0.411172 5.434377,0.564379 3.720743,0.408165 8.088591,0.368532 10.374109,-0.09413 1.012648,-0.204997 2.366467,-0.533487 3.008485,-0.729968 0.642018,-0.19648 1.025808,-0.239374 1.780468,-0.20016 -0.660329,0.373566 -0.711455,0.469207 -3.602414,1.233054 -2.070535,0.547103 -2.40555,0.695375 -6.11526,0.802599 l -3.685367,-0.07261 0.556513,0.117357 c 0.528861,0.111523 2.194535,0.850545 3.735379,1.516059 7.128492,3.078905 11.879489,4.50864 17.462896,5.255174 3.160668,0.422583 3.677299,0.448245 7.564142,0.375648 2.882564,-0.05386 3.969271,-0.154084 5.789837,-0.534047 z" style="fill:#7bfafa;fill-opacity:1;stroke:#000000;stroke-width:0.21602426;stroke-miterlimit:4;stroke-dasharray:none;stroke-opacity:1" inkscape:connector-curvature="0"/>
      <path id="path933" d="m 31.82569,28.006991 c 0,-1.528815 1.933361,-2.157592 3.049361,-1.041591 0.744103,0.744087 0.900699,1.637289 0.138062,2.279008 -1.531208,0.915671 -3.136245,0.768586 -3.187423,-1.237417 z" style="fill:#7bfafa;fill-opacity:1;stroke:#000000;stroke-width:0.21602426;stroke-miterlimit:4;stroke-dasharray:none;stroke-opacity:1" inkscape:connector-curvature="0"/>
      <path id="path931" d="m 34.47379,29.134515 c 0.965255,-0.499158 1.023224,-1.374992 0.135805,-2.051862 -0.878608,-0.670145 -1.421405,-0.420876 -1.992184,0.13057 -0.501753,0.484759 -0.467709,1.181445 0.08694,1.736092 0.524464,0.524466 1.014224,0.575734 1.769436,0.1852 z" style="fill:#7bfafa;fill-opacity:1;stroke:#000000;stroke-width:0.21602426;stroke-miterlimit:4;stroke-dasharray:none;stroke-opacity:1" inkscape:connector-curvature="0"/>
      <path id="path929" d="m 26.239965,28.63667 c -0.320856,-0.320851 -0.346152,-0.955882 0.114723,-1.541795 0.473879,-0.602441 1.853349,-1.044251 2.348074,-0.914876 0.189141,0.04946 0.488741,0.249972 0.665777,0.445593 0.424296,0.468846 0.300756,1.244238 -0.547354,1.761327 -0.67989,0.414533 -2.232283,0.598691 -2.58122,0.249751 z" style="fill:#7bfafa;fill-opacity:1;stroke:#000000;stroke-width:0.21602426;stroke-miterlimit:4;stroke-dasharray:none;stroke-opacity:1" inkscape:connector-curvature="0"/>
      <path id="path927" d="m 28.529614,28.04625 c 0.482406,-0.325108 0.634618,-0.560288 0.634618,-0.980537 0,-0.464121 -0.08235,-0.562361 -0.512923,-0.611911 -1.061064,-0.122109 -2.52709,1.145267 -2.108403,1.822716 0.212117,0.343225 1.327554,0.213925 1.986708,-0.230268 z" style="fill:#7bfafa;fill-opacity:1;stroke:#000000;stroke-width:0.21602426;stroke-miterlimit:4;stroke-dasharray:none;stroke-opacity:1" inkscape:connector-curvature="0"/>
      <path id="path925" d="m 36.433513,22.845367 c 0.488474,-1.52066 2.202168,-1.661372 3.003415,-0.926757 0.546506,0.515422 0.653287,0.84534 0.653287,1.506351 0,1.091823 -0.778942,2.209936 -1.900782,2.201718 -2.044216,-0.04668 -2.139323,-1.725295 -1.75592,-2.781312 z" style="fill:#7bfafa;fill-opacity:1;stroke:#000000;stroke-width:0.21602426;stroke-miterlimit:4;stroke-dasharray:none;stroke-opacity:1" inkscape:connector-curvature="0"/>
      <path id="path923" d="m 39.482925,24.459521 c 0.883923,-1.027633 0.227699,-2.512367 -1.131157,-2.559299 -0.938545,-0.03242 -1.448103,0.478599 -1.571832,1.576328 -0.07947,0.705021 -0.02562,0.898831 0.347429,1.250555 0.596811,0.562697 1.754498,0.431174 2.35556,-0.267584 z" style="fill:#7bfafa;fill-opacity:1;stroke:#000000;stroke-width:0.21602426;stroke-miterlimit:4;stroke-dasharray:none;stroke-opacity:1" inkscape:connector-curvature="0"/>
      <path id="path921" d="m 31.959282,22.586402 c -0.857533,-0.347594 -1.321136,-1.214424 -1.033826,-2.598387 0.117145,-0.564289 0.489109,-1.22609 0.582008,-1.22609 0.09604,0 0.0881,0.212521 -0.0184,0.492656 -0.326528,0.85883 -0.290045,2.061152 0.07477,2.464272 0.545126,0.602356 1.525992,0.602341 2.47585,-4.1e-5 1.692547,-1.073382 2.40089,-3.316832 1.306656,-4.138411 -0.132264,-0.09931 -0.105659,-0.127252 0.07465,-0.07841 0.488596,0.132347 1.046961,1.174149 0.908408,1.912697 -0.546006,1.846473 -1.638587,3.584636 -4.370124,3.171714 z" style="fill:#7bfafa;fill-opacity:1;stroke:#000000;stroke-width:0.21602426;stroke-miterlimit:4;stroke-dasharray:none;stroke-opacity:1" inkscape:connector-curvature="0"/>
      <path id="path919" d="m 25.818469,21.617869 c -0.713796,-0.764121 -0.699065,-1.175586 0.04019,-0.436328 0.312779,0.312778 0.730973,0.568687 0.92932,0.568687 0.448021,0 1.126863,-0.618821 1.701072,-1.550668 0.240699,-0.390614 0.479659,-0.668184 0.53102,-0.616823 0.126491,0.126491 -0.642823,1.550069 -1.197856,2.105101 -0.64758,0.64758 -1.31924,0.662798 -2.003748,-0.06997 z" style="fill:#7bfafa;fill-opacity:1;stroke:#000000;stroke-width:0.21602426;stroke-miterlimit:4;stroke-dasharray:none;stroke-opacity:1" inkscape:connector-curvature="0"/>
      <path id="path917" d="m 42.760475,20.791101 c -1.544695,-0.335953 -2.411149,-0.808148 -2.562268,-1.410252 0.03676,-1.523076 1.385701,-1.975567 2.950942,-1.815102 1.369427,0.02007 0.657681,0.114935 -0.464255,0.259356 -1.301384,0.117962 -2.549273,0.981897 -1.604493,1.943987 0.322442,0.322441 0.816606,0.502188 1.827052,0.664565 0.761784,0.122416 1.763271,0.290698 2.225524,0.373958 l 0.84046,0.151382 -0.933845,0.0072 c -0.831067,-0.02906 -1.502197,-0.02651 -2.279117,-0.175122 z" style="fill:#7bfafa;fill-opacity:1;stroke:#000000;stroke-width:0.21602426;stroke-miterlimit:4;stroke-dasharray:none;stroke-opacity:1" inkscape:connector-curvature="0"/>
      <path id="path915" d="m 109.831,20.284253 c 0.059,-0.09546 0.33919,-0.23145 0.62265,-0.302198 1.55852,-0.388989 2.74327,-1.922512 2.74327,-3.550833 0,-1.705497 -0.86584,-3.172825 -2.25851,-3.827455 -1.04325,-0.490385 -0.79691,-0.732131 0.27051,-0.305037 0.42539,0.17021 1.26021,0.706381 1.65134,1.150728 2.24856,2.554501 0.73072,6.143277 -2.60726,6.889966 -0.30846,0.069 -0.48451,0.04598 -0.422,-0.05517 z" style="fill:#7bfafa;fill-opacity:1;stroke:#000000;stroke-width:0.21602426;stroke-miterlimit:4;stroke-dasharray:none;stroke-opacity:1" inkscape:connector-curvature="0"/>
      <path id="path913" d="m 108.19878,19.96789 c -1.72463,-0.462821 -2.90619,-1.7886 -2.90619,-3.295483 0,-1.205234 0.72309,-2.261408 1.69765,-2.906342 0.66521,-0.440214 0.93429,-0.680582 2.07775,-0.680582 1.15093,0 1.47742,0.239165 2.1628,0.692726 1.33661,0.884521 1.83966,2.531907 1.22348,4.006629 -0.73412,1.756997 -2.35679,2.692592 -4.25549,2.183052 z" style="fill:#7bfafa;fill-opacity:1;stroke:#000000;stroke-width:0.21602426;stroke-miterlimit:4;stroke-dasharray:none;stroke-opacity:1" inkscape:connector-curvature="0"/>
      <path id="path911" d="m 110.57013,19.438249 c 0.74983,-0.313295 1.25495,-1.082621 1.53709,-2.024331 0.54382,-1.815102 -0.58935,-3.4695 -2.68818,-3.782538 -1.04243,-0.155477 -1.00149,0.0278 0.0663,0.296662 1.0079,0.253793 1.79309,0.976124 2.08108,1.914481 0.25183,0.820549 0.009,0.905256 -0.31983,0.111538 -0.35975,-0.86852 -1.85654,-1.861359 -2.80615,-1.861359 -0.18435,0 -0.36482,-0.08895 -0.40106,-0.197664 -0.11121,-0.333644 -1.56389,0.861059 -1.89473,1.558259 -0.36125,0.761279 -0.40504,1.847643 -0.0981,2.433754 0.76385,1.458574 2.9506,2.20844 4.5236,1.551198 z" style="fill:#7bfafa;fill-opacity:1;stroke:#000000;stroke-width:0.21602426;stroke-miterlimit:4;stroke-dasharray:none;stroke-opacity:1" inkscape:connector-curvature="0"/>
      <path id="path909" d="m 107.5746,18.86882 c -0.95777,-0.426102 -1.63239,-1.925464 -1.20036,-2.667833 0.16607,-0.285359 0.19529,-0.252409 0.20074,0.226326 0.008,0.69129 0.58683,1.674834 1.16229,1.974503 l 0.43023,0.224035 -0.44186,-0.480641 c -0.26956,-0.293206 -0.47677,-0.794716 -0.53136,-1.286036 -0.12166,-1.094735 0.34432,-1.775379 1.70529,-1.876231 0.91937,-0.06813 1.29589,0.128206 1.75516,0.730343 0.93267,1.222799 0.84901,2.518779 -0.0576,3.094472 -0.65612,0.416646 -2.32583,0.371032 -3.02256,0.06106 z" style="fill:#7bfafa;fill-opacity:1;stroke:#000000;stroke-width:0.21602426;stroke-miterlimit:4;stroke-dasharray:none;stroke-opacity:1" inkscape:connector-curvature="0"/>
      <path id="path907" d="m 110.46476,18.164265 c 0.32545,-0.325453 0.27455,-1.40717 -0.0957,-2.033959 -0.58215,-0.985509 -2.38925,-0.952961 -2.74175,0.04938 -0.22752,0.646928 0.11357,1.470872 0.77998,1.884156 0.59218,0.367252 1.73486,0.423023 2.05747,0.100419 z" style="fill:#7bfafa;fill-opacity:1;stroke:#000000;stroke-width:0.21602426;stroke-miterlimit:4;stroke-dasharray:none;stroke-opacity:1" inkscape:connector-curvature="0"/>
      <path id="path905" d="m 101.72397,15.43554 c 0,-0.750136 -0.19431,-0.894739 -0.67121,-1.38253 -0.31414,-0.321307 -1.089623,-0.244057 -1.314063,-0.19679 -0.42791,0.09012 -0.727,0.419836 -1.07107,1.062353 0.20649,-2.116988 2.212843,-1.519959 2.608093,-1.124702 0.55616,0.556157 0.63502,0.753301 0.63502,1.587536 0,0.523887 -0.042,0.952522 -0.0934,0.952522 -0.0514,0 -0.0934,-0.404275 -0.0934,-0.898389 z" style="fill:#7bfafa;fill-opacity:1;stroke:#000000;stroke-width:0.21602426;stroke-miterlimit:4;stroke-dasharray:none;stroke-opacity:1" inkscape:connector-curvature="0"/>
      <path id="path903" d="m 104.36275,14.001986 c -0.77355,-0.77355 0.8297,-2.705277 2.32155,-2.747565 0.72169,-0.02046 1.48538,0.607869 1.30246,1.128822 -0.42625,1.21397 -2.93108,2.311673 -3.62401,1.618743 z" style="fill:#7bfafa;fill-opacity:1;stroke:#000000;stroke-width:0.21602426;stroke-miterlimit:4;stroke-dasharray:none;stroke-opacity:1" inkscape:connector-curvature="0"/>
      <path id="path901" d="m 106.16901,13.643524 c 0.74065,-0.385362 1.38867,-1.14855 1.30924,-1.541927 -0.0914,-0.452784 -1.40945,-0.447663 -2.10515,0.0082 -1.45035,0.950308 -0.73441,2.329968 0.79591,1.533746 z" style="fill:#7bfafa;fill-opacity:1;stroke:#000000;stroke-width:0.21602426;stroke-miterlimit:4;stroke-dasharray:none;stroke-opacity:1" inkscape:connector-curvature="0"/>
      <path id="path899" d="M 95.653975,11.530628 C 95.071258,11.389064 94.094666,10.580125 93.78609,9.9834063 93.347,9.1343003 93.464726,9.0583243 93.930204,9.8904003 c 0.4752,0.8494567 1.722501,1.4207777 2.682823,1.4207777 0.75315,0 1.52037,-0.713745 1.68219,-1.5763387 0.35962,-1.916933 -0.08091,-2.74158 -1.987551,-2.925375 -0.191639,-0.018472 -0.179191,-0.140675 0.09338,-0.174089 1.870276,-0.229282 2.523306,0.993562 2.520336,1.976459 -0.0024,0.795892 -0.21803,1.8951897 -0.7933,2.4704597 -0.61425,0.614254 -1.42107,0.704159 -2.474112,0.448334 z" style="fill:#7bfafa;fill-opacity:1;stroke:#000000;stroke-width:0.21602426;stroke-miterlimit:4;stroke-dasharray:none;stroke-opacity:1" inkscape:connector-curvature="0"/>
      <path id="path897" d="m 100.27012,8.8777043 c -0.081,-0.778589 -0.22261,-1.162332 0.0486,-1.686808 0.16028,-0.309948 0.48507,-0.605996 0.71836,-0.670696 0.93821,-0.260194 2.39951,0.428933 3.04709,0.980395 0.97862,0.833359 0.78565,2.235882 0.14966,2.8718857 -2.05127,1.283764 -3.29196,0.452584 -3.96372,-1.4947767 z" style="fill:#7bfafa;fill-opacity:1;stroke:#000000;stroke-width:0.21602426;stroke-miterlimit:4;stroke-dasharray:none;stroke-opacity:1" inkscape:connector-curvature="0"/>
      <path id="path895" d="m 103.8803,10.085658 c 0.88189,-0.8818837 0.42246,-2.1595027 -1.04593,-2.9086177 -0.81636,-0.416476 -1.91114,-0.484382 -2.17427,-0.134866 -0.48489,0.644062 0.072,2.618136 0.90269,3.1999867 0.6633,0.464599 1.77123,0.389781 2.31751,-0.156503 z" style="fill:#7bfafa;fill-opacity:1;stroke:#000000;stroke-width:0.21602426;stroke-miterlimit:4;stroke-dasharray:none;stroke-opacity:1" inkscape:connector-curvature="0"/>
      <path id="path893" d="m 93.506132,8.4950463 c 0,-0.465669 2.074873,-1.914944 2.349038,-1.640778 -0.554607,0.459873 -0.404112,0.3333 -1.054731,0.76359 -0.438384,0.322811 -1.294307,0.992697 -1.294307,0.877188 z" style="fill:#7bfafa;fill-opacity:1;stroke:#000000;stroke-width:0.21602426;stroke-miterlimit:4;stroke-dasharray:none;stroke-opacity:1" inkscape:connector-curvature="0"/>
      <path id="path891" d="m 107.42042,7.0889693 c -1.09904,-0.345791 -1.58753,-0.816025 -1.58753,-1.153003 0,-0.254023 0.32708,-0.447211 1.22666,-0.341483 1.35155,0.158847 2.0728,0.64087 2.14817,1.169288 0.0702,0.4925 -0.58791,0.702563 -1.7873,0.325198 z" style="fill:#7bfafa;fill-opacity:1;stroke:#000000;stroke-width:0.21602426;stroke-miterlimit:4;stroke-dasharray:none;stroke-opacity:1" inkscape:connector-curvature="0"/>
      <path id="path889" d="m 108.71472,6.8298763 c 0.22196,-0.359133 -0.41564,-0.622718 -2.13476,-0.882521 -0.6262,-0.094634 -0.63798,-0.086112 -0.28015,0.202628 0.20544,0.165778 0.58365,0.345784 0.84046,0.400012 0.25681,0.054228 0.63501,0.170959 0.84046,0.259402 0.4967,0.213822 0.61251,0.217053 0.73399,0.020479 z" style="fill:#7bfafa;fill-opacity:1;stroke:#000000;stroke-width:0.21602426;stroke-miterlimit:4;stroke-dasharray:none;stroke-opacity:1" inkscape:connector-curvature="0"/>
      <path id="path887" d="m 97.934097,4.6774463 c -1.17745,-0.252829 -1.742225,-0.659427 -1.563372,-1.125511 0.285992,-0.745273 2.018602,-0.805781 4.886325,-0.170639 1.5337,0.339682 2.14784,0.680083 2.14784,1.190495 0,0.347735 -0.12777,0.368321 -2.19454,0.353579 -1.20699,-0.00861 -2.681303,-0.120174 -3.276253,-0.247924 z" style="fill:#7bfafa;fill-opacity:1;stroke:#000000;stroke-width:0.21602426;stroke-miterlimit:4;stroke-dasharray:none;stroke-opacity:1" inkscape:connector-curvature="0"/>
      <path id="path885" d="m 103.21812,4.5903543 c 0,-0.608908 -2.13244,-1.173051 -4.570843,-1.20923 -1.63645,-0.02428 -1.87062,0.01199 -1.92797,0.298666 -0.09539,0.47678 0.69147,0.719219 2.85682,0.88021 2.765603,0.205623 3.641993,0.212926 3.641993,0.030354 z" style="fill:#7bfafa;fill-opacity:1;stroke:#000000;stroke-width:0.21602426;stroke-miterlimit:4;stroke-dasharray:none;stroke-opacity:1" inkscape:connector-curvature="0"/>
      <path id="path883" d="m 88.463371,3.5335663 c -0.588216,-0.249106 -0.597569,-0.463614 -0.09338,-0.343849 0.741423,0.17612 1.583259,0.181217 2.387974,0.013186 0.426326,-0.089023 0.686217,0.123522 0.497054,0.235861 -0.556773,0.330664 -2.110151,0.383418 -2.791643,0.09481 z" style="fill:#7bfafa;fill-opacity:1;stroke:#000000;stroke-width:0.21602426;stroke-miterlimit:4;stroke-dasharray:none;stroke-opacity:1" inkscape:connector-curvature="0"/>
      <path id="path881" d="m 92.104168,2.7779333 c 0.26903,-0.249329 0.437432,-0.537 0.374225,-0.639269 -0.06321,-0.102269 -0.02591,-0.185943 0.08287,-0.185943 0.241264,0 0.476512,0.076762 0.258813,0.649354 -0.09484,0.249452 -0.58571,0.467219 -0.805477,0.52469 -0.365023,0.095456 -0.357278,0.065291 0.08957,-0.348832 z" style="fill:#7bfafa;fill-opacity:1;stroke:#000000;stroke-width:0.21602426;stroke-miterlimit:4;stroke-dasharray:none;stroke-opacity:1" inkscape:connector-curvature="0"/>
      <path id="path879" d="m 9.7402633,35.572161 c 2.0544577,-0.202252 4.4497697,-0.542564 5.3229147,-0.756265 3.159114,-0.773186 10.131966,-2.046932 11.355191,-2.074275 0.688441,-0.01532 0.803711,-0.05023 0.494157,-0.0789 -1.793162,-0.166042 -3.147683,-1.027203 -4.009578,-2.880418 -0.784275,-2.162013 -1.196375,-6.237528 0.740344,-8.403305 0.344695,-0.354922 0.887567,-0.918092 0.839512,-0.96615 -0.04806,-0.04806 -0.343039,-0.02402 -0.879712,0.0738 -1.358791,0.247657 -4.894205,0.08798 -8.539914,-0.385691 C 7.6783243,19.141463 3.2914061,18.734714 2.641424,18.949227 1.2736012,19.40065 0.75434612,21.797435 0.94209942,26.792992 c 0.19666388,5.232612 0.49668388,6.856643 1.47186988,7.96732 1.1559765,1.316591 1.6465494,1.370941 7.326294,0.811849 z" style="fill:#7bfafa;fill-opacity:1;stroke:#000000;stroke-width:0.21602426;stroke-miterlimit:4;stroke-dasharray:none;stroke-opacity:1" inkscape:connector-curvature="0"/>
      <path id="path877" d="m 3.8361831,33.479172 c 0,-0.0821 2.3064432,-0.149714 2.5889313,-0.150274 0.2824879,0 2.0264429,-0.248179 3.8754556,-0.550296 1.849012,-0.302118 4.32837,-0.677673 5.509683,-0.834559 1.181314,-0.156886 2.7992,-0.401404 3.595302,-0.543367 0.796103,-0.141963 3.003947,-0.574521 3.003947,-0.500057 0,0.146166 -1.85966,0.896349 -4.590061,1.301974 -0.975868,0.14497 -3.707364,0.698331 -6.069991,1.056741 -5.0923167,0.772495 -7.9132669,0.416338 -7.9132669,0.219838 z" style="fill:#7bfafa;fill-opacity:1;stroke:#000000;stroke-width:0.21602426;stroke-miterlimit:4;stroke-dasharray:none;stroke-opacity:1" inkscape:connector-curvature="0"/>
      <path id="path875" d="m 5.0710395,31.063017 c 7.4514645,0.182637 15.5952065,-1.273727 15.5952065,-0.940195 -2.155577,0.38635 -3.889613,0.980787 -6.296125,1.167323 -0.709969,0.162879 -6.1351817,0.790882 -11.4138494,-0.134861 -0.7585676,-0.133031 0.790169,-0.124733 2.1147679,-0.09227 z" style="fill:#7bfafa;fill-opacity:1;stroke:#000000;stroke-width:0.21602426;stroke-miterlimit:4;stroke-dasharray:none;stroke-opacity:1" inkscape:connector-curvature="0"/>
      <path id="path873" d="m 5.3775012,30.281239 c 0.130798,-0.13184 3.6938731,-0.461029 9.1234738,-0.782571 1.755479,-0.0333 3.398405,-0.26007 4.961702,-0.227667 0,0.09521 -1.604969,0.470233 -2.298349,0.487472 -0.69338,0.01718 -2.143173,0.108812 -3.221764,0.203485 -2.749842,0.241361 -8.6766834,0.431772 -8.5650628,0.319281 z" style="fill:#7bfafa;fill-opacity:1;stroke:#000000;stroke-width:0.21602426;stroke-miterlimit:4;stroke-dasharray:none;stroke-opacity:1" inkscape:connector-curvature="0"/>
      <path id="path871" d="m 2.87685,28.994739 c 0.2365317,-0.103283 2.6086392,-0.399724 4.1183973,-0.485825 3.5499277,-0.20242 13.2340417,-0.282861 13.0596497,-0.108475 -0.07374,0.07374 -1.291153,0.366969 -2.702971,0.426014 -3.56261,0.148995 -8.2951047,0.280546 -10.4309717,0.260083 -0.5564745,0.08171 -4.4102013,0.06806 -4.0441043,-0.0918 z" style="fill:#7bfafa;fill-opacity:1;stroke:#000000;stroke-width:0.21602426;stroke-miterlimit:4;stroke-dasharray:none;stroke-opacity:1" inkscape:connector-curvature="0"/>
      <path id="path869" d="m 8.0205913,27.796708 c 0.06429,-0.06429 2.7467587,-0.422253 5.9610427,-0.449596 4.502084,-0.03829 5.2008,0.266002 3.042617,0.375785 -3.561909,0.181147 -9.1568697,0.227036 -9.0036597,0.07381 z" style="fill:#7bfafa;fill-opacity:1;stroke:#000000;stroke-width:0.21602426;stroke-miterlimit:4;stroke-dasharray:none;stroke-opacity:1" inkscape:connector-curvature="0"/>
      <path id="path867" d="m 9.4601093,26.641154 c -3.2185421,-0.303632 -6.5696158,-0.20956 -4.6831225,-0.401223 2.1594875,-0.219397 15.5157212,-0.251146 15.5157212,0.01392 0,0.09109 -2.107492,0.293752 -2.492702,0.277409 -3.400882,0.05871 -4.667113,0.114297 -8.3398967,0.109897 z" style="fill:#7bfafa;fill-opacity:1;stroke:#000000;stroke-width:0.21602426;stroke-miterlimit:4;stroke-dasharray:none;stroke-opacity:1" inkscape:connector-curvature="0"/>
      <path id="path865" d="m 2.7513581,25.10181 c 1.495584,-0.367673 10.7643749,-1.127974 13.8059709,-1.184898 1.797651,-0.03364 5.483517,0.110366 4.559011,0.147083 -2.156062,0.08562 -10.487916,0.85407 -13.2528587,1.013542 -2.3284274,0.134297 -6.1181093,0.271574 -5.1121232,0.02427 z" style="fill:#7bfafa;fill-opacity:1;stroke:#000000;stroke-width:0.21602426;stroke-miterlimit:4;stroke-dasharray:none;stroke-opacity:1" inkscape:connector-curvature="0"/>
      <path id="path863" d="m 2.2863333,23.62365 c 0.3512302,-0.153539 11.3722987,-0.74446 13.6173047,-0.933634 1.232675,-0.103872 4.705914,-0.367849 5.527697,-0.356027 1.154613,0.0166 -1.040908,0.268867 -3.566623,0.468497 -1.797651,0.142087 -4.949377,0.477929 -7.003836,0.746318 -3.6995467,0.4833 -8.9351225,0.232469 -8.5745427,0.07485 z" style="fill:#7bfafa;fill-opacity:1;stroke:#000000;stroke-width:0.21602426;stroke-miterlimit:4;stroke-dasharray:none;stroke-opacity:1" inkscape:connector-curvature="0"/>
      <path id="path861" d="m 9.3667253,21.812917 c -2.804145,0.0602 -7.4890275,-0.576793 -6.577681,-0.708752 0.697018,-0.100927 7.038572,0.01339 10.6308987,0.07767 7.119709,0.127392 8.798997,0.533356 8.798997,0.739127 -4.274667,0.207951 -8.503564,0.09285 -12.8522147,-0.108042 z" style="fill:#7bfafa;fill-opacity:1;stroke:#000000;stroke-width:0.21602426;stroke-miterlimit:4;stroke-dasharray:none;stroke-opacity:1" inkscape:connector-curvature="0"/>
      <path id="path859" d="m 114.45762,9.2100633 c -0.37375,-0.289049 -2.05811,-2.293808 -2.79132,-2.679384 l -0.8169,-0.640186 0.12666,0.599187 c 0.28285,1.338138 1.76944,2.933798 2.73326,2.933798 0.49495,-0.089139 0.59941,0.168014 0.7483,-0.213415 z" style="fill:#7bfafa;fill-opacity:1;stroke:#000000;stroke-width:0.21602426;stroke-miterlimit:4;stroke-dasharray:none;stroke-opacity:1" inkscape:connector-curvature="0"/>
      <path id="path857" d="m 42.408181,41.827893 c 0.05059,-2.054458 0.223112,-5.154488 0.261093,-5.197296 0.07423,-0.08365 0.205838,2.664459 0.106987,5.282111 -0.05571,1.475135 -0.202456,3.447417 -0.262756,3.690586 -0.07642,0.308169 -0.155916,-1.720943 -0.105324,-3.775401 z" style="fill:#7bfafa;fill-opacity:1;stroke:#000000;stroke-width:0.21602426;stroke-miterlimit:4;stroke-dasharray:none;stroke-opacity:1" inkscape:connector-curvature="0"/>
      <path id="path855" d="m 39.864148,45.153527 c -0.03829,-0.79261 1.473753,-8.044885 1.677176,-8.044885 0.113363,0 -0.610603,4.682682 -0.938893,5.828192 -0.120918,0.421911 -0.723926,2.513936 -0.738283,2.216693 z" style="fill:#7bfafa;fill-opacity:1;stroke:#000000;stroke-width:0.21602426;stroke-miterlimit:4;stroke-dasharray:none;stroke-opacity:1" inkscape:connector-curvature="0"/>
      <path id="path853" d="m 41.560608,42.127265 c 0.04298,-1.478911 0.251124,-3.362179 0.309693,-3.42075 0.148496,-0.1485 0.05228,5.067841 -0.116297,5.97961 -0.07597,0.410891 -0.236371,-1.079949 -0.193396,-2.55886 z" style="fill:#7bfafa;fill-opacity:1;stroke:#000000;stroke-width:0.21602426;stroke-miterlimit:4;stroke-dasharray:none;stroke-opacity:1" inkscape:connector-curvature="0"/>
      <path id="path851" d="m 43.449582,41.454355 c 3.73e-4,-1.335398 0.105117,-3.241283 0.14115,-2.543627 0.03603,0.697638 0.219198,3.057597 0.0078,4.529147 -0.15333,-0.08595 -0.168559,-1.626277 -0.148928,-1.98552 z" style="fill:#7bfafa;fill-opacity:1;stroke:#000000;stroke-width:0.21602426;stroke-miterlimit:4;stroke-dasharray:none;stroke-opacity:1" inkscape:connector-curvature="0"/>
      <path id="path849" d="m 38.150256,43.09433 c -0.02332,-0.593066 1.844924,-6.523316 2.119265,-6.789462 0.130178,-0.126293 0.0055,0.704384 -0.195879,1.360747 -0.105671,0.344368 -0.911562,2.90209 -1.30816,4.172283 -0.115401,0.369601 -0.601106,1.615533 -0.615226,1.256432 z" style="fill:#7bfafa;fill-opacity:1;stroke:#000000;stroke-width:0.21602426;stroke-miterlimit:4;stroke-dasharray:none;stroke-opacity:1" inkscape:connector-curvature="0"/>
      <path id="path847" d="m 39.403128,42.583306 c 0.47213,-2.153763 1.026224,-4.227498 1.271,-4.850989 0.359015,-0.914477 0.163326,0.261452 -0.5202,3.207845 -0.291849,1.258056 -0.837069,2.912962 -0.916068,2.913261 -0.079,0 0.114603,-1.03899 0.165268,-1.270117 z" style="fill:#7bfafa;fill-opacity:1;stroke:#000000;stroke-width:0.21602426;stroke-miterlimit:4;stroke-dasharray:none;stroke-opacity:1" inkscape:connector-curvature="0"/>
      <path id="path845" d="m 44.405601,40.51657 c 0.0622,-1.491873 0.167254,-3.483706 0.233462,-3.549916 0.151811,-0.151824 0.284572,1.495887 0.131016,4.160855 -0.06659,1.155633 -0.296333,3.110112 -0.357681,3.110224 -0.06135,1.12e-4 -0.06899,-2.229309 -0.0068,-3.721163 z" style="fill:#7bfafa;fill-opacity:1;stroke:#000000;stroke-width:0.21602426;stroke-miterlimit:4;stroke-dasharray:none;stroke-opacity:1" inkscape:connector-curvature="0"/>
      <path id="path843" d="m 37.795899,42.061354 c 0.28486,-1.212709 0.749044,-3.123113 0.916023,-3.562319 0.876628,-2.33971 0.437193,-0.413618 -0.102698,1.741322 -0.30883,1.232675 -0.735638,2.332944 -0.815983,2.332944 -0.08034,0 -0.05163,-0.28082 0.0027,-0.511947 z" style="fill:#7bfafa;fill-opacity:1;stroke:#000000;stroke-width:0.21602426;stroke-miterlimit:4;stroke-dasharray:none;stroke-opacity:1" inkscape:connector-curvature="0"/>
      <path id="path841" d="m 37.021068,40.753972 c 0.360281,-1.03569 1.903,-4.062225 2.071015,-4.062225 0.07208,0 -0.562068,1.576197 -0.899673,2.269577 -0.337606,0.69338 -0.783197,1.500821 -0.918866,1.886032 -0.135669,0.385211 -0.310106,0.700384 -0.387635,0.700384 -0.07753,0 -0.01672,-0.357196 0.135159,-0.793768 z" style="fill:#7bfafa;fill-opacity:1;stroke:#000000;stroke-width:0.21602426;stroke-miterlimit:4;stroke-dasharray:none;stroke-opacity:1" inkscape:connector-curvature="0"/>
      <path id="path839" d="m 36.703361,39.82081 c 0,-0.452466 0.994455,-3.647681 1.157399,-3.647681 0.083,0 -0.05985,1.092933 -0.317434,1.837674 -0.498275,1.440623 -0.839965,2.250016 -0.839965,1.810007 z" style="fill:#7bfafa;fill-opacity:1;stroke:#000000;stroke-width:0.21602426;stroke-miterlimit:4;stroke-dasharray:none;stroke-opacity:1" inkscape:connector-curvature="0"/>
      <path id="path837" d="m 43.762225,10.211458 c 0,-0.3150747 -1.494695,-2.3012657 -2.325518,-3.0825707 -0.991899,-0.932778 -1.355165,-1.493249 -3.036108,-2.371297 0.654395,0.884764 3.57435,4.317781 5.361626,5.4538677 z" style="fill:#7bfafa;fill-opacity:1;stroke:#000000;stroke-width:0.21602426;stroke-miterlimit:4;stroke-dasharray:none;stroke-opacity:1" inkscape:connector-curvature="0"/>
      <path id="path835" d="m 40.117304,8.6392563 c -1.044128,-0.73276 -3.150696,-3.356038 -3.189703,-3.448575 -0.03901,-0.092534 2.818325,2.253928 2.925532,2.320184 0.250692,0.154938 2.85487,2.5855137 2.718797,2.7215877 -0.05661,0.05661 -1.795748,-1.1308037 -2.454626,-1.5931967 z" style="fill:#7bfafa;fill-opacity:1;stroke:#000000;stroke-width:0.21602426;stroke-miterlimit:4;stroke-dasharray:none;stroke-opacity:1" inkscape:connector-curvature="0"/>
      <path id="path833" d="m 42.878618,7.7915713 c -1.483052,-1.940221 -2.548431,-3.485317 -2.315434,-3.341316 0.234314,0.144813 3.116897,2.939767 3.69109,4.450046 0.02274,0.059815 -0.816044,-0.492033 -1.375656,-1.10873 z" style="fill:#7bfafa;fill-opacity:1;stroke:#000000;stroke-width:0.21602426;stroke-miterlimit:4;stroke-dasharray:none;stroke-opacity:1" inkscape:connector-curvature="0"/>
      <path id="path831" d="m 44.827324,8.5630583 c -0.628108,-0.861995 -2.018143,-3.261787 -2.354966,-3.812139 -0.20432,-0.33385 -1.031233,-1.924387 -0.9408,-1.924387 0.168695,0 2.700933,2.899894 3.273385,4.324273 0.175879,0.437618 0.833559,2.349687 0.768543,2.414703 -0.06502,0.065018 -0.675941,-0.807983 -0.746162,-1.00245 z" style="fill:#7bfafa;fill-opacity:1;stroke:#000000;stroke-width:0.21602426;stroke-miterlimit:4;stroke-dasharray:none;stroke-opacity:1" inkscape:connector-curvature="0"/>
      <path id="path829" d="M 45.503579,7.1507243 C 44.58709,5.8813453 43.493357,3.6017453 43.311761,2.8465433 l 1.122228,1.594868 c 0.44823,0.637007 2.221371,3.968851 2.101712,4.08851 -0.04222,0.042218 -0.635076,-0.68848 -1.032122,-1.379197 z" style="fill:#7bfafa;fill-opacity:1;stroke:#000000;stroke-width:0.21602426;stroke-miterlimit:4;stroke-dasharray:none;stroke-opacity:1" inkscape:connector-curvature="0"/>
      <path id="path827" d="m 47.771826,6.2416813 c -0.542005,-1.02353 -0.859851,-2.061074 -0.767467,-2.061074 0.200009,0 2.475489,4.166679 2.344038,4.29813 -0.04996,0.049957 -1.034564,-1.213525 -1.576571,-2.237056 z" style="fill:#7bfafa;fill-opacity:1;stroke:#000000;stroke-width:0.21602426;stroke-miterlimit:4;stroke-dasharray:none;stroke-opacity:1" inkscape:connector-curvature="0"/>
      <path id="path825" d="m 45.727866,5.8312073 c -0.545956,-1.126857 -0.960913,-2.380732 -0.922125,-2.419518 0.113285,-0.113285 2.03464,3.362317 2.284356,4.143272 0.402803,1.259727 -0.345291,0.375219 -1.362231,-1.723754 z" style="fill:#7bfafa;fill-opacity:1;stroke:#000000;stroke-width:0.21602426;stroke-miterlimit:4;stroke-dasharray:none;stroke-opacity:1" inkscape:connector-curvature="0"/>
      <path id="path823" d="m 46.864695,5.9320013 c -0.933354,-1.784777 -1.770077,-3.969462 -1.241928,-3.210394 0.440233,0.632712 2.807436,5.754822 2.721685,5.840571 -0.04485,0.044855 -0.949208,-1.615654 -1.479757,-2.630177 z" style="fill:#7bfafa;fill-opacity:1;stroke:#000000;stroke-width:0.21602426;stroke-miterlimit:4;stroke-dasharray:none;stroke-opacity:1" inkscape:connector-curvature="0"/>
      <path id="path1000" d="m 48.803547,6.4545563 c -0.285346,-0.524273 -0.478347,-1.336769 -0.388128,-1.336769 0.223299,0 1.591999,2.502721 1.507935,2.754913 -0.03706,0.111163 -0.834462,-0.893869 -1.119807,-1.418144 z" style="fill:#7bfafa;fill-opacity:1;stroke:#000000;stroke-width:0.21602426;stroke-miterlimit:4;stroke-dasharray:none;stroke-opacity:1" inkscape:connector-curvature="0"/>
    </g>
    <path inkscape:label="UBERON_0000955" inkscape:connector-curvature="0" id="brain" d="M 108.16854,12.890773 C 106.00604,11.695576 105.82848,10.206675 105.82848,10.206675 105.52461,8.1848762 104.1445,8.4933512 104.1445,8.4933512 103.92163,8.5044612 103.84655,8.9275812 103.84655,8.9275812 102.74654,7.0353582 101.75794,7.9383882 101.75794,7.9383882 100.51429,9.0338662 99.241452,8.7378862 99.241452,8.7378862 98.869002,9.2806802 98.974482,9.6199042 98.974482,9.6199042 100.70317,10.147767 101.66732,10.938424 101.66732,10.938424 102.17561,11.497199 104.25469,11.917721 104.25469,11.917721 104.62594,12.004051 105.1247,11.994141 105.1247,11.994141 105.76113,12.14213 107.73293,13.167107 107.73293,13.167107 108.09344,13.31388 108.16854,12.890762 108.16854,12.890762 Z" style="fill:#7bfafa;fill-opacity:1;stroke:#000000;stroke-width:0.21602426;stroke-miterlimit:4;stroke-dasharray:none;stroke-opacity:1" label="UBERON_0000955" connector-curvature="0" ontology="UBERON_0000955"/>
    <path sodipodi:nodetypes="cccccccc" inkscape:connector-curvature="0" id="heart" d="M 98.997422,32.185342 C 100.89986,31.897722 102.30605,31.467832 101.59794,33.792882 100.9602,35.361682 100.09243,36.417592 98.198442,37.464182 97.368438,37.876242 96.853602,38.816342 96.446712,38.513332 96.002719,38.259172 95.554795,37.633842 95.649675,37.177342 95.706625,36.811172 95.858248,36.419582 96.214174,36.036712 96.943882,35.248282 96.745932,33.295902 97.499188,32.465832 97.769862,32.166132 98.233622,31.866272 98.997422,32.185342 Z" style="fill:#7bfafa;fill-opacity:1;stroke:#000000;stroke-width:0.21602426;stroke-miterlimit:4;stroke-dasharray:none;stroke-opacity:1" inkscape:label="UBERON_0000948" nodetypes="cccccccc" connector-curvature="0" label="UBERON_0000948" ontology="UBERON_0000948"/>
    <path inkscape:label="UBERON_0002113" sodipodi:nodetypes="ccssccscsssc" inkscape:connector-curvature="0" id="kidney" d="M 89.775272,12.570364 C 90.420236,13.02069 90.38464,14.133222 89.869602,14.4806 89.747244,14.613308 86.123603,15.670988 79.960871,16.698107 75.24357,17.484322 69.957698,17.470826 66.746059,19.012417 61.810851,21.38132 57.561896,27.55513 55.458451,30.22269 51.944563,34.986472 50.615466,37.202942 50.615466,37.202942 50.454926,37.368022 49.428945,37.682272 49.753943,36.766352 50.551615,34.518302 53.622316,29.97472 53.622316,29.97472 55.690128,26.76314 60.014822,20.193673 64.914022,17.537332 69.642931,14.973317 73.694563,15.332273 78.310938,14.528486 81.689959,13.940141 84.686422,12.847937 86.904337,12.40231 88.500806,12.081543 89.775273,12.570364 89.775273,12.570364 Z" style="fill:#7bfafa;fill-opacity:1;stroke:#000000;stroke-width:0.21602426;stroke-miterlimit:4;stroke-dasharray:none;stroke-opacity:1" label="UBERON_0002113" nodetypes="ccssccscsssc" connector-curvature="0" ontology="UBERON_0002113"/>
    <g transform="matrix(0.18676894,0,0,0.18676894,-38.44627,-50.041174)" style="fill:#7bfafa;fill-opacity:1;stroke:#000000;stroke-width:0.21602426;stroke-miterlimit:4;stroke-dasharray:none;stroke-opacity:1" inkscape:label="UBERON_0014892" id="skeletal.muscle.organ" label="UBERON_0014892" ontology="UBERON_0014892">
      <path d="M 401.79014,453.74056 C 394.16699,449.14459 384.46213,445.5274 379.42293,438.511 372.965,430.90565 374.14456,423.17284 380.25688,416.87079 391.22376,406.22318 388.67864,401.40781 378.82524,392.71367 376.06954,390.15113 374.86115,388.82108 373.7345,387.11038 370.01537,381.67225 372.33141,376.38951 376.70949,371.97398 380.10413,368.59324 384.23116,365.17373 390.36279,361.78831 L 392.06743,360.84714 C 394.75618,359.82779 397.35183,358.87954 400.28025,357.58321 396.48918,361.44724 387.9126,368.54025 385.72912,375.77021 385.3776,377.07562 385.43498,379.10106 385.86016,380.39551 389.1133,386.79667 395.08907,388.02413 399.66792,391.06979 408.67959,396.59512 411.46501,405.52822 406.1848,413.61922 404.19608,416.57742 400.06305,420.63609 395.59123,424.0222 388.87767,428.78378 388.19857,435.30451 393.05149,440.10686 399.03609,446.89255 403.97971,449.56559 412.32434,455.38578 408.46203,454.88373 406.17342,454.55687 401.79014,453.74056 Z" id="path4096" inkscape:connector-curvature="0" sodipodi:nodetypes="ccccccscccccccccc" style="fill:#7bfafa;fill-opacity:1;stroke:#000000;stroke-width:0.21602426;stroke-miterlimit:4;stroke-dasharray:none;stroke-opacity:1"/>
      <path sodipodi:nodetypes="cccccccccccc" inkscape:connector-curvature="0" id="path4098" d="M 380.38387,449.40358 C 374.13249,446.83236 363.0974,442.55635 358.54764,436.22144 352.71696,429.35478 354.89934,422.81948 358.54264,416.6831 364.65626,406.50146 365.95702,402.72201 357.43946,394.87231 352.26663,389.13938 350.70687,383.22057 357.36016,376.8415 362.35069,372.31474 364.58251,370.66549 369.64805,367.86868 372.07565,366.94834 376.79664,365.64467 379.50376,365.04246 368.20016,373.80771 356.78076,382.92781 373.16419,393.5775 381.36372,399.38691 381.35321,405.93713 374.81809,414.3787 358.77424,434.59572 374.96614,440.40912 390.46283,451.70975 386.97566,451.00392 384.40426,450.33 380.38358,449.40358 Z" style="fill:#7bfafa;fill-opacity:1;stroke:#000000;stroke-width:0.21602426;stroke-miterlimit:4;stroke-dasharray:none;stroke-opacity:1"/>
      <path d="M 353.86736,441.32236 C 347.61598,438.75114 341.63166,435.73782 338.59713,432.43337 335.7969,428.34463 334.57002,422.06187 338.21332,415.92549 344.32694,405.74385 343.85993,405.37366 335.34237,397.52396 330.16954,391.79103 332.39785,387.13491 339.05114,380.75584 344.04167,376.22908 344.00065,376.85268 349.06619,374.05587 351.49379,373.13553 357.47747,370.4429 361.32101,369.96695 350.01741,378.7322 335.94636,383.81169 351.31964,395.47154 358.38275,401.78602 360.01374,406.31594 353.47862,414.75751 342.10672,432.95422 350.2174,433.84313 365.71409,445.14376 359.74919,443.69566 356.99787,442.28372 353.86736,441.32236 Z" id="path4102" inkscape:connector-curvature="0" sodipodi:nodetypes="ccccccccccc" style="fill:#7bfafa;fill-opacity:1;stroke:#000000;stroke-width:0.21602426;stroke-miterlimit:4;stroke-dasharray:none;stroke-opacity:1"/>
      <path d="M 328.8605,394.71097 C 324.74909,412.52065 330.25151,423.25355 330.25151,423.25355 331.69217,417.6722 333.92165,414.56832 333.92165,414.56832 336.84373,410.7291 336.00677,406.64519 336.00677,406.64519 335.40179,404.34085 333.0012,401.733 333.0012,401.733 330.40607,398.59502 328.8605,394.71097 328.8605,394.71097 Z" id="path4104" inkscape:connector-curvature="0" style="fill:#7bfafa;fill-opacity:1;stroke:#000000;stroke-width:0.21602426;stroke-miterlimit:4;stroke-dasharray:none;stroke-opacity:1"/>
    </g>
  </g>
</svg>
