<?xml version="1.0" encoding="UTF-8" standalone="no"?>
<!-- Created with Inkscape (http://www.inkscape.org/) -->
<svg xmlns:dc="http://purl.org/dc/elements/1.1/" xmlns:cc="http://creativecommons.org/ns#" xmlns:rdf="http://www.w3.org/1999/02/22-rdf-syntax-ns#" xmlns:svg="http://www.w3.org/2000/svg" xmlns="http://www.w3.org/2000/svg" xmlns:sodipodi="http://sodipodi.sourceforge.net/DTD/sodipodi-0.dtd" xmlns:inkscape="http://www.inkscape.org/namespaces/inkscape" width="78.069733" height="158.28831" viewBox="0 0 78.069733 158.28831" preserveAspectRatio="none" id="svg2" version="1.1" inkscape:version="0.92.3 (unknown)" sodipodi:docname="triticum_aestivum.whole_plant.svg">
  <defs id="defs4"/>
  <sodipodi:namedview id="base" pagecolor="#ffffff" bordercolor="#666666" borderopacity="1.0" inkscape:pageopacity="0.0" inkscape:pageshadow="2" inkscape:zoom="3.959798" inkscape:cx="-154.88148" inkscape:cy="69.811417" inkscape:document-units="px" inkscape:current-layer="LAYER_EFO" showgrid="false" inkscape:window-width="3375" inkscape:window-height="1416" inkscape:window-x="65" inkscape:window-y="24" inkscape:window-maximized="1" fit-margin-top="0" fit-margin-left="0" fit-margin-right="0" fit-margin-bottom="0" units="px"/>
  <metadata id="metadata">
    <rdf:RDF>
      <cc:Work rdf:about="">
        <dc:format>image/svg+xml</dc:format>
        <dc:type rdf:resource="http://purl.org/dc/dcmitype/StillImage"/>
        <dc:title/>
      </cc:Work>
    </rdf:RDF>
  </metadata>
  <g inkscape:label="EFO" id="container" inkscape:groupmode="layer" label="EFO" groupmode="layer">
    <g id="outline" style="fill:#66fafa;fill-opacity:1;stroke:#000000;stroke-opacity:1">
      <path id="path891" d="m 29.271033,158.13237 c -0.231183,-0.43197 -0.515618,-1.98586 -0.515618,-2.81687 0,-0.51167 -0.0666,-1.09751 -0.16094,-1.41551 -0.460249,-1.55152 -0.937832,-2.59261 -0.937832,-2.04437 0,0.25795 -0.30763,1.07704 -0.751622,2.00128 -0.23753,0.49443 -0.462615,1.12373 -0.50019,1.39841 -0.06633,0.48501 -0.472828,1.34849 -0.634797,1.34849 -0.169788,0 -0.410826,-0.37794 -0.410826,-0.64418 0,-0.43687 0.506827,-2.35018 0.754968,-2.85007 0.28477,-0.57368 0.74336,-2.39633 0.74336,-2.95447 0,-0.48075 0.38533,-1.44539 1.203179,-3.01208 0.524496,-1.00473 0.532288,-1.03236 0.512497,-1.81766 -0.01101,-0.4386 -0.06162,-0.90097 -0.112394,-1.02749 -0.05778,-0.14402 -0.09467,-0.1709 -0.09862,-0.072 -0.0097,0.24108 -0.656115,0.83762 -1.392903,1.28533 -1.072044,0.65146 -1.643895,1.13282 -1.909273,1.60713 -0.244705,0.43736 -0.249414,0.48735 -0.258467,2.74292 -0.0097,2.40983 -0.0971,2.98554 -0.522138,3.43811 -0.09285,0.0989 -0.294422,0.34349 -0.447952,0.54362 -0.153528,0.20015 -0.463505,0.45794 -0.688836,0.5729 -0.639143,0.32608 -1.180982,0.88446 -1.492949,1.53857 -0.157215,0.32961 -0.285881,0.65295 -0.285924,0.71851 -4.4e-5,0.0656 -0.09959,0.1889 -0.221202,0.27408 -0.185527,0.12996 -0.233553,0.13267 -0.298339,0.0169 -0.117119,-0.20927 0.07268,-1.47885 0.278998,-1.8662 0.100183,-0.18808 0.18403,-0.37373 0.186333,-0.41255 0.0024,-0.0389 0.341066,-0.4533 0.752808,-0.92103 0.925422,-1.05128 1.468523,-1.93425 1.55841,-2.53367 0.03773,-0.25159 0.02757,-0.97726 -0.02258,-1.61257 -0.103137,-1.30652 -0.02624,-2.34111 0.207632,-2.79336 0.243485,-0.47084 0.743816,-0.99858 1.398584,-1.47518 0.32689,-0.23795 0.562178,-0.43263 0.522865,-0.43263 -0.06147,0 -0.673515,0.29372 -2.047729,0.98267 -0.616668,0.30917 -0.851555,0.89585 -1.266826,3.16415 -0.263729,1.44054 -0.366777,1.84578 -0.621973,2.44582 -0.324458,0.76293 -0.760775,1.5982 -0.834823,1.5982 -0.176202,0 -0.190341,-0.42218 -0.03569,-1.0655 0.157744,-0.65616 0.229632,-2.87747 0.09741,-3.0097 -0.03127,-0.0312 -0.110023,-0.003 -0.175037,0.0614 -0.065,0.065 -0.21759,0.11819 -0.339066,0.11819 -0.234736,0 -0.637662,0.4151 -0.905292,0.93264 -0.110192,0.21309 -0.185422,0.76109 -0.241755,1.76105 -0.04498,0.79842 -0.111876,1.63147 -0.14866,1.85124 -0.07079,0.42287 -0.812761,1.63962 -1.003114,1.645 -0.198749,0.006 -0.242171,-0.59838 -0.08251,-1.14761 0.09391,-0.32307 0.14252,-0.81043 0.124517,-1.24865 l -0.02952,-0.71876 -0.34961,0.49715 c -0.38448,0.54671 -1.588257,1.64176 -1.747517,1.58965 -0.264082,-0.0864 -0.151194,-0.593 0.277255,-1.24425 0.557858,-0.84794 0.677175,-1.08195 1.065418,-2.0895 0.38437,-0.99749 1.021294,-1.8057 1.74482,-2.21403 0.583397,-0.32923 1.647819,-1.4305 1.903556,-1.96943 0.260088,-0.54809 0.951221,-1.16814 1.914291,-1.71739 0.837793,-0.4778 1.947005,-1.02141 2.084142,-1.02141 0.187586,0 1.048775,-0.4412 1.048775,-0.53731 0,-0.0623 0.133142,-0.17209 0.29587,-0.24412 0.428769,-0.18978 1.064386,-1.19228 1.199321,-1.89158 0.06085,-0.31534 0.17078,-0.7644 0.244286,-0.9979 0.0735,-0.23349 0.100137,-0.42453 0.05918,-0.42453 -0.04095,0 -0.298854,0.17867 -0.573116,0.39705 -0.416477,0.33159 -0.735505,0.46447 -1.9359,0.80624 -0.887329,0.25263 -1.72389,0.56519 -2.186409,0.81686 -0.642949,0.34985 -1.325556,0.79553 -1.498327,0.97824 -0.02746,0.0291 -0.162318,0.13084 -0.299666,0.22623 -0.137346,0.0954 -0.451994,0.32943 -0.69922,0.52012 -0.756104,0.58322 -0.978801,0.66928 -1.838707,0.71067 -0.753018,0.0362 -0.847307,0.0663 -1.377814,0.43879 -0.632269,0.44399 -0.825148,0.48721 -0.969624,0.21726 -0.149175,-0.27875 0.164208,-0.70554 0.953164,-1.2981 0.482543,-0.36243 0.77833,-0.5154 0.997905,-0.51607 0.555139,-0.002 1.115512,-0.27652 1.951494,-0.95697 1.081714,-0.88045 2.062417,-1.50114 2.651557,-1.67817 2.653163,-0.79719 4.113591,-1.41413 4.578235,-1.93403 0.135862,-0.15201 0.413643,-0.54609 0.617287,-0.87572 0.203646,-0.32963 0.722967,-1.0642 1.154054,-1.63237 0.884326,-1.16558 0.932091,-1.26235 1.018637,-2.06381 0.205045,-1.89883 0.620111,-3.17467 1.494728,-4.59455 0.672068,-1.09107 2.510118,-4.72602 2.806518,-5.55023 0.294203,-0.81809 0.307575,-1.06406 0.360742,-6.63616 0.05531,-5.79746 -0.272246,-17.878415 -0.496098,-18.296675 -0.05857,-0.10944 -0.367424,-0.4177 -0.686343,-0.68505 -1.37816,-1.155213 -4.43296,-4.275486 -5.823998,-5.948788 -0.247223,-0.29739 -0.678476,-0.788005 -0.958336,-1.090258 -0.279861,-0.302251 -0.939092,-1.088944 -1.464954,-1.748208 -0.525862,-0.659265 -1.455902,-1.805486 -2.066757,-2.547157 -0.610853,-0.74167 -1.356731,-1.650037 -1.657502,-2.018588 -0.81043,-0.993061 -3.541631,-3.859414 -3.541631,-3.716886 0,0.02698 -0.339848,-0.289691 -0.755221,-0.703718 -0.415372,-0.414026 -0.800099,-0.752776 -0.854947,-0.752776 -0.05485,0 -0.07194,-0.04494 -0.038,-0.09989 0.03396,-0.05493 0.0064,-0.09989 -0.06115,-0.09989 -0.0676,0 -0.195499,-0.0657 -0.284245,-0.146022 -0.08874,-0.08031 -0.329692,-0.21636 -0.535444,-0.302327 l -0.374089,-0.156306 -0.553459,0.523437 c -0.586887,0.555057 -1.858764,2.283045 -2.652591,3.60385 -0.413167,0.687448 -1.791515,3.408548 -2.33934,4.618279 -0.4069505,0.898637 -1.2866565,3.109418 -1.9476185,4.894534 -0.386491,1.043836 -0.739549,1.987777 -0.784566,2.097653 -0.04503,0.109877 -0.135859,0.333105 -0.201868,0.496049 -0.123011,0.303671 -0.637512,2.15939 -1.067162,3.849102 -0.237319,0.933305 -0.389224,1.453295 -0.539841,1.847935 -0.04194,0.10986 -0.16989,0.55937 -0.284341,0.99888 -0.114452,0.43951 -0.278316,1.06881 -0.364144,1.39844 -0.08582,0.32963 -0.266406,1.02635 -0.401289,1.54826 -0.134881,0.52193 -0.317329,1.19618 -0.405441,1.49833 -0.08811,0.30217 -0.360811,1.31354 -0.605998,2.24749 -0.735692,2.80237 -1.211016,4.06195 -1.966425,5.2109 -0.314117,0.47776 -0.47021402,0.62559 -0.69549502,0.65865 -0.25473,0.0374 -0.30881,-9.6e-4 -0.439474,-0.31398 -0.514563,-1.23152 -0.395445,-3.90151 0.336981,-7.55333 0.143243,-0.71421 0.316564,-1.61321 0.38515602,-1.99777 0.385484,-2.16126 2.189859,-9.159676 2.974569,-11.537112 0.739509,-2.240492 2.106312,-5.894223 2.679011,-7.161516 0.104147,-0.230475 0.189369,-0.442759 0.189369,-0.471739 0,-0.164 1.689153,-3.653314 2.204141,-4.553135 0.502458,-0.877927 1.3572895,-2.130166 1.7887595,-2.620342 0.454351,-0.51617 0.991656,-0.796879 2.193477,-1.145956 0.665449,-0.193282 0.892153,-0.22197 1.079509,-0.136605 0.17375,0.07917 0.295731,0.07647 0.456203,-0.01011 0.379988,-0.204976 2.26422,-0.226171 3.445008,-0.03876 0.588079,0.09334 1.247205,0.221874 1.464722,0.285625 0.957103,0.280522 3.004284,2.029627 4.524717,3.865904 0.477635,0.576855 1.561241,1.970298 2.408012,3.096541 0.846772,1.126242 1.57831,2.062697 1.625639,2.081009 0.04732,0.01831 0.08604,0.07707 0.08604,0.130591 0,0.08923 0.280919,0.511037 1.276376,1.916511 0.20128,0.284186 0.39517,0.539177 0.430867,0.566647 0.08696,0.06691 0.889855,1.385806 0.889855,1.461731 0,0.03287 0.151125,0.26807 0.33583,0.522653 0.184707,0.254586 0.44735,0.665155 0.58365,0.91238 0.255202,0.462893 1.326301,2.101498 1.893508,2.896766 0.176329,0.247225 0.649386,0.961103 1.051237,1.586393 0.401856,0.625298 0.732069,1.074798 0.733807,0.998893 0.0017,-0.07591 0.01936,-0.542569 0.03917,-1.037019 0.06532,-1.631026 0.190092,-9.049765 0.188988,-11.237447 -0.0022,-4.196161 -0.09122,-6.019723 -0.397788,-8.140909 -0.228414,-1.580415 -0.227349,-3.280348 0.0024,-3.720846 0.0931,-0.178549 0.204305,-0.324637 0.247129,-0.324637 0.0653,0 0.307808,-2.852143 0.373697,-4.39509 0.01693,-0.39631 0.170414,-13.246089 0.173606,-14.533768 0.004,-1.617483 -0.148631,-4.276441 -0.255299,-4.44724 -0.06618,-0.10593 -0.368654,-0.290228 -0.672186,-0.409546 C 33.730717,48.592575 32.252101,47.66779 31.002942,46.579774 30.618371,46.244813 30.078973,45.794265 29.80428,45.578557 29.046264,44.983307 28.302286,44.193695 27.17316,42.786042 25.470532,40.66342 24.769708,39.483276 23.996536,37.4368 23.861621,37.079698 23.661468,36.635356 23.551754,36.449372 23.363753,36.130686 22.411148,33.606782 21.982829,32.292544 21.382928,30.451828 20.988145,29.02621 20.461465,26.79868 20.22765,25.809783 19.955996,24.686039 19.857791,24.301468 c -0.55004,-2.15394 -0.655475,-4.989666 -0.280404,-7.541576 0.100935,-0.686735 0.184549,-1.447136 0.185812,-1.689782 0.0031,-0.573356 0.06267,-0.496509 0.311339,0.40085 0.22356,0.80674 0.827081,2.292143 1.091882,2.687368 0.09202,0.137347 0.608835,1.103768 1.148471,2.147603 0.539635,1.043833 1.077782,2.055204 1.195879,2.247489 0.418441,0.68131 1.54881,3.086831 1.54881,3.296004 0,0.06563 0.06345,0.238634 0.140995,0.384457 0.244318,0.459429 1.257445,2.608377 1.257445,2.667168 0,0.0309 0.0854,0.244764 0.189796,0.475239 0.849689,1.875997 1.695284,4.090451 1.914576,5.013914 0.06523,0.274693 0.243515,0.881514 0.396191,1.348492 0.152676,0.466978 0.399743,1.231126 0.549036,1.698106 0.149294,0.466976 0.349941,1.006373 0.445883,1.19866 0.09595,0.192286 0.448974,0.911482 0.784511,1.598217 0.335539,0.686731 0.858021,1.563253 1.161069,1.947823 0.303051,0.38457 0.727283,0.923968 0.942741,1.19866 2.512948,3.203828 3.183442,4.000936 3.282284,3.902095 0.02857,-0.02856 0.06821,-2.266723 0.08811,-4.973674 0.05801,-7.896723 0.105304,-9.597317 0.33551,-12.063752 0.04358,-0.466978 0.07799,-1.899483 0.07647,-3.183344 l -0.0028,-2.334292 -0.31202,-0.162918 C 35.87813,24.339105 35.3204,23.756392 35.108274,23.30937 c -0.200757,-0.423068 -0.328672,-1.854722 -0.16571,-1.854722 0.05613,0 0.130374,0.112872 0.164999,0.250827 0.0704,0.280526 0.466187,0.60072 0.866816,0.701271 0.145475,0.03651 0.3168,0.1294 0.38072,0.206419 0.181423,0.218603 0.298548,0.164419 0.183125,-0.08471 -0.05727,-0.123612 -0.25192,-0.335577 -0.432557,-0.471036 -0.468377,-0.351229 -0.76157,-0.921535 -0.867303,-1.687053 -0.06649,-0.481307 -0.146373,-0.701429 -0.290648,-0.800803 -0.109427,-0.07538 -0.198965,-0.176512 -0.198965,-0.224749 0,-0.136666 0.328692,-0.09717 0.543505,0.0653 0.294425,0.222693 0.375409,0.176537 0.224661,-0.128036 -0.07479,-0.151083 -0.19236,-0.544393 -0.261293,-0.874025 -0.06893,-0.329633 -0.240942,-0.769592 -0.382248,-0.977689 -0.185877,-0.273737 -0.226725,-0.40855 -0.147721,-0.487555 0.07901,-0.07901 0.205008,-0.0046 0.455707,0.269044 l 0.34651,0.378235 -0.08876,-0.475145 c -0.161301,-0.863403 -0.287457,-1.220055 -0.499411,-1.41187 -0.287632,-0.260303 -0.414346,-0.515003 -0.293406,-0.58975 0.05382,-0.03326 0.347095,0.188757 0.651719,0.493381 0.30462,0.304623 0.625284,0.553858 0.712584,0.553858 0.12797,0 0.119283,-0.03387 -0.04483,-0.174804 -0.244378,-0.209868 -0.617691,-0.902001 -0.617691,-1.145216 0,-0.240392 -0.288415,-0.951496 -0.56861,-1.401939 -0.315193,-0.506713 -0.06654,-0.506713 0.374504,0 0.328677,0.37762 0.771089,0.722316 0.928644,0.723532 0.0469,4.6e-4 -0.04505,-0.147762 -0.204323,-0.329162 -0.183146,-0.208593 -0.372326,-0.62164 -0.514685,-1.123746 -0.123806,-0.436658 -0.268132,-0.861348 -0.320726,-0.943756 -0.197472,-0.309404 -0.223225,-0.431171 -0.124341,-0.587935 0.171522,-0.271915 0.370337,-0.181157 0.576785,0.263298 0.229927,0.495001 0.404931,0.578511 0.209327,0.09989 -0.07298,-0.178551 -0.165155,-0.593867 -0.204857,-0.922925 -0.0397,-0.329059 -0.157504,-0.7655283 -0.261784,-0.9699313 -0.366995,-0.719375 -0.163892,-0.938024 0.266795,-0.287216 0.142697,0.215632 0.323134,0.416495 0.40097,0.446363 0.184542,0.07082 0.179271,0.0361 -0.05471,-0.360482 C 35.743133,9.2636087 35.624859,8.8452537 35.58822,8.5168537 35.55154,8.1884567 35.43757,7.7311969 35.334912,7.5007209 35.133292,7.048073 35.091325,6.6711614 35.242552,6.6711614 c 0.101104,0 0.671435,1.1984558 0.629845,1.3235213 -0.01371,0.0412 0.04366,0.07492 0.127486,0.07492 0.134966,0 0.134094,-0.0354 -0.0077,-0.3094343 C 35.79055,7.3702936 35.765215,7.243149 35.645848,6.0219845 c -0.0537,-0.5493864 -0.187639,-1.31339 -0.297639,-1.6977857 -0.11,-0.3843956 -0.19857,-0.8114187 -0.196821,-0.9489403 0.0056,-0.4420779 0.237078,0.00252 0.432198,0.8301679 0.156843,0.6652957 0.467591,1.1966082 0.614143,1.0500557 0.02717,-0.027176 0.0098,-0.2618234 -0.03878,-0.5214393 -0.04849,-0.259616 -0.06605,-0.6362502 -0.03901,-0.8369649 0.06172,-0.4579432 0.663998,-2.5163957 0.823447,-2.8143281 0.212221,-0.39653821 0.214878,-0.14734061 0.0067,0.6294538 -0.209921,0.7833419 -0.251098,1.3277403 -0.133327,1.7626256 0.05664,0.2091452 0.09346,0.1453986 0.226669,-0.3923245 0.164864,-0.6652266 0.402274,-0.9358637 0.402274,-0.4584865 0,0.1455365 0.05201,0.3617912 0.115575,0.4805662 0.112957,0.2110595 0.117325,0.2114766 0.192758,0.018405 0.217749,-0.5573426 0.08637,-1.2935711 -0.493573,-2.76614031 -0.06747,-0.171307 -0.07141,-0.2930214 -0.01067,-0.3305325 0.129275,-0.079897 0.295848,0.03236 0.295848,0.1993799 0,0.074408 0.23007,0.7347642 0.511265,1.46745931 0.281195,0.7326952 0.566588,1.5119723 0.634208,1.7317267 l 0.122944,0.3995539 0.06941,-0.4994423 c 0.147654,-1.062536 0.173256,-1.161103 0.291095,-1.1207238 0.07706,0.026404 0.101497,0.1785963 0.06919,0.4309401 -0.05501,0.4296261 -0.0546,1.6557087 9.19e-4,2.5876641 0.01962,0.3296321 0.0045,0.7341802 -0.03349,0.8989961 -0.04868,0.2108872 0.0047,0.1517017 0.180237,-0.1997769 0.13717,-0.2746931 0.249977,-0.6005793 0.250684,-0.7241911 7.66e-4,-0.1236119 0.05095,-0.2247491 0.111663,-0.2247491 0.07302,0 0.08932,0.1436536 0.04815,0.4245258 -0.03423,0.2334893 -0.08905,0.7378921 -0.121817,1.1208952 -0.03277,0.3830032 -0.120212,0.8978286 -0.194313,1.1440559 -0.07412,0.2462283 -0.119496,0.4629283 -0.100868,0.4815563 0.01863,0.01863 0.196703,-0.192787 0.395724,-0.4698095 0.19897,-0.2770231 0.406829,-0.5036779 0.461861,-0.5036779 0.130063,0 0.129209,0.1699685 -0.0012,0.2506033 -0.274487,0.1696414 -0.521118,0.9137331 -0.559469,1.6879351 -0.02194,0.443014 -0.06692,0.8960363 -0.09996,1.0067143 -0.03923,0.131455 0.116885,0.02936 0.450228,-0.2944543 0.553426,-0.53759 0.65466,-0.512313 0.262071,0.06544 -0.351755,0.5176533 -0.628292,1.2663073 -0.659167,1.7845223 -0.01453,0.244049 -0.08935,0.571513 -0.166222,0.7277 -0.07688,0.156186 -0.11928,0.304481 -0.09422,0.329542 0.02506,0.02506 0.262459,-0.14215 0.527549,-0.371586 0.501931,-0.434417 0.726433,-0.403028 0.312434,0.0437 -0.246186,0.26564 -0.468023,0.859925 -0.47565,1.274243 -0.0024,0.130971 -0.06453,0.406692 -0.13806,0.612713 -0.07352,0.206018 -0.103913,0.374583 -0.06754,0.374583 0.03637,0 0.216396,-0.159302 0.400041,-0.354001 0.442594,-0.469235 0.504806,-0.370229 0.119374,0.189976 -0.289081,0.420165 -0.691119,1.813398 -0.560869,1.943648 0.02846,0.02846 0.231523,-0.09273 0.451256,-0.269318 0.442207,-0.355367 0.533999,-0.28615 0.158227,0.119316 -0.419235,0.452359 -0.557754,0.703342 -0.560013,1.014674 -0.0012,0.166328 -0.08891,0.493448 -0.194893,0.726938 -0.10599,0.23349 -0.171789,0.424526 -0.146232,0.424526 0.02556,0 0.17697,-0.146057 0.336472,-0.324567 0.374671,-0.419332 0.498011,-0.295775 0.193046,0.193384 -0.129879,0.208322 -0.285052,0.661181 -0.344831,1.006356 l -0.108686,0.627589 0.233546,-0.219407 c 0.22076,-0.207392 0.233374,-0.208881 0.23037,-0.02718 -0.0018,0.10572 -0.06918,0.279469 -0.149832,0.386111 -0.206425,0.272919 -0.182194,0.584907 0.05704,0.734305 0.20582,0.128537 0.210192,0.261914 0.03615,1.103386 -0.02656,0.128473 -0.37887,0.55568 -0.782886,0.949345 -0.560609,0.546243 -0.762019,0.817676 -0.850462,1.146121 -0.06374,0.236701 -0.144593,0.506219 -0.17968,0.598925 -0.05935,0.15679 -0.05181,0.15668 0.107899,-0.0015 0.293791,-0.291151 1.032887,-0.878684 1.105351,-0.878684 0.03793,0 0.190179,-0.112375 0.338301,-0.24972 0.406654,-0.37707 0.756669,-0.271267 0.37273,0.112669 -0.08159,0.08159 -0.264004,0.527537 -0.405368,0.990996 -0.295992,0.970398 -0.575885,1.355753 -1.113626,1.533225 -0.366759,0.121042 -0.381901,0.143861 -0.393119,0.592435 -0.0064,0.256602 -0.0606,2.354439 -0.120415,4.661862 -0.05981,2.307422 -0.12863,5.566284 -0.152925,7.241914 -0.0243,1.675627 -0.07815,4.514148 -0.119647,6.307825 l -0.07547,3.261228 0.408815,0.208563 c 0.448728,0.228924 0.439643,0.140665 0.116856,1.135194 -0.172434,0.531269 -0.175368,0.565072 -0.237419,2.733704 -0.03282,1.147253 -0.08306,2.535412 -0.11164,3.084797 -0.02858,0.549388 -0.07117,1.515809 -0.09464,2.147604 -0.02348,0.631794 -0.06997,1.845439 -0.103327,2.696987 -0.03337,0.851549 -0.07555,2.402317 -0.09374,3.446151 -0.0182,1.043834 -0.05983,2.279955 -0.09251,2.746932 l -0.05941,0.849053 0.258655,-0.799108 c 0.32561,-1.00597 1.869369,-5.575069 2.041828,-6.043252 0.07083,-0.192285 0.183206,-0.484457 0.249728,-0.649274 0.06652,-0.164816 0.444259,-1.266087 0.83942,-2.447266 0.395162,-1.181182 0.777423,-2.282453 0.849472,-2.447269 0.07205,-0.164815 0.257798,-0.591837 0.412782,-0.948939 0.726626,-1.674238 2.80688,-4.24038 4.483484,-5.530712 1.437906,-1.106622 2.156987,-1.480763 3.382608,-1.759997 1.035165,-0.23584 2.148786,-0.254421 3.413297,-0.05695 2.224704,0.347417 3.530679,0.818781 5.265963,1.900634 0.564855,0.352153 1.319185,0.807694 1.676285,1.012312 0.3571,0.204619 0.67174,0.402894 0.69922,0.440606 0.0275,0.03771 0.31964,0.216099 0.64928,0.396409 0.32963,0.18031 0.64427,0.361238 0.69922,0.402066 0.0549,0.04082 0.41425,0.245613 0.79848,0.45508 0.38424,0.209469 0.74383,0.41973 0.79911,0.467248 0.0553,0.04751 0.24567,0.162664 0.42308,0.255882 0.80807,0.424575 1.90335,1.064103 2.19295,1.280442 0.17488,0.130646 0.35073,0.237537 0.39077,0.237537 0.0965,0 1.67367,0.918269 1.74109,1.013695 0.0289,0.04089 0.18621,0.09799 0.34961,0.12691 0.1634,0.02891 0.63422,0.119078 1.04625,0.200365 0.88667,0.17492 2.86285,0.13548 4.24527,-0.08472 2.13625,-0.340286 2.923,-0.48647 3.32749,-0.618283 0.37879,-0.123436 0.44924,-0.121864 0.58413,0.01302 0.13792,0.137923 0.13775,0.177252 -0.002,0.390112 -0.35018,0.53446 -1.38065,1.221253 -2.42136,1.613801 -1.55694,0.587277 -2.97509,0.685481 -4.08564,0.28292 -0.73679,-0.267076 -0.77547,-0.273344 -2.74693,-0.445134 -1.64175,-0.143057 -2.72421,-0.333602 -3.95795,-0.696723 -0.55618,-0.163696 -1.10416,-0.297631 -1.21774,-0.297631 -0.11358,0 -0.23429,-0.04494 -0.26823,-0.09989 -0.0339,-0.05494 -0.16022,-0.100958 -0.28059,-0.102249 -0.2124,-0.0023 -1.2288,-0.494443 -4.863671,-2.355024 -2.931147,-1.500363 -4.115687,-2.020366 -6.143137,-2.69677 -0.938498,-0.313104 -1.237203,-0.368032 -2.047715,-0.376561 -1.143817,-0.01203 -1.889007,0.192179 -2.409487,0.660306 -0.36851,0.331444 -1.10132,1.622629 -1.686984,2.972421 -0.178785,0.412041 -0.494856,1.094275 -0.702376,1.516079 -0.20751,0.4218 -0.408762,0.871298 -0.447216,0.998883 -0.03842,0.127583 -0.195174,0.50167 -0.348256,0.831302 -0.468971,1.009783 -0.698648,1.534556 -0.698648,1.59627 0,0.03243 -0.601226,1.28225 -1.33606,2.777384 -0.734832,1.495134 -1.413052,2.96565 -1.507152,3.267811 -0.186845,0.599965 -0.614539,1.617365 -1.064583,2.532434 -0.158136,0.321537 -0.28752,0.621812 -0.28752,0.667278 0,0.09668 -0.490235,1.192125 -0.9076,2.028073 -0.160084,0.320636 -0.291901,0.635284 -0.29293,0.69922 -0.0011,0.06394 -0.154525,0.417466 -0.341105,0.785624 -0.756591,1.492891 -0.752201,1.445334 -0.800386,8.670193 -0.01704,2.554647 -0.0572,5.453908 -0.08925,6.442804 -0.03205,0.988896 -0.08093,2.517189 -0.108607,3.396207 -0.136739,4.341481 -0.179992,5.561758 -0.224825,6.342917 -0.05273,0.918699 -0.06822,1.884024 -0.04615,2.875155 0.01338,0.60063 0.02845,0.63621 0.349674,0.82574 0.443422,0.26162 0.409705,0.55806 -0.137257,1.206705 -0.298917,0.3545 -0.38789,0.52828 -0.315272,0.61578 0.05858,0.0705 0.10554,0.83738 0.111561,1.82185 0.0057,0.93497 0.02788,1.81114 0.04925,1.94703 0.02136,0.1359 0.06768,0.80895 0.102923,1.49568 0.03524,0.68674 0.10399,1.74306 0.152766,2.34739 0.04878,0.60431 0.114967,1.79549 0.147085,2.64704 0.03211,0.85154 0.09083,2.02024 0.130463,2.5971 0.03963,0.57685 0.07207,2.33845 0.07207,3.91466 v 2.86586 l 0.248856,-0.21881 c 0.13687,-0.12034 0.27172,-0.24642 0.299665,-0.28017 0.02795,-0.0338 0.346438,-0.2816 0.707764,-0.55075 0.448254,-0.33391 0.898659,-0.56353 1.417788,-0.72282 l 0.760831,-0.23343 0.689494,0.2134 c 0.858992,0.26584 1.590051,0.64216 2.572842,1.32441 0.419927,0.29151 1.001789,0.68732 1.293035,0.87961 0.696771,0.46005 1.88294,1.46385 2.891862,2.44727 0.225451,0.21975 0.521235,0.47872 0.657308,0.57548 1.164285,0.82793 1.95624,1.30877 3.244051,1.9696 2.980844,1.52965 4.094285,2.35095 4.58822,3.38439 0.160599,0.336 0.313051,0.58984 0.338798,0.56409 0.02573,-0.0257 0.180267,0.21076 0.343382,0.52557 0.57939,1.11822 1.940199,3.32084 2.378629,3.85008 1.28692,1.55346 1.4987,1.75532 2.06605,1.96924 0.31538,0.11893 0.82065,0.2525 1.12281,0.29682 1.20129,0.17623 1.6305,0.40019 1.99509,1.04103 0.61284,1.07717 1.08516,1.40703 1.91842,1.33978 0.54677,-0.0441 0.60918,0.15921 0.11392,0.37114 -0.50853,0.21757 -0.62804,0.2322 -0.98083,0.12018 -0.67622,-0.21474 -1.13412,-0.49022 -1.7904,-1.07721 l -0.69164,-0.61859 -0.65686,0.0646 c -1.57361,0.15463 -3.10594,-0.89246 -5.291754,-3.61602 -1.311952,-1.63473 -1.94149,-2.32618 -2.252113,-2.47357 -0.419513,-0.19908 -0.95435,-0.71021 -1.152501,-1.10143 -0.203858,-0.40249 -0.863783,-1.32174 -1.239214,-1.72615 -0.674563,-0.72667 -1.874661,-1.3214 -3.157394,-1.56469 -1.17435,-0.22274 -2.123274,-0.43261 -2.946705,-0.65171 -0.384575,-0.10234 -1.076191,-0.27948 -1.536931,-0.39368 -0.460739,-0.11422 -0.97766,-0.3036 -1.148715,-0.42089 -0.640058,-0.4388 -1.537386,-1.23314 -2.408667,-2.13219 -1.117025,-1.15268 -1.540322,-1.44528 -2.086624,-1.44234 -0.595269,0.003 -1.13037,0.29358 -1.794485,0.97389 -0.494063,0.50611 -0.606177,0.68996 -0.722632,1.18495 -0.07582,0.32224 -0.138541,0.72932 -0.139399,0.90463 -9.21e-4,0.17531 -0.04259,0.34411 -0.09275,0.3751 -0.05016,0.031 -0.122899,0.24717 -0.161646,0.48036 -0.109483,0.659 -0.303447,0.94815 -1.395248,2.08013 -0.807426,0.83711 -1.477007,2.10518 -2.07922,3.93763 -0.392787,1.1952 -0.501364,2.02488 -0.436648,3.3365 0.06642,1.34614 0.166126,1.74319 0.543308,2.16341 0.295358,0.32908 1.462498,0.81653 2.169202,0.90597 0.22144,0.028 0.62737,0.15803 0.902063,0.28887 0.453613,0.21608 0.522038,0.29484 0.745696,0.85834 0.203905,0.51373 0.248504,0.80679 0.259337,1.70419 0.01131,0.93793 0.05146,1.18108 0.298207,1.80668 0.374876,0.95045 0.787324,1.57979 1.553895,2.37105 1.012265,1.04486 0.880911,1.21549 -0.571924,0.74293 -0.900078,-0.29276 -1.236546,-0.56855 -1.881199,-1.54204 -0.572302,-0.86423 -0.744915,-1.57453 -0.687045,-2.82725 0.02734,-0.59156 1.02e-4,-1.11603 -0.06871,-1.32462 -0.108406,-0.32849 -0.678694,-0.87592 -0.861064,-0.82655 -0.295396,0.08 -1.822732,-0.54253 -2.40814,-0.98144 l -0.324637,-0.24339 v 0.38684 c 0,0.64213 0.271874,1.26288 0.748958,1.71004 0.240881,0.22577 0.464581,0.41049 0.497111,0.41049 0.08734,0 0.664856,0.5956 0.980891,1.0116 0.34142,0.44941 0.802975,1.70672 0.967049,2.63434 0.06802,0.38457 0.195617,0.87902 0.283543,1.09877 0.233831,0.5844 1.050593,1.3889 1.757751,1.73135 1.619502,0.78428 2.195508,1.0408 2.943718,1.31096 0.446018,0.16107 0.810939,0.26428 0.810939,0.22936 0,-0.0349 0.05619,0.008 0.12486,0.0943 0.109922,0.13884 0.726572,0.51687 1.326362,0.81311 0.242994,0.12 0.746324,0.74512 0.746324,0.92689 0,0.13144 -0.587059,-0.0568 -1.748048,-0.56042 -0.649245,-0.28165 -1.248606,-0.48866 -1.248606,-0.43125 0,0.0249 0.06988,0.11527 0.155279,0.20067 0.266118,0.26611 1.155371,1.63021 1.345542,2.06404 0.286305,0.65314 0.316658,1.31795 0.07859,1.72143 -0.221323,0.37512 -0.423583,0.43366 -0.567734,0.1643 -0.112886,-0.21091 -0.470496,-1.19144 -0.670709,-1.83902 -0.165562,-0.53549 -0.830528,-1.46227 -1.476186,-2.05743 -0.471868,-0.43494 -0.963563,-0.71623 -1.611717,-0.92204 -0.514781,-0.16345 -1.602222,-0.805 -2.129511,-1.25634 -0.578505,-0.49518 -1.072723,-1.54674 -1.31088,-2.78919 -0.105305,-0.54938 -0.260952,-1.19243 -0.345877,-1.42901 -0.24929,-0.69441 -0.945285,-1.602 -1.452462,-1.89402 -0.2502,-0.14406 -0.59522,-0.36647 -0.766708,-0.49426 l -0.311798,-0.23232 -0.146138,0.22683 c -0.262589,0.40752 -0.378983,0.8941 -0.378983,1.58426 0,0.65473 0.01848,0.70559 0.530166,1.45845 0.291592,0.42904 0.587875,0.9229 0.658401,1.09748 0.07053,0.17459 0.212311,0.39351 0.315072,0.4865 0.438954,0.39725 0.589197,0.90105 0.678607,2.27551 0.08649,1.3295 0.16715,1.60717 0.59718,2.05582 0.07423,0.0774 0.242996,0.30218 0.375026,0.49943 0.132028,0.19725 0.439639,0.64013 0.683578,0.98418 0.296621,0.41836 0.481765,0.80974 0.558965,1.18161 0.06349,0.30584 0.09289,0.57861 0.06532,0.60619 -0.106856,0.10683 -0.481456,-0.19307 -0.72703,-0.58209 -0.234642,-0.37169 -1.013821,-1.17774 -1.141374,-1.18073 -0.02921,-9.6e-4 -0.0628,0.11556 -0.07461,0.25836 -0.02336,0.28226 -0.261953,0.80704 -0.722137,1.58833 -0.161798,0.27469 -0.368425,0.7242 -0.459173,0.99888 -0.179563,0.54355 -0.395741,0.84904 -0.60079,0.84904 -0.341602,0 -0.343355,-0.63371 -0.0054,-1.89787 0.08082,-0.30215 0.218885,-0.8173 0.306824,-1.14474 0.228898,-0.85229 0.201499,-1.36314 -0.111539,-2.07966 -0.242847,-0.55587 -0.2725,-0.74753 -0.281586,-1.81996 -0.01245,-1.4704 -0.126802,-1.89248 -0.680742,-2.51288 -0.237581,-0.26608 -0.579989,-0.68605 -0.76091,-0.93328 l -0.328942,-0.44949 0.0614,0.47651 c 0.07785,0.60419 -0.09039,1.0406 -0.845688,2.19377 -0.314234,0.47974 -0.625649,1.03686 -0.692036,1.238 -0.145264,0.44015 -0.06792,1.37794 0.129977,1.57581 0.253178,0.25318 0.93518,1.79319 1.036651,2.34084 0.02378,0.12836 0.105294,0.47162 0.181137,0.76278 0.310098,1.19054 0.377095,1.97544 0.290122,3.3989 l -0.08544,1.39843 -0.318001,0.0307 c -0.226478,0.0219 -0.345914,-0.0213 -0.414989,-0.15043 z" style="fill:#66fafa;fill-opacity:1;stroke:#000000;stroke-width:0.21602426;stroke-miterlimit:4;stroke-dasharray:none;stroke-opacity:1" inkscape:connector-curvature="0"/>
      <path id="path889" d="m 29.591118,154.35632 c -0.253085,-1.24317 -0.549736,-2.14708 -1.073192,-3.27004 -0.441112,-0.94631 -0.559899,-1.44417 -0.463406,-1.94228 0.124517,-0.64274 0.377361,-1.20683 1.066426,-2.37919 0.531725,-0.90467 0.561787,-1.04152 0.44248,-2.0143 -0.153368,-1.25052 -0.138333,-1.94456 0.04788,-2.21041 0.209276,-0.29878 0.342774,-0.19286 0.342774,0.27198 0,0.77977 0.594591,2.17665 1.342348,3.15361 0.168197,0.21975 0.330659,0.42203 0.361029,0.4495 0.03037,0.0275 0.158923,0.22058 0.285674,0.42912 0.200865,0.33048 0.23362,0.52927 0.255098,1.54827 0.02458,1.16673 0.106539,1.5437 0.482025,2.21731 0.23172,0.41569 0.299742,1.60564 0.09567,1.67373 -0.06867,0.023 -0.12486,0.15088 -0.12486,0.28438 0,0.13353 -0.04493,0.32081 -0.09985,0.41622 -0.27286,0.474 -0.660281,1.97093 -0.481505,1.86044 0.04505,-0.0279 0.08191,-0.10437 0.08191,-0.17001 0,-0.0658 0.174022,-0.4788 0.386715,-0.91809 0.444038,-0.91707 0.543637,-1.28329 0.554471,-2.03872 0.0043,-0.30588 0.05669,-0.55724 0.120406,-0.57861 0.117627,-0.0394 0.518748,0.33561 1.421642,1.32929 0.521782,0.57427 0.530282,0.57902 0.333948,0.18695 -0.163463,-0.32642 -1.376653,-1.82341 -2.071194,-2.55571 -0.172594,-0.18199 -0.238312,-0.68773 -0.278384,-2.14229 -0.03059,-1.11095 0.01716,-0.99671 -1.136049,-2.71664 -1.27452,-1.90083 -1.324032,-2.22071 -0.591274,-3.82006 0.264292,-0.57686 0.492091,-1.06112 0.506218,-1.07615 0.08408,-0.0894 0.353169,0.13391 0.453691,0.37659 0.06492,0.15672 0.348796,0.47938 0.63084,0.717 0.935258,0.788 1.563635,1.40528 1.513345,1.48666 -0.0273,0.0441 -0.0033,0.10895 0.05339,0.144 0.186473,0.11523 0.998999,2.28528 0.998999,2.66803 0,0.28582 0.558467,1.44701 0.908433,1.88888 0.361378,0.45628 1.546908,1.27605 2.138165,1.4785 0.629249,0.21548 1.76893,0.99092 2.097657,1.42726 0.726054,0.96377 1.362762,2.05692 1.56651,2.68953 0.121253,0.37647 0.25137,0.63449 0.289149,0.57338 0.03778,-0.0611 -0.04267,-0.47375 -0.17877,-0.91693 -0.256186,-0.8342 -0.845226,-1.80392 -1.619783,-2.66656 -0.221977,-0.24724 -0.404297,-0.48321 -0.405155,-0.52443 -0.0032,-0.15052 0.62623,-0.0686 1.401442,0.18231 0.436998,0.14146 0.794543,0.28921 0.794543,0.32834 0,0.0392 0.0899,0.0779 0.199779,0.0862 0.109876,0.008 0.199774,8e-5 0.199774,-0.0182 0,-0.14151 -2.661984,-1.2863 -2.796987,-1.20285 -0.07103,0.0439 -0.649306,-0.18135 -1.598104,-0.62253 -0.626795,-0.29144 -1.338589,-0.76885 -1.670722,-1.12056 -0.308588,-0.32677 -0.926376,-1.46235 -0.926376,-1.70281 0,-0.23956 -0.801162,-2.47595 -1.038691,-2.89946 -0.137931,-0.24593 -0.660608,-0.87105 -1.161503,-1.38916 -0.500894,-0.51812 -1.006206,-1.12495 -1.122912,-1.34849 -0.254169,-0.48687 -0.297066,-1.48496 -0.0812,-1.88913 0.163061,-0.30531 0.248562,-0.32727 0.428679,-0.11009 0.635206,0.76589 1.406239,1.19855 2.326347,1.30542 0.50271,0.0584 1.183619,0.43331 1.474078,0.81166 0.271994,0.35429 0.275198,0.37562 0.25766,1.7152 -0.01505,1.14905 0.01365,1.44261 0.187653,1.9199 0.361393,0.99129 0.836322,1.49538 2.076146,2.20369 0.164816,0.0941 0.344614,0.17171 0.399554,0.17234 0.05494,9.6e-4 0.01,-0.0496 -0.09989,-0.11154 -0.109876,-0.062 -0.450574,-0.32812 -0.757104,-0.59143 -0.96817,-0.83159 -1.438109,-2.23668 -1.317541,-3.93936 0.05355,-0.7563 -0.07693,-1.40509 -0.348954,-1.73503 -0.194618,-0.23606 -1.071524,-0.58626 -1.659222,-0.66264 -0.975476,-0.12678 -2.225987,-0.96867 -2.570933,-1.73083 -0.418683,-0.92508 -0.206119,-3.59307 0.425065,-5.33518 0.614524,-1.69614 1.270429,-2.88469 2.381862,-4.31616 0.34125,-0.43952 0.711908,-0.97775 0.823682,-1.19608 0.163529,-0.31943 0.575877,-1.56675 0.575877,-1.74198 0,-0.10312 -0.699092,0.76172 -0.760039,0.94028 -0.03749,0.10988 -0.397916,0.58852 -0.80092,1.06361 -0.662501,0.78103 -0.885803,1.0114 -1.742332,1.79739 -0.357966,0.32848 -1.024711,1.24082 -1.332471,1.82328 -0.142096,0.26893 -0.297107,0.53862 -0.344468,0.59933 -0.221531,0.28394 -0.529921,1.50879 -0.61881,2.45776 -0.145641,1.55486 -0.169399,1.72469 -0.279455,1.99776 -0.124724,0.30946 -0.550428,0.79911 -0.694759,0.79911 -0.130803,0 -0.895246,0.93829 -1.74969,2.1476 -0.932338,1.31956 -1.484532,1.63267 -4.562664,2.58717 -1.362788,0.42259 -2.17843,0.88101 -3.106938,1.74614 -0.799966,0.74537 -1.005372,0.86401 -1.825612,1.05441 -0.632664,0.14687 -1.560199,0.60226 -1.560199,0.76598 0,0.0513 0.189714,-0.003 0.421586,-0.12167 0.249668,-0.12739 0.687559,-0.2346 1.073802,-0.26295 0.775307,-0.0568 1.231852,-0.29204 2.267172,-1.16787 0.918229,-0.77678 2.219335,-1.51249 3.406064,-1.92595 0.515194,-0.1795 1.228791,-0.46156 1.585772,-0.62679 0.356979,-0.16524 0.692661,-0.30042 0.745956,-0.30042 0.140909,0 0.804985,-0.36578 1.038639,-0.5721 0.110292,-0.0974 0.374171,-0.39058 0.586391,-0.65153 0.612835,-0.75358 0.901567,-0.57016 0.413494,0.26267 -0.136378,0.23271 -0.321106,0.78011 -0.410506,1.21645 -0.08939,0.43634 -0.196708,0.83829 -0.238457,0.89323 -0.04175,0.0548 -0.108103,0.27814 -0.147444,0.49597 -0.09428,0.52212 -0.26448,0.83661 -0.767996,1.41915 -0.516817,0.59792 -0.639062,0.672 -2.183175,1.32292 -0.686733,0.28949 -1.548415,0.70184 -1.91485,0.91633 -0.68429,0.40053 -1.451445,1.17077 -1.781828,1.78899 -0.102755,0.19229 -0.306587,0.48445 -0.452949,0.64927 -0.146366,0.16482 -0.340133,0.39151 -0.430595,0.50376 -0.09047,0.11223 -0.434177,0.4042 -0.763809,0.6488 -1.331911,0.98829 -1.714607,1.48506 -2.305592,2.99282 -0.0969,0.24722 -0.325189,0.68548 -0.5073,0.97391 -0.182111,0.28842 -0.290445,0.52442 -0.240741,0.52442 0.04972,0 0.317977,-0.25848 0.596158,-0.57437 0.369126,-0.41916 0.602712,-0.82361 0.864519,-1.49687 0.197303,-0.50738 0.403437,-0.95016 0.458075,-0.98393 0.171488,-0.10592 0.213055,0.0368 0.1028,0.35308 -0.07079,0.20308 -0.0724,0.30475 -0.0048,0.30475 0.05578,0 0.07423,0.0858 0.04101,0.19039 -0.03322,0.10469 -0.07635,0.76771 -0.09585,1.47334 -0.01948,0.70563 -0.06983,1.39117 -0.111876,1.52335 -0.154802,0.48669 0.140033,0.10538 0.321958,-0.41636 0.145301,-0.4167 0.182443,-0.82824 0.182443,-2.02154 v -1.49834 l 0.325514,-0.46876 c 0.179033,-0.25783 0.651007,-0.73488 1.048829,-1.06011 0.397822,-0.32525 0.918427,-0.8032 1.156896,-1.06213 0.238469,-0.25894 0.454641,-0.44972 0.480383,-0.42397 0.02574,0.0257 -0.05157,0.33256 -0.171806,0.68183 -0.164999,0.47931 -0.230424,0.95347 -0.2668,1.93359 -0.02651,0.71421 -0.02101,1.27265 0.01222,1.24098 0.07925,-0.0755 0.247818,-0.95265 0.363279,-1.89025 0.195527,-1.58776 0.376841,-2.56656 0.530449,-2.86363 0.196085,-0.37919 0.698954,-0.81381 1.165856,-1.00767 0.192285,-0.0799 0.717768,-0.32023 1.167738,-0.53425 0.44997,-0.214 0.852195,-0.38909 0.893833,-0.38909 0.04164,0 0.377192,-0.20228 0.745672,-0.44951 0.758448,-0.50886 0.933028,-0.55576 0.83666,-0.22474 -0.0897,0.30811 -1.664782,1.87944 -1.826127,1.82178 -0.07153,-0.0257 -0.108203,-0.0112 -0.0815,0.0321 0.02671,0.0433 -0.174576,0.29433 -0.447274,0.55804 -0.877867,0.84895 -1.127172,1.63851 -0.978984,3.1005 0.189713,1.87171 -0.231229,3.17343 -1.471524,4.55054 -0.76304,0.8472 -1.045908,1.27975 -1.269071,1.94062 -0.234123,0.69336 -0.124039,0.69294 0.182713,-9.6e-4 0.200211,-0.45271 0.488767,-0.80695 1.291632,-1.58565 1.003531,-0.97334 1.040322,-1.02468 1.255482,-1.75189 0.121912,-0.41205 0.24841,-0.79332 0.281113,-0.84729 0.09811,-0.16191 0.114561,-0.41998 0.149786,-2.34913 0.0326,-1.78563 0.04238,-1.86141 0.290184,-2.24749 0.298281,-0.46476 0.692639,-0.83871 1.526826,-1.44785 0.779485,-0.56918 1.610187,-1.35861 1.892545,-1.79853 0.123416,-0.19229 0.280191,-0.58337 0.34839,-0.86907 0.0682,-0.28572 0.189348,-0.57371 0.26922,-0.63999 0.126152,-0.1047 0.136343,0.0168 0.0776,0.92532 -0.04464,0.6905 -0.03059,1.11501 0.04133,1.2494 0.05992,0.112 0.13767,0.47297 0.172788,0.80226 0.05264,0.49362 0.02402,0.69347 -0.163109,1.13863 -0.124831,0.29696 -0.303322,0.65231 -0.396646,0.78966 -0.259885,0.38247 -0.995473,1.85904 -1.107545,2.22319 -0.05483,0.17818 -0.137528,0.79594 -0.183768,1.37278 -0.07325,0.91389 -0.138094,1.17093 -0.503943,1.99778 -0.514855,1.1636 -0.89636,2.40746 -0.89636,2.9225 0,0.53873 0.142774,0.39238 0.288636,-0.29587 0.169445,-0.79955 0.344186,-1.26498 0.967357,-2.57669 0.202279,-0.42578 0.380225,-1.01172 0.455022,-1.49832 0.132316,-0.86079 0.258742,-1.15339 0.401267,-0.9287 0.04522,0.0712 0.08289,0.23802 0.08374,0.37053 7.66e-4,0.13253 0.109001,0.42469 0.240351,0.64926 0.272025,0.46512 0.583761,1.43827 0.502724,1.56939 -0.02977,0.0482 -0.01243,0.0875 0.03851,0.0875 0.05094,0 0.120829,0.16857 0.155295,0.37459 0.03447,0.20603 0.112292,0.59933 0.172957,0.87404 0.06066,0.27467 0.123244,0.8476 0.13907,1.27314 0.03503,0.94189 0.118574,1.41414 0.331411,1.87334 l 0.162044,0.34959 0.05883,-1.19866 c 0.04945,-1.00756 0.02317,-1.37382 -0.164854,-2.29741 z" style="fill:#66fafa;fill-opacity:1;stroke:#000000;stroke-width:0.21602426;stroke-miterlimit:4;stroke-dasharray:none;stroke-opacity:1" inkscape:connector-curvature="0"/>
      <path id="path887" d="m 64.081702,137.57729 c -0.37333,-0.32977 -1.04801,-0.59145 -1.76809,-0.68577 -1.17037,-0.1533 -2.44692,-1.21701 -3.55509,-2.96239 -0.19185,-0.30215 -0.506536,-0.7966 -0.699318,-1.09877 -0.192782,-0.30215 -0.589804,-1.04683 -0.882263,-1.65485 -0.549406,-1.14217 -1.122349,-2.11447 -1.490096,-2.52871 -0.456123,-0.51381 -3.114863,-1.99959 -5.441557,-3.04094 -1.098713,-0.49175 -1.41173,-0.72581 -3.220257,-2.40789 -0.686616,-0.6386 -1.245763,-1.12979 -2.282006,-2.00461 -0.19522,-0.16481 -0.422411,-0.36397 -0.504844,-0.44256 -0.656271,-0.62563 -2.630971,-1.63239 -3.201846,-1.63239 -0.409392,0 -0.993525,0.19566 -0.993525,0.33282 0,0.0448 -0.07865,0.0771 -0.174805,0.0719 -0.09614,-0.006 -0.446926,0.15169 -0.77952,0.34912 -0.924245,0.54857 -2.417881,2.31061 -3.363799,3.96829 -0.172424,0.30216 -0.34329,0.57186 -0.379701,0.59932 -0.03641,0.0275 -0.347102,0.58934 -0.690417,1.24861 l -0.624212,1.19867 0.583933,-0.60655 c 0.640319,-0.66513 1.002881,-1.06909 1.832536,-2.04173 0.776149,-0.90993 1.88606,-2.02403 2.296098,-2.30479 0.281994,-0.19307 0.452608,-0.23301 0.896512,-0.20985 0.691754,0.0361 1.233244,0.41598 2.650864,1.85972 1.259966,1.28317 2.700339,2.36755 2.891234,2.17666 0.03651,-0.0366 0.09762,-0.0201 0.135826,0.0364 0.143624,0.21229 1.435501,0.53484 2.965803,0.74052 0.870962,0.11706 1.760807,0.27389 1.977438,0.34853 0.21662,0.0746 0.445618,0.11584 0.508877,0.0915 0.06324,-0.0242 0.428813,0.15621 0.812343,0.40105 1.614779,1.0309 1.717793,1.13265 2.839569,2.80485 0.331698,0.49446 0.665294,0.98997 0.741336,1.10116 0.07605,0.1112 0.38198,0.32545 0.679876,0.47618 0.597139,0.30213 1.470886,1.14622 1.986166,1.91876 0.18321,0.2747 0.383036,0.54439 0.444047,0.59933 0.06099,0.0548 0.225708,0.25721 0.365978,0.44949 0.44223,0.60618 2.04068,2.07393 2.53042,2.32354 0.52772,0.26898 1.18174,0.40658 1.82166,0.3833 0.59734,-0.0218 1.22494,0.18897 1.22494,0.41125 0,0.0432 0.0562,0.0765 0.12486,0.0741 0.0686,-0.002 -0.0478,-0.15674 -0.25897,-0.34323 z" style="fill:#66fafa;fill-opacity:1;stroke:#000000;stroke-width:0.21602426;stroke-miterlimit:4;stroke-dasharray:none;stroke-opacity:1" inkscape:connector-curvature="0"/>
      <path id="path885" d="m 36.175584,121.98579 c 0.581209,-0.68953 0.620851,-0.94105 0.620851,-3.93892 0,-3.93416 -0.129533,-8.14757 -0.300946,-9.78906 -0.193468,-1.85269 -0.245828,-2.61927 -0.317257,-4.64481 -0.11245,-3.18886 -0.110506,-3.21449 0.270379,-3.56237 0.363489,-0.332005 0.347477,-0.512585 -0.05169,-0.582995 -0.213663,-0.0377 -0.413376,-0.23378 -0.8139,-0.79911 -0.944876,-1.333684 -2.063921,-3.030633 -2.437227,-3.695876 -0.649617,-1.157644 -1.221514,-2.141891 -1.392955,-2.397322 -0.09219,-0.137347 -0.474195,-0.721694 -0.848917,-1.298549 -0.374718,-0.576855 -0.809155,-1.24118 -0.965414,-1.476276 -0.156254,-0.235095 -0.284102,-0.447933 -0.284102,-0.472968 0,-0.12461 -0.709978,-1.192511 -1.294038,-1.946407 -0.36178,-0.466978 -0.734287,-0.961425 -0.827792,-1.098772 -0.40378,-0.593097 -0.849215,-1.196385 -1.174488,-1.590706 -0.192287,-0.2331 -0.705827,-0.858309 -1.141201,-1.389352 -0.743346,-0.906692 -2.008845,-2.35522 -2.698441,-3.088724 C 22.218015,79.894013 21.106133,78.953911 20.51546,78.520037 19.935878,78.09431 19.441121,77.87703 18.752556,77.74583 l -0.694655,-0.132361 -0.905137,0.44643 -0.905133,0.446429 1.983657,2.005493 c 2.419314,2.445943 2.689979,2.730168 3.021151,3.172531 0.884602,1.181596 2.608911,3.207564 3.316372,3.896552 0.310263,0.302162 0.849194,0.908986 1.197623,1.348494 0.348432,0.439511 0.90503,1.083169 1.236884,1.430355 0.331856,0.347185 0.62725,0.69786 0.65643,0.77928 0.177601,0.495534 5.122429,5.708738 6.664117,7.025822 0.818682,0.6994 1.158242,1.29462 1.085099,1.902105 -0.05581,0.4635 -0.06851,5.43235 -0.01571,6.14314 0.01632,0.21975 0.05897,1.63567 0.09477,3.14648 0.0358,1.51081 0.116091,3.55602 0.178417,4.54492 0.13045,2.06973 0.166265,7.25847 0.05722,8.29074 -0.06683,0.63265 -0.06113,0.67069 0.0599,0.39956 0.07357,-0.16481 0.249965,-0.43752 0.39199,-0.60601 z" style="fill:#66fafa;fill-opacity:1;stroke:#000000;stroke-width:0.21602426;stroke-miterlimit:4;stroke-dasharray:none;stroke-opacity:1" inkscape:connector-curvature="0"/>
      <path id="path883" d="m 1.5713215,113.05245 c 0.474533,-1.10803 0.872963,-2.35423 1.660673,-5.19419 0.251428,-0.9065 0.502004,-1.80549 0.556835,-1.99778 0.05483,-0.19228 0.34123,-1.29356 0.636442,-2.44727 0.295211,-1.1537 0.679862,-2.56962 0.854779,-3.14648 0.174917,-0.576845 0.406726,-1.385935 0.51513,-1.797995 0.214523,-0.815377 0.757344,-2.53727 1.149365,-3.645916 0.135985,-0.384573 0.418797,-1.216144 0.62847,-1.847939 0.209672,-0.631793 0.605755,-1.688114 0.880183,-2.347378 0.274429,-0.659263 0.73314,-1.827957 1.01936,-2.597099 0.5464815,-1.468535 1.3340935,-3.169799 1.7538125,-3.78829 0.136587,-0.201273 0.248343,-0.400951 0.248343,-0.443728 0,-0.07815 0.614617,-1.087502 1.285361,-2.110898 0.34141,-0.520912 0.970994,-1.30921 1.96898,-2.465349 0.440903,-0.510777 1.606701,-1.448396 2.189579,-1.76102 l 0.299666,-0.160725 -0.59933,0.0019 c -0.615374,0.0021 -1.023488,0.05899 -2.139762,0.298835 -0.504297,0.10835 -0.650228,0.111427 -0.68257,0.01441 -0.04928,-0.14785 -0.386798,-0.164601 -0.473987,-0.02352 -0.03396,0.05493 -0.163013,0.09989 -0.286799,0.09989 -0.373571,0 -1.065236,0.391593 -1.622401,0.918535 -0.536406,0.50731 -1.087456,1.277749 -1.8078625,2.527616 -0.22166,0.384572 -0.520322,0.901493 -0.663696,1.148718 -0.314367,0.542075 -1.562603,3.059194 -1.562603,3.151047 0,0.03583 -0.06209,0.206775 -0.137983,0.379893 -0.0759,0.173119 -0.207234,0.472086 -0.291873,0.664372 -0.08465,0.192283 -0.249643,0.593211 -0.366674,0.890948 -0.11703,0.297736 -0.296645,0.725427 -0.399143,0.950425 -0.102496,0.224997 -0.319045,0.790491 -0.481213,1.256652 -0.16217,0.466164 -0.417369,1.139742 -0.567107,1.496844 -0.473848,1.130042 -0.516737,1.237882 -0.695216,1.748047 -0.187595,0.536224 -0.621852,1.90694 -0.759499,2.397322 -0.640467,2.281777 -0.860759,3.193318 -1.327703,5.493863 -0.301075,1.48334 -0.578787,2.94421 -0.617138,3.24637 -0.03835,0.30216 -0.152126,0.90899 -0.252832,1.34849 -0.60229402,2.62861 -0.84609102,4.63032 -0.84609102,6.94692 0,0.95092 0.0322,1.20246 0.183403,1.43302 0.17688,0.26968 0.18931402,0.27307 0.34960902,0.0952 0.09142,-0.10144 0.272085,-0.43164 0.401492,-0.73381 z" style="fill:#66fafa;fill-opacity:1;stroke:#000000;stroke-width:0.21602426;stroke-miterlimit:4;stroke-dasharray:none;stroke-opacity:1" inkscape:connector-curvature="0"/>
      <path id="path881" d="m 36.286986,97.120247 c 0.03547,-0.824071 0.132186,-2.711971 0.2149,-4.19531 0.108518,-1.946188 0.156548,-5.191319 0.172525,-11.657002 0.01217,-4.928009 -0.0056,-8.928542 -0.03965,-8.890071 -0.03398,0.03846 -0.142755,0.287471 -0.241728,0.55334 -0.119448,0.320873 -0.259823,0.513766 -0.41752,0.573723 -0.483694,0.1839 -0.553538,0.619582 -0.42832,2.671769 0.06222,1.019782 0.158226,2.081308 0.213339,2.358948 0.214258,1.079368 0.308344,10.796491 0.136905,14.139572 -0.05494,1.071301 -0.09979,2.711967 -0.09968,3.645924 1.53e-4,1.453581 0.02642,1.746185 0.18217,2.032025 0.10007,0.18366 0.195584,0.31851 0.212245,0.29967 0.01666,-0.0189 0.05932,-0.70851 0.09481,-1.532588 z" style="fill:#66fafa;fill-opacity:1;stroke:#000000;stroke-width:0.21602426;stroke-miterlimit:4;stroke-dasharray:none;stroke-opacity:1" inkscape:connector-curvature="0"/>
      <path id="path879" d="m 36.394178,71.676569 c 0.2343,-0.788974 0.441392,-3.135497 0.447647,-5.072238 0.0032,-0.961425 0.07065,-3.006642 0.150103,-4.544924 0.07945,-1.538281 0.17056,-4.41507 0.202464,-6.392862 0.0319,-1.97779 0.07532,-3.753308 0.09649,-3.945592 0.02116,-0.192285 0.06667,-0.699553 0.101138,-1.127261 0.03447,-0.427707 0.08665,-0.840167 0.115974,-0.916576 0.03627,-0.09452 -0.03587,-0.14927 -0.22566,-0.171289 -0.205614,-0.02384 -0.442727,-0.228022 -0.901761,-0.776463 -0.405837,-0.484882 -0.92943,-0.954646 -1.50301,-1.348494 -1.40649,-0.965761 -2.585056,-1.853926 -3.950049,-2.976747 -0.384032,-0.315895 -0.729207,-0.574358 -0.767057,-0.574358 -0.03785,0 -0.157471,-0.07865 -0.265825,-0.174804 -1.002349,-0.889385 -3.037092,-2.476682 -3.037092,-2.369228 0,0.02676 0.299441,0.441546 0.665425,0.921756 1.531551,2.009571 3.383647,3.799058 5.383383,5.201402 0.920149,0.64527 2.102031,1.246178 2.541598,1.292235 0.192285,0.02015 0.506933,0.162637 0.699218,0.316641 l 0.34961,0.280011 -0.01562,1.136671 c -0.0086,0.62517 -0.04058,2.687439 -0.07108,4.582823 -0.0305,1.895383 -0.07978,5.895914 -0.109518,8.89007 -0.02972,2.994157 -0.07997,5.66867 -0.111652,5.943364 -0.0702,0.60877 -0.106001,0.873804 -0.192004,1.42124 -0.07432,0.473108 0.01921,1.057073 0.155785,0.972663 0.04905,-0.03031 0.157712,-0.285927 0.241491,-0.56804 z" style="fill:#66fafa;fill-opacity:1;stroke:#000000;stroke-width:0.21602426;stroke-miterlimit:4;stroke-dasharray:none;stroke-opacity:1" inkscape:connector-curvature="0"/>
      <path id="path877" d="m 37.902438,69.150683 c 0.113856,-0.164374 0.287851,-0.478661 0.386655,-0.698417 0.0988,-0.219753 0.351932,-0.75915 0.562508,-1.198659 0.210573,-0.43951 0.544692,-1.203657 0.742479,-1.698106 0.197789,-0.494447 0.44709,-1.089542 0.554004,-1.322432 0.106911,-0.232892 0.194387,-0.443265 0.194387,-0.467501 0,-0.02424 0.128938,-0.328136 0.286528,-0.675335 0.157592,-0.3472 0.47224,-1.039943 0.699219,-1.539431 0.226981,-0.499488 0.412691,-0.960225 0.412691,-1.023857 0,-0.06363 0.04494,-0.115697 0.09989,-0.115697 0.05494,0 0.09989,-0.0942 0.09989,-0.209329 0,-0.115131 0.08728,-0.33189 0.193935,-0.481685 0.106664,-0.149796 0.370713,-0.673658 0.586777,-1.164138 0.216064,-0.490478 0.808602,-1.745826 1.316753,-2.789661 0.956921,-1.965691 1.366031,-2.847042 1.599647,-3.446151 0.404078,-1.036279 2.116803,-3.906951 2.647799,-4.43795 0.141242,-0.141245 0.228898,-0.256807 0.194781,-0.256807 -0.115179,0 -1.491254,0.831017 -2.044705,1.234802 -0.87923,0.641471 -2.367607,2.229523 -3.092437,3.299532 -0.393552,0.580968 -1.40255,2.52576 -1.40255,2.703341 0,0.105438 -0.423621,1.168712 -1.275184,3.200668 -0.297285,0.709369 -1.332759,3.804819 -2.155209,6.442805 -0.404103,1.296148 -0.606932,2.007143 -0.958921,3.361381 -0.05928,0.22807 -0.1738,0.884984 -0.25449,1.459805 -0.08069,0.574821 -0.171955,1.129891 -0.202808,1.233487 -0.03084,0.103596 0.09182,-0.104183 0.272628,-0.461726 0.1808,-0.357542 0.421881,-0.784565 0.535737,-0.948939 z" style="fill:#66fafa;fill-opacity:1;stroke:#000000;stroke-width:0.21602426;stroke-miterlimit:4;stroke-dasharray:none;stroke-opacity:1" inkscape:connector-curvature="0"/>
      <path id="path875" d="m 74.354482,55.960172 c 0.32965,-0.08401 0.7719,-0.196811 0.9828,-0.250658 0.51413,-0.131271 1.04451,-0.410133 1.44337,-0.758888 l 0.3285,-0.287236 -0.778,0.03262 c -0.42789,0.01795 -1.72194,0.164877 -2.87566,0.326519 -1.15371,0.161644 -2.31116,0.301301 -2.57212,0.310348 -0.55121,0.01911 -0.61261,0.131738 -0.14984,0.274812 0.17855,0.0552 0.57187,0.190695 0.87403,0.301099 0.67701,0.247364 1.88903,0.270036 2.74693,0.05138 z" style="fill:#66fafa;fill-opacity:1;stroke:#000000;stroke-width:0.21602426;stroke-miterlimit:4;stroke-dasharray:none;stroke-opacity:1" inkscape:connector-curvature="0"/>
      <path id="path873" d="m 68.955512,55.232519 c -0.12906,-0.114817 -2.64804,-1.605725 -3.39121,-2.00715 -0.32963,-0.178054 -0.66675,-0.375876 -0.74916,-0.439605 -0.1899,-0.146855 -0.47452,-0.310932 -1.34849,-0.777388 -0.38457,-0.205248 -0.90149,-0.487386 -1.14872,-0.62697 -0.24722,-0.139583 -0.62644,-0.350226 -0.84271,-0.468099 -0.21627,-0.117874 -0.89287,-0.52018 -1.50356,-0.894016 -0.61068,-0.373836 -1.60521,-0.923582 -2.210039,-1.22166 -0.604846,-0.298079 -1.389116,-0.702531 -1.742833,-0.898777 -1.124057,-0.623664 -2.677871,-1.072435 -3.713159,-1.072435 -1.531628,0 -3.114672,0.694873 -3.850538,1.690172 l -0.209777,0.283742 0.418703,-0.09628 c 0.23028,-0.05295 0.731809,-0.06639 1.114508,-0.02985 0.786933,0.07514 3.389663,0.760486 4.005507,1.054721 0.22337,0.106721 0.438754,0.194034 0.478634,0.194034 0.245805,0 4.249734,1.986934 4.908774,2.435956 1.48956,1.014875 2.50325,1.514015 4.24527,2.090348 1.17009,0.387121 1.82609,0.53713 3.14648,0.719508 1.05625,0.145895 2.52878,0.18513 2.39232,0.06376 z" style="fill:#66fafa;fill-opacity:1;stroke:#000000;stroke-width:0.21602426;stroke-miterlimit:4;stroke-dasharray:none;stroke-opacity:1" inkscape:connector-curvature="0"/>
      <path id="path871" d="m 37.289757,34.889751 c 0.07062,-4.637367 0.13514,-7.259106 0.197872,-8.041022 0.02163,-0.269519 -0.01926,-0.53764 -0.102103,-0.669635 -0.103597,-0.16507 -0.112424,-0.287825 -0.03528,-0.490736 0.07079,-0.186193 0.07057,-0.302913 -7.68e-4,-0.374199 -0.05699,-0.05697 -0.10362,-0.23695 -0.10362,-0.399936 0,-0.162983 -0.02445,-0.271884 -0.05433,-0.241999 -0.02987,0.02987 -0.07354,0.835234 -0.097,1.789667 -0.05244,2.13284 -0.234965,5.850386 -0.302198,6.155014 -0.133572,0.6052 -0.23181,11.699972 -0.125974,14.227328 0.05839,1.394035 0.09914,1.700317 0.24972,1.876384 0.173915,0.203347 0.182059,0.05014 0.242556,-4.562738 0.03443,-2.625232 0.0934,-6.79589 0.131058,-9.268128 z" style="fill:#66fafa;fill-opacity:1;stroke:#000000;stroke-width:0.21602426;stroke-miterlimit:4;stroke-dasharray:none;stroke-opacity:1" inkscape:connector-curvature="0"/>
      <path id="path869" d="M 35.159172,46.941611 C 35.043303,46.778885 34.9485,46.61182 34.9485,46.570355 c 0,-0.06973 -0.762584,-1.129549 -0.893862,-1.242263 -0.032,-0.02746 -0.484497,-0.541773 -1.005563,-1.1429 -0.521069,-0.601125 -1.196284,-1.36527 -1.50048,-1.698103 -0.304195,-0.332832 -0.734041,-0.852372 -0.955214,-1.154534 -0.892696,-1.219588 -1.005497,-1.506323 -2.12197,-5.393977 -0.592568,-2.063371 -1.132666,-3.859839 -1.418987,-4.719814 -0.272696,-0.819052 -1.428432,-3.600498 -1.587541,-3.820648 -0.03971,-0.05494 -0.132224,-0.257212 -0.205595,-0.449498 -0.208495,-0.546404 -1.721431,-3.571423 -2.40479,-4.808219 -0.339491,-0.614434 -0.952012,-1.604626 -1.361165,-2.200428 -0.409147,-0.595801 -0.892397,-1.424757 -1.073883,-1.842123 -0.181487,-0.417367 -0.352876,-0.720561 -0.380865,-0.673767 -0.133521,0.223226 -0.293208,3.061847 -0.247145,4.393295 0.05405,1.562323 0.255035,2.615623 0.874288,4.581856 0.155722,0.494447 0.380367,1.23612 0.499211,1.64816 0.430589,1.492895 1.128007,3.648603 1.217367,3.76287 0.0503,0.06431 0.244419,0.5888 0.431372,1.165515 0.514189,1.586177 1.023675,2.83588 1.472586,3.612076 1.058091,1.829511 1.42161,2.422239 1.798128,2.93191 0.458837,0.621108 1.659357,1.827457 2.139001,2.14939 1.119182,0.751185 3.388044,2.551068 4.220023,3.347729 0.251553,0.240877 0.934339,0.790622 1.5173,1.221658 0.582963,0.431039 1.117527,0.853103 1.187923,0.937927 0.22216,0.267684 0.230825,0.07452 0.01057,-0.234856 z" style="fill:#66fafa;fill-opacity:1;stroke:#000000;stroke-width:0.21602426;stroke-miterlimit:4;stroke-dasharray:none;stroke-opacity:1" inkscape:connector-curvature="0"/>
      <path id="path867" d="m 38.390736,25.687693 c 0.08924,-0.03424 0.243832,-0.225282 0.343536,-0.424526 0.19611,-0.391906 0.341921,-1.111426 0.22523,-1.111426 -0.03952,0 -0.288991,0.213513 -0.554367,0.474472 -0.43761,0.430322 -0.659759,0.777256 -0.659759,1.030359 0,0.105787 0.400461,0.125098 0.64536,0.03112 z" style="fill:#66fafa;fill-opacity:1;stroke:#000000;stroke-width:0.21602426;stroke-miterlimit:4;stroke-dasharray:none;stroke-opacity:1" inkscape:connector-curvature="0"/>
      <path id="path865" d="m 37.645287,24.214587 c 0.05947,-0.272818 0.05305,-0.355424 -0.02181,-0.280574 -0.05834,0.05834 -0.119476,0.344714 -0.135846,0.636376 -0.01637,0.29166 -0.0065,0.417919 0.02181,0.280572 0.02837,-0.137348 0.08949,-0.423716 0.135846,-0.636374 z" style="fill:#66fafa;fill-opacity:1;stroke:#000000;stroke-width:0.21602426;stroke-miterlimit:4;stroke-dasharray:none;stroke-opacity:1" inkscape:connector-curvature="0"/>
      <path id="path863" d="m 36.812702,23.895652 c 0.09914,-0.258337 -0.127166,-0.610099 -0.432177,-0.671784 -0.155821,-0.03151 -0.382565,-0.150282 -0.503882,-0.263931 -0.352477,-0.330203 -0.449893,-0.240211 -0.222489,0.205536 0.374821,0.73471 1.004515,1.131577 1.158548,0.730179 z" style="fill:#66fafa;fill-opacity:1;stroke:#000000;stroke-width:0.21602426;stroke-miterlimit:4;stroke-dasharray:none;stroke-opacity:1" inkscape:connector-curvature="0"/>
      <path id="path861" d="m 37.542422,22.936278 c 0.004,-0.725573 -0.06459,-0.928586 -0.251005,-0.74217 -0.09411,0.09411 -0.12343,0.327356 -0.09698,0.771568 0.02085,0.350174 0.04095,0.701458 0.0447,0.780632 0.0049,0.105001 0.04647,0.0915 0.153457,-0.04994 0.08772,-0.115978 0.14793,-0.421422 0.149831,-0.760085 z" style="fill:#66fafa;fill-opacity:1;stroke:#000000;stroke-width:0.21602426;stroke-miterlimit:4;stroke-dasharray:none;stroke-opacity:1" inkscape:connector-curvature="0"/>
      <path id="path859" d="m 39.009658,22.253861 c 0.186681,0 0.466861,-0.469042 0.393843,-0.659324 -0.05668,-0.147722 -0.08379,-0.147111 -0.319316,0.0072 -0.311116,0.203852 -0.431222,0.122025 -0.249053,-0.169677 0.186555,-0.298723 0.313119,-0.776425 0.205711,-0.776425 -0.289344,0 -1.095691,1.2213 -1.095691,1.659545 0,0.62654 0.08028,0.670241 0.527714,0.287253 0.223983,-0.19172 0.465541,-0.348582 0.536792,-0.348582 z" style="fill:#66fafa;fill-opacity:1;stroke:#000000;stroke-width:0.21602426;stroke-miterlimit:4;stroke-dasharray:none;stroke-opacity:1" inkscape:connector-curvature="0"/>
      <path id="path857" d="m 36.748613,21.450793 c 0.0866,-0.161819 0.06162,-0.300053 -0.121347,-0.671818 -0.126712,-0.257445 -0.326728,-0.515878 -0.444481,-0.574297 -0.117751,-0.05842 -0.286315,-0.166153 -0.374581,-0.239409 -0.135822,-0.112724 -0.160485,-0.109046 -0.160485,0.02395 0,0.484142 0.242404,1.197307 0.482698,1.420119 0.321959,0.298535 0.47511,0.308804 0.618196,0.04146 z" style="fill:#66fafa;fill-opacity:1;stroke:#000000;stroke-width:0.21602426;stroke-miterlimit:4;stroke-dasharray:none;stroke-opacity:1" inkscape:connector-curvature="0"/>
      <path id="path855" d="m 38.422125,20.721162 c 0.399392,-0.276779 0.54369,-0.576636 0.67401,-1.400609 l 0.06108,-0.386152 -0.318422,0.226736 c -0.811172,0.577605 -1.293186,1.264488 -1.293186,1.842818 0,0.426191 0.09016,0.490114 0.305373,0.21651 0.09843,-0.125132 0.355448,-0.349817 0.571152,-0.499303 z" style="fill:#66fafa;fill-opacity:1;stroke:#000000;stroke-width:0.21602426;stroke-miterlimit:4;stroke-dasharray:none;stroke-opacity:1" inkscape:connector-curvature="0"/>
      <path id="path853" d="m 36.708056,19.680205 c 0.06127,-0.04037 0.140109,-0.165545 0.175204,-0.278181 0.07257,-0.232919 -0.381858,-0.790233 -0.969508,-1.189023 l -0.348285,-0.236351 0.184317,0.664692 c 0.122043,0.440132 0.272805,0.740814 0.446247,0.890002 0.283298,0.243681 0.342128,0.260785 0.512025,0.148861 z" style="fill:#66fafa;fill-opacity:1;stroke:#000000;stroke-width:0.21602426;stroke-miterlimit:4;stroke-dasharray:none;stroke-opacity:1" inkscape:connector-curvature="0"/>
      <path id="path851" d="m 38.511648,19.050928 c 0.134547,-0.05116 0.217616,-0.136725 0.184598,-0.190153 -0.03303,-0.05343 0.01067,-0.233926 0.09715,-0.401109 0.172988,-0.334521 0.361665,-1.200227 0.261584,-1.200227 -0.09509,0 -0.610385,0.495837 -0.610385,0.587339 0,0.0439 -0.110405,0.130116 -0.245339,0.191596 -0.21489,0.09791 -0.462522,0.512814 -0.691145,1.15799 -0.03681,0.103879 -0.03991,0.274006 -0.0069,0.378052 0.05506,0.173486 0.08931,0.163481 0.412916,-0.120652 0.19408,-0.170405 0.462958,-0.351681 0.597508,-0.402836 z" style="fill:#66fafa;fill-opacity:1;stroke:#000000;stroke-width:0.21602426;stroke-miterlimit:4;stroke-dasharray:none;stroke-opacity:1" inkscape:connector-curvature="0"/>
      <path id="path849" d="m 37.001484,17.815854 c 0.101935,-0.543391 -0.285678,-1.035032 -1.085041,-1.376228 -0.164658,-0.07028 -0.174824,-0.03495 -0.114035,0.396299 0.07172,0.508845 0.215702,0.794946 0.562731,1.118252 0.335184,0.31227 0.561023,0.263179 0.636345,-0.138323 z" style="fill:#66fafa;fill-opacity:1;stroke:#000000;stroke-width:0.21602426;stroke-miterlimit:4;stroke-dasharray:none;stroke-opacity:1" inkscape:connector-curvature="0"/>
      <path id="path847" d="m 38.464198,17.295798 c 0.208973,-0.144817 0.379951,-0.271746 0.379951,-0.282061 0,-0.01952 0.457764,-1.55888 0.563054,-1.893418 0.04416,-0.140318 -0.06939,-0.08707 -0.426096,0.199774 -0.693117,0.557394 -0.727533,0.595442 -0.889756,0.983698 -0.148607,0.355661 -0.203538,1.255314 -0.07664,1.255314 0.03825,0 0.240527,-0.118488 0.449498,-0.263307 z" style="fill:#66fafa;fill-opacity:1;stroke:#000000;stroke-width:0.21602426;stroke-miterlimit:4;stroke-dasharray:none;stroke-opacity:1" inkscape:connector-curvature="0"/>
      <path id="path845" d="m 37.087218,15.910778 c 0.127155,-0.50663 -0.402448,-1.198575 -1.169506,-1.528002 -0.354558,-0.152271 -0.41912,-0.151207 -0.295242,0.0048 0.0545,0.06867 0.152145,0.289634 0.216975,0.491023 0.130964,0.406822 0.850861,1.281998 1.05454,1.281998 0.07179,0 0.158737,-0.11245 0.193233,-0.249888 z" style="fill:#66fafa;fill-opacity:1;stroke:#000000;stroke-width:0.21602426;stroke-miterlimit:4;stroke-dasharray:none;stroke-opacity:1" inkscape:connector-curvature="0"/>
      <path id="path843" d="m 39.119648,14.736429 c 0.06913,-0.13997 0.144,-0.526725 0.166404,-0.859452 0.0224,-0.332726 0.06964,-0.651733 0.104979,-0.708906 0.03533,-0.05716 0.02144,-0.103946 -0.03085,-0.103946 -0.0523,0 -0.120192,0.0654 -0.150863,0.14532 -0.03067,0.07993 -0.233503,0.235997 -0.450744,0.346823 -0.750506,0.382881 -0.985328,0.982662 -0.702438,1.794167 l 0.110977,0.318348 0.413438,-0.338931 c 0.227391,-0.18641 0.469989,-0.453451 0.539106,-0.593422 z" style="fill:#66fafa;fill-opacity:1;stroke:#000000;stroke-width:0.21602426;stroke-miterlimit:4;stroke-dasharray:none;stroke-opacity:1" inkscape:connector-curvature="0"/>
      <path id="path841" d="m 37.126905,14.210532 c 0.01405,-0.37409 -0.08352,-0.53005 -0.725173,-1.159047 -0.584366,-0.572835 -0.689013,-0.49436 -0.406929,0.305153 0.132034,0.374218 0.851563,1.205812 1.04332,1.205812 0.04155,0 0.08151,-0.158362 0.08877,-0.351918 z" style="fill:#66fafa;fill-opacity:1;stroke:#000000;stroke-width:0.21602426;stroke-miterlimit:4;stroke-dasharray:none;stroke-opacity:1" inkscape:connector-curvature="0"/>
      <path id="path839" d="m 38.816906,13.064124 c -0.0022,-0.02746 0.08776,-0.252219 0.199791,-0.499442 0.112022,-0.247224 0.22691,-0.728016 0.255319,-1.068428 0.04654,-0.557598 0.03532,-0.608551 -0.113189,-0.514212 -0.329427,0.209267 -0.865659,0.991598 -0.930494,1.357536 -0.03653,0.206216 -0.04187,0.564501 -0.01183,0.796187 l 0.05458,0.421252 0.274857,-0.221475 c 0.15117,-0.12181 0.273109,-0.243948 0.270978,-0.271418 z" style="fill:#66fafa;fill-opacity:1;stroke:#000000;stroke-width:0.21602426;stroke-miterlimit:4;stroke-dasharray:none;stroke-opacity:1" inkscape:connector-curvature="0"/>
      <path id="path837" d="m 37.032889,12.272779 c 0.01235,-0.270425 -0.04279,-0.64126 -0.122496,-0.824079 -0.138671,-0.31805 -0.871545,-1.181453 -1.002839,-1.181453 -0.03459,0 -0.04339,0.123613 -0.01954,0.274694 0.02385,0.151082 0.07467,0.476968 0.112913,0.724193 0.03824,0.247223 0.114663,0.535287 0.169818,0.640141 0.124897,0.237445 0.684538,0.858184 0.773715,0.858184 0.0363,0 0.07609,-0.221256 0.08842,-0.49168 z" style="fill:#66fafa;fill-opacity:1;stroke:#000000;stroke-width:0.21602426;stroke-miterlimit:4;stroke-dasharray:none;stroke-opacity:1" inkscape:connector-curvature="0"/>
      <path id="path835" d="m 38.711312,11.041383 c 0.308895,-0.327805 0.532389,-0.986587 0.532389,-1.5692853 v -0.307131 l -0.450835,0.470518 c -0.47223,0.4928473 -0.708235,1.0771323 -0.603551,1.4942293 0.07832,0.312078 0.157281,0.298718 0.521997,-0.08833 z" style="fill:#66fafa;fill-opacity:1;stroke:#000000;stroke-width:0.21602426;stroke-miterlimit:4;stroke-dasharray:none;stroke-opacity:1" inkscape:connector-curvature="0"/>
      <path id="path833" d="m 37.345822,10.190853 c 0,-0.3927183 -0.347898,-0.9908523 -0.832519,-1.4313383 -0.307392,-0.279397 -0.424904,-0.338632 -0.449845,-0.226751 -0.03967,0.177939 0.199129,1.035265 0.288354,1.035265 0.03363,0 0.20641,0.202273 0.383952,0.4494983 0.371144,0.516808 0.610058,0.584686 0.610058,0.173326 z" style="fill:#66fafa;fill-opacity:1;stroke:#000000;stroke-width:0.21602426;stroke-miterlimit:4;stroke-dasharray:none;stroke-opacity:1" inkscape:connector-curvature="0"/>
      <path id="path831" d="m 38.828788,8.4692557 c 0.161719,-0.41204 0.32518,-0.9831829 0.363247,-1.2692068 l 0.06921,-0.5200433 -0.470412,0.4700994 c -0.258726,0.2585543 -0.554849,0.5772975 -0.658048,0.7083187 -0.213665,0.271265 -0.244466,0.851624 -0.07718,1.454173 l 0.10935,0.393843 0.184899,-0.244009 c 0.101689,-0.134208 0.317209,-0.581136 0.47893,-0.993175 z" style="fill:#66fafa;fill-opacity:1;stroke:#000000;stroke-width:0.21602426;stroke-miterlimit:4;stroke-dasharray:none;stroke-opacity:1" inkscape:connector-curvature="0"/>
      <path id="path829" d="m 37.44571,8.2863007 c 0,-0.155564 -0.09321,-0.5797699 -0.207115,-0.9426811 C 37.07487,6.8220133 36.954546,6.62603 36.664237,6.4081097 36.462253,6.2564902 36.263969,6.0851119 36.223607,6.0272691 c -0.04037,-0.057842 -0.07407,0.1736522 -0.07492,0.5144338 -0.0021,0.8033061 0.1695,1.1942818 0.787193,1.7947708 0.324947,0.315899 0.509827,0.297705 0.509827,-0.05018 z" style="fill:#66fafa;fill-opacity:1;stroke:#000000;stroke-width:0.21602426;stroke-miterlimit:4;stroke-dasharray:none;stroke-opacity:1" inkscape:connector-curvature="0"/>
      <path id="path827" d="m 38.728301,6.4784301 c 0.101856,-0.1961043 0.216578,-0.5251148 0.254934,-0.7311346 0.07334,-0.3939452 -0.0109,-1.0738008 -0.133129,-1.0738008 -0.03943,0 -0.180045,0.2359864 -0.312471,0.5244143 -0.132427,0.2884279 -0.283033,0.5545321 -0.334683,0.5913428 -0.117176,0.083512 -0.159194,0.2744815 -0.227031,1.0318444 l -0.05368,0.5993306 0.310434,-0.2927218 c 0.170737,-0.1609973 0.393769,-0.4531709 0.495626,-0.6492749 z" style="fill:#66fafa;fill-opacity:1;stroke:#000000;stroke-width:0.21602426;stroke-miterlimit:4;stroke-dasharray:none;stroke-opacity:1" inkscape:connector-curvature="0"/>
      <path id="path825" d="M 37.507225,6.1092582 C 37.466514,5.4422753 37.397797,5.2216332 36.954988,4.3362384 l -0.505746,-1.0112378 -0.0012,0.7194912 c -0.0013,0.7849124 0.08407,1.0483479 0.560024,1.7277757 0.173187,0.2472239 0.346078,0.595585 0.384203,0.7741354 0.116381,0.5450264 0.163881,0.3643987 0.114963,-0.4371447 z" style="fill:#66fafa;fill-opacity:1;stroke:#000000;stroke-width:0.21602426;stroke-miterlimit:4;stroke-dasharray:none;stroke-opacity:1" inkscape:connector-curvature="0"/>
      <path id="path823" d="m 38.319734,4.977573 c 0.307761,-0.5389782 0.288073,-0.8130024 -0.136671,-1.9022934 -0.08123,-0.2083198 -0.378039,0.850259 -0.378098,1.3484938 -5.5e-5,0.4628463 0.111281,0.949285 0.217006,0.9481711 0.04015,-4.139e-4 0.174152,-0.1778903 0.297763,-0.3943715 z" style="fill:#66fafa;fill-opacity:1;stroke:#000000;stroke-width:0.21602426;stroke-miterlimit:4;stroke-dasharray:none;stroke-opacity:1" inkscape:connector-curvature="0"/>
      <path id="path4249" d="m 37.545599,3.624666 c 0,-0.1308619 -0.04494,-0.2657113 -0.09989,-0.2996654 -0.05956,-0.036812 -0.09989,0.084167 -0.09989,0.2996654 0,0.2154972 0.04034,0.3364766 0.09989,0.2996652 0.05494,-0.033954 0.09989,-0.1688032 0.09989,-0.2996652 z" style="fill:#66fafa;fill-opacity:1;stroke:#000000;stroke-width:0.21602426;stroke-miterlimit:4;stroke-dasharray:none;stroke-opacity:1" inkscape:connector-curvature="0"/>
    </g>
    <path inkscape:label="PO_0009047" sodipodi:nodetypes="cccccc" inkscape:connector-curvature="0" id="stem" d="M 36.831428,24.905007 C 37.488482,24.247951 37.707501,24.905007 37.707501,24.905007 37.205582,56.940424 36.247858,94.161618 36.940937,124.22977 36.758421,124.52179 36.575907,124.81382 36.393392,125.10585 35.736336,125.43438 35.2983,122.91567 35.2983,122.91567 35.079283,101.99942 36.831428,24.905007 36.831428,24.905007 Z" style="fill:#66fafa;fill-opacity:1;stroke:#000000;stroke-width:0.21602426;stroke-miterlimit:4;stroke-dasharray:none;stroke-opacity:1" label="PO_0009047" nodetypes="cccccc" connector-curvature="0" ontology="PO_0009047"/>
    <g transform="matrix(0.15331275,0,0,0.15331275,-15.075891,-2.1773726)" style="fill:#66fafa;fill-opacity:1;stroke:#000000;stroke-width:0.21602426;stroke-miterlimit:4;stroke-dasharray:none;stroke-opacity:1" inkscape:label="PO_0025034" id="leaf" label="PO_0025034" ontology="PO_0025034">
      <path d="M 344.28572,337.3622 C 327.14286,336.64792 318.57143,330.21934 318.57143,330.21934 275,307.71934 252.85714,254.50506 252.85714,254.50506 227.14286,197.3622 223.57143,144.8622 223.57143,144.8622 224.28571,119.8622 228.21429,111.64792 228.21429,111.64792 242.14286,145.93363 247.85715,153.07649 247.85715,153.07649 284.28572,227.3622 289.64286,256.29078 289.64286,256.29078 301.07143,284.86221 307.14286,291.29077 307.14286,291.29077 317.31729,300.54932 325.20547,313.31323 331.16119,320.81989 335.96744,326.87775 348.1796,327.80035 346.83186,331.10986 Z" id="leaf1" inkscape:connector-curvature="0" sodipodi:nodetypes="ccccccccssc" inkscape:label="leaf1" style="fill:#66fafa;fill-opacity:1;stroke:#000000;stroke-width:0.21602426;stroke-miterlimit:4;stroke-dasharray:none;stroke-opacity:1"/>
      <path d="M 329.28572,494.50506 C 337.85714,491.64792 344.64286,474.14792 344.64286,474.14792 383.92857,384.8622 392.85714,369.14792 392.85714,369.14792 408.21428,336.29078 411.78572,336.64792 411.78572,336.64792 424.64286,332.71934 440.35714,337.71934 440.35714,337.71934 512.14286,372.71934 515.35714,372.71934 515.35714,372.71934 535,378.79077 550.35715,378.07649 550.35715,378.07649 L 566.42857,382.00506 C 577.85714,385.93363 593.57143,378.43363 593.57143,378.43363 603.57143,373.79077 607.5,367.00506 607.5,367.00506 607.5,365.21934 603.21429,365.57649 603.21429,365.57649 567.14286,374.8622 552.5,370.57649 552.5,370.57649 543.92857,370.57649 513.21429,350.93363 513.21429,350.93363 453.57143,307.00506 422.5,317.71934 422.5,317.71934 384.28572,329.14792 367.85714,372.71934 367.85714,372.71934 333.21429,470.93363 329.28572,494.50506 329.28572,494.50506 Z" id="leaf2" inkscape:connector-curvature="0" sodipodi:nodetypes="cccccccccccccccc" inkscape:label="leaf2" style="fill:#66fafa;fill-opacity:1;stroke:#000000;stroke-width:0.21602426;stroke-miterlimit:4;stroke-dasharray:none;stroke-opacity:1"/>
      <path d="M 338.92857,665.57649 C 323.57143,662.3622 300,635.93363 300,635.93363 252.14286,581.64792 236.07143,560.57649 236.07143,560.57649 204.64286,529.50506 200,528.43363 200,528.43363 160.71429,566.64792 132.85714,675.93363 132.85714,675.93363 113.92857,757.00506 103.92857,760.21935 103.92857,760.21935 90.714286,764.14792 109.28571,682.00506 109.28571,682.00506 137.14286,555.93364 171.07143,524.50506 171.07143,524.50506 181.42857,509.50506 225,517.3622 225,517.3622 257.85715,530.57649 323.21429,640.57649 323.21429,640.57649 330,654.14791 340.35714,661.29077 340.35714,661.29077 342.85714,664.8622 338.92857,665.57649 338.92857,665.57649 Z" id="leaf3" inkscape:connector-curvature="0" sodipodi:nodetypes="cccccccccccc" inkscape:label="leaf3" style="fill:#66fafa;fill-opacity:1;stroke:#000000;stroke-width:0.21602426;stroke-miterlimit:4;stroke-dasharray:none;stroke-opacity:1"/>
      <path d="M 313.92857,851.64792 C 322.10831,846.53558 332.48925,832.37799 341.09012,822.73602 347.51046,815.53852 353.57143,811.64791 353.57143,811.64791 361.42857,807.3622 373.57143,824.50506 373.57143,824.50506 386.42857,842.36221 420.35714,843.43363 420.35714,843.43363 431.42857,845.21934 444.28572,853.79078 444.28572,853.79078 451.42857,863.43363 453.21428,869.86221 453.21428,869.86221 457.14286,873.07649 465.71429,878.43363 465.71429,878.43363 492.50001,916.29077 504.28571,912.71934 504.28571,912.71934 512.14286,912.3622 515.71429,913.79078 515.71429,913.79078 520.00001,920.93364 529.64286,924.8622 529.64286,924.8622 534.28572,924.50506 537.85715,919.8622 537.85715,919.8622 L 527.85715,919.50506 C 524.64286,919.50506 520.35714,908.79078 520.35714,908.79078 517.5,906.29078 503.57143,903.43363 503.57143,903.43363 495,903.43363 481.42857,880.93363 481.42857,880.93363 463.92857,846.29078 460,848.79078 460,848.79078 456.57771,844.92048 438.62356,837.64435 424.88025,829.46341 415.46422,823.85836 408.21429,815.93363 408.21429,815.93363 378.92857,787.00506 363.57143,788.43363 363.57143,788.43363 341.78572,790.57649 325,825.21935 325,825.21935 316.07143,842.71935 313.92857,851.64792 313.92857,851.64792 Z" id="leaf4" inkscape:connector-curvature="0" sodipodi:nodetypes="cscccccccccccccccscccc" inkscape:label="leaf4" style="fill:#66fafa;fill-opacity:1;stroke:#000000;stroke-width:0.21602426;stroke-miterlimit:4;stroke-dasharray:none;stroke-opacity:1"/>
    </g>
    <path inkscape:label="PO_0009005" sodipodi:nodetypes="ccccccccccccccccccccccccccccccccccccccccccsccccccccccccccccccccccccccccccccccccccccccccccccc" inkscape:connector-curvature="0" id="root" d="M 32.806968,135.8925 C 32.314176,135.07118 30.315636,135.12593 30.315636,135.12593 28.180208,137.64464 27.851681,138.54808 27.851681,138.54808 26.564948,139.53367 24.977067,140.02645 24.977067,140.02645 22.184583,140.8204 21.335888,141.69648 21.335888,141.69648 19.474234,142.95582 19.20046,143.1201 19.20046,143.1201 17.612579,143.25699 16.544864,144.7901 16.544864,144.7901 16.435359,145.33767 17.119787,145.09125 17.119787,145.09125 18.214879,144.16043 18.51603,144.37944 18.51603,144.37944 19.775384,144.59846 20.651457,143.77715 20.651457,143.77715 23.443939,141.58696 24.894936,141.36795 24.894936,141.36795 26.701836,140.92992 27.988568,139.94433 27.988568,139.94433 27.879061,140.62876 27.577908,141.58696 27.577908,141.58696 27.030363,143.31174 25.551989,143.94141 25.551989,143.94141 21.500153,145.58404 21.226378,146.65176 21.226378,146.65176 20.131289,148.18489 18.81718,149.03359 18.81718,149.03359 17.612579,150.23818 17.338805,151.44279 17.338805,151.44279 16.134207,153.24969 16.024696,154.15312 16.024696,154.15312 16.18896,154.59117 17.503069,153.14018 17.503069,153.14018 L 18.269634,152.04508 C 18.269634,152.70213 18.050616,155.22085 18.050616,155.22085 18.433898,155.33038 19.20046,153.63297 19.20046,153.63297 19.364725,152.48313 19.364725,150.23818 19.364725,150.23818 19.528988,149.69065 20.952606,148.8967 20.952606,148.8967 21.226378,149.82752 20.733589,152.97592 20.733589,152.97592 20.843095,153.3592 21.938189,151.169 21.938189,151.169 22.376226,149.69065 22.978526,146.7339 22.978526,146.7339 23.252297,145.91258 23.964107,145.58404 23.964107,145.58404 25.004443,145.25552 25.935272,144.70797 25.935272,144.70797 24.785426,145.58404 24.018862,146.40536 24.018862,146.40536 23.526071,146.78864 23.580826,148.4039 23.580826,148.4039 23.936731,152.29149 22.595244,153.1128 22.595244,153.1128 20.322928,155.35773 20.897854,156.75397 20.897854,156.75397 20.952604,157.30152 21.445397,156.37069 21.445397,156.37069 21.71917,155.05659 22.786884,154.53641 22.786884,154.53641 24.265258,153.82461 24.566407,152.59264 24.566407,152.59264 25.113953,151.55228 24.840182,147.50046 24.840182,147.50046 24.840182,146.95291 25.853138,146.13159 25.853138,146.13159 28.015944,145.00913 28.453981,144.05092 28.453981,144.05092 28.837262,146.46012 27.961191,147.17192 27.961191,147.17192 26.537572,149.6085 26.619703,151.74394 26.619703,151.74394 26.223003,152.93709 25.427206,154.69866 25.442481,155.87789 25.442481,155.87789 25.606743,155.00182 25.442481,155.87789 25.278217,156.75397 25.880517,156.4802 25.880517,156.4802 26.45544,155.74102 26.674458,154.12576 26.674458,154.12576 27.358891,152.83903 27.687416,151.38803 27.687416,151.38803 29.001526,154.29002 28.727754,155.33037 28.727754,155.33037 28.837261,157.73956 29.603826,158.2871 29.603826,158.2871 30.151372,158.3418 30.151372,156.53496 30.151372,156.53496 L 30.096611,154.89233 C 29.932347,152.75689 28.563484,150.21081 28.563484,150.21081 28.070692,149.6085 28.618234,148.21226 28.618234,148.21226 30.260871,146.13159 30.041852,145.25552 30.041852,145.25552 29.987102,144.26994 29.822833,144.35206 29.822833,144.35206 30.671529,146.02668 31.355963,146.17691 31.492849,146.87078 31.602355,147.63734 31.793998,149.52638 31.793998,149.52638 31.793998,150.51196 32.232034,151.33328 32.232034,151.33328 32.396299,152.31885 31.629734,154.45428 31.629734,154.45428 31.410716,155.3851 31.684484,155.71364 31.684484,155.71364 32.446151,155.20903 34.113916,151.37515 33.491385,151.77131 L 33.984176,152.15459 C 34.75074,153.19492 35.517303,153.85199 35.517303,153.85199 35.681567,153.3592 34.695986,151.55228 34.695986,151.55228 33.874668,150.07392 33.381875,149.7454 33.381875,149.7454 33.190235,148.95145 33.05335,146.98028 33.05335,146.98028 33.05335,146.4875 31.191694,143.88666 31.191694,143.88666 30.808412,143.01057 31.164324,141.99762 31.164324,141.99762 31.328588,141.28581 31.629738,141.23106 31.629738,141.23106 33.108112,142.16188 33.874675,143.33911 33.874675,143.33911 34.476976,144.59846 34.805501,146.62439 34.805501,146.62439 35.079276,147.99325 37.269456,148.97883 37.269456,148.97883 L 38.309794,149.41687 C 40.77375,150.73098 41.485557,153.68772 41.485557,153.68772 41.814085,154.50904 42.142613,153.96149 42.142613,153.96149 42.744914,153.08541 41.759331,151.6618 41.759331,151.6618 41.074899,150.4572 40.582109,149.99178 40.582109,149.99178 41.731953,150.21081 42.963932,150.89524 42.963932,150.89524 43.785249,151.27852 43.401967,150.29294 43.401967,150.29294 39.95243,148.48604 37.762248,147.63734 37.762248,147.63734 36.366006,146.8434 35.681575,145.22814 35.681575,145.22814 35.243537,142.21664 33.81992,141.14892 33.81992,141.14892 32.451057,140.16334 32.478436,139.61581 32.478436,139.61581 L 32.451056,138.57546 C 32.478436,139.61581 35.681574,140.13598 35.681574,140.13598 36.311253,140.40973 36.146989,143.12009 36.146989,143.12009 36.146989,144.81748 37.871755,146.07683 37.871755,146.07683 39.185865,146.8434 39.842921,146.54224 39.842921,146.54224 39.842921,146.10422 38.309793,144.4342 38.309793,144.4342 37.43372,143.94141 37.43372,141.47746 37.43372,141.47746 37.37896,138.84924 36.283875,138.73973 36.283875,138.73973 33.765164,138.35645 33.108109,137.48038 33.108109,137.48038 32.834337,137.15185 32.80696,135.8925 32.80696,135.8925 Z" style="fill:#66fafa;fill-opacity:1;stroke:#000000;stroke-width:0.21602426;stroke-miterlimit:4;stroke-dasharray:none;stroke-opacity:1" label="PO_0009005" nodetypes="ccccccccccccccccccccccccccccccccccccccccccsccccccccccccccccccccccccccccccccccccccccccccccccc" connector-curvature="0" ontology="PO_0009005"/>
    <path inkscape:label="PO_0009049" sodipodi:nodetypes="cccccccccccccccsccccccccccccscccscscccsccccccccccsccccccccccccccccscscccccsccccccccccsccccssscccsscscccccc" inkscape:connector-curvature="0" id="inflorescence" d="M 37.187332,25.835833 C 37.680124,26.383378 38.104472,26.123295 38.104472,26.123295 38.788904,25.986408 39.117431,25.315665 39.117431,25.315665 39.363825,24.713363 39.541778,24.083687 39.541778,24.083687 39.788173,23.56352 39.98666,23.262368 39.98666,23.262368 39.822395,23.002284 39.22694,23.56352 39.22694,23.56352 38.138693,24.289017 37.81701,24.76812 37.81701,24.76812 L 38.11816,23.837291 C 38.255045,23.317122 39.240629,22.523182 39.240629,22.523182 39.706042,21.893505 39.685509,21.900349 39.685509,21.900349 39.918215,20.901078 39.740269,20.825791 39.740269,20.825791 39.302232,20.606773 39.514404,20.196114 39.514404,20.196114 39.836088,19.758077 39.760801,19.511681 39.760801,19.511681 39.576005,19.491151 39.2817,19.908651 39.2817,19.908651 39.404898,19.073645 39.623913,18.471345 39.623913,18.471345 39.836089,18.088063 40.013988,17.840307 39.883998,17.793756 39.720861,17.735336 39.185878,18.416591 39.185878,18.416591 39.336454,17.964866 39.514404,17.51314 39.514404,17.51314 L 39.582854,16.992972 C 39.748369,16.532955 40.452258,15.936781 40.363105,15.877349 40.226219,15.815749 39.569165,16.376984 39.569165,16.376984 39.534595,16.349334 39.472005,16.480379 39.487025,16.171653 39.487025,15.569354 40.061948,14.419508 40.061948,14.419508 40.308343,14.090981 40.308343,13.933562 40.308343,13.933562 40.150924,13.974622 39.521247,14.611148 39.521247,14.611148 39.515647,14.394187 39.603407,14.161702 39.706044,13.926716 39.706044,13.735076 39.801864,13.242286 39.801864,13.242286 39.957288,12.531446 40.569782,12.00784 40.411009,11.976086 40.356559,11.898946 39.940585,12.250116 39.652542,12.472518 39.506111,12.58558 39.377515,12.639986 39.377515,12.639986 39.383015,12.514377 39.561426,12.230179 39.610223,11.900798 39.610223,11.517516 39.788175,10.833084 39.788175,10.833084 39.896468,10.464877 40.33714,9.7590764 40.499336,9.4745974 40.542166,9.3994974 40.527366,9.3410234 40.527366,9.3410234 40.291138,9.4544104 40.098123,9.6958704 39.890147,9.8800524 39.702236,10.046462 39.56916,10.121276 39.56916,10.121276 39.733423,9.1904474 39.733423,8.5881474 39.733423,8.5881474 39.883997,7.499901 40.308346,7.2945719 40.308346,7.2945719 40.401746,7.1502157 40.312346,7.0975407 40.225836,7.1147307 40.172886,7.1252567 40.116701,7.1919077 40.116701,7.1919077 39.671819,7.7120757 39.377515,8.1227344 39.377515,8.1227344 39.699197,6.7812484 39.733418,5.9325531 39.733418,5.9325531 39.904526,5.0633244 39.760798,4.8853721 39.760798,4.8853721 39.654863,4.9103761 39.610915,5.3171475 39.521247,5.5698039 39.391205,5.9188644 39.185873,6.1515711 39.185873,6.1515711 39.327919,5.7789265 39.183373,3.3662467 39.206413,3.1742923 39.206413,2.9005195 39.247483,2.4282615 39.247483,2.4282615 39.302233,1.93547 39.062683,2.1750211 39.062683,2.1750211 38.891577,3.1058487 38.802601,3.7971248 38.802601,3.7971248 38.715814,3.2938155 38.161631,1.8910685 37.797596,0.93152714 37.587385,0.37744754 37.467949,-0.02884976 37.467949,-0.02884976 37.214709,-0.15204766 37.187332,0.10119224 37.187332,0.10119224 38.036027,2.2913744 37.837542,2.7704768 37.837542,2.7704768 37.748571,3.2153575 37.625369,3.1948245 37.625369,3.1948245 37.461106,2.9484292 37.406351,2.2913744 37.406351,2.2913744 37.132578,2.3050636 36.913559,3.3864654 36.913559,3.3864654 36.776674,3.6054835 36.749297,2.8115426 36.749297,2.8115426 36.749297,2.4008835 37.1052,1.1962832 37.1052,1.1962832 37.18734,0.78562404 37.0436,0.81984554 37.0436,0.81984554 36.735735,1.2012814 36.076911,3.819036 36.099084,4.064053 36.069094,4.3857361 36.320687,5.2344317 36.160684,5.2344317 35.857544,5.0890649 35.805688,4.8310656 35.681581,4.536311 35.48994,3.6876155 35.216168,3.1126928 35.216168,3.1126928 35.024527,3.1400698 35.270918,4.125652 35.270918,4.125652 35.76371,6.288457 35.736332,6.8086251 35.736332,6.8086251 35.797932,7.4383025 36.105924,7.9584714 36.105924,7.9584714 35.791089,8.1774894 35.772141,7.3843071 35.572071,7.0823979 35.151878,6.4483138 35.243545,6.6032955 35.243545,6.6032955 34.921862,6.7264935 35.489723,7.4841474 35.626826,8.7524124 35.676156,9.2086794 36.064863,9.7653714 36.064863,9.7653714 35.845845,9.7653714 35.407808,9.1630724 35.407808,9.1630724 35.079282,8.8071654 35.024525,8.9166764 35.024525,8.9166764 35.051905,9.2071364 35.48994,10.069623 35.48994,10.696198 35.599447,11.27112 35.818468,11.818667 35.818468,11.818667 35.728548,11.818667 35.604493,11.539715 35.485827,11.32437 35.387697,11.146309 35.284609,11.024725 35.284609,11.024725 35.038214,10.805707 34.860263,11.188988 34.860263,11.188988 34.887643,11.572271 35.243545,12.229325 35.243545,12.229325 35.38043,12.667362 35.59945,13.29704 35.59945,13.29704 35.59945,13.48868 36.174372,14.118358 36.174372,14.118358 35.575666,14.110558 35.169213,12.977346 34.586492,12.982201 34.682112,13.246976 35.328384,14.312756 35.325677,14.802789 35.325677,15.158693 36.092239,16.082679 36.092239,16.082679 35.791089,16.144279 34.860263,15.10394 34.860263,15.10394 34.531735,14.857545 34.600179,15.268202 34.600179,15.268202 34.714735,15.377171 34.9242,15.565761 35.093436,15.812365 35.215382,15.990061 35.353053,16.623378 35.353053,16.623378 35.48994,17.362565 35.531006,17.567896 35.531006,17.567896 35.175102,17.047727 34.750753,16.801331 34.750753,16.801331 34.531735,16.856081 34.928706,17.472074 34.928706,17.472074 35.103976,17.799018 35.226133,18.307061 35.346528,18.749036 35.405768,18.966524 35.541102,19.226529 35.58197,19.370961 35.61853,19.500124 35.56719,19.528635 35.51732,19.484305 35.024531,19.046267 34.723379,19.224222 34.723379,19.224222 L 34.796859,19.367611 C 34.902771,19.489466 35.041391,19.480511 35.11351,19.737545 35.21112,19.960208 35.2114,20.346238 35.301962,20.718721 35.414613,21.182055 35.653616,21.618723 35.845853,21.777152 36.768166,22.537256 36.550819,22.707979 36.550819,22.707979 36.550819,22.707979 36.397984,22.524145 36.171219,22.406988 36.000424,22.318748 35.76604,22.243197 35.613146,22.167278 35.209333,22.023547 34.983469,21.387024 34.983469,21.387024 34.819205,21.304884 34.853426,21.83875 34.853426,21.83875 34.867126,23.782535 36.105937,24.35746 36.105937,24.35746 L 36.632951,24.665454 C 37.098363,25.076111 37.187339,25.835833 37.187339,25.835833 Z" style="fill:#66fafa;fill-opacity:1;stroke:#000000;stroke-width:0.21602426;stroke-miterlimit:4;stroke-dasharray:none;stroke-opacity:1" label="PO_0009049" nodetypes="cccccccccccccccsccccccccccccscccscscccsccccccccccsccccccccccccccccscscccccsccccccccccsccccssscccsscscccccc" connector-curvature="0" ontology="PO_0009049"/>
  </g>
</svg>
