<?xml version="1.0" encoding="UTF-8" standalone="no"?>
<!-- Created with Inkscape (http://www.inkscape.org/) -->
<svg xmlns:dc="http://purl.org/dc/elements/1.1/" xmlns:cc="http://creativecommons.org/ns#" xmlns:rdf="http://www.w3.org/1999/02/22-rdf-syntax-ns#" xmlns:svg="http://www.w3.org/2000/svg" xmlns="http://www.w3.org/2000/svg" xmlns:sodipodi="http://sodipodi.sourceforge.net/DTD/sodipodi-0.dtd" xmlns:inkscape="http://www.inkscape.org/namespaces/inkscape" width="122.72871" height="107.09201" viewBox="0 0 122.72871 107.09201" preserveAspectRatio="none" id="svg2" version="1.1" inkscape:version="0.92.3 (unknown)" sodipodi:docname="xenopus_tropicalis.svg">
  <defs id="defs4"/>
  <sodipodi:namedview id="base" pagecolor="#ffffff" bordercolor="#666666" borderopacity="1.0" inkscape:pageopacity="0.0" inkscape:pageshadow="2" inkscape:zoom="4" inkscape:cx="43.286658" inkscape:cy="35.690165" inkscape:document-units="px" inkscape:current-layer="container" showgrid="false" inkscape:window-width="1855" inkscape:window-height="1056" inkscape:window-x="65" inkscape:window-y="24" inkscape:window-maximized="1" fit-margin-top="0" fit-margin-left="0" fit-margin-right="0" fit-margin-bottom="0"/>
  <metadata id="metadata">
    <rdf:RDF>
      <cc:Work rdf:about="">
        <dc:format>image/svg+xml</dc:format>
        <dc:type rdf:resource="http://purl.org/dc/dcmitype/StillImage"/>
        <dc:title/>
      </cc:Work>
    </rdf:RDF>
  </metadata>
  <g inkscape:label="EFO" id="container" inkscape:groupmode="layer" label="EFO" groupmode="layer">
    <g id="outline" style="fill:#61fafa;fill-opacity:1;stroke:#000000;stroke-opacity:1">
      <path id="path1026" d="m 109.00876,0.0837355 c -0.2357,0 -0.5911,1.404531 -0.73576,2.244987 -0.39932,2.319297 -0.32066,3.717413 -0.26526,5.800834 l 0.0592,2.1742555 -0.24526,-0.9372035 c -0.50326,-1.031491 -0.72033,-2.739283 -0.92184,-4.783672 -0.10375,-1.053035 -0.57175,-1.994218 -0.66272,-2.088146 -0.46449,-0.479497 -1.11545,1.299294 -1.09559,4.563783 0.0175,2.881794 0.48031,4.9187835 1.66529,8.1588405 0.92665,2.533748 1.64048,4.188347 1.45924,4.660656 -0.10228,0.266545 -0.20959,-0.262685 -0.96335,-0.804197 -1.84152,-1.323008 -4.49923,-2.239132 -7.14782,-2.689372 -2.277332,-0.387128 -4.647103,-0.18549 -7.522252,1.727564 -2.199744,1.463665 -3.184654,2.913352 -4.718309,5.967668 -0.732152,1.458075 -1.690942,3.125494 -2.125828,3.702692 -0.927946,1.231622 -2.133825,2.646348 -2.854679,3.025352 -0.807497,0.424584 -2.514935,0.39236 -4.609913,-0.696562 -3.961101,-2.05889 -5.464778,-2.611493 -8.788503,-2.868508 -2.742093,-0.212039 -12.570185,0.151071 -14.883799,0.589692 -5.798052,0.892996 -14.407436,5.58423 -18.282809,3.766506 C 35.592327,31.145427 35.591881,31.12954 35.07793,28.669657 33.952536,23.283198 32.821939,20.743261 30.669452,18.960084 28.772778,17.388827 25.631798,16.343599 20.666196,15.143606 14.859755,13.740432 12.684656,13.598428 9.9886661,13.48985 7.2231856,13.378474 6.285974,13.519611 6.285974,14.044177 c 0,0.413744 0.7024782,0.659057 2.8846554,1.011782 0.8767796,0.141729 1.9805096,0.388478 2.4541096,0.548946 0.822067,0.278544 1.701241,0.747473 1.598392,0.850327 -0.02664,0.02664 -1.01762,0.174311 -2.201156,0.328291 -1.1836039,0.153979 -3.0747151,0.465286 -4.2032094,0.694255 -1.9011946,0.385745 -2.5455491,0.624338 -2.3088179,0.861091 0.2655088,0.26549 2.5426902,0.428973 5.3872184,0.387491 4.0843109,-0.05956 3.9890739,-0.126854 2.9331009,2.109674 -0.748202,1.58459 -0.929875,2.238837 -0.624291,2.238837 0.08142,0 0.750492,-0.503103 1.485382,-1.114037 0.734803,-0.610934 1.963684,-1.437051 2.733964,-1.840582 1.808205,-0.947287 2.784235,-0.991211 4.337729,-0.193746 1.332401,0.683961 1.599518,1.46969 2.391843,2.991524 0.858318,1.648569 1.696125,3.052487 2.663992,4.191667 1.189115,1.399539 1.713881,2.044856 1.716809,2.549445 0.0017,0.247262 0.358672,1.244892 0.459762,1.386972 0.135605,0.1906 0.253559,-0.705558 0.178368,-1.33546 -0.08036,-0.673056 -0.269934,-1.055729 -0.882618,-1.808291 -1.35689,-1.666694 -2.43148,-3.239628 -3.352865,-4.902838 -1.211337,-2.164759 -2.194424,-3.055451 -3.831856,-3.853383 -0.117211,-0.09635 -1.377745,-0.653578 -2.798546,-1.2432 C 15.88714,17.313318 14.414657,16.617226 14.035794,16.35836 12.777964,15.498975 11.987431,15.200199 9.9886661,14.824541 8.8993512,14.619818 7.6981463,14.362271 7.3192834,14.254068 L 6.6304105,14.060323 7.3192834,13.920395 c 0.7389712,-0.149359 4.2041746,-0.0207 5.3387646,0.199128 l 0.688873,0.134545 -0.688873,0.02153 c -1.316728,0.04111 -1.362452,0.425812 -0.102263,0.850328 0.926138,0.311989 1.453281,0.262591 1.350846,-0.129164 -0.152224,-0.581996 0.822807,-0.526669 4.2624,0.247564 5.626559,1.266513 8.293755,2.130043 10.43534,3.369019 3.157604,1.826776 4.249054,3.727755 5.505593,9.601166 0.338512,1.582092 0.710813,2.861294 0.925673,3.186038 0.1975,0.298428 0.742829,0.733343 1.216308,0.968727 0.793565,0.394542 1.042678,0.430615 3.186038,0.419782 1.278686,-0.0065 2.82865,-0.109865 3.444364,-0.226036 0.615663,-0.116174 3.29376,-0.934827 5.952276,-1.824437 2.65855,-0.889611 5.33222,-1.696252 5.941529,-1.792146 4.113553,-0.647396 14.624462,-0.830905 17.275658,-0.301382 1.638984,0.327363 1.726522,0.357103 5.338765,1.792146 1.841289,0.731495 2.691943,0.977263 3.702692,1.0656 1.626911,0.142194 2.182436,-0.09239 3.611192,-1.512291 1.49296,-1.483726 2.239216,-2.58584 3.745747,-5.532511 1.510285,-2.954009 2.531298,-4.198245 4.461537,-5.430256 3.297066,-2.104481 5.275096,-2.540133 8.282617,-1.819055 2.42872,0.58231 4.63417,1.579746 5.99535,2.712437 0.31092,0.258731 0.66633,0.39856 0.9472,0.365964 0.77,-0.08936 0.60652,-1.385069 -0.64045,-5.048147 -0.58037,-1.70496 -1.13972,-3.473633 -1.2378,-3.928728 -0.33848,-1.5706855 -0.50506,-4.1682715 -0.37135,-5.8016035 0.14499,-1.77102 0.22376,-1.667158 0.53279,0.731928 0.18932,1.469597 0.84304,3.539102 1.56074,4.9458935 0.55105,1.080206 0.72616,0.883745 0.57046,-0.640437 -0.19075,-1.8673065 -0.0986,-5.8928905 0.17222,-7.5345485 l 0.22605,-1.377746 0.12377,2.152728 c 0.20708,3.500055 0.71278,5.65793 2.0451,8.7400765 0.76215,1.763151 1.12499,2.078777 0.888,0.774982 -0.22341,-1.228843 -0.17084,-5.3041265 0.0861,-6.6734575 0.3726,-1.98601 0.38575,-2.002616 0.72654,-0.758837 0.44322,1.617675 1.52385,4.024246 2.59404,5.7854575 0.50623,0.833068 0.99781,1.647121 1.09253,1.80291 1.68658,2.773974 4.24072,8.064039 4.84899,10.047857 0.44505,1.451507 0.4757,1.752348 0.47897,4.736001 0.003,2.76716 -0.0498,3.378495 -0.38749,4.649893 -0.42622,1.605096 -2.15851,5.258329 -2.93308,6.18371 l -0.48974,0.581237 -0.0162,-0.527418 c -0.0178,-0.62713 -0.37645,-1.377138 -0.88261,-1.835201 -0.548,-0.49593 -0.78551,-0.154624 -0.51666,0.742691 0.16118,0.538217 0.16454,0.815214 0.0162,1.140946 -0.11539,0.253268 -0.12961,0.430546 -0.0323,0.430546 0.25486,0 0.40063,-0.805365 0.27985,-1.560728 -0.0599,-0.374409 -0.072,-0.678109 -0.0269,-0.678109 0.28852,0 0.95259,1.371325 0.95259,1.964364 -3e-5,0.582023 -0.11264,0.787046 -0.79651,1.442327 -1.05928,1.014958 -1.96577,1.407885 -3.25062,1.410037 -1.23529,0.0021 -2.44578,-0.302164 -3.61659,-0.904145 -1.58678,-0.815824 -1.59634,-0.831825 -0.80729,-1.512292 0.37871,-0.32656 0.99203,-0.79194 1.36161,-1.038691 0.75585,-0.504639 1.77457,-1.926524 1.77063,-2.470255 -0.005,-0.662556 -0.27331,-0.85298 -1.16248,-0.839564 -1.10683,0.01669 -1.80285,0.398892 -2.45411,1.345455 -0.2929,0.425694 -0.80992,1.045802 -1.15172,1.377746 -0.34179,0.331942 -0.53925,0.602763 -0.43592,0.602763 0.16617,0 0.58816,-0.452498 2.29265,-2.459491 0.39023,-0.459478 0.58456,-0.541428 1.50691,-0.608146 l 1.06023,-0.07534 v 0.597382 c 0,0.382603 -0.17279,0.840108 -0.48438,1.270109 -0.49325,0.680722 -1.59083,1.619928 -1.8944,1.619928 -0.0912,0 -0.40902,0.276408 -0.70501,0.613527 l -0.53818,0.613528 -0.91491,-0.780364 c -1.79269,-1.53154 -3.75016,-4.104468 -4.77369,-6.26982 -0.48646,-1.029212 -1.09529,-3.178165 -1.54457,-5.457165 -0.22337,-1.133105 -0.60755,-1.989675 -0.42516,-0.9472 0.058,0.33152 0.22012,1.261498 0.36058,2.066618 0.55127,3.159747 1.23165,4.963543 2.69091,7.114766 0.64056,0.944312 0.67458,1.053548 0.58662,1.98051 -0.0512,0.53959 -0.17917,2.490706 -0.28524,4.337746 -0.24508,4.268317 -0.1299,5.086977 0.96873,6.867202 l 0.79651,1.291637 -0.29599,1.087128 c -0.33032,1.220167 -0.3649,3.520287 -0.0861,5.909238 0.24277,2.080611 0.23087,3.223189 -0.0323,2.96 -0.38727,-0.387272 -0.5428,-0.206455 -0.16683,0.193746 0.30026,0.319611 0.37136,0.607896 0.37136,1.453087 0,1.19071 -0.1684,1.76679 -0.67813,2.27651 -0.58055,0.58058 -0.81148,0.44221 -0.92568,-0.55432 -0.057,-0.49728 -0.15301,-1.19096 -0.21527,-1.5392 -0.0956,-0.53515 -0.0463,-0.701779 0.3283,-1.076368 0.29293,-0.292936 0.36206,-0.441309 0.19914,-0.441309 -0.13564,0 -0.37752,0.193558 -0.53281,0.430545 -0.27486,0.419497 -0.25757,1.696172 0.0377,3.212942 0.17208,0.8842 1.01102,0.75448 1.62529,-0.25294 l 0.33369,-0.54895 -0.0162,0.51666 c -0.0289,0.90344 -0.22296,1.25419 -0.99026,1.80829 -0.41171,0.29731 -1.26419,1.06096 -1.8944,1.69527 -1.53683,1.54679 -5.404178,6.18708 -5.333396,6.39899 0.03105,0.09291 0.596323,-0.50326 1.259363,-1.32931 1.463293,-1.82308 5.175353,-5.65474 6.054543,-6.2483 0.35076,-0.2368 0.7316,-0.41269 0.84494,-0.38749 0.11335,0.02521 0.24529,-0.09104 0.29063,-0.25832 0.18612,-0.68708 3.86735,-2.18789 6.1837,-2.52408 0.70324,-0.10206 0.79715,-0.08342 0.77499,0.18837 -0.0196,0.23976 0.12413,0.32391 0.63506,0.36596 0.54488,0.04484 0.67153,-0.0087 0.74806,-0.30138 0.1085,-0.41482 0.52956,-0.36995 1.79216,0.18836 0.75558,0.33412 0.79093,0.3813 0.81804,1.09789 0.0387,1.02406 0.2757,1.57383 0.74806,1.73295 0.45964,0.15482 1.00564,0.10155 1.28088,-0.12378 0.30747,-0.25175 1.18625,1.94826 1.59302,3.98254 0.19867,0.99364 0.44289,2.50578 0.53818,3.35826 0.22865,2.04691 0.22162,7.02082 -0.0108,8.57862 -0.51049,3.42209 -2.3365,6.84201 -5.72625,10.73673 -4.2308,4.86114 -4.89155,5.75241 -6.39361,8.584002 -0.45219,0.85248 -0.98581,1.72663 -1.184,1.94284 l -0.36057,0.39287 -0.19914,-0.39287 c -0.11016,-0.21621 -0.25457,-0.70287 -0.31751,-1.08175 -0.51104,-3.076322 -1.3478,-3.763072 -2.5187,-2.06123 -0.46635,0.67781 -1.63352,3.03486 -2.31955,4.6768 -0.14215,0.34017 -0.34528,0.56818 -0.46823,0.52742 -0.56105,-0.18601 -0.83576,-3.94696 -0.46284,-6.350552 0.32457,-2.09184 -0.0507,-2.1499 -1.549963,-0.24218 -0.485604,0.61791 -0.969503,1.124802 -1.076364,1.124802 -0.501724,0 0.585507,-5.432392 1.776007,-8.869242 0.29528,-0.85248 1.11098,-2.70334 1.80829,-4.11171 0.69729,-1.40838 1.26473,-2.73529 1.26473,-2.94924 0,-0.76675 -0.35847,-0.85233 -3.944883,-0.96873 -3.706669,-0.1203 -4.395679,-0.26594 -7.012501,-1.45847 C 89.04956,80.27803 86.7578,78.04691 85.689221,75.20318 85.468695,74.61624 85.081962,72.94724 84.83352,71.4951 84.585095,70.04296 84.265389,68.63263 84.12312,68.3575 83.774378,67.68311 83.230599,67.58239 81.663619,67.91081 75.012724,68.94502 69.097635,69.14909 65.13606,69.1863 54.580756,69.30209 47.512953,68.50504 40.729516,65.18761 38.645641,64.21379 36.553207,62.9957 36.079624,62.78347 c -0.4736,-0.21222 -0.996713,-0.21079 -1.162473,-0.29753 -0.170427,-0.08918 -0.301382,-0.09145 -0.301382,-0.0054 2.526028,1.39665 7.630013,4.69061 11.076205,5.81873 6.901845,2.61428 18.338328,2.0341 27.32846,1.53284 2.371962,-0.15445 6.110734,-1.07499 8.847712,-1.59302 1.484538,-0.28099 1.528247,-0.28103 1.765237,0.04305 0.332467,0.45473 0.274831,2.45021 0.604284,4.6745 1.193657,6.41064 5.011697,8.91925 9.974059,10.7252 4.967705,0.99073 8.099814,-0.28305 8.758534,0.42285 0.15224,0.18343 -1.27494,2.07439 -2.33647,4.21705 -1.725169,3.48216 -2.288469,7.23214 -2.833161,10.83667 -0.377123,2.49564 0.350051,2.96723 1.786768,1.16248 0.469863,-0.59022 1.250723,-1.78309 1.283953,-1.74986 0.0332,0.03322 -0.2731,1.4609 -0.38058,2.34493 -0.26832,2.20692 0.33133,5.50287 0.88339,6.17603 1.07929,-0.18544 1.74371,-2.15563 2.1312,-3.03766 0.86586,-1.97693 1.71208,-3.91181 2.15043,-3.91181 0.36066,0 0.22615,0.65459 0.77191,2.97307 0.26007,1.10499 0.70569,1.825 1.19167,1.82597 0.15875,-0.10011 1.33435,-1.93041 2.79779,-4.18244 2.96751,-4.49813 6.04107,-7.06808 9.03453,-11.46635 2.43431,-3.81256 2.80337,-7.93822 2.82467,-10.76364 0.006,-7.33211 -1.10016,-11.495 -3.41898,-13.81052 -1.83553,-1.83295 -3.89699,-2.65023 -6.75956,-2.29342 -2.14449,0.47123 -4.0877,1.56306 -5.96843,2.66015 l 0.50743,-3.900278 c -0.0596,-2.246719 -0.40328,-5.11318 -0.4613,-6.142194 -0.084,-1.489161 0.2626,-3.017074 0.50128,-3.898743 0.37048,-1.368688 0.0852,-1.183 -0.60432,-2.053549 -0.95216,-1.202211 -1.15707,-1.756268 -1.17553,-4.402329 -0.009,-1.32608 -0.0125,-3.481013 0.0677,-4.862859 l -0.22373,-2.574816 0.888,0.941819 c 1.36945,1.448274 2.63386,2.996318 4.21013,3.734983 3.87682,1.81674 6.45374,1.28529 9.1214,-2.254983 2.40625,-3.193329 3.74499,-7.352985 3.74499,-11.549385 0.36557,-5.980728 -3.65245,-12.446816 -5.9469,-16.35535 -1.2842,-2.1479505 -3.11532,-4.3314105 -3.63812,-6.2590575 -0.62009,-2.286355 -1.16277,-2.125428 -1.66914,0.9472 -0.17281,1.852636 -0.3897,3.46008 -0.11223,5.5648035 -0.79491,-2.9716805 -1.1862,-5.6736105 -1.5569,-8.0619675 -0.26923,-1.201467 -0.39101,-4.526265 -0.77334,-3.874919 z" style="fill:#61fafa;fill-opacity:1;stroke:#000000;stroke-width:0.21602426;stroke-miterlimit:4;stroke-dasharray:none;stroke-opacity:1" inkscape:connector-curvature="0"/>
      <path id="path1024" d="m 12.749531,14.576977 c 0.126391,-0.0056 0.2332,-0.0015 0.322909,0.01076 0.1794,0.02451 0.286382,0.08472 0.317536,0.1776 0.04416,0.13175 -0.08237,0.211441 -0.3283,0.209891 -0.40845,-0.0027 -1.063189,-0.312898 -0.748064,-0.3552 0.163556,-0.02196 0.309528,-0.03741 0.435919,-0.04306 z" style="fill:#61fafa;fill-opacity:1;stroke:#000000;stroke-width:0.21602426;stroke-miterlimit:4;stroke-dasharray:none;stroke-opacity:1" inkscape:connector-curvature="0"/>
      <path id="path1022" d="m 17.011931,15.497268 c -0.294579,0 -0.487653,0.04516 -0.430545,0.102255 0.05709,0.0571 0.02952,0.294156 -0.05921,0.527418 -0.104157,0.273972 -0.09902,0.543619 0.01619,0.758837 0.203923,0.381036 0.669653,0.433094 1.06021,0.1184 0.703494,-0.566793 0.3366,-1.50691 -0.58661,-1.50691 z" style="fill:#61fafa;fill-opacity:1;stroke:#000000;stroke-width:0.21602426;stroke-miterlimit:4;stroke-dasharray:none;stroke-opacity:1" inkscape:connector-curvature="0"/>
      <path id="path1020" d="m 17.108804,15.852469 c 0.123739,-0.01858 0.269832,0.04382 0.414409,0.188363 0.136603,0.13664 0.149416,0.297828 0.03227,0.516655 -0.327835,0.612613 -0.896775,0.28349 -0.715774,-0.4144 0.04486,-0.172992 0.145352,-0.272036 0.269091,-0.290618 z" style="fill:#61fafa;fill-opacity:1;stroke:#000000;stroke-width:0.21602426;stroke-miterlimit:4;stroke-dasharray:none;stroke-opacity:1" inkscape:connector-curvature="0"/>
      <path id="path1018" d="m 20.413241,16.21305 c -1.101593,0.02266 -1.181348,0.544275 -0.182981,1.38851 0.483554,0.408889 0.904404,0.380253 1.146336,-0.08073 0.199911,-0.381037 0.198533,-0.385204 -0.150691,-0.07535 -0.411102,0.364689 -0.930719,0.194211 -1.259363,-0.419782 -0.247202,-0.46196 -0.06587,-0.630894 0.785763,-0.715782 l 0.688873,-0.06458 -0.79651,-0.03229 c -0.08254,-0.003 -0.157993,-0.0015 -0.231427,0 z" style="fill:#61fafa;fill-opacity:1;stroke:#000000;stroke-width:0.21602426;stroke-miterlimit:4;stroke-dasharray:none;stroke-opacity:1" inkscape:connector-curvature="0"/>
      <path id="path1016" d="m 21.41965,16.589778 c -0.0053,-8.61e-4 -0.01171,8.61e-4 -0.01619,0.0054 -0.0181,0.01811 -0.02816,0.07729 -0.03229,0.1776 -0.0074,0.181546 0.03425,0.283263 0.0915,0.226037 0.05721,-0.05723 0.06052,-0.203972 0.01068,-0.328291 -0.0206,-0.05152 -0.03803,-0.07818 -0.0538,-0.08073 z" style="fill:#61fafa;fill-opacity:1;stroke:#000000;stroke-width:0.21602426;stroke-miterlimit:4;stroke-dasharray:none;stroke-opacity:1" inkscape:connector-curvature="0"/>
      <path id="path1014" d="m 13.395349,16.961123 c 0.214119,-0.03251 0.989101,0.232407 1.722182,0.586619 0.733099,0.354211 1.67806,0.805991 2.1043,1.001018 l 0.774982,0.3552 -0.731927,0.296 c -1.283386,0.573711 -2.401194,1.285529 -3.347509,2.055855 -0.970897,0.79321 -1.180539,0.905033 -1.081737,0.581237 0.06737,-0.220734 0.218665,-0.514502 0.333673,-0.656582 0.358541,-0.442985 0.780372,-1.496933 0.780372,-1.942837 0,-0.821801 -0.5434,-1.010265 -2.841601,-0.974109 -2.2842333,0.03593 -4.2702194,0.03205 -4.9082191,-0.01076 -0.5650997,-0.03792 -0.5435552,-0.05469 0.3444365,-0.274473 0.5209257,-0.128941 1.3746459,-0.28075 1.8944005,-0.339054 0.5196857,-0.05831 0.9906852,-0.135899 1.0494462,-0.172219 0.058761,-0.03632 0.5666319,-0.112387 1.1248089,-0.166836 0.987052,-0.09629 1.98943,-0.218647 2.782392,-0.339055 z" style="fill:#61fafa;fill-opacity:1;stroke:#000000;stroke-width:0.21602426;stroke-miterlimit:4;stroke-dasharray:none;stroke-opacity:1" inkscape:connector-curvature="0"/>
      <path id="path1012" d="m 21.344288,18.96316 c -0.06072,-0.0031 -0.131575,0.0074 -0.193746,0.03229 -0.137361,0.05498 -0.09296,0.09399 0.107637,0.102255 0.181586,0.0075 0.283264,-0.02888 0.226053,-0.08611 -0.02864,-0.02861 -0.0792,-0.04533 -0.139944,-0.04844 z" style="fill:#61fafa;fill-opacity:1;stroke:#000000;stroke-width:0.21602426;stroke-miterlimit:4;stroke-dasharray:none;stroke-opacity:1" inkscape:connector-curvature="0"/>
      <path id="path1010" d="m 114.77808,29.995891 c -0.004,0.0044 -0.007,0.01335 -0.0107,0.02691 -0.0141,0.05426 -0.026,0.181905 -0.0269,0.371345 -0.002,0.378874 0.0322,0.552147 0.0753,0.387491 0.0431,-0.164656 0.0466,-0.474649 0.005,-0.688873 -0.0155,-0.08033 -0.0307,-0.10993 -0.0431,-0.09687 z" style="fill:#61fafa;fill-opacity:1;stroke:#000000;stroke-width:0.21602426;stroke-miterlimit:4;stroke-dasharray:none;stroke-opacity:1" inkscape:connector-curvature="0"/>
      <path id="path1008" d="m 109.17022,30.663236 c -0.0871,0.0206 -0.14759,0.120214 -0.13993,0.290619 0.008,0.181819 0.0443,0.216626 0.0969,0.08611 0.048,-0.118984 0.17322,-0.164841 0.27448,-0.102255 0.10879,0.06726 0.13184,0.03141 0.0592,-0.08611 -0.0929,-0.150252 -0.20356,-0.208964 -0.29061,-0.188364 z" style="fill:#61fafa;fill-opacity:1;stroke:#000000;stroke-width:0.21602426;stroke-miterlimit:4;stroke-dasharray:none;stroke-opacity:1" inkscape:connector-curvature="0"/>
      <path id="path1006" d="m 25.408347,30.826229 c -3.822377,0.444237 -8.400165,1.409418 -11.614743,4.447691 -1.491066,1.386182 -1.977563,2.000693 -3.287524,2.50562 -3.6975769,1.425237 -6.1417428,4.39364 -6.9371672,7.968937 -1.1026789,5.376724 0.2227299,10.348912 6.0399323,11.736981 1.7696119,0.450662 1.9544259,1.101921 3.4036249,2.643241 2.407759,3.537451 8.880789,3.567031 13.228512,2.305721 1.190993,-0.56879 2.291584,-1.074958 2.067253,-1.158518 -0.111339,-0.04147 -1.02495,-0.0087 -1.388382,0.176725 C 25.339251,62.25901 23.776939,62.59289 21.613396,62.58819 17.829713,62.5028 15.247815,61.86292 13.206977,59.025426 12.371839,57.986056 11.510679,57.498715 9.5150661,56.93728 7.0248074,56.236719 5.912381,55.545948 4.9458837,54.095679 4.6867469,53.706826 4.6983028,53.667109 5.1611634,53.277643 5.557112,52.94448 5.8445442,52.868624 6.7003655,52.868624 c 0.8325029,0 1.1234312,-0.07398 1.4046463,-0.3552 0.1953816,-0.195359 0.3261642,-0.442229 0.2906355,-0.548945 -0.1473843,-0.441998 -0.9914775,-0.87176 -1.7491,-0.888001 -0.6634707,-0.01423 -0.8701498,0.06832 -1.3454566,0.543564 -0.6617899,0.661682 -0.5734764,0.742696 0.139929,0.129164 0.5881253,-0.505793 1.670603,-0.582084 2.2711279,-0.161455 0.8454193,0.592155 0.094668,1.156993 -1.313164,0.990255 -0.7284659,-0.08628 -0.8995647,-0.0443 -1.167848,0.269091 -0.3633184,0.42426 -0.5812434,0.47158 -0.5812434,0.123782 0,-0.134186 -0.083147,-0.273479 -0.1829991,-0.306764 -0.4762006,-0.158742 -0.9110689,-3.580351 -0.6288721,-5.638609 0.3440404,-2.51 1.4532016,-4.646942 3.276736,-6.416667 0.7982143,-0.774594 2.6218851,-1.900364 3.675791,-2.271128 1.280994,-0.450657 1.842391,-0.82933 3.352883,-2.244219 3.442032,-3.102282 8.097656,-4.640124 12.292075,-4.76291 1.140619,-0.01957 2.012047,-0.267193 1.513061,-0.387491 -0.225485,-0.05434 -1.729391,-0.234813 -2.54022,-0.116862 z" style="fill:#61fafa;fill-opacity:1;stroke:#000000;stroke-width:0.21602426;stroke-miterlimit:4;stroke-dasharray:none;stroke-opacity:1" inkscape:connector-curvature="0"/>
      <path id="path1004" d="m 116.71554,31.610437 c -0.0364,0.0038 -0.0764,0.01452 -0.12377,0.02691 -0.18958,0.04957 -0.34446,0.11976 -0.34444,0.156072 0,0.135893 0.49931,0.0585 0.59198,-0.09149 0.0266,-0.04294 0.0127,-0.07414 -0.0323,-0.08611 -0.0225,-0.006 -0.0551,-0.0092 -0.0915,-0.0054 z" style="fill:#61fafa;fill-opacity:1;stroke:#000000;stroke-width:0.21602426;stroke-miterlimit:4;stroke-dasharray:none;stroke-opacity:1" inkscape:connector-curvature="0"/>
      <path id="path1002" d="m 112.56615,31.809564 c -0.0115,0.0097 -0.0242,0.112898 -0.0484,0.306764 -0.16418,1.315607 -0.16977,1.317829 -1.05484,1.221673 -0.62506,-0.06791 -0.69357,-0.05721 -0.29599,0.05382 1.16116,0.324297 1.4843,0.07043 1.43694,-1.135564 -0.011,-0.281804 -0.0194,-0.426631 -0.0323,-0.446691 -0.002,-0.0025 -0.004,-0.0014 -0.005,0 z" style="fill:#61fafa;fill-opacity:1;stroke:#000000;stroke-width:0.21602426;stroke-miterlimit:4;stroke-dasharray:none;stroke-opacity:1" inkscape:connector-curvature="0"/>
      <path id="path1000" d="m 109.42317,31.944109 c -0.007,0.0056 -0.0115,0.01829 -0.0162,0.03229 -0.0376,0.111978 0.0542,0.441346 0.20451,0.731928 0.15589,0.301473 0.40103,0.517292 0.57047,0.505891 0.27424,-0.01845 0.27469,-0.02587 0.005,-0.09687 -0.16032,-0.04228 -0.3849,-0.361107 -0.5005,-0.7104 -0.0867,-0.261972 -0.18024,-0.439095 -0.2368,-0.462837 -0.009,-0.004 -0.0197,-0.0056 -0.0269,0 z" style="fill:#61fafa;fill-opacity:1;stroke:#000000;stroke-width:0.21602426;stroke-miterlimit:4;stroke-dasharray:none;stroke-opacity:1" inkscape:connector-curvature="0"/>
      <path id="path998" d="m 107.06054,31.960246 c -0.0203,0.02055 -0.053,0.210256 -0.1184,0.586619 -0.0741,0.42624 -0.24114,1.110876 -0.36596,1.523055 -0.21706,0.716794 -0.20496,0.764278 0.19374,1.087127 0.68254,0.552674 1.8879,-0.03184 1.8998,-0.920291 0.002,-0.158014 0.0549,-0.421253 0.11838,-0.586618 0.0787,-0.204988 0.0513,-0.257117 -0.0861,-0.172219 -0.11081,0.06849 -0.20449,0.295758 -0.20449,0.505891 0,0.922944 -0.93446,1.505086 -1.57688,0.984873 -0.36168,-0.292862 -0.36419,-0.31405 -0.0861,-1.130182 0.15642,-0.459049 0.27629,-1.114765 0.26371,-1.453091 -0.0112,-0.298735 -0.0174,-0.445718 -0.0377,-0.425164 z" style="fill:#61fafa;fill-opacity:1;stroke:#000000;stroke-width:0.21602426;stroke-miterlimit:4;stroke-dasharray:none;stroke-opacity:1" inkscape:connector-curvature="0"/>
      <path id="path996" d="m 115.73067,32.03021 c -0.0122,-0.0053 -0.082,0.04613 -0.21527,0.150691 -0.16578,0.129999 -0.30138,0.30437 -0.30138,0.387491 -4e-5,0.08312 0.094,0.150691 0.20449,0.150691 0.11054,0 0.14847,-0.05069 0.0861,-0.113018 -0.0623,-0.06233 -0.0153,-0.236697 0.10226,-0.387491 0.0946,-0.121294 0.13597,-0.183093 0.12379,-0.188364 z" style="fill:#61fafa;fill-opacity:1;stroke:#000000;stroke-width:0.21602426;stroke-miterlimit:4;stroke-dasharray:none;stroke-opacity:1" inkscape:connector-curvature="0"/>
      <path id="path994" d="m 108.56208,32.08941 c -0.005,-8.61e-4 -0.0117,8.61e-4 -0.0162,0.0054 -0.0181,0.01811 -0.0282,0.07729 -0.0323,0.1776 -0.007,0.181546 0.0343,0.283263 0.0915,0.226037 0.0572,-0.05723 0.0605,-0.203972 0.0107,-0.328291 -0.0206,-0.05152 -0.038,-0.07818 -0.0538,-0.08073 z" style="fill:#61fafa;fill-opacity:1;stroke:#000000;stroke-width:0.21602426;stroke-miterlimit:4;stroke-dasharray:none;stroke-opacity:1" inkscape:connector-curvature="0"/>
      <path id="path992" d="m 116.19889,32.471519 c -0.0364,0.0038 -0.0764,0.01452 -0.12378,0.02691 -0.18958,0.04958 -0.34446,0.119761 -0.34444,0.156073 0,0.135892 0.49932,0.0585 0.59199,-0.09149 0.0266,-0.04294 0.0127,-0.07414 -0.0323,-0.08611 -0.0225,-0.006 -0.0551,-0.0092 -0.0915,-0.0054 z" style="fill:#61fafa;fill-opacity:1;stroke:#000000;stroke-width:0.21602426;stroke-miterlimit:4;stroke-dasharray:none;stroke-opacity:1" inkscape:connector-curvature="0"/>
      <path id="path990" d="m 113.21197,33.294938 c -0.005,-8.62e-4 -0.0117,8.61e-4 -0.0162,0.0054 -0.0181,0.01811 -0.0281,0.07729 -0.0323,0.1776 -0.007,0.181545 0.0343,0.283263 0.0915,0.226036 0.0572,-0.05723 0.0605,-0.203972 0.0107,-0.328291 -0.0206,-0.05152 -0.038,-0.07818 -0.0538,-0.08073 z" style="fill:#61fafa;fill-opacity:1;stroke:#000000;stroke-width:0.21602426;stroke-miterlimit:4;stroke-dasharray:none;stroke-opacity:1" inkscape:connector-curvature="0"/>
      <path id="path988" d="m 114.47131,33.321847 -0.10225,1.318545 c -0.15005,1.969648 -0.38157,2.057912 -0.78575,0.301382 l -0.25296,-1.103273 0.0969,1.03331 c 0.0544,0.56832 0.17524,1.168931 0.26371,1.334691 0.20038,0.375422 0.593,0.388924 0.73193,0.02691 0.0575,-0.149826 0.091,-0.866685 0.0753,-1.593019 z" style="fill:#61fafa;fill-opacity:1;stroke:#000000;stroke-width:0.21602426;stroke-miterlimit:4;stroke-dasharray:none;stroke-opacity:1" inkscape:connector-curvature="0"/>
      <path id="path986" d="m 117.78651,33.601701 c -0.0607,-0.0031 -0.13157,0.0074 -0.19374,0.03229 -0.13736,0.05498 -0.093,0.09399 0.10763,0.102255 0.18157,0.0075 0.28329,-0.02888 0.22606,-0.08611 -0.0286,-0.02861 -0.0792,-0.04534 -0.13995,-0.04844 z" style="fill:#61fafa;fill-opacity:1;stroke:#000000;stroke-width:0.21602426;stroke-miterlimit:4;stroke-dasharray:none;stroke-opacity:1" inkscape:connector-curvature="0"/>
      <path id="path984" d="m 116.9362,33.773919 c -0.0781,0 -0.1561,0.01378 -0.21527,0.03767 -0.11843,0.04778 -0.0215,0.08611 0.21527,0.08611 0.2368,0 0.33364,-0.03833 0.21528,-0.08611 -0.0592,-0.02389 -0.13724,-0.03767 -0.21528,-0.03767 z" style="fill:#61fafa;fill-opacity:1;stroke:#000000;stroke-width:0.21602426;stroke-miterlimit:4;stroke-dasharray:none;stroke-opacity:1" inkscape:connector-curvature="0"/>
      <path id="path982" d="m 116.30652,33.935374 c -0.41188,-0.02235 -0.74807,0.205131 -0.74807,0.511273 0,0.365817 0.19327,0.513283 0.93105,0.699636 1.03061,0.26031 3.02996,-0.106172 3.02996,-0.554327 -4e-5,-0.09815 -0.12026,-0.05197 -0.26911,0.09687 -0.37078,0.370824 -2.56875,0.422351 -3.21829,0.07534 -0.4114,-0.219767 -0.3783,-0.475305 0.0861,-0.661964 0.2131,-0.08566 0.29902,-0.160826 0.18835,-0.166836 z" style="fill:#61fafa;fill-opacity:1;stroke:#000000;stroke-width:0.21602426;stroke-miterlimit:4;stroke-dasharray:none;stroke-opacity:1" inkscape:connector-curvature="0"/>
      <path id="path980" d="m 18.820223,34.457411 c -0.01447,0.01452 0.0017,0.08179 0.04843,0.204509 0.06474,0.169845 0.162264,0.268297 0.215272,0.215273 0.05304,-0.05302 0,-0.195324 -0.118382,-0.312146 -0.08508,-0.08441 -0.1308,-0.12216 -0.145318,-0.107636 z" style="fill:#61fafa;fill-opacity:1;stroke:#000000;stroke-width:0.21602426;stroke-miterlimit:4;stroke-dasharray:none;stroke-opacity:1" inkscape:connector-curvature="0"/>
      <path id="path978" d="m 18.459632,34.586574 c -0.0019,-0.0026 -0.0074,10e-4 -0.01619,0.0054 -0.03506,0.01771 -0.124118,0.09534 -0.258328,0.220655 -0.268402,0.250631 -0.435936,0.541249 -0.371354,0.645818 0.181553,0.293684 0.892039,0.223042 1.146336,-0.113018 0.193935,-0.256393 0.189217,-0.269247 -0.01619,-0.08611 -0.304792,0.271748 -0.861091,0.277721 -0.861091,0.01076 0,-0.110942 0.133986,-0.362811 0.295991,-0.55971 0.06076,-0.07384 0.08649,-0.116045 0.08072,-0.123781 z" style="fill:#61fafa;fill-opacity:1;stroke:#000000;stroke-width:0.21602426;stroke-miterlimit:4;stroke-dasharray:none;stroke-opacity:1" inkscape:connector-curvature="0"/>
      <path id="path976" d="m 102.51291,36.427157 c -0.0271,-9e-6 -0.0574,10e-4 -0.0915,0.0054 -0.40946,0.05284 -1.26819,0.39782 -1.58225,0.688873 -0.64169,0.59469 -0.58205,1.291361 0.17222,1.9536 0.85859,0.753868 1.68358,0.742542 2.15272,-0.02691 0.54737,-0.897727 0.39974,-2.368001 -0.2368,-2.368001 -0.0905,0 -0.0242,0.15174 0.14532,0.339055 0.57931,0.640153 0.0201,2.418263 -0.75884,2.416437 -0.44813,-0.001 -1.38515,-0.657806 -1.59302,-1.114037 -0.288,-0.63208 0.18301,-1.247826 1.15171,-1.506909 0.42329,-0.113218 0.76961,-0.257907 0.76961,-0.322909 0,-0.04527 -0.0479,-0.06456 -0.12917,-0.06458 z" style="fill:#61fafa;fill-opacity:1;stroke:#000000;stroke-width:0.21602426;stroke-miterlimit:4;stroke-dasharray:none;stroke-opacity:1" inkscape:connector-curvature="0"/>
      <path id="path974" d="m 14.73004,37.137557 c -0.206954,0.02367 -0.548618,0.182942 -0.990254,0.4736 -0.50088,0.329657 -1.347625,0.75972 -1.883637,0.957964 -1.144959,0.423459 -1.497334,0.764308 -1.237819,1.184 0.0976,0.157821 0.906057,0.842371 1.797528,1.523055 0.891488,0.680686 1.716775,1.242555 1.835209,1.248582 0.479559,0.02445 0.168361,-0.472229 -0.9203,-1.463855 -1.133178,-1.032195 -1.145544,-1.053867 -0.909519,-1.533818 0.13576,-0.276102 0.638775,-0.712316 1.162473,-1.006401 l 0.920283,-0.516654 -0.06997,0.139927 c 0.177178,-0.257869 0.32978,-0.455944 0.462853,-0.559709 -0.0059,-0.02131 -0.0041,-0.05492 0.01619,-0.107637 0.09624,-0.250798 0.02397,-0.362726 -0.182982,-0.339054 z" style="fill:#61fafa;fill-opacity:1;stroke:#000000;stroke-width:0.21602426;stroke-miterlimit:4;stroke-dasharray:none;stroke-opacity:1" inkscape:connector-curvature="0"/>
      <path id="path972" d="m 14.896885,37.584248 c 0.0076,0.02729 0.03031,0.03373 0.06996,0.02691 l -0.608137,0.678109 0.06996,-0.139927 c -0.08332,0.121519 -0.171667,0.25376 -0.2637,0.398255 -0.531517,0.999473 -0.252765,1.86037 0.818037,2.513309 0.935282,0.570303 2.418425,0.29883 2.857737,-0.522036 0.319482,-0.596967 0.186736,-0.79905 -0.156082,-0.2368 -0.445236,0.730207 -1.5068,0.824064 -1.862966,0.708871 -0.807628,-0.261212 -1.097761,-0.5847 -1.363084,-1.111142 -0.353798,-1.493199 1.118628,-2.595949 2.660968,-2.127185 0.299487,0 0.718253,0.623837 0.877245,1.302401 0.146162,0.623831 0.162264,0.635265 0.177591,0.161454 0.02199,-0.682147 -0.554904,-1.598336 -1.146319,-1.824436 -0.243309,-0.09301 -0.601178,-0.130476 -0.968727,-0.113019 -0.367565,0.01746 -0.744912,0.08727 -1.011782,0.20451 -0.04541,0.0094 -0.0976,0.03931 -0.150691,0.08073 z" style="fill:#61fafa;fill-opacity:1;stroke:#000000;stroke-width:0.21602426;stroke-miterlimit:4;stroke-dasharray:none;stroke-opacity:1" inkscape:connector-curvature="0"/>
      <path id="path970" d="m 14.536295,37.47123 c 0.019,-0.004 0.03095,-0.0057 0.03768,0 0.009,0.0076 0.0053,0.02243 -0.01085,0.04844 -0.122843,0.198807 -0.785728,0.603561 -0.785728,0.478982 0,-0.0398 0.203579,-0.208546 0.452073,-0.371346 0.139738,-0.09157 0.249768,-0.143991 0.306755,-0.156072 z" style="fill:#61fafa;fill-opacity:1;stroke:#000000;stroke-width:0.21602426;stroke-miterlimit:4;stroke-dasharray:none;stroke-opacity:1" inkscape:connector-curvature="0"/>
      <path id="path968" d="m 13.400722,38.24083 c 0.0226,-0.0018 0.0124,0.009 -0.03227,0.03767 -1.36731,0.879523 -1.641585,1.558194 -0.936454,2.3088 0.498589,0.530701 0.173286,0.492908 -0.371337,-0.04305 -0.234803,-0.231076 -0.515484,-0.419782 -0.624291,-0.419782 -0.108791,0 -0.297921,-0.122256 -0.419782,-0.269091 -0.306239,-0.368986 -0.03034,-0.605475 1.469245,-1.259346 0.497263,-0.216833 0.847159,-0.349798 0.914892,-0.3552 z" style="fill:#61fafa;fill-opacity:1;stroke:#000000;stroke-width:0.21602426;stroke-miterlimit:4;stroke-dasharray:none;stroke-opacity:1" inkscape:connector-curvature="0"/>
      <path id="path966" d="m 114.20761,38.77363 c -0.2269,0.039 -0.71578,0.630553 -0.71578,0.920291 0,0.366935 -0.97478,1.291637 -1.36161,1.291637 -0.19879,0 -0.36058,0.07446 -0.36058,0.166836 -3e-5,0.109092 0.15412,0.109185 0.4413,0 0.90266,-0.343176 1.15167,-0.560155 1.48001,-1.3024 0.18496,-0.418141 0.37671,-0.758837 0.43055,-0.758837 0.0538,0 0.047,0.414569 -0.0162,0.920291 -0.0738,0.590905 -0.0373,1.083257 0.0969,1.377746 0.11482,0.252038 0.28023,0.457455 0.37134,0.457455 0.0911,0 0.0781,-0.109124 -0.0323,-0.242182 -0.12112,-0.145939 -0.18666,-0.724736 -0.16145,-1.458473 0.023,-0.668971 -0.017,-1.276705 -0.0915,-1.350837 -0.0195,-0.01938 -0.0483,-0.0271 -0.0807,-0.02153 z" style="fill:#61fafa;fill-opacity:1;stroke:#000000;stroke-width:0.21602426;stroke-miterlimit:4;stroke-dasharray:none;stroke-opacity:1" inkscape:connector-curvature="0"/>
      <path id="path964" d="m 12.932513,41.200831 c 0.0069,-0.0104 0.09916,0.03362 0.285245,0.123781 0.213085,0.103278 0.387491,0.225064 0.387491,0.269091 0,0.131785 -0.08997,0.09314 -0.441327,-0.188363 -0.16049,-0.128594 -0.238315,-0.194106 -0.231409,-0.204509 z" style="fill:#61fafa;fill-opacity:1;stroke:#000000;stroke-width:0.21602426;stroke-miterlimit:4;stroke-dasharray:none;stroke-opacity:1" inkscape:connector-curvature="0"/>
      <path id="path962" d="m 102.13079,41.561413 c -0.0613,-0.0038 -0.13109,0.0069 -0.21527,0.03229 -0.5723,0.172961 -1.29088,0.909018 -1.6845,1.722183 -0.290623,0.600313 -0.317433,0.801269 -0.15608,1.297018 0.10541,0.323905 0.38146,0.766371 0.61353,0.979492 0.23204,0.21312 0.51934,0.387491 0.63505,0.387491 0.69681,0 1.6576,-1.447195 1.6576,-2.497165 0,-0.28416 -0.15325,-0.849911 -0.33904,-1.259346 -0.2186,-0.48162 -0.32744,-0.650583 -0.51129,-0.661963 z" style="fill:#61fafa;fill-opacity:1;stroke:#000000;stroke-width:0.21602426;stroke-miterlimit:4;stroke-dasharray:none;stroke-opacity:1" inkscape:connector-curvature="0"/>
      <path id="path960" d="m 102.07698,41.921994 c 0.0178,-0.0023 0.0341,-1.72e-4 0.043,0.0054 0.25204,0.155773 0.55902,1.609038 0.44668,2.120437 -0.0799,0.519153 -0.38419,0.922206 -0.66734,1.307782 -0.69995,0.204977 -1.05601,-0.01775 -1.28625,-0.193746 0.0201,-0.07104 -0.0681,-0.316475 -0.19374,-0.543563 -0.3447,-0.622976 0.0155,-1.529409 0.87185,-2.211928 0.3375,-0.26899 0.66122,-0.468615 0.78575,-0.484364 z" style="fill:#61fafa;fill-opacity:1;stroke:#000000;stroke-width:0.21602426;stroke-miterlimit:4;stroke-dasharray:none;stroke-opacity:1" inkscape:connector-curvature="0"/>
      <path id="path958" d="m 97.475526,41.970431 c -0.03546,0.01486 0.05056,0.188438 0.2368,0.462836 0.60905,0.897514 0.601404,1.57 -0.02153,1.797528 -0.384116,0.14028 -0.404747,0.17196 -0.118417,0.182982 1.001242,0.03856 0.985742,-1.56974 -0.02153,-2.405673 -0.03992,-0.03316 -0.06355,-0.04263 -0.07533,-0.03767 z" style="fill:#61fafa;fill-opacity:1;stroke:#000000;stroke-width:0.21602426;stroke-miterlimit:4;stroke-dasharray:none;stroke-opacity:1" inkscape:connector-curvature="0"/>
      <path id="path956" d="m 8.912302,42.449413 0.1291637,0.430545 c 0.070678,0.2368 0.2066446,0.527419 0.3013814,0.645819 0.094686,0.1184 0.239728,0.215273 0.32291,0.215273 0.301244,0 0.140358,-0.469157 -0.301382,-0.877237 z" style="fill:#61fafa;fill-opacity:1;stroke:#000000;stroke-width:0.21602426;stroke-miterlimit:4;stroke-dasharray:none;stroke-opacity:1" inkscape:connector-curvature="0"/>
      <path id="path954" d="m 19.622105,43.073704 c -0.06072,-0.0031 -0.131574,0.0074 -0.193745,0.03229 -0.137379,0.05497 -0.09296,0.09399 0.107636,0.102254 0.181587,0.0075 0.283265,-0.02888 0.226054,-0.08611 -0.02864,-0.02861 -0.0792,-0.04533 -0.139945,-0.04844 z" style="fill:#61fafa;fill-opacity:1;stroke:#000000;stroke-width:0.21602426;stroke-miterlimit:4;stroke-dasharray:none;stroke-opacity:1" inkscape:connector-curvature="0"/>
      <path id="path952" d="m 18.276668,43.143668 c -0.0072,3.44e-4 -0.0155,0.0014 -0.02692,0.0054 -0.09128,0.03148 -0.307065,0.177925 -0.570473,0.403636 -0.459444,0.393689 -0.653275,1.002856 -0.527418,1.673746 0.06,0.319832 0.146385,0.581237 0.193745,0.581237 0.04736,0 0.03505,-0.27257 -0.02692,-0.602764 -0.129887,-0.692412 0.08208,-1.204574 0.737317,-1.786764 0.217064,-0.192873 0.27133,-0.277208 0.220664,-0.274473 z" style="fill:#61fafa;fill-opacity:1;stroke:#000000;stroke-width:0.21602426;stroke-miterlimit:4;stroke-dasharray:none;stroke-opacity:1" inkscape:connector-curvature="0"/>
      <path id="path950" d="m 95.667235,43.310504 0.328282,0.387491 c 0.18045,0.21312 0.410069,0.387491 0.505891,0.387491 0.09575,0 0.141719,-0.01837 0.102246,-0.04306 -0.03944,-0.02469 -0.269074,-0.19906 -0.505874,-0.387491 z" style="fill:#61fafa;fill-opacity:1;stroke:#000000;stroke-width:0.21602426;stroke-miterlimit:4;stroke-dasharray:none;stroke-opacity:1" inkscape:connector-curvature="0"/>
      <path id="path948" d="m 6.7487933,43.638795 c -0.055799,0.0029 -0.1030726,0.08141 -0.1775915,0.220655 C 6.2584019,44.443929 6.132872,45.950014 6.3720831,46.238214 6.6878108,46.61868 6.9798585,46.552123 7.2062566,46.055232 7.5003881,45.409705 7.4473621,44.582525 7.0770929,44.020904 6.9224754,43.786389 6.84217,43.66507 6.775711,43.644177 c -0.00827,-0.0026 -0.018944,-0.0058 -0.026918,-0.0054 z" style="fill:#61fafa;fill-opacity:1;stroke:#000000;stroke-width:0.21602426;stroke-miterlimit:4;stroke-dasharray:none;stroke-opacity:1" inkscape:connector-curvature="0"/>
      <path id="path946" d="m 6.8456833,43.945559 c 0.034426,0.01367 0.068836,0.119893 0.1237732,0.328291 0.06484,0.245829 0.089485,0.740745 0.059191,1.103273 -0.030224,0.362529 -0.1507082,0.693033 -0.2690738,0.731927 -0.2480286,0.08146 -0.2834884,-1.360777 -0.048445,-1.937455 0.06546,-0.160595 0.100076,-0.239717 0.1345546,-0.226036 z" style="fill:#61fafa;fill-opacity:1;stroke:#000000;stroke-width:0.21602426;stroke-miterlimit:4;stroke-dasharray:none;stroke-opacity:1" inkscape:connector-curvature="0"/>
      <path id="path944" d="m 18.330469,44.742068 c -0.0041,0.0028 -0.0069,0.0065 -0.01068,0.01614 -0.01567,0.03842 -0.03059,0.132393 -0.03231,0.274473 -0.0034,0.28416 0.03356,0.417978 0.08074,0.301382 0.04717,-0.116597 0.04908,-0.349092 0.0053,-0.516655 -0.01636,-0.06284 -0.03084,-0.08374 -0.04305,-0.07535 z" style="fill:#61fafa;fill-opacity:1;stroke:#000000;stroke-width:0.21602426;stroke-miterlimit:4;stroke-dasharray:none;stroke-opacity:1" inkscape:connector-curvature="0"/>
      <path id="path942" d="m 8.9392025,45.678505 c -0.5994228,0.01999 -0.8449371,0.330502 -0.8449371,0.995636 0,0.386327 -0.085368,1.05492 -0.1937455,1.485382 -0.1612651,0.640346 -0.1534292,0.812034 0.043055,0.936437 0.1320569,0.08363 0.5728323,0.149313 0.9848644,0.150691 0.6216042,0.0022 0.8518602,-0.09304 1.3293007,-0.570473 0.770762,-0.770749 0.908106,-1.387896 0.489754,-2.163491 -0.269263,-0.499159 -0.4648,-0.63651 -1.0871275,-0.758837 -0.282541,-0.05553 -0.521356,-0.08201 -0.7211636,-0.07534 z" style="fill:#61fafa;fill-opacity:1;stroke:#000000;stroke-width:0.21602426;stroke-miterlimit:4;stroke-dasharray:none;stroke-opacity:1" inkscape:connector-curvature="0"/>
      <path id="path940" d="m 17.42095,46.044468 c -0.01051,0.0033 -0.01464,0.02078 -0.01619,0.04844 -0.006,0.110653 0.03778,0.330452 0.09689,0.484364 0.05902,0.153911 0.139893,0.247584 0.177592,0.20989 0.03768,-0.03769 -0.006,-0.25211 -0.09687,-0.478981 -0.04538,-0.113437 -0.08652,-0.198503 -0.1184,-0.236801 -0.01584,-0.01915 -0.03262,-0.03016 -0.04305,-0.02691 z" style="fill:#61fafa;fill-opacity:1;stroke:#000000;stroke-width:0.21602426;stroke-miterlimit:4;stroke-dasharray:none;stroke-opacity:1" inkscape:connector-curvature="0"/>
      <path id="path938" d="m 8.7077757,46.049842 c 0.066304,-0.0052 0.1429927,-0.0033 0.2260536,0 0.4981928,0.01991 1.2270547,0.176241 1.2270547,0.306763 0,0.08784 0.0769,0.114782 0.166828,0.0592 0.08993,-0.05558 0.213637,0.165567 0.274464,0.489746 0.110358,0.588163 -0.08508,1.15606 -0.554319,1.625309 -0.2383669,0.238368 -1.6613545,0.43755 -1.840582,0.258328 -0.05511,-0.05512 -0.034444,-0.227201 0.048428,-0.382109 0.08294,-0.154911 0.1389457,-0.722616 0.1237905,-1.264728 -0.016705,-0.596385 0.049392,-1.015292 0.166845,-1.060219 0.0393,-0.01503 0.095151,-0.02715 0.1614372,-0.03229 z" style="fill:#61fafa;fill-opacity:1;stroke:#000000;stroke-width:0.21602426;stroke-miterlimit:4;stroke-dasharray:none;stroke-opacity:1" inkscape:connector-curvature="0"/>
      <path id="path936" d="m 13.637522,46.39966 c -0.02151,1.72e-4 -0.03227,0.01354 -0.03227,0.03767 0,0.09655 0.154996,0.318304 0.344436,0.489745 0.334052,0.302331 0.488136,1.119419 0.209883,1.119419 -0.266715,0 -0.554319,-0.420933 -0.554319,-0.812655 0,-0.217856 -0.07567,-0.392873 -0.172219,-0.392873 -0.301623,0 -0.02644,0.928799 0.371337,1.253964 0.323099,0.264129 0.409105,0.274387 0.613528,0.06996 0.317519,-0.317522 0.13991,-1.011774 -0.392882,-1.512292 -0.114353,-0.107448 -0.220594,-0.181636 -0.295991,-0.220654 -0.0377,-0.01951 -0.06997,-0.03248 -0.0915,-0.03229 z" style="fill:#61fafa;fill-opacity:1;stroke:#000000;stroke-width:0.21602426;stroke-miterlimit:4;stroke-dasharray:none;stroke-opacity:1" inkscape:connector-curvature="0"/>
      <path id="path934" d="m 98.501907,47.223846 c 0.310007,0.213875 0.503675,0.289122 0.259865,1.204751 -0.411463,1.27177 -0.627373,1.471498 -1.18939,1.103273 -0.323598,-0.212049 -0.437813,-0.437003 -0.435919,-0.844945 0.0033,-0.684637 0.113044,-0.859592 0.769609,-1.21091 0.467762,-0.250326 0.479972,-0.279002 0.129163,-0.285236 -1.188478,-0.02115 -1.519447,2.227171 -0.387491,2.63171 0.733822,0.262276 0.925243,0.04437 1.329301,-1.496146 0.09993,-0.726737 0.20247,-0.900834 -0.475138,-1.102497 z" style="fill:#61fafa;fill-opacity:1;stroke:#000000;stroke-width:0.21602426;stroke-miterlimit:4;stroke-dasharray:none;stroke-opacity:1" inkscape:connector-curvature="0"/>
      <path id="path932" d="m 102.37297,49.418861 c -0.19661,0.0014 -0.54313,0.200252 -0.76959,0.441309 -0.46604,0.49609 -0.3587,0.865124 0.36596,1.237818 0.94357,0.485274 1.87826,0.06486 1.87826,-0.844945 0,-0.370821 -0.13832,-0.571851 -0.55971,-0.8288 -0.47441,-0.07809 -0.62805,-0.07837 -0.91492,-0.0054 z" style="fill:#61fafa;fill-opacity:1;stroke:#000000;stroke-width:0.21602426;stroke-miterlimit:4;stroke-dasharray:none;stroke-opacity:1" inkscape:connector-curvature="0"/>
      <path id="path930" d="m 17.996813,49.499588 c -0.05358,0.0035 -0.115731,0.01398 -0.188372,0.02691 -0.592707,0.105456 -1.020083,0.476702 -0.855718,0.742691 0.166983,0.270093 0.237385,0.233137 0.209899,-0.113018 -0.01584,-0.199709 0.118263,-0.322324 0.403645,-0.360582 0.236801,-0.03175 0.500088,-0.126656 0.58661,-0.209891 0.04555,-0.04383 0.03425,-0.06971 -0.0269,-0.08073 -0.0306,-0.0055 -0.0756,-0.0089 -0.129164,-0.0054 z" style="fill:#61fafa;fill-opacity:1;stroke:#000000;stroke-width:0.21602426;stroke-miterlimit:4;stroke-dasharray:none;stroke-opacity:1" inkscape:connector-curvature="0"/>
      <path id="path928" d="m 102.50752,49.774061 c 0.16371,0.0021 0.30829,0.08326 0.37136,0.247563 0.0558,0.145337 0.20986,0.213904 0.36057,0.156073 0.31001,-0.118961 0.33235,0.0027 0.0861,0.462837 -0.18856,0.352338 -0.92903,0.455446 -1.11403,0.156073 -0.0595,-0.09627 -0.17675,-0.131177 -0.25833,-0.08073 -0.28314,0.174976 -0.32955,-0.205258 -0.07,-0.575854 0.14988,-0.21399 0.36197,-0.337865 0.55432,-0.360582 0.0241,-0.0028 0.0466,-0.0057 0.07,-0.0054 z" style="fill:#61fafa;fill-opacity:1;stroke:#000000;stroke-width:0.21602426;stroke-miterlimit:4;stroke-dasharray:none;stroke-opacity:1" inkscape:connector-curvature="0"/>
      <path id="path926" d="m 14.13804,50.064679 c -0.426447,-0.006 -0.948027,0.03924 -1.350828,0.134546 -0.541867,0.128183 -0.484312,0.563031 0.08611,0.6512 0.946236,0.146273 2.199485,-0.228592 2.061229,-0.61891 -0.03596,-0.10152 -0.370063,-0.160791 -0.796511,-0.166836 z" style="fill:#61fafa;fill-opacity:1;stroke:#000000;stroke-width:0.21602426;stroke-miterlimit:4;stroke-dasharray:none;stroke-opacity:1" inkscape:connector-curvature="0"/>
      <path id="path924" d="m 13.745159,50.285334 c 0.585111,0.0019 0.736026,0.05131 0.548963,0.172218 -0.346383,0.223835 -1.602233,0.223835 -1.463855,0 0.0585,-0.09472 0.470586,-0.173596 0.914892,-0.172218 z" style="fill:#61fafa;fill-opacity:1;stroke:#000000;stroke-width:0.21602426;stroke-miterlimit:4;stroke-dasharray:none;stroke-opacity:1" inkscape:connector-curvature="0"/>
      <path id="path922" d="m 15.381232,52.351952 c -0.39698,-0.0014 -0.770281,0.0775 -0.828783,0.172219 -0.13793,0.223105 0.946374,0.223105 1.291637,0 0.189474,-0.122463 0.06663,-0.170283 -0.462854,-0.172219 z" style="fill:#61fafa;fill-opacity:1;stroke:#000000;stroke-width:0.21602426;stroke-miterlimit:4;stroke-dasharray:none;stroke-opacity:1" inkscape:connector-curvature="0"/>
      <path id="path920" d="m 97.125699,52.351952 c -0.09181,0 -0.01188,0.154997 0.177609,0.344437 0.189423,0.18944 0.344436,0.447927 0.344436,0.575855 0,0.127927 0.426206,0.626113 0.947201,1.103273 0.802532,0.73508 0.947182,0.958365 0.947202,1.469236 0,0.352101 -0.14365,0.768977 -0.344439,1.006401 l -0.344436,0.409018 -0.818037,-0.893382 c -0.45023,-0.49002 -1.063878,-1.013134 -1.366999,-1.162473 -0.303104,-0.149339 -0.637741,-0.404711 -0.742674,-0.570473 -0.129508,-0.204606 -0.168309,-0.218428 -0.12379,-0.04306 0.03606,0.14208 0.506321,0.551724 1.044073,0.909528 0.537751,0.357802 0.974118,0.711785 0.974118,0.791127 -3.5e-5,0.07934 0.164261,0.353191 0.360573,0.602764 0.6892,0.87616 1.533831,0.315828 1.533831,-1.011782 0,-0.506048 -0.11754,-0.819096 -0.43594,-1.162473 -0.24064,-0.259512 -0.510713,-0.4736 -0.602764,-0.4736 -0.09207,0 -0.441722,-0.42624 -0.774982,-0.9472 -0.333259,-0.52096 -0.683172,-0.947201 -0.774982,-0.947201 z" style="fill:#61fafa;fill-opacity:1;stroke:#000000;stroke-width:0.21602426;stroke-miterlimit:4;stroke-dasharray:none;stroke-opacity:1" inkscape:connector-curvature="0"/>
      <path id="path918" d="m 96.646709,52.37348 c -0.0833,0.0108 -0.21641,0.09765 -0.339046,0.226036 -0.284195,0.29755 -0.27691,0.299465 0.107636,0.102255 0.221232,-0.113458 0.353719,-0.254418 0.295992,-0.312146 -0.01447,-0.01443 -0.0368,-0.01974 -0.06458,-0.01614 z" style="fill:#61fafa;fill-opacity:1;stroke:#000000;stroke-width:0.21602426;stroke-miterlimit:4;stroke-dasharray:none;stroke-opacity:1" inkscape:connector-curvature="0"/>
      <path id="path916" d="m 15.101377,52.734062 c -0.04819,5.16e-4 -0.09222,0.0055 -0.13991,0.01076 -0.381549,0.04216 -0.749993,0.232695 -1.119418,0.581237 -0.54142,0.510813 -0.644801,0.612957 -0.634295,1.25012 0.02156,1.308381 0.298883,1.847912 1.17785,2.102753 0.740177,0.214605 1.045778,0.218824 1.593019,0.01076 0.582837,-0.221595 0.869443,-0.60151 1.006408,-1.323928 0.170961,-0.90151 -0.185445,-1.906927 -0.818036,-2.292655 -0.373851,-0.227948 -0.728225,-0.342693 -1.065618,-0.339054 z" style="fill:#61fafa;fill-opacity:1;stroke:#000000;stroke-width:0.21602426;stroke-miterlimit:4;stroke-dasharray:none;stroke-opacity:1" inkscape:connector-curvature="0"/>
      <path id="path914" d="m 15.540398,53.284545 c 0.478494,0.245032 0.678886,0.390731 0.990254,0.915678 0.412384,1.760473 -0.52108,2.622124 -2.002036,2.238828 -0.935226,-0.212727 -1.079934,-1.582866 -1.003731,-1.73064 0.140485,-1.07873 1.241521,-1.756256 2.015513,-1.423866 z" style="fill:#61fafa;fill-opacity:1;stroke:#000000;stroke-width:0.21602426;stroke-miterlimit:4;stroke-dasharray:none;stroke-opacity:1" inkscape:connector-curvature="0"/>
      <path id="path912" d="m 95.817926,53.444462 c -0.0053,-8.61e-4 -0.01171,8.61e-4 -0.01619,0.0054 -0.0181,0.01811 -0.02816,0.07729 -0.03229,0.1776 -0.0074,0.181546 0.03425,0.283263 0.0915,0.226037 0.05719,-0.05723 0.0605,-0.203972 0.01068,-0.328291 -0.0206,-0.05152 -0.03803,-0.07818 -0.0538,-0.08073 z" style="fill:#61fafa;fill-opacity:1;stroke:#000000;stroke-width:0.21602426;stroke-miterlimit:4;stroke-dasharray:none;stroke-opacity:1" inkscape:connector-curvature="0"/>
      <path id="path910" d="m 103.08337,54.343226 c -0.31396,0.313962 -0.37435,1.968604 -0.0915,2.497164 0.236,0.440968 0.82478,0.420812 1.31853,-0.04306 0.56772,-0.533332 0.54878,-1.599819 -0.0377,-2.211927 l -0.43055,-0.452073 c -0.24531,-0.04644 -0.3785,-0.226944 -0.75884,0.209891 z" style="fill:#61fafa;fill-opacity:1;stroke:#000000;stroke-width:0.21602426;stroke-miterlimit:4;stroke-dasharray:none;stroke-opacity:1" inkscape:connector-curvature="0"/>
      <path id="path908" d="m 11.560157,54.359363 c -0.136069,-0.0081 -0.486516,0.102326 -0.839564,0.269091 -0.717891,0.339068 -1.0774999,0.918195 -0.8234269,1.329309 0.1553069,0.251296 0.8742319,0.230729 1.0925009,-0.03229 0.09875,-0.11893 0.237213,-0.448298 0.306772,-0.731927 0.06956,-0.283632 0.200376,-0.565091 0.290619,-0.624291 0.09024,-0.0592 0.09729,-0.149739 0.01619,-0.199128 -0.01016,-0.0062 -0.02363,-0.0096 -0.04305,-0.01076 z" style="fill:#61fafa;fill-opacity:1;stroke:#000000;stroke-width:0.21602426;stroke-miterlimit:4;stroke-dasharray:none;stroke-opacity:1" inkscape:connector-curvature="0"/>
      <path id="path906" d="m 103.58389,54.67689 c 0.42159,0 0.99201,0.945674 0.64581,1.070982 -0.16992,0.06151 -0.17874,0.139936 -0.0269,0.322909 0.15446,0.186075 0.13961,0.261948 -0.0753,0.344437 -0.15224,0.05841 -0.23541,0.173534 -0.183,0.258327 0.0524,0.08479 0.0724,0.145533 0.043,0.134546 -0.0292,-0.01099 -0.18949,-0.05357 -0.35518,-0.09687 -0.61208,-0.159963 -0.65658,-2.034328 -0.0484,-2.034328 z" style="fill:#61fafa;fill-opacity:1;stroke:#000000;stroke-width:0.21602426;stroke-miterlimit:4;stroke-dasharray:none;stroke-opacity:1" inkscape:connector-curvature="0"/>
      <path id="path904" d="m 10.892812,54.97289 c 0.03131,-3.44e-4 0.0585,0.0047 0.07533,0.02153 0.04472,0.0447 -0.02124,0.242645 -0.145301,0.441309 -0.247925,0.396996 -0.661955,0.488045 -0.661955,0.14531 0,-0.174845 0.379276,-0.495173 0.624291,-0.586619 0.04082,-0.01524 0.07631,-0.02113 0.107637,-0.02153 z" style="fill:#61fafa;fill-opacity:1;stroke:#000000;stroke-width:0.21602426;stroke-miterlimit:4;stroke-dasharray:none;stroke-opacity:1" inkscape:connector-curvature="0"/>
      <path id="path902" d="m 96.00089,58.863946 c -0.0041,0.0028 -0.0069,0.0065 -0.01068,0.01614 -0.01567,0.03842 -0.03059,0.132393 -0.03231,0.274473 -0.0034,0.28416 0.03357,0.417979 0.08074,0.301382 0.04717,-0.116597 0.0491,-0.349091 0.0053,-0.516655 -0.01636,-0.06284 -0.03084,-0.08373 -0.04305,-0.07534 z" style="fill:#61fafa;fill-opacity:1;stroke:#000000;stroke-width:0.21602426;stroke-miterlimit:4;stroke-dasharray:none;stroke-opacity:1" inkscape:connector-curvature="0"/>
      <path id="path900" d="m 17.033459,59.068455 c -0.603797,0 -0.60514,0.53028 0,1.070982 0.577447,0.51595 0.925604,0.551611 1.011782,0.107636 0.07238,-0.372914 -0.618643,-1.178618 -1.011782,-1.178618 z" style="fill:#61fafa;fill-opacity:1;stroke:#000000;stroke-width:0.21602426;stroke-miterlimit:4;stroke-dasharray:none;stroke-opacity:1" inkscape:connector-curvature="0"/>
      <path id="path898" d="m 98.07829,59.332164 c -0.02604,6.89e-4 -0.0544,0.0037 -0.08074,0.01076 -0.105311,0.02808 -0.218011,0.110362 -0.36059,0.252945 -0.313489,0.313527 -0.346056,0.48445 -0.242174,1.253964 0.06608,0.489467 0.192695,1.023623 0.279855,1.189383 0.402922,0.76639 1.523063,-0.17941 1.523063,-1.286256 0,-0.472656 -0.400114,-1.095866 -0.866481,-1.345455 -0.09782,-0.05235 -0.174853,-0.07749 -0.252937,-0.07534 z" style="fill:#61fafa;fill-opacity:1;stroke:#000000;stroke-width:0.21602426;stroke-miterlimit:4;stroke-dasharray:none;stroke-opacity:1" inkscape:connector-curvature="0"/>
      <path id="path896" d="m 17.022695,59.337537 c 0.327628,-0.03566 0.888009,0.481862 0.888009,0.850328 0,0.385646 -0.225761,0.314021 -0.753455,-0.2368 -0.395637,-0.412935 -0.42717,-0.509875 -0.199136,-0.597382 0.01951,-0.0075 0.04275,-0.01378 0.06458,-0.01614 z" style="fill:#61fafa;fill-opacity:1;stroke:#000000;stroke-width:0.21602426;stroke-miterlimit:4;stroke-dasharray:none;stroke-opacity:1" inkscape:connector-curvature="0"/>
      <path id="path894" d="m 98.035235,59.477464 c 0.12677,-0.0015 0.284161,0.09043 0.473601,0.279855 0.443203,0.44323 0.579755,1.025289 0.365963,1.587637 -0.217856,0.572884 -0.749218,0.886874 -1.027936,0.608144 -0.109238,-0.10923 -0.199119,-0.678125 -0.199119,-1.264726 0,-0.751421 0.109721,-1.150953 0.333656,-1.205528 0.01688,-0.0041 0.03572,-0.0051 0.05384,-0.0054 z" style="fill:#61fafa;fill-opacity:1;stroke:#000000;stroke-width:0.21602426;stroke-miterlimit:4;stroke-dasharray:none;stroke-opacity:1" inkscape:connector-curvature="0"/>
      <path id="path892" d="m 102.14695,59.816519 c -0.0529,0.0016 -0.1112,0.01168 -0.17222,0.02691 -0.91227,0.227604 -1.34068,0.939117 -0.75884,1.264728 0.34776,0.194617 1.1536,-0.154687 1.31316,-0.570473 0.14225,-0.370712 0.0329,-0.642629 -0.2368,-0.705018 -0.045,-0.0104 -0.0924,-0.01763 -0.1453,-0.01614 z" style="fill:#61fafa;fill-opacity:1;stroke:#000000;stroke-width:0.21602426;stroke-miterlimit:4;stroke-dasharray:none;stroke-opacity:1" inkscape:connector-curvature="0"/>
      <path id="path890" d="m 102.04469,60.171719 c 0.0158,-0.0037 0.0274,-0.0029 0.0377,0 0.0411,0.0114 0.0411,0.07559 0.0162,0.204509 -0.0645,0.332442 -0.40897,0.511726 -0.54895,0.285237 -0.0499,-0.08076 0.067,-0.246443 0.25833,-0.365964 0.11297,-0.07057 0.18911,-0.112624 0.2368,-0.123782 z" style="fill:#61fafa;fill-opacity:1;stroke:#000000;stroke-width:0.21602426;stroke-miterlimit:4;stroke-dasharray:none;stroke-opacity:1" inkscape:connector-curvature="0"/>
      <path id="path888" d="m 95.721036,60.650701 c -0.006,-1.08e-4 -0.01395,0.0016 -0.02153,0.0054 -0.03021,0.0156 -0.07249,0.06351 -0.118382,0.134546 -0.09186,0.14208 -0.166845,0.335825 -0.166845,0.430545 0,0.09472 0.075,0.05597 0.166845,-0.08611 0.09177,-0.14208 0.166827,-0.335825 0.166827,-0.430545 0,-0.03552 -0.009,-0.05349 -0.02692,-0.05382 z" style="fill:#61fafa;fill-opacity:1;stroke:#000000;stroke-width:0.21602426;stroke-miterlimit:4;stroke-dasharray:none;stroke-opacity:1" inkscape:connector-curvature="0"/>
      <path id="path886" d="m 28.281462,61.307283 c -0.132092,0 -0.592655,0.859507 -1.765237,3.309817 -0.623792,1.30354 -1.170796,1.37813 -3.279057,2.49332 -1.239851,0.6558 -3.972693,2.24894 -4.25625,2.59481 -0.180364,0.21989 -2.730018,2.58853 -3.222941,2.83929 -1.447391,0.7363 -2.87508,0.75856 -7.4053842,0.12917 -1.231412,-0.17107 -2.2970123,-0.2745 -2.3680007,-0.23142 -0.071075,0.04307 -0.1291637,0.21657 -0.1291637,0.38749 -5.16e-5,0.41912 1.5840805,1.11739 3.6004287,1.58764 0.8635199,0.20138 1.5661179,0.43104 1.5661179,0.51127 0,0.32891 -0.989755,0.75054 -3.0407364,1.29164 -3.4740981,0.91653 -6.2744698,1.9352 -6.404374,2.32494 -0.078101,0.23426 -0.044966,0.2265 2.4541097,-0.43054 1.8870555,-0.49613 5.5194998,-1.00292 6.1029917,-0.85033 0.815919,0.21337 0.21083,0.96772 -1.0063912,1.25396 -0.425069,0.09994 -1.3756103,0.22399 -2.1096733,0.27986 -1.5250097,0.11604 -1.8339192,0.47012 -0.6189179,0.7104 l 0.7211639,0.14531 -1.8836387,0.75345 C 2.1107927,81.66084 0,82.79419 0,83.22205 0,83.46749 0.66090473,83.26499 3.702692,82.07034 5.2181848,81.47512 7.5819162,81.00222 8.9553566,80.64493 19.02239,78.02603 21.383944,77.29331 25.648223,73.7093 c 2.064466,-1.73519 3.845051,-3.60854 5.253417,-5.85157 1.519809,-2.42055 2.218,-3.89211 3.029195,-4.51689 0.859282,-0.7145 0.721504,-0.82594 0.721504,-0.89698 -1.203278,0.70124 -2.903577,2.46657 -3.760686,3.80932 -1.419147,2.25879 -2.042646,3.11923 -2.195782,3.02458 -0.08907,-0.05503 -0.101971,-0.01049 -0.03231,0.10225 -1.327749,1.78484 -6.074669,6.221 -9.665748,7.59913 -0.112338,1.7e-4 -0.236266,-0.25187 -0.274464,-0.55971 -0.08739,-0.207 -0.15941,-0.23741 -0.26218,-0.25217 l 0.126866,0.3429 c -0.0311,0.71724 -0.225741,0.94362 -0.596613,0.63582 -0.360126,-0.29887 -0.311595,-0.60287 0.134554,-0.81804 0.268591,-0.12956 0.303465,-0.19105 0.113009,-0.19913 -0.15107,-0.0064 -0.399443,0.13029 -0.554336,0.30139 -0.25211,0.27861 -0.253195,0.34732 -0.02153,0.67811 0.252369,0.36025 0.22812,0.37766 -0.909519,0.7104 -2.438007,0.71308 -5.568142,1.573 -8.1965193,2.2496 -1.4992802,0.38596 -2.8704129,0.77781 -3.0460927,0.87185 -0.1757504,0.09404 -0.4242786,0.16588 -0.5489715,0.16146 -0.1246343,-0.0044 0.3939217,-0.25981 1.1517353,-0.57048 1.1134425,-0.45651 1.3766436,-0.63606 1.366965,-0.92567 -0.010161,-0.30798 0.1228432,-0.37144 0.9472002,-0.4736 0.5275906,-0.06538 1.2120551,-0.22587 1.5230641,-0.3552 0.3128859,-0.13012 1.9282409,-1.60519 3.6165819,-3.30444 3.237568,-2.9579 6.40797,-5.96302 10.193166,-7.97585 1.851364,-0.97083 2.875599,-1.50252 3.504333,-3.00152 -0.0063,-0.21231 1.159452,-3.184544 1.016396,-3.187577 z" style="fill:#61fafa;fill-opacity:1;stroke:#000000;stroke-width:0.21602426;stroke-miterlimit:4;stroke-dasharray:none;stroke-opacity:1" inkscape:connector-curvature="0"/>
      <path id="path884" d="m 95.05369,61.673247 c -0.06072,-0.0031 -0.131575,0.0074 -0.193745,0.03229 -0.137379,0.05497 -0.09295,0.09399 0.107636,0.102252 0.181587,0.0075 0.283282,-0.02888 0.226054,-0.08611 -0.02864,-0.02861 -0.0792,-0.04533 -0.139945,-0.04843 z" style="fill:#61fafa;fill-opacity:1;stroke:#000000;stroke-width:0.21602426;stroke-miterlimit:4;stroke-dasharray:none;stroke-opacity:1" inkscape:connector-curvature="0"/>
      <path id="path882" d="m 113.75016,63.3739 c 0.15322,0 0.23072,0.0775 0.17222,0.17222 -0.0586,0.09472 -0.13607,0.17222 -0.17222,0.17222 -0.0362,0 -0.11372,-0.0775 -0.17222,-0.17222 -0.0586,-0.09472 0.0189,-0.17222 0.17222,-0.17222 z" style="fill:#61fafa;fill-opacity:1;stroke:#000000;stroke-width:0.21602426;stroke-miterlimit:4;stroke-dasharray:none;stroke-opacity:1" inkscape:connector-curvature="0"/>
      <path id="path880" d="m 117.29139,64.52023 0.7696,0.75345 c 0.42296,0.41511 0.7696,0.80699 0.7696,0.87186 0,0.17855 -0.39566,0.28807 -0.68349,0.18836 -0.43981,-0.15234 -0.62961,-0.44409 -0.74269,-1.14094 z" style="fill:#61fafa;fill-opacity:1;stroke:#000000;stroke-width:0.21602426;stroke-miterlimit:4;stroke-dasharray:none;stroke-opacity:1" inkscape:connector-curvature="0"/>
      <path id="path878" d="m 108.68585,64.83238 c -0.40443,0.02169 -0.64344,0.30834 -0.64582,0.83418 -0.002,0.30086 -0.0651,0.91301 -0.13992,1.35622 -0.0748,0.4432 -0.0827,1.00506 -0.0215,1.24858 0.24686,0.98356 1.97813,0.05871 2.50254,-1.33469 0.2699,-0.71713 -0.12999,-1.53326 -0.93642,-1.91593 -0.2139,-0.10149 -0.4043,-0.16199 -0.57587,-0.18298 -0.0643,-0.0079 -0.1252,-0.0085 -0.18298,-0.0054 z" style="fill:#61fafa;fill-opacity:1;stroke:#000000;stroke-width:0.21602426;stroke-miterlimit:4;stroke-dasharray:none;stroke-opacity:1" inkscape:connector-curvature="0"/>
      <path id="path876" d="m 113.07742,64.92387 c -0.042,0.0034 -0.10445,0.01229 -0.18836,0.02691 -0.45956,0.08004 -0.52208,0.7265 -0.24758,2.5133 0.12767,0.83086 0.29842,1.42081 0.41441,1.42081 0.22869,0 0.89244,-0.69075 1.46386,-1.52306 0.51493,-0.75006 0.56145,-1.81365 0.0915,-2.16887 -0.40426,-0.30554 -1.05019,-0.34947 -1.21631,-0.08073 -0.079,0.12779 0.002,0.1572 0.24219,0.08073 0.96913,-0.30759 1.39563,0.81322 0.72654,1.91054 -0.40509,0.6644 -1.05973,1.43695 -1.22167,1.43695 -0.0653,0 -0.17174,-0.34874 -0.23141,-0.77498 -0.0597,-0.42624 -0.15396,-1.13591 -0.21527,-1.57688 -0.0928,-0.66717 -0.0567,-0.8439 0.21527,-1.04945 0.1592,-0.12036 0.23367,-0.18054 0.23141,-0.20451 -0.002,-0.01199 -0.0226,-0.01414 -0.0646,-0.01076 z" style="fill:#61fafa;fill-opacity:1;stroke:#000000;stroke-width:0.21602426;stroke-miterlimit:4;stroke-dasharray:none;stroke-opacity:1" inkscape:connector-curvature="0"/>
      <path id="path874" d="m 108.94418,65.25754 c 0.25259,-0.0034 0.55802,0.12574 0.78037,0.38211 0.45736,0.52738 0.40211,1.2033 -0.15069,1.81367 -0.57281,0.6324 -1.18917,0.98021 -1.32932,0.75346 -0.0884,-0.14309 -0.0403,-0.64782 0.16685,-1.81906 0.0335,-0.18944 0.0681,-0.51881 0.0753,-0.73193 0.009,-0.25948 0.20487,-0.39485 0.45746,-0.39825 z" style="fill:#61fafa;fill-opacity:1;stroke:#000000;stroke-width:0.21602426;stroke-miterlimit:4;stroke-dasharray:none;stroke-opacity:1" inkscape:connector-curvature="0"/>
      <path id="path872" d="m 100.36018,65.37056 c -0.0223,8.6e-4 -0.0453,0.0017 -0.07,0.0054 -0.13143,0.01994 -0.295163,0.08061 -0.500523,0.1776 -0.718817,0.33954 -1.485739,1.4458 -1.410015,2.03433 0.02404,0.18707 0.230635,0.43091 0.457446,0.54356 0.836979,0.41571 1.722962,-0.38632 1.851352,-1.67913 0.0765,-0.76998 0.006,-1.09344 -0.32829,-1.08174 z" style="fill:#61fafa;fill-opacity:1;stroke:#000000;stroke-width:0.21602426;stroke-miterlimit:4;stroke-dasharray:none;stroke-opacity:1" inkscape:connector-curvature="0"/>
      <path id="path870" d="m 100.27945,65.61274 c 0.30403,0 0.33259,0.08185 0.24756,0.71578 -0.0529,0.39436 -0.24847,0.91747 -0.43054,1.16247 -0.409973,0.55168 -1.152508,0.67777 -1.388516,0.2368 -0.351015,-0.65587 0.734653,-2.11505 1.571496,-2.11505 z" style="fill:#61fafa;fill-opacity:1;stroke:#000000;stroke-width:0.21602426;stroke-miterlimit:4;stroke-dasharray:none;stroke-opacity:1" inkscape:connector-curvature="0"/>
      <path id="path868" d="m 105.3276,67.08198 c -0.0645,-0.01643 -0.23222,0.23769 -0.40363,0.62429 -0.3855,0.8694 -0.64716,1.0711 -1.6307,1.24858 -0.35188,0.06349 -0.67398,0.17659 -0.72117,0.25294 -0.13105,0.21207 1.62003,-0.1087 1.91054,-0.34981 0.35083,-0.29114 0.94996,-1.50689 0.86648,-1.75448 -0.005,-0.01391 -0.0124,-0.01918 -0.0215,-0.02152 z" style="fill:#61fafa;fill-opacity:1;stroke:#000000;stroke-width:0.21602426;stroke-miterlimit:4;stroke-dasharray:none;stroke-opacity:1" inkscape:connector-curvature="0"/>
      <path id="path866" d="m 117.94259,67.50714 c -0.32227,0 -0.57229,0.27439 -0.73731,0.81265 -0.087,0.28381 -0.002,0.50407 0.32291,0.8288 0.36677,0.36677 0.50041,0.40604 0.79651,0.24757 0.19541,-0.10459 0.39739,-0.29668 0.44668,-0.42517 0.147,-0.38308 -0.26415,-0.94828 -0.67809,-0.93643 l -0.38211,0.01076 0.3875,0.15607 c 0.44272,0.17798 0.5284,0.81014 0.12916,0.96335 -0.71161,0.27306 -1.05172,-0.92705 -0.39288,-1.38851 0.28709,-0.20109 0.31433,-0.26909 0.10763,-0.26909 z" style="fill:#61fafa;fill-opacity:1;stroke:#000000;stroke-width:0.21602426;stroke-miterlimit:4;stroke-dasharray:none;stroke-opacity:1" inkscape:connector-curvature="0"/>
      <path id="path864" d="m 110.56412,68.71267 c -0.0987,0 -0.0866,0.16521 0.0269,0.4144 0.29635,0.65042 0.0318,1.58276 -0.64045,2.25498 -0.45565,0.45569 -0.50251,0.55304 -0.20449,0.4144 0.54109,-0.25173 0.99504,-0.91447 1.10864,-1.61455 0.10963,-0.67534 -0.0474,-1.46923 -0.2906,-1.46923 z" style="fill:#61fafa;fill-opacity:1;stroke:#000000;stroke-width:0.21602426;stroke-miterlimit:4;stroke-dasharray:none;stroke-opacity:1" inkscape:connector-curvature="0"/>
      <path id="path862" d="m 116.33881,69.22394 c -0.56238,0.02516 -0.68254,0.88326 -0.25295,2.33033 0.22042,0.74247 0.43092,1.25822 0.46823,1.14633 0.0373,-0.11191 -0.0541,-0.56479 -0.20451,-1.0064 -0.15049,-0.44162 -0.27447,-1.1406 -0.27447,-1.54997 0,-0.90192 0.30941,-0.97684 1.02792,-0.25833 0.49058,0.49059 0.57492,0.80407 0.79112,2.91695 0.16757,1.6362 0.3107,1.28643 0.17222,-0.41978 -0.14048,-1.73166 -0.40964,-2.49384 -1.02253,-2.89542 -0.28153,-0.18445 -0.51757,-0.2721 -0.70503,-0.26371 z" style="fill:#61fafa;fill-opacity:1;stroke:#000000;stroke-width:0.21602426;stroke-miterlimit:4;stroke-dasharray:none;stroke-opacity:1" inkscape:connector-curvature="0"/>
      <path id="path860" d="m 110.34884,69.28852 c -0.007,-0.001 -0.0176,10e-4 -0.0269,0.0054 -0.0371,0.01737 -0.0922,0.07921 -0.15609,0.18299 -0.48739,0.79204 -1.00573,1.11012 -1.89977,1.17323 l -0.88799,0.06459 0.92028,0.03229 c 0.83795,0.02897 0.97438,-0.0218 1.50691,-0.55433 0.32205,-0.32205 0.58136,-0.69017 0.57585,-0.81804 -0.002,-0.05429 -0.0112,-0.08281 -0.0323,-0.08611 z" style="fill:#61fafa;fill-opacity:1;stroke:#000000;stroke-width:0.21602426;stroke-miterlimit:4;stroke-dasharray:none;stroke-opacity:1" inkscape:connector-curvature="0"/>
      <path id="path858" d="m 103.67,70.17652 c -0.0366,-0.0034 -0.0747,-5.1e-4 -0.10764,0.0054 -0.066,0.01162 -0.12271,0.04081 -0.15069,0.0861 -0.056,0.09059 0.0192,0.16684 0.16683,0.16684 0.29764,0 0.372,0.60896 0.0915,0.74807 -0.0971,0.04816 -0.0777,0.06694 0.043,0.04306 0.32587,-0.06444 0.37917,-0.90182 0.0646,-1.02255 -0.036,-0.01383 -0.0711,-0.02353 -0.10763,-0.02691 z" style="fill:#61fafa;fill-opacity:1;stroke:#000000;stroke-width:0.21602426;stroke-miterlimit:4;stroke-dasharray:none;stroke-opacity:1" inkscape:connector-curvature="0"/>
      <path id="path856" d="m 111.74273,70.26801 c -0.087,-0.0034 -0.12131,0.05841 -0.0377,0.19375 0.0685,0.11083 0.13325,0.47894 0.1453,0.81804 0.0121,0.33909 0.0394,0.94827 0.0592,1.35083 0.0198,0.40256 0.0803,0.73193 0.13995,0.73193 0.0595,0 0.0546,-0.54249 -0.0108,-1.20553 -0.12221,-1.2404 -0.04,-1.49561 0.25833,-0.81803 0.14752,0.33496 0.15444,0.31661 0.0646,-0.12917 -0.0571,-0.28363 -0.18112,-0.613 -0.27986,-0.73193 -0.11325,-0.13649 -0.25207,-0.20649 -0.33904,-0.20989 z" style="fill:#61fafa;fill-opacity:1;stroke:#000000;stroke-width:0.21602426;stroke-miterlimit:4;stroke-dasharray:none;stroke-opacity:1" inkscape:connector-curvature="0"/>
      <path id="path854" d="m 102.97573,70.28415 c -0.0607,-0.0031 -0.13157,0.0074 -0.19374,0.03229 -0.13738,0.05498 -0.0929,0.09399 0.10763,0.10226 0.18159,0.0075 0.28328,-0.02889 0.22606,-0.08611 -0.0286,-0.02861 -0.0792,-0.04534 -0.13995,-0.04844 z" style="fill:#61fafa;fill-opacity:1;stroke:#000000;stroke-width:0.21602426;stroke-miterlimit:4;stroke-dasharray:none;stroke-opacity:1" inkscape:connector-curvature="0"/>
      <path id="path852" d="m 105.70432,70.4456 c -0.17278,0.01065 -0.17401,0.03422 -0.005,0.10226 0.11839,0.04777 0.22577,0.29636 0.23681,0.54894 0.0134,0.30963 0.0478,0.35529 0.10224,0.14531 0.10753,-0.41501 -0.0605,-0.81333 -0.33367,-0.79651 z" style="fill:#61fafa;fill-opacity:1;stroke:#000000;stroke-width:0.21602426;stroke-miterlimit:4;stroke-dasharray:none;stroke-opacity:1" inkscape:connector-curvature="0"/>
      <path id="path850" d="m 102.30839,70.73084 c -0.0191,0.0038 -0.0417,0.01479 -0.0646,0.03767 -0.0851,0.08512 -0.10129,0.23608 -0.0377,0.33906 0.16194,0.26201 0.19375,0.23524 0.19375,-0.15607 0,-0.10113 -0.0159,-0.17155 -0.0431,-0.20451 -0.0136,-0.01649 -0.0293,-0.01993 -0.0484,-0.01614 z" style="fill:#61fafa;fill-opacity:1;stroke:#000000;stroke-width:0.21602426;stroke-miterlimit:4;stroke-dasharray:none;stroke-opacity:1" inkscape:connector-curvature="0"/>
      <path id="path848" d="m 107.05517,70.77928 c -0.042,0.0035 -0.10324,0.01186 -0.18837,0.02691 -0.40718,0.07194 -0.54432,0.57457 -0.25296,0.92567 0.30331,0.36544 0.37427,0.30793 0.12379,-0.10226 -0.18546,-0.30371 -0.17094,-0.39358 0.12379,-0.6189 0.17115,-0.1309 0.25807,-0.19516 0.25833,-0.22066 1.1e-4,-0.01274 -0.0226,-0.01422 -0.0646,-0.01076 z" style="fill:#61fafa;fill-opacity:1;stroke:#000000;stroke-width:0.21602426;stroke-miterlimit:4;stroke-dasharray:none;stroke-opacity:1" inkscape:connector-curvature="0"/>
      <path id="path846" d="m 114.35292,71.1883 c -0.52164,0.03777 -1.14522,0.53697 -0.84496,0.89876 0.30088,0.36252 0.96359,0.29004 1.26473,-0.13993 0.22795,-0.32541 0.23554,-0.41567 0.0323,-0.61891 -0.11303,-0.11299 -0.27822,-0.15252 -0.45208,-0.13992 z" style="fill:#61fafa;fill-opacity:1;stroke:#000000;stroke-width:0.21602426;stroke-miterlimit:4;stroke-dasharray:none;stroke-opacity:1" inkscape:connector-curvature="0"/>
      <path id="path844" d="m 114.51436,71.46815 c 0.12741,0 0.12507,0.10006 -0.0107,0.31753 -0.20211,0.32362 -0.61543,0.41831 -0.76423,0.1776 -0.0883,-0.14296 0.46284,-0.49513 0.77498,-0.49513 z" style="fill:#61fafa;fill-opacity:1;stroke:#000000;stroke-width:0.21602426;stroke-miterlimit:4;stroke-dasharray:none;stroke-opacity:1" inkscape:connector-curvature="0"/>
      <path id="path842" d="m 105.28993,71.69419 c -0.007,0.0018 -0.0105,0.0051 -0.0162,0.01076 -0.0451,0.04514 -0.0301,0.16807 0.0323,0.26909 0.16985,0.27477 0.26715,0.21736 0.15069,-0.08611 -0.0491,-0.12789 -0.12017,-0.2063 -0.16682,-0.19374 z" style="fill:#61fafa;fill-opacity:1;stroke:#000000;stroke-width:0.21602426;stroke-miterlimit:4;stroke-dasharray:none;stroke-opacity:1" inkscape:connector-curvature="0"/>
      <path id="path840" d="m 109.42317,72.23775 c -0.004,0.0039 -0.007,0.01178 -0.0109,0.02153 -0.0157,0.03902 -0.0269,0.12378 -0.0269,0.24218 0,0.2368 0.0383,0.33367 0.0861,0.21527 0.0478,-0.1184 0.0478,-0.31214 0,-0.43054 -0.0179,-0.0444 -0.0352,-0.06023 -0.0484,-0.04844 z" style="fill:#61fafa;fill-opacity:1;stroke:#000000;stroke-width:0.21602426;stroke-miterlimit:4;stroke-dasharray:none;stroke-opacity:1" inkscape:connector-curvature="0"/>
      <path id="path838" d="m 6.9264019,72.93739 c 1.7009117,0.23175 3.4642441,0.49999 5.0158561,0.57047 l 2.740875,0.15146 c -0.965405,1.01565 -2.175739,2.18051 -3.025344,3.00921 -0.556891,0.51406 -0.593746,0.42692 -0.958723,0.20297 -0.171323,-0.19359 -0.484932,-0.25188 -1.1463359,-0.20989 -0.500828,0.03179 -3.9790007,0.73911 -3.9348784,0.66811 0.044139,-0.07104 3.3341638,-0.86724 3.5150963,-0.86724 0.3665321,0 1.638725,-0.60475 2.1043,-1.00102 0.340906,-0.2902 0.397325,-0.81657 0.107636,-0.99564 C 11.133349,74.3351 8.6402041,73.7771 8.1611447,73.63933 7.6587841,73.48204 6.9933931,73.27851 6.6465473,73.03964 c -0.029088,-0.04707 0.024903,-0.07798 0.1345541,-0.09149 0.041091,-0.0051 0.089399,-0.01004 0.1453005,-0.01076 z" style="fill:#61fafa;fill-opacity:1;stroke:#000000;stroke-width:0.21602426;stroke-miterlimit:4;stroke-dasharray:none;stroke-opacity:1" inkscape:connector-curvature="0"/>
      <path id="path836" d="m 116.65635,73.09884 c -0.004,0.0039 -0.007,0.01178 -0.0109,0.02153 -0.0157,0.03902 -0.0269,0.12378 -0.0269,0.24218 0,0.2368 0.0383,0.33367 0.0861,0.21527 0.0478,-0.1184 0.0478,-0.31214 0,-0.43054 -0.0179,-0.0444 -0.0352,-0.06023 -0.0484,-0.04844 z" style="fill:#61fafa;fill-opacity:1;stroke:#000000;stroke-width:0.21602426;stroke-miterlimit:4;stroke-dasharray:none;stroke-opacity:1" inkscape:connector-curvature="0"/>
      <path id="path834" d="m 112.56076,73.62088 c -0.0547,0.01596 -0.14519,0.08897 -0.2368,0.18836 -0.12213,0.13253 -0.14668,0.24218 -0.0538,0.24218 0.17885,0 0.43582,-0.32812 0.33368,-0.42516 -0.008,-0.0079 -0.0248,-0.01071 -0.0431,-0.0054 z" style="fill:#61fafa;fill-opacity:1;stroke:#000000;stroke-width:0.21602426;stroke-miterlimit:4;stroke-dasharray:none;stroke-opacity:1" inkscape:connector-curvature="0"/>
      <path id="path832" d="m 16.796659,73.96531 c -0.09219,0 -0.141615,0.18012 -0.11301,0.39826 0.05225,0.39904 -0.235749,0.89338 -0.516654,0.89338 -0.208522,0 -0.19056,-0.64392 0.02153,-0.77498 0.0947,-0.05854 0.172218,-0.18989 0.172218,-0.29062 -3.4e-5,-0.27868 -0.48228,0.17387 -0.608154,0.57047 -0.05886,0.18544 -0.01188,0.44909 0.102246,0.58662 0.273345,0.32935 0.39252,0.31812 0.753454,-0.08073 0.325699,-0.35989 0.462389,-1.3024 0.188373,-1.3024 z" style="fill:#61fafa;fill-opacity:1;stroke:#000000;stroke-width:0.21602426;stroke-miterlimit:4;stroke-dasharray:none;stroke-opacity:1" inkscape:connector-curvature="0"/>
      <path id="path830" d="m 14.234913,76.86615 c -0.06326,0.0043 -0.141873,0.02027 -0.242173,0.04305 -0.730395,0.16589 -1.102231,0.68272 -0.866482,1.20015 0.10557,0.23169 0.288586,0.41978 0.409018,0.41978 0.302519,0 0.931064,-0.9237 0.931064,-1.36698 0,-0.15428 -0.01789,-0.23749 -0.08611,-0.27447 -0.03413,-0.01849 -0.08206,-0.02584 -0.145317,-0.02153 z" style="fill:#61fafa;fill-opacity:1;stroke:#000000;stroke-width:0.21602426;stroke-miterlimit:4;stroke-dasharray:none;stroke-opacity:1" inkscape:connector-curvature="0"/>
      <path id="path828" d="m 13.906631,77.22673 c 0.04236,-0.0048 0.07805,0.0072 0.09685,0.03767 0.0502,0.08118 -0.01533,0.28707 -0.13991,0.45746 -0.158182,0.21628 -0.258568,0.25199 -0.344436,0.11302 -0.06768,-0.10948 -0.0076,-0.31538 0.134536,-0.45746 0.07104,-0.07104 0.146524,-0.11985 0.2099,-0.13992 0.01584,-0.005 0.02891,-0.0092 0.04306,-0.01077 z" style="fill:#61fafa;fill-opacity:1;stroke:#000000;stroke-width:0.21602426;stroke-miterlimit:4;stroke-dasharray:none;stroke-opacity:1" inkscape:connector-curvature="0"/>
      <path id="path4039" d="m 4.5153381,81.12317 c 0.021975,6.9e-4 0.040575,0.0083 0.053818,0.02153 0.053026,0.05302 -0.040024,0.1506 -0.2098996,0.21527 -0.2454282,0.09346 -0.2656983,0.07321 -0.096856,-0.09687 0.058382,-0.05885 0.1216205,-0.10247 0.1775914,-0.12379 0.027985,-0.01066 0.05337,-0.01684 0.075346,-0.01613 z" style="fill:#61fafa;fill-opacity:1;stroke:#000000;stroke-width:0.21602426;stroke-miterlimit:4;stroke-dasharray:none;stroke-opacity:1" inkscape:connector-curvature="0"/>
    </g>
    <g id="brain" ontology="UBERON_0000955">
      <path d="m 27.415365,47.506391 c 0,0 0.120588,-1.049655 -0.281365,-1.480282 0,0 -2.974439,0 -3.979317,-0.538284 0,0 -0.321561,-0.242228 -0.683316,-0.242228 0,0 -0.643123,-0.107656 -0.884294,0.834341 0,0 0,-0.672855 -1.607804,-1.53411 0,0 -2.331318,-0.538285 -2.291123,1.184226 0,0 -0.200974,0.107656 -0.683316,0.05383 h -0.16078 c 0,0 -0.241171,-0.296056 -0.723512,-0.376798 0,0 -1.366635,-0.02692 -3.054831,0.619026 l -0.200975,0.08074 c 0,0 -0.924488,0.322971 -2.090146,0.296057 h -0.241171 l -0.361757,-0.02692 v 0 c 0,0 -0.2411697,0.1884 -0.08039,0.457542 1.004878,0.02691 0.924488,0.672855 0.924488,0.672855" id="path4915" inkscape:connector-curvature="0" style="fill:#61fafa;fill-opacity:1;stroke:#000000;stroke-width:0.02738047;stroke-miterlimit:4;stroke-dasharray:none;stroke-opacity:1"/>
      <path inkscape:connector-curvature="0" id="path4917" d="m 27.415365,47.426764 c 0,0 0.120588,1.049654 -0.281365,1.480282 0,0 -2.974439,0 -3.979317,0.538284 0,0 -0.321561,0.242227 -0.683316,0.242227 0,0 -0.643123,0.107657 -0.884294,-0.83434 0,0 0,0.672855 -1.607804,1.53411 0,0 -2.331318,0.538285 -2.291123,-1.184226 0,0 -0.200974,-0.107657 -0.683316,-0.05383 h -0.16078 c 0,0 -0.241171,0.296057 -0.723512,0.376799 0,0 -1.366635,0.02691 -3.054831,-0.619026 l -0.200975,-0.08074 c 0,0 -0.924488,-0.32297 -2.090146,-0.296056 h -0.241171 l -0.361757,0.02691 v 0 c 0,0 -0.2411697,-0.188399 -0.08039,-0.457541 1.004878,-0.02691 0.924488,-0.672855 0.924488,-0.672855" style="fill:#61fafa;fill-opacity:1;stroke:#000000;stroke-width:0.02738047;stroke-miterlimit:4;stroke-dasharray:none;stroke-opacity:1"/>
    </g>
    <path inkscape:label="UBERON_0000948" sodipodi:nodetypes="ccccccccccccccccccccccccccc" inkscape:connector-curvature="0" id="heart" d="M 35.64191,46.700933 C 35.263955,46.381623 35.136731,45.880953 35.114697,45.419883 35.252329,45.226413 35.753839,44.933173 35.629847,45.387283 35.635347,45.583943 35.786569,46.001053 35.832864,45.588213 36.137785,45.242183 36.21697,44.838753 36.054786,44.405683 36.151776,43.985693 36.547298,44.215163 36.521656,44.542453 36.555216,44.765233 36.754156,44.322703 36.982175,44.184243 37.746254,43.696983 38.63212,43.859843 39.453431,44.317603 39.978443,44.558323 40.033849,44.643013 40.675972,44.711383 41.596056,44.822293 42.042608,44.848563 42.667293,44.955963 43.47008,45.176643 44.357059,45.739243 44.388563,46.436633 44.355783,47.445593 43.703764,47.894063 43.076596,48.195433 42.017626,48.753583 40.826673,48.661893 39.852393,49.159463 39.278906,49.454693 38.22976,49.438953 37.579259,49.423113 37.143285,49.567643 37.351683,50.481043 36.805446,50.193363 36.513118,49.911883 37.052724,49.432573 36.992496,49.303843 36.604772,49.158373 36.345439,49.735573 36.2648,50.039293 36.381624,50.520903 35.520503,50.520353 35.78205,50.032293 36.07037,49.501833 35.158833,50.343553 35.110528,49.785793 35.075988,49.312693 35.79834,49.379773 36.023648,49.004693 36.36921,48.832653 35.842665,48.180473 35.971158,47.874503 35.978458,47.634463 35.938678,47.588963 35.672046,47.878503 35.288768,48.212923 35.051556,48.668363 34.886028,49.128773 34.346882,49.420003 34.436804,48.668243 34.598703,48.396753 34.805385,47.853563 35.20964,47.378703 35.724487,47.067083 35.646577,46.961643 35.641577,46.824133 35.641907,46.700113 Z" style="fill:#61fafa;fill-opacity:1;stroke:#000000;stroke-width:0.21602426;stroke-miterlimit:4;stroke-dasharray:none;stroke-opacity:1" label="UBERON_0000948" nodetypes="ccccccccccccccccccccccccccc" connector-curvature="0" ontology="UBERON_0000948"/>
    <g transform="matrix(0.17221823,0,0,0.17221823,0.74509085,-11.007657)" style="fill:#61fafa;fill-opacity:1;stroke:#000000;stroke-width:0.21602426;stroke-miterlimit:4;stroke-dasharray:none;stroke-opacity:1" inkscape:label="UBERON_0002113" id="kidney" label="UBERON_0002113" ontology="UBERON_0002113">
      <path d="M 380.50164,330.83378 C 369.12733,330.59513 344.82396,331.69114 356.29743,318.57581 375.0548,306.51218 417.06485,304.62186 417.06485,304.62186 447.17512,305.37947 491.25782,318.40249 491.25782,318.40249 500.8345,324.11678 488.48445,328.40249 488.48445,328.40249 438.26357,332.97719 404.77066,332.27557 380.50164,330.83378 Z" id="path5048" inkscape:connector-curvature="0" sodipodi:nodetypes="cccccc" style="fill:#61fafa;fill-opacity:1;stroke:#000000;stroke-width:0.21602426;stroke-miterlimit:4;stroke-dasharray:none;stroke-opacity:1"/>
      <path sodipodi:nodetypes="cccccc" inkscape:connector-curvature="0" id="path5050" d="M 382.90144,346.70125 C 371.52712,346.9399 347.22375,345.84389 358.69722,358.95922 377.45459,371.02285 419.46465,372.91317 419.46465,372.91317 449.57492,372.15556 493.65761,359.13254 493.65761,359.13254 503.23429,353.41825 490.88425,349.13254 490.88425,349.13254 440.66337,344.55784 407.17046,345.25946 382.90144,346.70125 Z" style="fill:#61fafa;fill-opacity:1;stroke:#000000;stroke-width:0.21602426;stroke-miterlimit:4;stroke-dasharray:none;stroke-opacity:1"/>
    </g>
    <g style="fill:#61fafa;fill-opacity:1;stroke:#000000;stroke-width:0.21602426;stroke-miterlimit:4;stroke-dasharray:none;stroke-opacity:1" inkscape:label="UBERON_0014892" transform="matrix(0.17221823,0,0,0.17221823,20.055392,1.9528633)" id="skeletal.muscle.organ" label="UBERON_0014892" ontology="UBERON_0014892">
      <path d="M 369.21076,177.39891 C 380.32244,176.89383 392.94934,162.7517 392.94934,162.7517 407.59655,130.93189 424.76915,111.73899 424.76915,111.73899 438.40621,99.617158 457.09403,91.030858 457.09403,91.030858 464.1651,94.061318 468.71079,99.617158 468.71079,99.617158 447.49758,111.73899 445.47728,126.89128 445.47728,126.89128 439.92144,159.21616 430.32499,181.43952 430.32499,181.43952 L 427.79961,186.99536 C 417.69808,198.61211 406.5864,200.63241 406.5864,200.63241 396.48488,199.62226 392.94934,192.55119 392.94934,192.55119 392.94934,186.99536 394.46457,179.41921 394.46457,179.41921 386.38335,190.02581 378.30213,187.50043 378.30213,187.50043 375.77675,187.50043 369.21076,177.39891 369.21076,177.39891 Z" id="path5064" inkscape:connector-curvature="0" sodipodi:nodetypes="ccccccccccccc" style="fill:#61fafa;fill-opacity:1;stroke:#000000;stroke-width:0.21602426;stroke-miterlimit:4;stroke-dasharray:none;stroke-opacity:1"/>
      <path d="M 470.22601,121.33544 C 467.70063,139.01311 456.58895,158.20601 456.58895,158.20601 448.00266,170.32784 425.27423,202.14764 425.27423,202.14764 425.27423,208.71364 428.80976,212.24917 428.80976,212.24917 437.92716,218.75009 451.38261,215.92112 453.05342,211.74409 462.64987,202.65272 472.24632,162.24662 472.24632,162.24662 477.29708,136.48773 474.26662,124.87097 474.26662,124.87097 474.26662,122.34559 470.22601,121.33544 470.22601,121.33544 Z" id="path5066" inkscape:connector-curvature="0" sodipodi:nodetypes="cccccccc" style="fill:#61fafa;fill-opacity:1;stroke:#000000;stroke-width:0.21602426;stroke-miterlimit:4;stroke-dasharray:none;stroke-opacity:1"/>
      <path d="M 469.21586,103.65777 C 457.09403,112.74914 452.54834,122.34559 452.54834,122.34559 448.00266,131.43697 438.91128,173.3583 438.91128,173.3583 L 438.91128,173.3583 442.44682,169.82276 C 454.56865,153.66032 463.66002,130.42681 463.66002,130.42681 469.72094,116.28468 472.24632,113.7593 472.24632,113.7593 472.24632,108.70853 469.21586,103.65777 469.21586,103.65777 Z" id="path5068" inkscape:connector-curvature="0" sodipodi:nodetypes="cccccccc" style="fill:#61fafa;fill-opacity:1;stroke:#000000;stroke-width:0.21602426;stroke-miterlimit:4;stroke-dasharray:none;stroke-opacity:1"/>
      <path d="M 450.02296,218.31008 C 460.62956,214.26947 464.67017,202.14764 464.67017,202.14764 478.81231,175.88368 479.82246,139.51819 479.82246,139.51819 482.85292,146.58925 491.43922,168.30753 491.43922,168.30753 489.92399,189.01566 469.72094,217.29993 469.72094,217.29993 463.15495,222.35069 453.05342,221.84562 453.05342,221.84562 450.52804,221.34054 450.02296,218.31008 450.02296,218.31008 Z" id="path5070" inkscape:connector-curvature="0" style="fill:#61fafa;fill-opacity:1;stroke:#000000;stroke-width:0.21602426;stroke-miterlimit:4;stroke-dasharray:none;stroke-opacity:1"/>
    </g>
    <path inkscape:label="UBERON_0002107" sodipodi:nodetypes="cccccccccccccccccccccccccc" inkscape:connector-curvature="0" id="liver" d="M 46.648054,33.091343 C 45.517391,32.568603 43.739749,34.356103 43.085203,35.247543 42.128386,37.074193 42.00055,37.980053 42.00055,37.980053 41.723771,39.303493 41.034086,39.971233 40.542032,40.640963 39.304066,42.534393 41.043733,45.051633 41.043733,45.051633 41.826582,47.922083 40.695799,49.487783 40.695799,49.487783 L 40.695799,49.487783 40.434849,49.922703 C 39.652,53.315053 41.826582,55.315663 41.826582,55.315663 43.3053,56.881363 43.131333,59.142933 43.131333,59.142933 43.479266,61.926403 46.958599,61.143553 46.958599,61.143553 48.872233,60.360703 49.0462,59.403883 49.0462,59.403883 49.75294,58.110003 50.524917,57.925163 50.524917,57.925163 50.94896,57.772943 50.204873,56.948153 50.204873,56.948153 49.828861,56.505093 48.306615,55.737613 48.306615,55.737613 47.905703,55.700213 47.74145,54.184883 47.74145,54.184883 47.507814,53.493363 46.585642,53.576003 46.585642,53.576003 47.88994,52.797523 47.045583,51.749353 47.045583,51.749353 46.349396,50.783553 45.536566,50.551423 45.147646,49.793823 44.67027,48.414923 45.432961,47.795943 46.001783,46.508603 45.218439,45.379003 44.916715,44.049953 45.224209,43.246723 45.444572,42.476273 46.685832,42.088283 47.151224,40.441513 47.32519,39.397713 47.122464,38.427063 47.122464,38.427063 47.001334,37.936263 47.370539,37.343833 47.39879,36.695503 47.224823,35.738683 46.467904,35.369643 46.467904,35.369643 45.911826,34.797733 47.058547,33.498633 46.648051,33.091343 Z" style="fill:#61fafa;fill-opacity:1;stroke:#000000;stroke-width:0.21602426;stroke-miterlimit:4;stroke-dasharray:none;stroke-opacity:1" label="UBERON_0002107" nodetypes="cccccccccccccccccccccccccc" connector-curvature="0" ontology="UBERON_0002107"/>
  </g>
</svg>
